<?xml version="1.0" encoding="UTF-8"?>
<svg id="Layer_1" data-name="Layer 1" xmlns="http://www.w3.org/2000/svg" width="500" height="190" viewBox="0 0 500 190">
  <path d="M180.9301954293,68h-34.9323991175c1.3724999653,1,2.0022036882,4.509,2.0022036882,9.5612v87.4388h15.6084958669c6.0622998469,0,9.3915041331-2.9238,9.3915041331-10.5742v-20.4244c3,.649,4.9710955041,.9986,7.8580954311,.9986h.1419045689v.1334c19,0,34.3916945587-15.1989,34.3916945587-33.9637,0-19.7035-15.1189996181-33.1697-34.4614991294-33.1697Zm0,42h-.0720999982c-5.4851998614,0-9.7434997539-4.0157-9.7434997539-9.428,0-5.5573,4.2582998924-9.572,9.7434997539-9.572h.1419045689v-.0069c6,.0714,9.7806951805,4.0181,9.7806951805,9.5754,0,5.4123-4.2209998934,9.4315-9.8504997512,9.4315Z" fill="#52237f"/>
  <path d="M137,68h-32.573602638c-19.342297362,0-34.426397362,13.224-34.426397362,32.9276,0,19.1974,15.3004,33.0724,34.426397362,33.0724h34.6426991249c-1.2990964868-2-2.0690964868-5.1957-2.0690964868-9.5254v-56.4746Zm-32.573602638,42h-.071397362c-5.5584,0-9.7442-4.0157-9.7442-9.428,0-5.5573,4.1858-9.572,9.7442-9.572h.071397362c5.6297998578,0,9.815499752,4.0147,9.815499752,9.572,0,5.4123-4.1856998943,9.428-9.815499752,9.428Z" fill="#52237f"/>
  <path d="M395.573390007,67h-.0721999982c-19.1258995168,0-34.282299134,14.6577-34.282299134,33.9276,0,19.0535,15.1563996171,34.0724,34.282299134,34.0724h.0721999982c19.2701995132,0,34.426609993-15.0913,34.426609993-34.0724,0-19.2699-15.1564104798-33.9276-34.426609993-33.9276Zm0,43h-.0721999982c-5.4851900088,0-9.7433997539-4.0157-9.7433997539-9.428,0-5.5573,4.2582097451-9.572,9.7433997539-9.572h.0721999982c5.6294998578,0,9.815499752,4.0147,9.815499752,9.572,0,5.4123-4.1859998943,9.428-9.815499752,9.428Z" fill="#52237f"/>
  <path d="M253.6085935933,67h-.0720999982c-19.0536995187,0-34.282299134,14.6577-34.282299134,33.9276,0,19.0535,15.2285996153,34.0724,34.282299134,34.0724h.0720999982c19.2702995132,0,34.3544991321-15.0913,34.3544991321-34.0724,0-19.2699-15.0841996189-33.9276-34.3544991321-33.9276Zm0,43h-.0720999982c-5.4851998614,0-9.6711997557-4.0157-9.6711997557-9.4281,0-5.5572,4.1859998943-9.5719,9.6711997557-9.5719h.4635064049v-.007c5,.0715,9.6198933404,4.0182,9.6198933404,9.5754,0,5.4124-4.3816998893,9.4316-10.0112997471,9.4316Z" fill="#52237f"/>
  <path d="M356,37h-27V123.8246c0,7.6502,3.710491595,10.1754,9.773,10.1754h18.1154909842c-1.3712999654-2-.8884909842-5.1957-.8884909842-9.5254V37Z" fill="#52237f"/>
  <path d="M321,37h-27V123.8246c0,7.6502,3.4898924848,10.1754,9.5524923316,10.1754h18.1155076684c-1.3712080914-2-.668-5.1957-.668-9.5254V37Z" fill="#52237f"/>
</svg>