<svg xmlns="http://www.w3.org/2000/svg" viewBox="0 0 300 75"><defs><style>.cls-1{fill:#fff;}.cls-2{fill:#229a38;}.cls-3{fill:#221815;}</style></defs><g id="Layer_2" data-name="Layer 2"><g id="Layer_2-2" data-name="Layer 2"><rect class="cls-1" width="300" height="75"/></g></g><g id="Layer_1" data-name="Layer 1"><path class="cls-2" d="M17.88,19.56h16.2c.38,3,.75,5.9,1.13,8.85a95.6,95.6,0,0,0-11.9,5.26c-.11-1.43-.23-2.86-.34-4.29-.4.95-.79,1.91-1.18,2.86l-9.67.29C14.05,28.25,15.88,23.85,17.88,19.56Z"/><path class="cls-2" d="M119.16,25.82c1.29-.93,2.62-2.18,4.34-2,4.92.12,9.87-.19,14.77.15,3.66,2.7,5.08,7.6,4.46,12a21.44,21.44,0,0,1-11.57,16c-5.11.19-10.24,0-15.36.09a12.19,12.19,0,0,1-4.9-8.91C110.32,36.41,114,29.88,119.16,25.82Zm16.55,4.59c-3.5,1.29-5.86,4.5-7.66,7.63-1.43,2.78-2.85,6.06-1.9,9.21.61,1.81,2.91,1.77,4.27.89,3.68-2.12,6.14-5.87,7.74-9.71.77-2.12,1.48-4.52.68-6.73a2.4,2.4,0,0,0-3.12-1.29Z"/><path class="cls-2" d="M190.33,24.25c1.09-.55,2.34-.31,3.52-.36,3.76.08,7.74-.36,11.25,1.26,1.15.5,2.19,1.76,1.68,3.08-.72,2-1.38,4.17-3.1,5.5a13,13,0,0,1-7,2.91c2,.1,5.4,1,4.79,3.69-1.1,3.2-2.94,6.1-4,9.32a2.79,2.79,0,0,0,.42,2.16c-3.75-.11-7.51,0-11.26-.07-1-4,2-7.41,3.2-11,0-1.72-2.77-2-3.28-.46-1.74,3.79-3.36,7.63-5.05,11.45H169.73c3.27-7.43,6.52-14.87,9.81-22.3C183.15,27.73,186.73,26,190.33,24.25Zm1.17,5.48a5,5,0,0,0-1.5,3.33,1.81,1.81,0,0,0,3.29,0c.39-1,1.39-2.29.36-3.16A1.94,1.94,0,0,0,191.5,29.73Z"/><path class="cls-2" d="M62.5,24.59c1.07-.56,2.32-.35,3.48-.41-2.92,6.72-6,13.38-8.83,20.08-1,1.91,2.44,3.13,3.21,1.31,2.42-5.22,4.67-10.51,7-15.78,3.54-1.73,7.11-3.44,10.64-5.17,1.1-.61,2.39-.41,3.59-.46C78.3,31.7,75,39.25,71.69,46.72c-1,2.38-3.59,3.5-5.88,4.27a40.3,40.3,0,0,1-15.07,1c-2.16-.31-4.52-.66-6.19-2.16a2.5,2.5,0,0,1-.31-3Q48,38.24,51.77,29.76Z"/><path class="cls-2" d="M81.28,28.3c2.81-1.34,5.54-2.88,8.43-4,9.18-.16,18.37,0,27.56-.07v1.51c-2.43,1.28-4.72,2.84-7.23,4-2.41.2-4.85,0-7.27.07C99.51,37.18,96.19,44.56,93,52c-3.94.09-7.88,0-11.82,0L91,29.77H81.24C81.24,29.39,81.27,28.66,81.28,28.3Z"/><path class="cls-2" d="M156.6,25.77c1.45-.63,2.82-1.69,4.48-1.58h10.63c1.43,0,3.1.31,3.94,1.59s-.43,2.74-.88,4H163.94a4.82,4.82,0,0,0-4.59,2.94c-1.91,4.37-3.91,8.7-5.76,13.08-.44,1,.8,1.94,1.74,1.74.95,0,1.34-1,1.68-1.69l3.52-8h10.7l-5,11.39a4,4,0,0,1-3.67,2.5c-2.72.06-5.44,0-8.16,0,.09-.32.28-.92.37-1.23a8.4,8.4,0,0,1-4.28,1.23c-2.8-.09-5.91.43-8.39-1.23a2.78,2.78,0,0,1-.85-3.66c2.6-5.77,5-11.65,7.72-17.37C151.41,28.06,154.08,27.06,156.6,25.77Z"/><path class="cls-2" d="M211.28,29.76C215.13,28,218.9,26,222.8,24.31c4.57-.23,9.16,0,13.74-.11-.8,1.86-1.61,3.7-2.38,5.56-3.72.06-7.43,0-11.14,0-.79,1.84-1.61,3.68-2.41,5.52h10c-.82,1.87-1.65,3.73-2.48,5.6h-9.95c-.81,1.84-1.62,3.67-2.42,5.52H227c-.82,1.86-1.64,3.74-2.48,5.59h-23C204.72,44.58,208,37.19,211.28,29.76Z"/><path class="cls-2" d="M237.73,29.75c3.86-1.78,7.64-3.8,11.55-5.46,4.56-.21,9.13,0,13.7-.09-.8,1.85-1.61,3.69-2.39,5.55-3.7.06-7.41,0-11.12,0-.8,1.85-1.62,3.69-2.42,5.53h10c-.83,1.87-1.65,3.74-2.48,5.6h-9.95l-2.43,5.51h11.2c-.81,1.87-1.64,3.73-2.47,5.6h-23Z"/><path class="cls-2" d="M274.29,24.75c1.67-.92,3.62-.45,5.43-.55.38,4.2.75,8.4,1.14,12.6,1.85-4.19,3.67-8.39,5.52-12.59h9.84q-6.15,13.92-12.29,27.85h-12c-.48-4.89-.92-9.79-1.42-14.68-2.2,4.89-4.31,9.82-6.52,14.7h-9.81c3.25-7.41,6.53-14.81,9.77-22.24C267.36,28.06,270.84,26.45,274.29,24.75Z"/><path class="cls-3" d="M24.89,36.06a86.82,86.82,0,0,1,29.35-9.13c-9,2.63-17.26,7.33-25.11,12.37a93,93,0,0,0-15.7,12.76c-3.27-.06-6.54,0-9.81,0,2.38-5.54,4.87-11,7.19-16.48,3.22.17,6.4-.32,9.61-.34a13.84,13.84,0,0,1-2.11,4.52C20.67,38.85,22.6,37.15,24.89,36.06Z"/><path class="cls-2" d="M24.29,46.5a107.92,107.92,0,0,1,12.17-8.25c.59,4.57,1.17,9.16,1.75,13.73H24.72C24.57,50.18,24.43,48.34,24.29,46.5Z"/></g></svg>