<svg xmlns="http://www.w3.org/2000/svg" viewBox="0 0 300 75"><defs><style>.cls-1{fill:#fff;}.cls-2{fill:#1d1d1b;}.cls-3{fill:none;stroke:#070c0c;stroke-width:0.81px;}.cls-4{fill:#ce0538;}</style></defs><title>avon_tyres</title><g id="Layer_2" data-name="Layer 2"><rect class="cls-1" width="300" height="75"/></g><g id="Layer_1" data-name="Layer 1"><path class="cls-2" d="M102.66,24.81,94.78,35.55h9.48ZM90.93,41.56l-3.44,4.67H67.27l26.4-29.79H120l5.37,29.73-19.33.08-.75-4.67Z"/><path class="cls-3" d="M102.66,24.81,94.78,35.55h9.48ZM90.93,41.56l-3.44,4.67H67.27l26.4-29.79H120l5.37,29.73-19.33.08-.75-4.67Z"/><path class="cls-2" d="M200.93,34.45c-3,3.79-7.1,5.45-9.27,3.8s-1.54-6.14,1.42-9.92,7.1-5.45,9.27-3.8S203.89,30.67,200.93,34.45ZM226,22.85c-2.41-7.06-20.59-9.71-33.35-6C181.76,20,169.44,30.74,171.77,38.78c2.43,8.38,20.2,10.8,32.9,6.91S228.82,31.12,226,22.81Z"/><path class="cls-3" d="M200.93,34.45c-3,3.79-7.1,5.45-9.27,3.8s-1.54-6.14,1.42-9.92,7.1-5.45,9.27-3.8S203.89,30.67,200.93,34.45ZM226,22.85c-2.41-7.06-20.59-9.71-33.35-6C181.76,20,169.44,30.74,171.77,38.78c2.43,8.38,20.2,10.8,32.9,6.91S228.82,31.12,226,22.81Z"/><polygon class="cls-2" points="159.12 16.42 180.11 16.48 151.18 46.22 131.41 46.23 126.28 16.53 145.47 16.53 146.72 32.89 159.12 16.42 159.12 16.42"/><polygon class="cls-3" points="159.12 16.42 180.11 16.48 151.18 46.22 131.41 46.23 126.28 16.53 145.47 16.53 146.72 32.89 159.12 16.42 159.12 16.42"/><polygon class="cls-2" points="294.61 16.48 274.24 16.48 265.82 27.2 260.99 16.48 241.89 16.48 220.18 46.22 241.69 46.22 249.75 34.81 254.12 46.22 273.13 46.22 294.61 16.48 294.61 16.48"/><polygon class="cls-3" points="294.61 16.48 274.24 16.48 265.82 27.2 260.99 16.48 241.89 16.48 220.18 46.22 241.69 46.22 249.75 34.81 254.12 46.22 273.13 46.22 294.61 16.48 294.61 16.48"/><path class="cls-4" d="M32.07,15.94l-5.45,6.15H79.14l5.45-6.15ZM19.31,30.32H71.84l5.45-6.12H24.73l-5.45,6.12ZM4.67,46.82l52.62-.11,5.33-6H10.05ZM12,38.52H64.52L70,32.41H17.41l-5.35,6Z"/><polygon class="cls-2" points="184.85 63.9 179.81 63.9 186.78 53.48 181.95 53.48 184.05 50.34 199 50.34 196.89 53.48 191.81 53.48 184.85 63.9 184.85 63.9"/><polygon class="cls-2" points="205.84 59.15 202.67 63.9 197.63 63.9 200.81 59.15 200.01 50.34 205.76 50.34 205.64 55.57 205.82 55.57 212.78 50.34 218.62 50.34 205.84 59.15 205.84 59.15"/><path class="cls-2" d="M224.23,57.16c2.18,0,2.48-.58,3.5-2.12.81-1.21.61-1.56-1.09-1.56h-3.9l-2.45,3.68Zm-4.36-6.82h9.71c4.36,0,6,.71,3.75,4.1-1.51,2.26-2.39,3.59-6.36,4.18l-.1.14c2,0,2.81.87,1.79,2.41l-1.83,2.73h-5L223.06,62c.73-1,.59-1.7-.93-1.7h-3.87l-2.41,3.59h-5l9.07-13.56Z"/><polygon class="cls-2" points="240.7 55.78 249.56 55.78 247.88 58.3 239.02 58.3 237.26 60.94 246.81 60.94 244.83 63.9 230.24 63.9 239.31 50.34 253.72 50.34 251.74 53.31 242.36 53.31 240.7 55.78 240.7 55.78"/><path class="cls-2" d="M261.94,55.65c5.39.3,6.44.8,4.36,3.9C264.79,61.8,263.45,64,255.15,64c-4.81,0-8-.08-5-4.52H255c-.95,1.4-.34,1.56,2.18,1.56s3.27-.11,4-1.25.51-1.15-1.79-1.26l-1.09-.05c-4.5-.24-7.23-.22-4.63-4.11s5.8-4.14,10.74-4.14c4.13,0,7.63,0,5.11,3.8l-.37.56h-4.83c.93-1.4.13-1.4-1.88-1.4-2.72,0-3.21.4-3.72,1.16-.72,1.09,0,1.09,1.27,1.18l2,.11Z"/></g></svg>