<svg viewBox="0 0 400 61" xmlns="http://www.w3.org/2000/svg" xml:space="preserve" style="fill-rule:evenodd;clip-rule:evenodd;stroke-linejoin:round;stroke-miterlimit:1.41421">
  <path d="M2475.62 34.766h2.56V24.674h3.78l7.23 10.092h3.01l-7.5-10.36c2.14-.536 5.56-2.114 5.56-6.341 0-5.15-3.54-6.49-9.28-6.49h-5.36v23.191Zm2.56-21.077h2.74c3.54 0 6.73.536 6.73 4.346 0 2.709-2.06 4.615-5.24 4.615h-4.23v-8.961Zm4.11-9.169c-9.86 0-17.75 8.365-17.75 18.814s7.89 18.815 17.75 18.815c9.82 0 17.71-8.366 17.71-18.815 0-10.449-7.92-18.814-17.62-18.814h-.09Zm0 2.084c8.63 0 15.57 7.472 15.57 16.701 0 9.228-6.94 16.7-15.57 16.7-8.7 0-15.6-7.472-15.6-16.7 0-9.229 6.93-16.701 15.51-16.701h.09Zm-828.67-4.108-27 96.662h-3.1c-6.19-24.65-31.11-29.383-59.45-29.383-64.81 0-95.62 23.191-110.68 81.242l-11.29 43.493c-13.09 50.4 14.26 69.989 71.42 69.989 33.79 0 60.23-6.55 76.66-35.158h1.75l-8.66 34.473h78.62l70.29-261.289h-78.56v-.029Zm-45.52 164.805c-11.19 43.136-22.72 49.298-54.66 49.298-32.42 0-38.88-2.917-26.82-49.298 9.79-37.719 13.81-49.656 52.51-49.656 40.97 0 38.59 12.682 28.97 49.656Zm339.23 96.424h-79.67l51.56-193.384h79.67l-51.56 193.384Zm56.95-213.866h-79.19l12.35-47.661h79.75l-12.91 47.661Zm210.79 136.316c-18.36 70.762-50.58 78.294-134.67 78.294-91.37 0-107.26-22.089-87.77-97.168 16.74-64.541 41.53-97.526 138.32-97.526 67.99 0 112.85 5.805 95.23 73.621h-77.4c3.09-10.152 3.33-16.314-1.02-20.303-4.37-4.019-13-5.448-29.23-5.448-27.48 0-37.12 6.162-48.43 49.656-11.61 44.595-6.52 49.298 22.77 49.298 35.13 0 38.7-6.877 44.83-30.454h77.37v.03ZM847.901 83.32c7.621-26.465-20.631-26.078-46.649-26.078-62.398 0-68.233 15.302-80.528 57.396l-11.491 42.422c-12.533 46.262 6.073 51.144 51.145 51.144 44.178 0 58.021-8.038 67.845-44.148h-60.284l12.95-48.376h148.402l-12.384 45.548c-23.816 87.999-55.908 103.985-171.98 103.985-102.259 0-150.486-13.932-127.563-98.448l18.249-67.458C658.952 13.064 721.379.173 816.702.173c84.04 0 143.728.358 119.138 83.147h-87.939Zm1483.779 24.144h2c19.05-30.098 44.5-37.719 80.97-37.719 52.22 0 70.94 19.946 60.28 60.909l-35.42 133.13h-76.93l31.14-118.602c4.35-18.487.45-27.537-24.8-27.537-34.65 0-44.83 16.671-50.87 39.891l-28.19 106.248h-76.42l70.64-261.288h76.42l-28.82 104.968ZM1079 69.775c-98.594 0-123.065 19.589-143.249 97.526-19.797 76.121-4.078 97.168 92.729 97.168 99.82 0 123.28-18.844 143.58-97.168 20.93-80.468 5.99-97.526-93.06-97.526Zm15.66 97.526c-10.72 41.32-16.4 49.298-52.45 49.298-37.36 0-39.77-8.008-29.09-49.298 10.75-41.351 17.42-49.656 54.78-49.656 36.02 0 37.45 8.335 26.76 49.656Zm240.93-97.526c-98.63 0-123.07 19.589-143.28 97.526-19.77 76.121-4.02 97.168 92.76 97.168 98.15 0 123.33-18.844 143.61-97.168 20.87-80.468 5.95-97.526-93.09-97.526Zm15.66 97.526c-10.72 41.32-16.44 49.298-52.4 49.298-37.39 0-39.83-8.008-29.11-49.298 10.71-41.351 17.38-49.656 54.77-49.656 36.03 0 37.45 8.335 26.74 49.656Z" style="fill:#1c4882;fill-rule:nonzero" transform="scale(.16 .16053)"/>
  <path d="M272.72 2.436H101.723L31.228 263.814h172.605c68.857 0 108.481-8.871 125.837-72.876 8.841-32.687 6.906-55.997-40.487-58.438l.744-2.799c44.387-5.537 58.438-27.12 67.399-60.164 15.45-57.009-20.035-67.101-84.606-67.101Zm-26.822 177.755c-5.746 21.196-18.874 26.406-47.007 26.406h-65.433l13.694-51.115h67.339c28.162 0 37.271 3.126 31.407 24.709ZM267.272 82.1c-5.626 20.839-14.14 25.036-44.476 25.036H160.25l12.801-47.304h72.966c24.084.685 25.512 6.609 21.255 22.268Zm198.922 28.34h132.594l-15.302 57.039H451.071l-25.543 96.305h-86.987L409.185 2.406h230.149l-15.421 56.89H480.036l-13.842 51.144Z" style="fill:#cf4037;fill-rule:nonzero" transform="scale(.16 .16053)"/>
  <path d="m1797.47 149.349-30.13 114.376-79.49.089 51.77-192.67h76.51l-8.42 31.288s20.24-31.198 70.4-31.198h22.98l-13.07 48.911h-52.24c-17.83.358-32.06 7.115-38.31 29.204Zm383.85 230.478 15.89-58.2H15.689L0 379.827h2181.32Zm48.28-3.007h-8.66l14.62-80.885h-24.77l1.6-8.99h58.18l-1.64 8.99h-24.74l-14.59 80.885m39.6 0h-8.07l11.37-62.933h8.07l-11.37 62.933Zm14.34-79.456h-8.06l1.84-10.449h8.07l-1.85 10.449m17.15 16.523-1.78 7.799.12.268c4.01-6.966 10.74-8.752 16.79-8.752 10.27 0 13.75 5.984 11.63 17.743l-.8 4.525H2319l.74-4.168c1.43-7.77-.35-10.42-7.08-10.42-9.97 0-14.26 5.597-16.08 16.731l-7.02 39.207h-8.07l11.34-62.933h7.86m75.02 43.88-.41 2.292c-3.04 16.642-14.06 17.505-25.99 17.505-20.87 0-22.57-8.157-18.25-32.122 4.7-26.137 10.71-32.24 29.89-32.24 17.29 0 21.97 4.674 17.77 27.924l-1.13 6.341h-38.52c-3.58 19.886-2.8 22.387 11.67 22.387 10.98 0 14.7-.804 16.31-9.676l.44-2.411h8.22Zm-5.12-17.981c2.8-17.862 1.19-18.933-11.07-18.933-14.53 0-15.84 4.406-19.09 18.933h30.16m64.24-9.467h-8.33l.45-2.411c1.13-6.341-2.95-6.341-11.44-6.341-10.09 0-14.94-.119-16.34 7.681-1.99 11.223.77 10.419 9.08 10.895 13.51.983 26.55-1.577 22.83 18.934-3.18 17.743-13.69 18.487-25.63 18.487-11.58 0-23.61-.714-21.05-14.766l1.02-5.835h8.36l-.86 4.883c-1.1 6.013 1.84 7.323 14.08 7.323 5.51 0 13.66 1.429 15.66-9.705 2.17-11.759-2.44-9.586-12.06-10.3-11.46-.953-23.43.476-20.21-17.386 3.27-18.219 12.2-18.576 26.67-18.576 9.35 0 20.81.476 18.22 14.736l-.45 2.381" style="fill:#1c4882;fill-rule:nonzero" transform="scale(.16 .16053)"/>
</svg>
