<svg xmlns="http://www.w3.org/2000/svg" viewBox="0 0 300 75"><defs><style>.cls-1{fill:#fff;}.cls-2{fill:#1d1d1b;}.cls-3{fill:#e42313;}</style></defs><title>bridgestone_tyres_logo</title><g id="Layer_2" data-name="Layer 2"><rect class="cls-1" width="300" height="75"/></g><g id="Layer_1" data-name="Layer 1"><path class="cls-2" d="M132.69,40.68,129.91,50.9q-1.23.14-2.46.15c-5.46,0-4.85-1.64-2.55-10.55,2.4-9.29,3.79-10.95,7.22-10.95s3.31,2.21,2.47,5h8.32c1.35-5.22.44-9.85-9.29-9.85-10.83,0-13.77,2.28-17.27,15.79-3.25,12.58-2.19,15.91,9.53,15.91a52,52,0,0,0,11.27-1l3.92-14.69Z"/><path class="cls-2" d="M152.54,50.76c-1.08,0-1.46-.33-1.26-1.21l1.89-7.4h11.14l1.26-4.85H154.42l1.27-4.93a2.94,2.94,0,0,1,3-2.38h8.92l1.26-4.86H156c-5.38,0-7,1-9.08,9.05L143,49c-1.18,5,.29,7.12,4.34,7.12h11.19a4.32,4.32,0,0,0,4.3-3l.92-2.36Z"/><path class="cls-2" d="M279.89,50.76c-1.08,0-1.46-.33-1.26-1.21l1.89-7.4h11.13l1.26-4.85H281.78L283,32.37a2.94,2.94,0,0,1,3-2.38H295l1.26-4.86h-13c-5.38,0-7,1-9.08,9.05L270.34,49c-1.18,5,.28,7.12,4.34,7.12h11.18a4.33,4.33,0,0,0,4.31-3l.92-2.36Z"/><path class="cls-2" d="M103.67,25.14H92.52l-7.76,30a.7.7,0,0,0,.42.89.73.73,0,0,0,.25,0h9.93c12.46,0,14.57-2.38,18-15.61C116.32,29,114.53,25.14,103.67,25.14ZM96.53,50.83H94.25L99.62,30h2.66c4.83,0,4.83,1.6,2.52,10.51S101.12,50.83,96.53,50.83Z"/><path class="cls-2" d="M259.57,25c-6.41,0-9.41.14-11.15.07l-7.77,30a.69.69,0,0,0,.41.89.75.75,0,0,0,.26,0h7.45L255.52,30c.69,0,1.73-.07,2.8-.07,3.62,0,4.12,1.29,3.09,5L256.2,55.16a.69.69,0,0,0,.41.89.75.75,0,0,0,.26,0h7.45l5.48-21.17C271.69,27.58,268.47,25,259.57,25Z"/><path class="cls-2" d="M195.08,25.14l-1.29,5.05H202c.08,0,.08.11,0,.17a7,7,0,0,0-2.51,3.89l-5.42,20.93a.68.68,0,0,0,.41.89.57.57,0,0,0,.26,0h8l6.74-25.92h4.13a4.29,4.29,0,0,0,4.48-3l.78-2.06Z"/><path class="cls-2" d="M79.14,56.09l7.77-30a.69.69,0,0,0-.41-.89.57.57,0,0,0-.26,0H78.37l-7.77,30a.69.69,0,0,0,.41.89.75.75,0,0,0,.26,0Z"/><path class="cls-2" d="M231.66,24.71c-9.37,0-13.41,1.68-17.11,15.9-3.19,12.39-.63,15.9,8.89,15.9,9.7,0,13.53-2,17.12-15.9C243.17,30.54,242.63,24.71,231.66,24.71Zm-6.88,26.61c-3.57,0-4.13-1.3-1.61-10.94,2.07-8,4.06-10.83,7.22-10.83,3.57,0,4,1.92,1.67,10.83s-4.51,10.93-7.28,10.93Z"/><path class="cls-3" d="M8.62,40.84l4.85-17a4.81,4.81,0,0,1,4.35-3.35H32.65a.26.26,0,0,1,.24.25.25.25,0,0,1-.11.21A165.64,165.64,0,0,0,9.05,41.06a.25.25,0,0,1-.35,0A.23.23,0,0,1,8.62,40.84Z"/><path class="cls-2" d="M20.33,51.06l4.79-16.74a.25.25,0,0,0-.4-.26A179.82,179.82,0,0,0,3.82,55.73a.24.24,0,0,0,0,.35.23.23,0,0,0,.18.08H24.76c8.76,0,13.55-2.71,15.29-9.19,1.42-5.28-1.35-8.88-5.76-9.81a.1.1,0,0,1,0-.2c3.73-.64,7.5-2.14,8.85-7.59,1.45-5.9-3.1-9.13-8.25-8.8L27,48.35a4,4,0,0,1-3.56,2.77Z"/><path class="cls-2" d="M65.46,43.68a6.11,6.11,0,0,0-1-2.15c-.07-.07-.08-.16,0-.19a9.49,9.49,0,0,0,6.87-7.15c1.3-5-1.87-9-9.89-9H49.53l-7.77,30a.69.69,0,0,0,.41.89.75.75,0,0,0,.26,0h7.45L56.63,30h3.09c2.87,0,3.93,1.77,3.31,4.12a6.2,6.2,0,0,1-6.19,4.93h-1l3.1,15a2.4,2.4,0,0,0,2.69,2.07h6.73Z"/><path class="cls-2" d="M166.79,45.6c-3.15,7.54,1,11,9.29,11,7.65,0,11.89-1.82,13.7-8.85a7.2,7.2,0,0,0-1.25-6.59c-2.85-3.1-8.35-3.69-10.31-5.49a3.21,3.21,0,0,1-.7-3.3,3.86,3.86,0,0,1,4.13-3.1c3.46,0,3.54,2.13,2.69,4.65h7.41c1.75-5.27-.53-9.4-9.28-9.4-7.35,0-11.35,2.89-12.74,8.41a8.3,8.3,0,0,0,.66,5.54c2.07,3.45,7.36,3.89,10.32,5.94,1.28.9,1.33,2.06,1,3.43-.66,2.58-2,3.8-4.54,3.8s-4-1.44-2.54-6Z"/></g></svg>