<svg xmlns="http://www.w3.org/2000/svg" viewBox="0 0 300 75"><defs><style>.cls-1{fill:#f7a600;}.cls-2{fill:#1d1d1b;}</style></defs><title>continetal_tyres_logo</title><g id="Layer_2" data-name="Layer 2"><rect class="cls-1" width="300" height="75"/></g><g id="Layer_1" data-name="Layer 1"><path class="cls-2" d="M288.07,53H250.71V51.76h37.36Zm-18.7-7.12,3.52-3.36L274.34,44l-3.78,3.21a8.29,8.29,0,0,0-.73,1.38H267a5,5,0,0,1,2.33-2.68ZM257.64,24.39l-2.91.81a12.81,12.81,0,0,0-1.87.89c-.58.38-1.23,1-1.26,1.37l2.45.57a11,11,0,0,1,1.19-1.18l.57-.27,2.07-2.1A.25.25,0,0,0,257.64,24.39Zm16.9,6.85a43,43,0,0,1-4.24-5.36,16.26,16.26,0,0,0,1.07-7.49,17,17,0,0,0-1.76-2.6c-.34-.34-1.45-1.64-2-1.64a.5.5,0,0,0-.27.08l.15,1.41c-1.49,1-3.44,2.26-5.2,3.56,0,.51,0,1,.08,1.53a2.86,2.86,0,0,0,.91.53,23.23,23.23,0,0,1,3.4-.58l-2.1,3.18-2.41,1.72-3-1a.46.46,0,0,0-.49.16l-2.22,2.41a.63.63,0,0,0-.2.5l-.07,2.71v.89a4.26,4.26,0,0,0,.88,2.86l1.46-2.1a6.45,6.45,0,0,1-.61-1.52V28.2l1.41-1,3.74,2.64a21.55,21.55,0,0,0,2,3.05,32.47,32.47,0,0,0,5.47,3.9,19.86,19.86,0,0,0,.77,2.94l4.59,4.71-2.76,3.42a3.5,3.5,0,0,0-1.8,2.75h3.14l.34-1.8,3.74-4.16c.2-.23.2-.35.08-.69l-1.07-3.6a6.41,6.41,0,0,0,1.68-4c0-3.32-3.6-4.17-4.75-5.12Zm5.88,5.54a12.27,12.27,0,0,0-.81-2.37s.15-.16.46,0,2.25,1.53,2.25,1.53c1,1.45,1.64,7.42,1.64,9.56a12.06,12.06,0,0,1-3.06-2Z"/><path class="cls-2" d="M183.37,35.48c0-2.3-.73-4.09-2.72-4.09s-2.78,1.8-2.78,4.09v15.1h2.33V53H167.42V50.58h2.37V29.77h-2.37V27.44h10.06v3.9h.12A7.26,7.26,0,0,1,184.32,27a6.61,6.61,0,0,1,6.77,5.31,22.07,22.07,0,0,1,.34,4.13V50.58h3.06V53H183.37V35.48m-51.58,0c0-2.3-.73-4.09-2.72-4.09s-2.79,1.8-2.79,4.09v15.1h2.33V53H115.84V50.58h2.37V29.77h-2.37V27.44H125.9v3.9H126A7.24,7.24,0,0,1,132.75,27a6.6,6.6,0,0,1,6.77,5.31,22.8,22.8,0,0,1,.34,4.13V50.58h3.06V53H131.77Zm73.56-5.72V48.65a1.45,1.45,0,0,0,1.25,1.63,1.21,1.21,0,0,0,.38,0,4.84,4.84,0,0,0,1.5-.27V52.3a9.88,9.88,0,0,1-4.91,1c-4,0-6.31-2-6.31-6.09V29.77h-2.71V28.05c3-2.41,6.54-5.17,9.33-7.5h1.45v6.89h3.9v2.33ZM46,14.18s6.16,6.15,9,9.32v2.42c-2.64-2.79-8.11-5.13-13.19-5.13C30.24,20.79,23,29.47,23,40.22s6.84,19.39,18.74,19.39A18.34,18.34,0,0,0,55,53.93v2.29c-3.59,4.91-10.17,8.18-18.35,8.18C22,64.4,11.93,53.77,11.93,40.23S23.14,16.1,36.68,16.1A27.85,27.85,0,0,1,46,17.62Zm117.79,32a7.08,7.08,0,0,1-5.63,2.37c-2.33,0-5.92-1.3-6.08-7.23h13.65c0-.46.07-1.37.07-1.84,0-7.18-2.94-12.54-10.62-12.54s-11.66,5.93-11.66,13.31,3.94,13.19,11.66,13.19a10.3,10.3,0,0,0,9.94-6ZM152,38.83c0-6.74.54-9.25,2.83-9.25s2.8,2.45,2.87,9.25ZM39.3,40.13c0-7.81.73-11.25,3.37-11.25S46,32.32,46,40.13s-.72,11.24-3.36,11.24S39.3,47.93,39.3,40.13m-9.49.07c0,7.73,4.74,14,12.85,14s12.85-6.27,12.85-14-4.74-14-12.85-14-12.85,6.27-12.85,14m43.78-4.74c0-2.29-.72-4.08-2.71-4.08s-2.79,1.79-2.79,4.08V50.58h2.33V53H57.63V50.58H60V29.77H57.63V27.44H67.69v3.9h.12A7.26,7.26,0,0,1,74.56,27a6.62,6.62,0,0,1,6.77,5.31,23.89,23.89,0,0,1,.34,4.13V50.58h3.06V53H73.58Zm28.94-14.8c0,2.26,2,3.75,4.9,3.75s4.9-1.49,4.9-3.75-2-3.74-4.9-3.74-4.9,1.49-4.9,3.74m-7,9.11V48.65a1.46,1.46,0,0,0,1.25,1.64,1.21,1.21,0,0,0,.38,0,4.79,4.79,0,0,0,1.5-.27V52.3a9.88,9.88,0,0,1-4.91,1c-4,0-6.31-2-6.31-6.09V29.77H84.75V28.05c3-2.41,6.54-5.17,9.33-7.5h1.5v6.89h3.14v2.33ZM244.71,50.58h3.12V53H236.64V20.3h-2.79V18h10.87ZM223.14,40.33a2.43,2.43,0,0,0-1.76-.53c-2.41,0-2.94,2.37-2.94,4.82s.73,4.36,2.79,4.36a2.45,2.45,0,0,0,1.92-.77Zm.34,9.6h-.11a7.57,7.57,0,0,1-6.54,3.52c-4.17,0-6.77-3.55-6.77-7.8,0-5.13,3.64-8.37,9.45-8.37a10,10,0,0,1,3.63.54V36.18a4.35,4.35,0,0,0-4.7-4.74,7.37,7.37,0,0,0-5.85,3l-1.42-1.74A12.11,12.11,0,0,1,221.34,27c6.2,0,9.87,3.67,9.87,9.25V50.58h2.59V53H223.48ZM101,53V50.58h2.33V29.77H101V27.44h10.41V50.57h2.37V53Z"/></g></svg>