<svg xmlns="http://www.w3.org/2000/svg" xmlns:xlink="http://www.w3.org/1999/xlink" width="570.4261" height="126.75" viewBox="0 0 427.8196 95.0625" version="1.2">
  <defs>
    <clipPath id="f">
      <path d="M30.543 607h532.1953v9.5H30.543Zm0 0"/>
    </clipPath>
  </defs>
  <use xlink:href="#a" x="47.12" y="30.5246" width="100%" height="100%" style="fill:#000;fill-opacity:1" transform="translate(-409.6778 -362.1946)"/>
  <use xlink:href="#a" x="631.28" y="30.5246" width="100%" height="100%" style="fill:#000;fill-opacity:1" transform="translate(-409.6778 -362.1946)"/>
  <g style="stroke-width:.25">
    <path d="m668.7078 410.4328-.707 1.8008h1.3476l-.707 1.6055h-7.3242l.6445-1.6055h1.4766l2.3125-5.2031h-1.539l.5116-1.6055h9.8907c1.7343 0 2.25.2578 2.4414.8984.0625.7696-.1914 1.2188-.4493 1.8633-.3867.8984-1.2851 2.3125-3.1484 2.2461zm2.504-1.6055c.707 0 .8358-.3203.8983-.4492.129-.3203.1915-.4492.3204-.707.0664-.1914.0664-.6406-.5118-.6406h-1.6718l-.7696 1.7968h1.7344M593.8094 413.839l.707-1.6054h1.4805l2.3086-5.2031h-1.3477l.707-1.6055h10.4063c.5117.1289 1.1562.3828 1.414.961.7696 1.3515-.2578 2.6991-.707 3.9179-.707 1.4805-1.8008 3.2148-3.5976 3.4062l-.707.129zm8.4804-1.6054c.4493 0 .5782-.129.9649-.4492.6406-.7735 1.7344-3.4063 1.7969-4.1758.0664-.3242-.2579-.5781-.6407-.5781h-1.7343l-2.3125 5.203h1.9257M654.0594 413.839c-1.0274 0-1.7344 0-2.6953-.0663-.836-.0625-1.7344-.3828-2.0586-1.1563-.4493-1.2187.1289-1.9883.6445-3.082.9648-1.9258 1.414-3.2734 2.957-3.789 1.2813-.5157 2.8242-.3868 4.3008-.4493 1.414 0 2.7617 0 4.1133.1914.7031.129 1.539.3867 1.7969 1.2227.1914.9609-.4493 1.9883-.5782 2.375-.8359 1.7968-.8984 1.8633-1.6054 3.0195-.6446.961-1.9922 1.539-2.957 1.6055-1.1563.1289-2.5665.1289-3.7227.1289zm3.2773-2.8906c.4492-.9648.8984-1.7343 1.2852-2.7617.1289-.3867.4492-1.414-1.414-1.4765-1.797 0-2.2462.8984-2.4415 1.3476-.254.707-1.0898 2.1836-1.2188 2.7617-.3867 1.3477.707 1.414 1.2188 1.414 0 0 1.9297.1915 2.5703-1.285M622.3328 407.0305s-1.3516 3.5312-2.3164 5.0742c-.7695 1.3476-2.3086 1.668-3.789 1.7969-1.543.0664-3.1446.1289-4.625-.129-.6407-.1289-1.2852-.7695-1.4141-1.414-.125-.5117.0664-.961.2578-1.3477.5781-1.2851 1.6719-3.9804 1.6719-3.9804h-1.4141l.6445-1.6055h7.3828l-.6406 1.6055h-1.414l-1.7344 3.9804c-.0625.3204-.0625.6446.1953.8985.5117.4492 1.414.3867 2.0547.2578.5781-.1914 1.0898-.707 1.3476-1.2188l1.672-3.918h-1.3516l.707-1.6054h4.8828l-.707 1.6055zM636.7195 407.0305l-2.957 6.8086h-3.4688l-2.6953-5.1407-1.543 3.5352h1.3477l-.6406 1.539-5.1367.0664.7031-1.6054h1.6094l2.1836-5.2031h-1.414l.578-1.6055h5.2657l2.5078 5.0078 1.4726-3.4023h-1.3476l.6445-1.6055h4.9453l-.5781 1.6055zM645.1336 407.0305l-2.1836 5.203h2.375l2.1836-2.4413h1.4766l-1.797 4.0469H636.075l.7734-1.6055h1.4766l2.246-5.2031h-1.414l.5781-1.6055h7.5157l-.6407 1.6055zm0 0" style="fill:#1c1e1e;fill-opacity:1;fill-rule:nonzero;stroke:none;stroke-width:.25" transform="matrix(4 0 0 4 -2280.4406 -1591.3719)"/>
    <path d="M576.7234 416.0226c-4.1718 0-6.6132-3.2773-6.6132-6.2304 0-2.957 2.4414-6.2969 6.5507-6.2969-.4492-.3828-6.164-5.6523-6.164-5.6523l20.4218 12.0117-20.2304 11.7539zm0 0" style="fill:#e83d23;fill-opacity:1;fill-rule:nonzero;stroke:none;stroke-width:.25" transform="matrix(4 0 0 4 -2280.4406 -1591.3719)"/>
    <path d="M577.5594 415.5734c3.2148 0 5.7812-2.6367 5.7812-5.7812 0-3.211-2.5664-5.7813-5.7812-5.7813-3.211 0-5.7774 2.5704-5.7774 5.7813 0 3.1445 2.5664 5.7812 5.7774 5.7812" style="fill:#fff;fill-opacity:1;fill-rule:nonzero;stroke:none;stroke-width:.25" transform="matrix(4 0 0 4 -2280.4406 -1591.3719)"/>
    <path d="M578.5242 412.1047h-5.8476l.6445-1.3516h.7695l.9649-2.1172h-.7696l.5782-1.3515h5.9726c1.164 0 1.7344.7187 1.7344 1.6562 0 .4063-.1094.8516-.3203 1.3008-.7422 1.7617-1.7813 1.8633-3.1719 1.8633h-.5547m-1.8633-1.3516h1.3477c.5156 0 1.1562 0 1.6094-.961.0703-.1679.1093-.3398.1093-.4921 0-.375-.2148-.664-.625-.664h-1.543zm0 0" style="fill:#1c1e1e;fill-opacity:1;fill-rule:nonzero;stroke:none;stroke-width:.25" transform="matrix(4 0 0 4 -2280.4406 -1591.3719)"/>
  </g>
  <use xlink:href="#b" x="1014.9711" y="82.8389" width="100%" height="100%" style="fill:#1e477a;fill-opacity:1" transform="translate(-409.6778 -362.1946)"/>
  <use xlink:href="#b" x="1054.8032" y="82.8389" width="100%" height="100%" style="fill:#1e477a;fill-opacity:1" transform="translate(-409.6778 -362.1946)"/>
  <use xlink:href="#c" x="1073.2667" y="122.2994" width="100%" height="100%" style="fill:#1e477a;fill-opacity:1" transform="translate(-409.6778 -362.1946)"/>
  <use xlink:href="#d" x="1057.9471" y="140.7194" width="100%" height="100%" style="fill:#1e477a;fill-opacity:1" transform="translate(-409.6778 -362.1946)"/>
  <use xlink:href="#e" x="1018.2863" y="175.839" width="100%" height="100%" style="fill:#1e477a;fill-opacity:1" transform="translate(-409.6778 -362.1946)"/>
  <g clip-path="url(#f)" style="clip-rule:nonzero" transform="translate(-409.6778 -362.1946)">
    <path style="fill:none;stroke:#000;stroke-width:.55900002;stroke-linecap:butt;stroke-linejoin:miter;stroke-miterlimit:22.9260006;stroke-opacity:1" d="M0 .0002h495.0156c0-6.1524 5.0352-11.1914 11.1914-11.1914v-169.0274c-6.1562 0-11.1914-5.039-11.1914-11.1914H0c0 6.1524-5.0351 11.1914-11.1914 11.1914v169.0274C-5.035-11.1912 0-6.1522 0 .0002zm0 0" transform="matrix(1 0 0 -1 49.1328 626.0861)"/>
  </g>
  <g style="fill:#000;fill-opacity:1" transform="translate(-409.6778 -362.1946)">
    <use xlink:href="#g" x="126.6591" y="122.5414" width="100%" height="100%"/>
    <use xlink:href="#g" x="128.9157" y="122.5414" width="100%" height="100%"/>
    <use xlink:href="#g" x="131.1722" y="122.5414" width="100%" height="100%"/>
    <use xlink:href="#g" x="133.4288" y="122.5414" width="100%" height="100%"/>
  </g>
  <use xlink:href="#h" x="885.0457" y="412.0146" width="100%" height="100%" style="fill:#000;fill-opacity:1" transform="translate(-409.6778 -362.1946)"/>
</svg>