<svg version="1.1" id="Ebene_1" xmlns="http://www.w3.org/2000/svg" x="0" y="0" viewBox="0 0 206.1 22.7" style="enable-background:new 0 0 206.1 22.7" xml:space="preserve">
  <path class="st0" d="m18.3 8.6-3 14.1H5.4L8.8 6.5C10.1 1 16.1 0 17.9 0h28.9l-6.4 6.7H20.7c-1.4 0-2.1.6-2.4 1.9"/>
  <path d="M0 10.7h37.5l-10 10.2c-7.4-6.4-16.6-9.2-27-9.3l-.5-.9z" style="fill-rule:evenodd;clip-rule:evenodd;fill:#e60044"/>
  <path class="st0" d="m28.4 22.7 20.1-20c2.1-2 6-2.7 7.6-2.7h14.3l-4.8 22.7H56L60 3 46.3 16.8h10.2l-4.2 5.9H28.4zM69.4 22.7 74.1 0h10.1l-3.5 16.6H100l-4.3 6.1zM104.4 0l-4.8 22.7h10.1l2.1-11 10.8 11h11.8l-11.2-10.9L139.8 0h-14.2L112 10.7 114.4 0z"/>
  <path class="st0" d="M134.7 22.7h29.7l4.8-6.1h-23.5l.5-2.4h18.5l1.1-5.5h-18.4c.5-1.5.8-2.3 2-2.4h19.9l1.3-6.3h-23.8c-4 0-7.7 1.5-8.8 6.6l-3.3 16.1zM169.4 22.7 174.1 0h23.7c4.6 0 9.3 2.4 8.2 7.5l-3.1 15.2h-10.1l3-13.9c.3-.9-.3-2.3-1.6-2.3h-11.1l-3.4 16.3h-10.3z"/>
</svg>
