<svg xmlns="http://www.w3.org/2000/svg" viewBox="0 0 300 75"><defs><style>.cls-1{fill:#fff;}.cls-2{fill:#e30613;}</style></defs><g id="Layer_2" data-name="Layer 2"><rect class="cls-1" width="300" height="75"/></g><g id="Layer_1" data-name="Layer 1"><path class="cls-2" d="M198.4,30.13c-2.69,1.31-1.8,5.71-.33,8.89s4.73,6.69,7.34,5.55c3.26-1.31.82-7.51-.16-9.14-1-1.79-3.92-6.77-6.85-5.3ZM192,28.42a14.69,14.69,0,0,1,6.19-3.26,18.29,18.29,0,0,1,3.67-.49,14.93,14.93,0,0,1,3.27.24,13.31,13.31,0,0,1,5.46,2.45,15.22,15.22,0,0,1,5.55,6.93,8.83,8.83,0,0,1,.65,3.59,9.54,9.54,0,0,1-.9,4,15.11,15.11,0,0,1-9.13,7.91,10.52,10.52,0,0,1-3.1.49,13.56,13.56,0,0,1-3.18-.17,15.15,15.15,0,0,1-7.59-3,15.58,15.58,0,0,1-5.3-6.61,6.37,6.37,0,0,1-.57-3.67A7.67,7.67,0,0,1,188,33a14.62,14.62,0,0,1,4-4.57Z"/><path class="cls-2" d="M198.4,30.13c-2.69,1.31-1.8,5.71-.33,8.89s4.73,6.69,7.34,5.55c3.26-1.31.82-7.51-.16-9.14-1-1.79-3.92-6.77-6.85-5.3ZM192,28.42a14.69,14.69,0,0,1,6.19-3.26,18.29,18.29,0,0,1,3.67-.49,14.93,14.93,0,0,1,3.27.24,13.31,13.31,0,0,1,5.46,2.45,15.22,15.22,0,0,1,5.55,6.93,8.83,8.83,0,0,1,.65,3.59,9.54,9.54,0,0,1-.9,4,15.11,15.11,0,0,1-9.13,7.91,10.52,10.52,0,0,1-3.1.49,13.56,13.56,0,0,1-3.18-.17,15.15,15.15,0,0,1-7.59-3,15.58,15.58,0,0,1-5.3-6.61,6.37,6.37,0,0,1-.57-3.67A7.67,7.67,0,0,1,188,33a14.62,14.62,0,0,1,4-4.57Z"/><path class="cls-2" d="M16,30.62s-.24-12.88,13.38-13.29C35.52,17.16,39.52,19.94,46,19a56.94,56.94,0,0,0,7.59-2.12s-.25,5.71-2.45,8.24c-3.26,4-9.46,1.06-12.88,3a4,4,0,0,0-1.31,1,5.81,5.81,0,0,0-.65,2.78l.08,3.75A25.38,25.38,0,0,1,41,34.05c4.81-.74,6.28,1.22,6.28,1.22L45,42a6.4,6.4,0,0,0-3.19-1.22c-2.77.08-3.75,1.06-3.75,1.06s3.27,8.89-3.83,14.6c-3,2.44-9.79,1.87-9.79,1.87a24.74,24.74,0,0,0,3-5.38c1.71-5.38-2.2-8.65-2.2-14.19a16.91,16.91,0,0,1,3.83-11,25.42,25.42,0,0,0-6.52.16A28,28,0,0,0,16,30.62Z"/><path class="cls-2" d="M53.71,28.5l9.06-3.67A4.1,4.1,0,0,1,65,26.3a4.52,4.52,0,0,1,1,3V43.59a2.63,2.63,0,0,0,.65,1.55,3.26,3.26,0,0,0,1.79,1.3l-8.15,4A4.82,4.82,0,0,1,58,49.22a5.22,5.22,0,0,1-1.79-3V32a3.55,3.55,0,0,0-.73-2.2,3.45,3.45,0,0,0-1.72-1.31Z"/><path class="cls-2" d="M72.23,28.83l8.4-3.67a3.37,3.37,0,0,1,2.12.65,3.68,3.68,0,0,1,1.79,2.69l5.63-2.28A2.71,2.71,0,0,1,92,26a2.36,2.36,0,0,1,1.8,1.31l4.32,6.93L90.33,39.1l-2-3.42a2.31,2.31,0,0,0-2.28-1.23,2.14,2.14,0,0,0-1.87,2.45v6.36a2.81,2.81,0,0,0,.65,2,3.12,3.12,0,0,0,2.2,1.22l-8.24,4.08a4.63,4.63,0,0,1-2.93-1.63,5,5,0,0,1-1.47-3.75v-13a3.23,3.23,0,0,0-.82-2.2,3,3,0,0,0-1.38-1.14Z"/><path class="cls-2" d="M134.13,31.85l9.7-6a4.61,4.61,0,0,1,2.13-.65,4.44,4.44,0,0,1,2.85.73l8.48,5.87-2.44,1.72L149,29.56a3.17,3.17,0,0,0-1.47-.49,2.41,2.41,0,0,0-1.06.17l-1.06.65a1.66,1.66,0,0,0-.24.89,1.27,1.27,0,0,0,.49,1l10.6,7.1c.82.57,1.88,1.22,2,2.45A2.45,2.45,0,0,1,157,43.59l-9.71,5.95a4.91,4.91,0,0,1-3.18.82,5.1,5.1,0,0,1-2.61-1.06l-8.4-5.71,2.45-1.79,6.6,4.4a2.45,2.45,0,0,0,1.06.24,3.25,3.25,0,0,0,1.23-.24l1.06-.65a1.38,1.38,0,0,0,.32-1.23c-.08-.65-.57-1-1.06-1.38l-10.44-7.1a1.92,1.92,0,0,1-1.3-2,1.9,1.9,0,0,1,1.14-2Z"/><path class="cls-2" d="M177.36,18.88v6.69h6.36V31h-6.36V43.1a3,3,0,0,0,.89,2.28,3.62,3.62,0,0,0,1.88,1.23l-7.83,3.75a5.41,5.41,0,0,1-2.45-1.22,5.46,5.46,0,0,1-2.12-4.57V31h-4.65l14.28-12.07Z"/><path class="cls-2" d="M221.72,27.28l7.59-2.94a2.61,2.61,0,0,1,1.79.82A3.24,3.24,0,0,1,232.24,27l.25,1.22,8.56-2.6a7.67,7.67,0,0,1,3.59-.49c1.71.24,5,2.85,5,5.87V43.26a2.64,2.64,0,0,0,1.14,2.29,2.45,2.45,0,0,0,1.79.65l-8.4,4.32a4.77,4.77,0,0,1-2.44-1.3,4.15,4.15,0,0,1-1.39-3.51V34.86a2.65,2.65,0,0,0-1.39-2.36,2.48,2.48,0,0,0-2.28-.33l-4.24,1.31V43.92a2.41,2.41,0,0,0,.65,1.79,2.55,2.55,0,0,0,.9.73l-7.18,3.18a3.84,3.84,0,0,1-2.53-1.46,4.58,4.58,0,0,1-1.22-3V30.46a4.51,4.51,0,0,0-.49-2,5.79,5.79,0,0,0-.82-1.14Z"/><path class="cls-2" d="M116.84,35.35,115,32.82a2.26,2.26,0,0,0-1.38-.65,3.14,3.14,0,0,0-2,.57l-1.23.82a2.26,2.26,0,0,0-.65,1.38,1.75,1.75,0,0,0,.41,1.55l1.71,2.12,5.06-3.26Zm-11.5-5.05,6-4.08a9,9,0,0,1,6.45-1.31,9.5,9.5,0,0,1,2.61.74,7.37,7.37,0,0,1,2.28,1.55l5.46,7.5L115.7,42.37A8.7,8.7,0,0,0,119,44.08a9.3,9.3,0,0,0,7.1-.33c-1.31,5.14-6.2,6.36-11.42,6.69-2.77.16-7-.9-9.22-3.83L102.57,43a8.64,8.64,0,0,1-1.15-5.14c.17-3.34.74-5.38,3.92-7.58Z"/><path class="cls-2" d="M116.84,35.35,115,32.82a2.26,2.26,0,0,0-1.38-.65,3.14,3.14,0,0,0-2,.57l-1.23.82a2.26,2.26,0,0,0-.65,1.38,1.75,1.75,0,0,0,.41,1.55l1.71,2.12,5.06-3.26Zm-11.5-5.05,6-4.08a9,9,0,0,1,6.45-1.31,9.5,9.5,0,0,1,2.61.74,7.37,7.37,0,0,1,2.28,1.55l5.46,7.5L115.7,42.37A8.7,8.7,0,0,0,119,44.08a9.3,9.3,0,0,0,7.1-.33c-1.31,5.14-6.2,6.36-11.42,6.69-2.77.16-7-.9-9.22-3.83L102.57,43a8.64,8.64,0,0,1-1.15-5.14c.17-3.34.74-5.38,3.92-7.58Z"/><path class="cls-2" d="M272.45,35.35l-1.87-2.53a2.26,2.26,0,0,0-1.39-.65,3.14,3.14,0,0,0-2,.57l-1.22.82a2.16,2.16,0,0,0-.65,1.38,1.77,1.77,0,0,0,.4,1.55l1.72,2.12,5.05-3.26ZM261,30.3l6-4.08a9,9,0,0,1,6.44-1.31,9.5,9.5,0,0,1,2.61.74,7.37,7.37,0,0,1,2.28,1.55l5.47,7.5-12.4,7.67a8.85,8.85,0,0,0,3.34,1.71,9.3,9.3,0,0,0,7.1-.33c-1.3,5.14-6.2,6.36-11.42,6.69-2.77.16-7-.9-9.21-3.83L258.18,43A8.71,8.71,0,0,1,257,37.88c.16-3.34.73-5.38,3.91-7.58Z"/><path class="cls-2" d="M272.45,35.35l-1.87-2.53a2.26,2.26,0,0,0-1.39-.65,3.14,3.14,0,0,0-2,.57l-1.22.82a2.16,2.16,0,0,0-.65,1.38,1.77,1.77,0,0,0,.4,1.55l1.72,2.12,5.05-3.26ZM261,30.3l6-4.08a9,9,0,0,1,6.44-1.31,9.5,9.5,0,0,1,2.61.74,7.37,7.37,0,0,1,2.28,1.55l5.47,7.5-12.4,7.67a8.85,8.85,0,0,0,3.34,1.71,9.3,9.3,0,0,0,7.1-.33c-1.3,5.14-6.2,6.36-11.42,6.69-2.77.16-7-.9-9.21-3.83L258.18,43A8.71,8.71,0,0,1,257,37.88c.16-3.34.73-5.38,3.91-7.58Z"/></g></svg>