<svg xmlns="http://www.w3.org/2000/svg" width="193" zoomAndPan="magnify" viewBox="0 0 144.75 60" height="80"
     preserveAspectRatio="xMidYMid meet" version="1.0"><defs><clipPath id="bafb109de4"><path d="M 0 0.0507812 L 144.5 0.0507812 L 144.5 59.949219 L 0 59.949219 Z M 0 0.0507812 " clip-rule="nonzero"/></clipPath><clipPath id="de8a4f6da8"><path d="M 24.09375 14.601562 L 120.84375 14.601562 L 120.84375 45.351562 L 24.09375 45.351562 Z M 24.09375 14.601562 " clip-rule="nonzero"/></clipPath></defs><g clip-path="url(#bafb109de4)"><path fill="#ffffff" d="M 0 0.0507812 L 144.75 0.0507812 L 144.75 67.550781 L 0 67.550781 Z M 0 0.0507812 " fill-opacity="1" fill-rule="nonzero"/><path fill="#ffffff" d="M 0 0.0507812 L 144.75 0.0507812 L 144.75 60.050781 L 0 60.050781 Z M 0 0.0507812 " fill-opacity="1" fill-rule="nonzero"/><path fill="#ffffff" d="M 0 0.0507812 L 144.75 0.0507812 L 144.75 60.050781 L 0 60.050781 Z M 0 0.0507812 " fill-opacity="1" fill-rule="nonzero"/></g><g clip-path="url(#de8a4f6da8)"><path fill="#ffffff" d="M 24.09375 -18.289062 L 120.84375 -18.289062 L 120.84375 78.460938 L 24.09375 78.460938 Z M 24.09375 -18.289062 " fill-opacity="1" fill-rule="evenodd"/></g><path fill="#000000" d="M 25.515625 15.96875 L 119.421875 15.96875 L 119.421875 44.199219 L 25.515625 44.199219 Z M 25.515625 15.96875 " fill-opacity="1" fill-rule="evenodd"/><path fill="#ffffff" d="M 27.4375 18.804688 L 117.503906 18.804688 L 117.503906 33.804688 L 27.4375 33.804688 Z M 27.4375 18.804688 " fill-opacity="1" fill-rule="evenodd"/><path fill="#000000" d="M 43.914062 33.007812 L 57.851562 33.007812 L 57.851562 28.402344 L 61.515625 28.402344 L 61.515625 25.035156 L 57.972656 25.035156 L 57.972656 23.558594 L 61.957031 23.558594 L 61.957031 20.042969 L 50.972656 20.042969 C 50.972656 24.710938 48.609375 29.050781 43.914062 33.007812 Z M 63.582031 20.015625 L 68.484375 20.015625 L 68.484375 28.105469 C 68.484375 29.582031 71.082031 29.582031 71.082031 28.105469 L 71.082031 20.015625 L 75.894531 20.015625 L 75.894531 28.105469 C 75.894531 34.925781 63.582031 34.925781 63.582031 28.105469 Z M 78.40625 20.015625 L 83.308594 20.015625 L 83.308594 28.726562 L 88.003906 28.726562 L 88.003906 33.007812 L 78.40625 33.007812 Z M 89.480469 20.015625 L 94.382812 20.015625 C 105.042969 20.015625 105.042969 33.007812 94.382812 33.007812 L 89.480469 33.007812 Z M 94.261719 24.03125 L 94.261719 29.019531 C 98.542969 29.019531 98.691406 24.03125 94.261719 24.03125 Z M 101.96875 33.007812 L 107.285156 33.007812 L 107.726562 31.382812 L 111.449219 31.382812 L 111.714844 33.007812 L 116.941406 33.007812 L 112.304688 20.042969 L 106.929688 20.042969 Z M 108.703125 28.136719 L 109.707031 24.503906 L 110.621094 28.136719 Z M 28.675781 20.042969 L 37.507812 20.015625 C 37.449219 25.390625 35.320312 29.347656 31.304688 31.972656 C 30.980469 32.238281 31.484375 32.566406 31.75 32.445312 C 36.355469 30.351562 38.953125 26.363281 39.132812 20.042969 L 41.820312 20.042969 C 41.433594 27.957031 38.007812 32.976562 31.097656 32.976562 L 28.675781 32.976562 Z M 44.238281 20.042969 L 46.925781 20.042969 C 46.75 27.898438 43.265625 32.210938 36.503906 33.007812 C 36.058594 33.066406 35.914062 32.769531 36.503906 32.445312 C 41.730469 29.757812 44.476562 25.683594 44.238281 20.042969 Z M 44.238281 20.042969 " fill-opacity="1" fill-rule="evenodd"/><path fill="#ffffff" d="M 76.632812 40.980469 L 77.636719 37.230469 L 76.605469 37.230469 L 76.722656 36.816406 L 79.292969 36.816406 L 79.171875 37.230469 L 78.167969 37.230469 L 77.164062 40.980469 Z M 79.824219 40.980469 L 80.945312 36.816406 L 83.042969 36.816406 L 82.894531 37.257812 L 81.386719 37.257812 L 81.003906 38.617188 L 82.507812 38.617188 L 82.363281 39.089844 L 80.886719 39.089844 L 80.5 40.539062 L 82.039062 40.539062 L 81.917969 40.980469 Z M 86.464844 39.710938 C 86.378906 40.09375 86.230469 40.449219 85.875 40.714844 C 85.582031 40.980469 85.136719 41.097656 84.753906 41.039062 C 84.3125 41.011719 83.957031 40.714844 83.957031 40.125 C 83.988281 39.859375 84.074219 39.414062 84.222656 38.796875 C 84.488281 37.851562 84.84375 36.757812 86.082031 36.757812 C 86.878906 36.757812 87.085938 37.289062 86.910156 37.996094 L 86.320312 37.996094 L 86.320312 37.9375 C 86.4375 37.554688 86.40625 37.199219 85.933594 37.199219 C 85.078125 37.199219 84.902344 38.382812 84.722656 39 C 84.605469 39.445312 84.191406 40.597656 85.019531 40.597656 C 85.226562 40.597656 85.402344 40.539062 85.550781 40.390625 C 85.726562 40.210938 85.816406 39.945312 85.90625 39.710938 Z M 88.03125 40.980469 L 89.15625 36.816406 L 89.6875 36.816406 L 89.214844 38.589844 L 90.660156 38.589844 L 91.132812 36.816406 L 91.664062 36.816406 L 90.542969 40.980469 L 90.011719 40.980469 L 90.511719 39.089844 L 89.09375 39.089844 L 88.5625 40.980469 Z M 94.972656 40.507812 L 95.945312 36.816406 L 96.449219 36.816406 L 95.324219 40.980469 L 94.585938 40.980469 L 93.996094 37.199219 L 93.023438 40.980469 L 92.519531 40.980469 L 93.640625 36.816406 L 94.410156 36.816406 Z M 100.433594 38.941406 C 100.316406 39.386719 100.199219 39.738281 100.109375 39.945312 C 99.816406 40.65625 99.3125 41.070312 98.542969 41.070312 C 97.925781 41.070312 97.511719 40.773438 97.539062 40.125 C 97.570312 39.886719 97.628906 39.472656 97.804688 38.914062 C 97.925781 38.382812 98.070312 37.703125 98.425781 37.289062 C 98.75 36.933594 99.222656 36.757812 99.695312 36.757812 C 100.019531 36.757812 100.40625 36.847656 100.582031 37.140625 C 100.847656 37.585938 100.554688 38.5 100.433594 38.941406 Z M 99.875 38.914062 C 100.082031 38.203125 100.140625 37.730469 100.082031 37.523438 C 100.019531 37.320312 99.84375 37.230469 99.578125 37.230469 C 99.105469 37.230469 98.839844 37.523438 98.664062 37.910156 C 98.574219 38.085938 98.484375 38.410156 98.367188 38.914062 C 98.25 39.328125 98.160156 39.621094 98.160156 39.769531 C 98.070312 40.210938 98.160156 40.597656 98.664062 40.597656 C 98.957031 40.597656 99.195312 40.480469 99.34375 40.273438 C 99.519531 40.066406 99.695312 39.59375 99.875 38.914062 Z M 101.792969 40.980469 L 102.914062 36.816406 L 103.445312 36.816406 L 102.472656 40.507812 L 103.890625 40.507812 L 103.773438 40.980469 Z M 108.496094 38.941406 C 108.378906 39.386719 108.261719 39.738281 108.171875 39.945312 C 107.875 40.65625 107.375 41.070312 106.605469 41.070312 C 105.984375 41.070312 105.570312 40.773438 105.601562 40.125 C 105.632812 39.886719 105.691406 39.472656 105.867188 38.914062 C 105.984375 38.410156 106.105469 38.054688 106.191406 37.851562 C 106.457031 37.140625 106.988281 36.757812 107.757812 36.757812 C 108.378906 36.757812 108.792969 37.023438 108.761719 37.703125 C 108.734375 37.9375 108.644531 38.351562 108.496094 38.941406 Z M 107.933594 38.914062 C 108.140625 38.203125 108.199219 37.730469 108.140625 37.523438 C 108.082031 37.320312 107.90625 37.230469 107.640625 37.230469 C 107.167969 37.230469 106.902344 37.523438 106.722656 37.910156 C 106.636719 38.085938 106.546875 38.410156 106.398438 38.914062 C 106.3125 39.328125 106.222656 39.621094 106.191406 39.769531 C 106.132812 40.210938 106.191406 40.597656 106.726562 40.597656 C 107.019531 40.597656 107.226562 40.480469 107.402344 40.273438 C 107.582031 40.066406 107.757812 39.59375 107.933594 38.914062 Z M 112.632812 37.9375 C 112.75 37.523438 112.632812 37.199219 112.160156 37.199219 C 111.273438 37.199219 111.066406 38.234375 110.886719 38.882812 C 110.710938 39.5625 110.652344 40.035156 110.710938 40.242188 C 110.859375 40.746094 111.625 40.566406 111.980469 40.507812 L 112.304688 39.265625 L 111.746094 39.265625 L 111.863281 38.796875 L 112.984375 38.796875 L 112.421875 40.890625 C 112.011719 40.980469 111.597656 41.070312 111.183594 41.070312 C 110.472656 41.070312 110.0625 40.832031 110.089844 40.066406 C 110.121094 39.800781 110.207031 39.386719 110.355469 38.824219 C 110.472656 38.410156 110.5625 38.058594 110.679688 37.820312 C 111.003906 37.140625 111.507812 36.757812 112.273438 36.757812 C 113.070312 36.757812 113.398438 37.199219 113.191406 37.9375 Z M 114.933594 40.980469 L 115.40625 39.238281 L 114.960938 36.816406 L 115.582031 36.816406 L 115.847656 38.796875 L 117.207031 36.816406 L 117.769531 36.816406 L 115.9375 39.296875 L 115.492188 40.980469 Z M 56.878906 40.980469 L 58 36.816406 L 58.5625 36.816406 L 58.089844 38.589844 L 59.507812 38.589844 L 59.980469 36.816406 L 60.539062 36.816406 L 59.417969 40.980469 L 58.886719 40.980469 L 59.386719 39.089844 L 57.941406 39.089844 L 57.4375 40.980469 Z M 61.542969 40.980469 L 62.667969 36.816406 L 63.226562 36.816406 L 62.105469 40.980469 Z M 67.007812 37.9375 C 67.125 37.523438 67.007812 37.199219 66.503906 37.199219 C 65.648438 37.199219 65.441406 38.234375 65.265625 38.882812 C 65.085938 39.5625 65.027344 40.035156 65.085938 40.242188 C 65.144531 40.480469 65.351562 40.597656 65.679688 40.597656 C 65.882812 40.597656 66.121094 40.539062 66.355469 40.507812 L 66.683594 39.265625 L 66.089844 39.265625 L 66.238281 38.796875 L 67.359375 38.796875 L 66.800781 40.890625 C 66.386719 40.980469 65.972656 41.070312 65.53125 41.070312 C 64.878906 41.070312 64.4375 40.832031 64.46875 40.066406 C 64.496094 39.800781 64.554688 39.386719 64.703125 38.824219 C 64.820312 38.410156 64.941406 38.058594 65.058594 37.820312 C 65.351562 37.140625 65.855469 36.757812 66.652344 36.757812 C 67.421875 36.757812 67.773438 37.199219 67.566406 37.9375 Z M 68.867188 40.980469 L 69.988281 36.816406 L 70.550781 36.816406 L 70.078125 38.589844 L 71.496094 38.589844 L 71.96875 36.816406 L 72.5 36.816406 L 71.40625 40.980469 L 70.84375 40.980469 L 71.378906 39.089844 L 69.929688 39.089844 L 69.429688 40.980469 Z M 30.625 37.9375 C 30.746094 37.523438 30.625 37.199219 30.125 37.199219 C 29.269531 37.199219 29.0625 38.234375 28.882812 38.882812 C 28.707031 39.5625 28.648438 40.035156 28.707031 40.242188 C 28.855469 40.746094 29.59375 40.566406 29.976562 40.507812 L 30.300781 39.265625 L 29.710938 39.265625 L 29.859375 38.796875 L 30.980469 38.796875 L 30.417969 40.890625 C 30.152344 40.953125 29.917969 40.980469 29.710938 41.011719 C 28.882812 41.128906 28.027344 41.097656 28.085938 40.066406 C 28.117188 39.800781 28.175781 39.386719 28.324219 38.824219 C 28.617188 37.761719 29.003906 36.757812 30.273438 36.757812 C 31.039062 36.757812 31.394531 37.199219 31.1875 37.9375 Z M 32.101562 40.980469 L 33.195312 36.816406 L 35.292969 36.816406 L 35.175781 37.257812 L 33.636719 37.257812 L 33.285156 38.617188 L 34.761719 38.617188 L 34.640625 39.089844 L 33.164062 39.089844 L 32.753906 40.539062 L 34.289062 40.539062 L 34.171875 40.980469 Z M 36.917969 38.617188 L 37.300781 38.617188 C 37.863281 38.617188 38.214844 38.441406 38.363281 37.878906 C 38.480469 37.464844 38.332031 37.257812 37.890625 37.257812 L 37.269531 37.257812 Z M 37.921875 36.816406 C 38.660156 36.816406 39.160156 37.023438 38.925781 37.820312 C 38.804688 38.351562 38.480469 38.707031 37.949219 38.824219 C 38.15625 38.855469 38.304688 38.941406 38.363281 39.0625 C 38.511719 39.386719 38.15625 40.210938 38.125 40.597656 C 38.097656 40.714844 38.097656 40.863281 38.097656 40.980469 L 37.535156 40.980469 C 37.507812 40.804688 37.566406 40.480469 37.683594 40.066406 C 37.742188 39.859375 37.890625 39.414062 37.773438 39.210938 C 37.742188 39.121094 37.625 39.089844 37.449219 39.089844 L 36.769531 39.089844 L 36.265625 40.980469 L 35.707031 40.980469 L 36.828125 36.816406 Z M 39.808594 40.980469 L 40.933594 36.816406 L 41.820312 36.816406 L 41.964844 40.332031 L 43.945312 36.816406 L 44.800781 36.816406 L 43.679688 40.980469 L 43.175781 40.980469 L 44.210938 37.140625 L 41.996094 40.980469 L 41.523438 40.980469 L 41.375 37.082031 L 40.34375 40.980469 Z M 46.511719 39.472656 L 47.722656 39.472656 L 47.664062 37.464844 Z M 47.722656 40.980469 L 47.722656 39.976562 L 46.25 39.976562 L 45.6875 40.980469 L 45.09375 40.980469 L 47.515625 36.816406 L 48.167969 36.816406 L 48.34375 40.980469 Z M 52.210938 40.507812 L 53.1875 36.816406 L 53.6875 36.816406 L 52.566406 40.980469 L 51.828125 40.980469 L 51.238281 37.199219 L 50.261719 40.980469 L 49.761719 40.980469 L 50.882812 36.816406 L 51.652344 36.816406 Z M 52.210938 40.507812 " fill-opacity="1" fill-rule="evenodd"/></svg>