<svg id="Layer_1" data-name="Layer 1" xmlns="http://www.w3.org/2000/svg" viewBox="0 0 300 75"><defs><style>.cls-1{fill:#1160ab;}.cls-2{fill:#ffd239;}</style></defs><rect class="cls-1" width="300" height="75"/><path class="cls-2" d="M71,32,68.07,45.22c-.48,2.28-1.17,3.29-2.57,3.29a1.81,1.81,0,0,1-1.91-1.64v-.25L66.76,33c.45-1.8,1-2.86,2.58-2.86A1.58,1.58,0,0,1,71,31.68h0A2.54,2.54,0,0,1,71,32ZM47.48,49.48,50,39.26c0-.58-.42-.67-1.91-.67H41.7c-1.8,0-2.07.09-2.51,1.8l-1.6,5.71c-.35,1.44-.69,1.9-2.21,1.9s-2.12-.73-2.12-1.54a9.23,9.23,0,0,1,.29-1.81l3-11.53a3.54,3.54,0,0,1,3.66-3,15.77,15.77,0,0,1,4.68,1.27.75.75,0,0,0,.68-.43l.9-1.49a.93.93,0,0,0,.15-.39c0-1.36-3.56-2.48-6.85-2.48-9,0-16.83,6.53-16.83,15.09,0,7.12,3.26,9.34,8.79,9.34H41.87c5.25.06,5.25.06,5.6-1.54Zm6.42-7.8c0,6,4.23,10.13,11.15,10.13,7.69,0,15.75-5.91,15.75-15,0-6.58-4.52-10.41-11.35-10.41A15.35,15.35,0,0,0,53.9,41.43Z"/><path class="cls-2" d="M102,32,99.11,45.21c-.49,2.27-1.23,3.28-2.64,3.28a1.81,1.81,0,0,1-1.8-1.8v-.12L97.87,33c.44-1.8,1-2.84,2.59-2.84A1.57,1.57,0,0,1,102,31.75C102,31.82,102,31.88,102,32ZM84.87,41.68c0,6,4.29,10.11,11.2,10.11,7.68,0,15.69-5.91,15.69-15,0-6.58-4.51-10.4-11.35-10.4A15.3,15.3,0,0,0,84.88,41.45v0a.81.81,0,0,0,0,.22Zm28.18,8.46c0,.9.53,1,2.89,1h11c4.42,0,7.12-.67,10.25-4A16.85,16.85,0,0,0,142,35.8a9.83,9.83,0,0,0-2.71-7c-1.59-1.6-3.05-1.95-6.32-1.95H121.17c-2.33,0-2.52.15-3.15,2.71Zm19-18.25-2.95,12.65c-.54,2.13-1.32,3.15-2.81,3.15-.9,0-1.41-.34-1.41-1.08l3.45-14c.4-1.6,1-2.28,2.14-2.28a1.41,1.41,0,0,1,1.58,1.2A1.71,1.71,0,0,1,132,31.89Z"/><path class="cls-2" d="M168.79,19.53a5.24,5.24,0,0,1-3.56,1.81c-.34,0-.53-.2-.53-.44a16.37,16.37,0,0,1,3.68-1.69.38.38,0,0,1,.41.34ZM145.2,48.91c-2.28,6.32-5.42,6.72-5.42,8.89A1.22,1.22,0,0,0,141,59h0c2.81,0,8.27-5.8,12.8-11l-4.18-8.75C147.81,41.56,147.36,43,145.2,48.91Zm-3.26,12.45a18.1,18.1,0,0,0,5.92-3.24,72.92,72.92,0,0,0,6.83-6.32c7.47-7.41,12.22-9.68,12.22-10.41,0-.2-.19-.34-.47-.34a28.33,28.33,0,0,0-6.33,3.77,75.63,75.63,0,0,0-6.6,5.8c-5.14,5.09-5.14,5.12-5.76,5.66-4.22,3.55-6.58,3.29-6.58,4.45a.67.67,0,0,0,.61.73h.13ZM147.66,27a3.94,3.94,0,0,0,2.57,3c.28,0,.54-.09,1.4-.58l3.56-1.89c1.81-.9,1.94-1,1.94-5.42,0-.42-.19-.72-.53-.72a5.33,5.33,0,0,0-1.81.76l-6,3.47c-.9.67-1.16,1.05-1.16,1.49Zm3.57,8.41a1.9,1.9,0,0,0,.73-.2l2.86-1.4a.89.89,0,0,0,.59-.67c0-.26-.2-.48-.79-.54l-2.38-.25c-1.31,0-1.45,0-1.45.79v1.5c-.08.65.07.91.35.91Zm.2,2.71a4.42,4.42,0,0,0,.38,1.64l3.56,7c5.34-4.16,5.42-4.22,10.38-7.85l-.82-1.8c-.28-.59-.63-.82-.91-.82-1,0-1.8,1.88-2.81,1.88a1.16,1.16,0,0,1-.91-.58l-1.5-2.47c-.4-.68-.83-.9-1.21-.9a3.25,3.25,0,0,0-1.17.44l-4,2.18a1.49,1.49,0,0,0-1,1.35Zm2-7.71c0,.14.09.4,1,.43l1.81.15c1.49,0,1.54,0,1.65-.91l.09-1c0-1.08-.09-1.16-.34-1.16a4.6,4.6,0,0,0-1.1.44l-2.33,1.36c-.61.37-.81.61-.81.7Zm5.9-2.33c0,.25-.08,2-.08,2.47,0,3,.91,5.15,2.13,5.15s1.81-3.83,3-3.83c.14,0,.9.16,1.07.16.82,0,.67-1.08,1.15-1.8,4,0,1.16-4.26,4.12-4.26h.72c2.42,0,2.62-.53,3-1.44.49-1.21,2.95-.81,2.95-1.81,0-.22-.42-1-.42-1.15s.2-.39.53-.39,1.81.24,4.22.24a20.84,20.84,0,0,0,7.4-1c1.81-.73,3.91-2.42,3.91-3.72a.59.59,0,0,0-.54-.64h-.13a60.3,60.3,0,0,1-9.77.73c-4.84,0-7.22-.59-12.21-.59s-6.91.34-8.63,1.36a6.81,6.81,0,0,0-3.56,5.83c-.17,2.5,1,3.32,1,4.73Zm12.07-.53a4.23,4.23,0,0,0,.2,1.06l3.15,10.68a6.2,6.2,0,0,1,.24,1.6l-2.33,9.54c0,.4.29.62,1.61.62h8.18c1.64,0,1.81,0,2.17-1.26l2-7.32a5.87,5.87,0,0,1,1.5-3l9.08-11.19a2,2,0,0,0,.49-1c0-.34-.23-.53-1.11-.53h-2.71c-.9,0-1.1.08-2,1.1l-5.12,5.85a1.46,1.46,0,0,1-.91.54c-.28,0-.58-.2-.9-1l-1.81-5c-.53-1.49-.62-1.49-2.23-1.49h-8.12c-1.21.14-1.6.14-1.6.9Z"/><path class="cls-2" d="M231.05,36.45c.2,0,.43.14.48.67l.59,4.6c0,1.34,0,1.44-1.81,1.44h-2.22c-.91,0-1.1-.15-1.1-.48a4.81,4.81,0,0,1,.62-1.41L230.23,37C230.63,36.59,230.91,36.45,231.05,36.45ZM195,50.27c0,.49.47.82,1.55.82h16.34c1.81,0,2.48-.09,2.48-2.75,0-1.3-.34-1.46-1.49-1.46l-5.19-.09c-.81,0-1.21-.39-1.21-.91l.83-4.06c.25-.9.73-1.21,1.94-1.21h2.47c1.46,0,2.48-.08,2.48-3,0-.78-.35-1-1.41-1h-2.62c-1,0-1,0-1-1.69l.58-2.71c.26-1.21.79-1.3,2.17-1.35l5.34-.09c1.81,0,2.37-.28,2.37-2.81,0-.91-.34-1.1-1.55-1.1H202.45c-1.3,0-1.55.53-1.94,2.08Zm22.36.34c0,.28.2.48.68.48h2.43a1.81,1.81,0,0,0,2-1.1l1.07-1.8a1.81,1.81,0,0,1,2-1.09h5.51c1.27,0,1.5.28,1.81,1.4l.34,1.27c.39,1.4.43,1.4,1.88,1.4h7.8c1,0,1-.58,1-1.94l-2.22-20.41c-.2-1.65-.4-1.8-2.29-1.8h-6a2.41,2.41,0,0,0-2.61,1.35L217.9,49.48a3.29,3.29,0,0,0-.46,1.13Z"/><path class="cls-2" d="M266.73,31.51l-1.5,6.05c-.39,1.4-1.16,2.07-2.22,2.07-.59,0-1.16-.28-1.16-.9l1.81-7c.29-1,.82-1.45,1.65-1.45A1.29,1.29,0,0,1,266.73,31.51ZM247.26,50.15c0,.76.43.91,1.55.91h7.49c1.81,0,1.81,0,2.18-1.05l1.45-4.29c.34-1,.53-1.26.9-1.26s.39.14.59.73l1.49,4.51c.44,1.38.53,1.38,2.33,1.38h7.81c1.08,0,1.3-.24,1.3-.91l-1.24-5.94a5.64,5.64,0,0,1-.25-1.35c0-1.8,5.69-3.77,5.69-9.32s-4-6.68-8.38-6.68H256c-2.32,0-2.71.2-3.05,1.65Z"/></svg>