<svg xmlns="http://www.w3.org/2000/svg" viewBox="0 0 74.994 13.602" style="enable-background:new 0 0 74.994 13.602" xml:space="preserve">
  <path d="M22.326 1.494c-.021.07-.759 2.486-.759 2.486h-2.361l.759-2.486h-2.703s-2.043 6.674-2.081 6.801h2.701c.021-.069.874-2.851.874-2.851h2.363l-.873 2.851h2.703c.021-.071 2.042-6.674 2.08-6.801h-2.703zm14.213.74-.123.091.254-.831h-2.703s-2.042 6.674-2.082 6.801h2.705c.021-.071 1.255-4.106 1.255-4.106.176-.571.622-.955 1.112-.955h.693c.218 0 .389.074.493.215.076.104.116.239.116.397 0 .113-.021.237-.061.37 0 0-1.087 3.559-1.247 4.079h2.703c.021-.071 1.468-4.793 1.468-4.793.041-.139.1-.382.1-.657 0-.283-.061-.6-.266-.877-.301-.406-.833-.611-1.583-.611-1.444 0-2.395.549-2.834.877zm-10.701-.251c.024.084.389 1.346.417 1.443.239-.099 1.253-.493 2.128-.493.835 0 1.31.112 1.488.353.091.123.107.279.046.474l-.169.554-.049-.017c-1.138-.374-2.005-.362-2.012-.36-.904 0-1.716.224-2.35.651-.608.408-1.043.989-1.253 1.682-.186.611-.141 1.131.135 1.503.32.433.952.66 1.827.66.828 0 1.728-.212 2.536-.601l.105-.05s-.128.416-.158.513h2.703c.021-.071 1.439-4.702 1.439-4.702.061-.193.089-.38.089-.556 0-.294-.083-.56-.249-.784-.434-.586-1.436-.896-2.898-.896-1.79 0-3.483.528-3.775.626zm2.141 3.345c.205 0 .911.015 1.346.22l.039.019-.303.989-.021.01c-.431.201-1.038.338-1.511.338-.456 0-.775-.107-.923-.308-.06-.084-.091-.182-.091-.29 0-.065.01-.133.033-.205.148-.484.683-.773 1.431-.773zm19.095-3.869c-.027.021-2.589 2.041-2.589 2.041l.628-2.041h-2.701S40.338 8.236 40.3 8.363h2.701c.021-.07.858-2.805.858-2.805s1.938 2.761 1.968 2.805h2.883c-.104-.152-2.477-3.536-2.477-3.536s3.88-3.198 4.087-3.368h-3.246zm1.124 3.449c-.293.961-.182 1.861.315 2.531.56.759 1.568 1.177 2.838 1.177 2.985 0 4.671-1.153 5.462-3.736.293-.96.181-1.858-.315-2.53-.561-.758-1.569-1.177-2.839-1.177-2.745 0-4.734 1.363-5.461 3.735zm2.644 1.515c-.237-.317-.243-.822-.025-1.541.268-.875.879-1.917 2.263-1.917.531 0 .888.133 1.087.404.236.317.243.822.023 1.541-.267.875-.875 1.917-2.261 1.917-.531 0-.888-.132-1.087-.404zm6.366-1.515c-.294.961-.184 1.861.313 2.531.562.759 1.57 1.177 2.84 1.177 2.986 0 4.67-1.153 5.461-3.736.294-.96.182-1.858-.315-2.53-.56-.758-1.568-1.177-2.838-1.177-2.744 0-4.736 1.363-5.461 3.735zm4.882-1.943c.532 0 .887.133 1.088.404.235.317.243.824.023 1.541-.268.875-.877 1.917-2.263 1.917-.531 0-.886-.132-1.088-.404-.235-.319-.243-.822-.022-1.541.267-.875.877-1.917 2.262-1.917zm9.831-1.566c-.027.025-2.627 2.219-2.627 2.219l.675-2.219H67.27s-2.108 6.886-2.146 7.014h2.699c.021-.071.871-2.85.871-2.85s2.088 2.812 2.118 2.85h2.963c-.116-.154-2.653-3.567-2.653-3.567s3.663-3.276 3.872-3.447h-3.073z"/>
  <path style="fill:#f23300" d="m15.988 13.272-.036.33h-2.291c.262-2.703-1.602-5.721-4.259-6.439-.002-.001-.004-.001-.006-.001-.013-.004-.047-.006-.051.034a.039.039 0 0 0 .015.036h-.002c2.215 1.479 3.384 3.863 3.183 6.37h-2.242c.097-2.204-1.381-4.21-3.644-5.024-.015-.004-.049-.006-.053.034 0 .013.007.025.019.032h-.002c1.634 1.12 2.618 2.787 2.561 4.958H6.936C6.915 11.002 4.577 9.187 0 9.187c.066-.036.131-.072.194-.108C3.17 7.45 4.723 6.45 6.921 4.66c.338-.291.808-.45 1.283-.435 5.93.414 8.063 5.619 7.784 9.047z" transform="matrix(1 0 0 -1 0 13.602)"/>
  <path style="fill:#8c8c8c" d="M29.679 3.944s-.22-.713-.273-.884c-.277.171-.617.25-1.055.25-1.016 0-1.822-.497-2.06-1.27-.104-.339-.076-.622.09-.84.204-.272.611-.416 1.173-.416.43 0 .833.082 1.228.245-.01-.033-.061-.199-.061-.199h.799l1.031 3.352-.872-.238zm-2.581-2.477c-.091.122-.104.296-.034.517.174.577.598.867 1.254.867.467 0 .783-.133.94-.269-.028-.095-.3-.978-.319-1.039-.372-.199-.761-.3-1.156-.3-.338 0-.575.076-.685.224zm4.419 1.627.053.169h-.801L30.021.83h.797l.429 1.381c.122.397.505.623 1.052.623.3 0 .463-.04.585-.08l.058-.021.378.484-.142.036c-.158.04-.37.057-.668.057-.348 0-.712-.081-.993-.216zm1.982.742v-.002c-.021-.064-.008-.135.036-.191.076-.099.233-.156.431-.156.241 0 .52.106.575.287.019.068.005.138-.04.199-.072.097-.222.154-.401.154-.292 0-.545-.122-.601-.291zm-.044-.573L32.701.83h.801l.748 2.433h-.795zm3.965 0s-1.63-1.769-1.647-1.788c-.088.285-.543 1.788-.543 1.788h-.845l.896-2.432h.636l2.397 2.432h-.894zm1.036.575v-.004a.208.208 0 0 1 .037-.191c.075-.099.233-.156.432-.156.238 0 .519.106.574.287.02.07.005.138-.038.199-.074.095-.224.154-.403.154-.292 0-.544-.122-.602-.289zm-.043-.575L37.661.83h.801l.746 2.433h-.795zm2.084-.179c.006.019.055.179.055.179h-.801L39.005.83h.795l.426 1.378c.127.408.559.643 1.19.643.357 0 .584-.063.677-.186.067-.087.072-.22.017-.395L41.666.83h.801l.443 1.435c.081.265.056.487-.076.66-.192.256-.604.385-1.221.385-.414 0-.801-.079-1.116-.226zM43.09 2.04c-.048-.153-.068-.294-.061-.425.01-.157.059-.296.15-.415.205-.272.611-.416 1.173-.416.429 0 .833.08 1.224.243-.153-.395-.506-.579-1.86-.6l-.133-.002.203-.425.061.002c.799.013 1.382.104 1.786.279.401.171.65.437.763.81l.67 2.172h-.801s-.039-.133-.06-.201c-.277.169-.617.248-1.056.248-1.015 0-1.822-.497-2.059-1.27zm.807-.573c-.091.122-.103.296-.035.517h.002c.175.577.596.867 1.255.867.467 0 .782-.133.938-.269-.029-.095-.3-.978-.319-1.039-.372-.199-.761-.3-1.154-.3-.34 0-.577.078-.687.224zm4.536.621c-.043-.141-.061-.27-.053-.391.01-.159.061-.302.154-.427.332-.439 1.057-.486 1.351-.486.646 0 1.056.089 1.631.266l.131.04-.351.381-.055-.017c-.45-.144-.746-.213-1.217-.213-.361 0-.621.086-.756.247-.062.072-.095.161-.1.264-.002.03 0 .063.002.097h2.809l.025.038c.032.053.058.106.087.195.038.124.053.241.047.353a.7262.7262 0 0 1-.148.41c-.229.304-.698.465-1.357.465-1.091 0-1.974-.489-2.2-1.222zm2.113.763c.372 0 .632-.078.755-.228.053-.062.082-.14.088-.231a.7094.7094 0 0 0-.006-.101h-2.058c.23.363.655.56 1.221.56zm5.034.106c-.152.175-.458.353-1.073.353-.383 0-.729-.074-1.013-.214.003.013.051.167.051.167h-.799L51.998.83h.795l.423 1.378c.133.427.498.643 1.084.643.315 0 .517-.055.598-.165.067-.087.07-.228.01-.416L54.464.83h.802l.424 1.378c.133.427.497.643 1.084.643.319 0 .516-.051.598-.161.064-.086.068-.224.007-.42L56.937.83h.801l.44 1.435c.086.28.061.51-.072.685-.184.243-.56.36-1.145.36-.7 0-1.106-.18-1.381-.353zm3.644.044c-.44-.22-.735-.541-.854-.924-.091-.304-.055-.577.108-.792.245-.323.761-.501 1.456-.501.533 0 1.05.114 1.454.317.44.224.735.547.852.932.093.3.057.569-.104.782-.241.319-.761.495-1.462.495-.543 0-1.044-.106-1.45-.309zm-.017-1.49c-.097.125-.112.298-.046.512.162.526.68.828 1.422.828.406 0 .703-.095.834-.268.092-.121.108-.29.043-.499-.161-.526-.698-.841-1.435-.841-.397 0-.687.095-.818.268zm4.072 2.431s-.179-.578-.209-.679h-.53l-.133-.45h.524c-.062-.205-.431-1.399-.431-1.399-.026-.078-.036-.152-.032-.216a.3694.3694 0 0 1 .07-.202c.11-.146.334-.212.704-.212.314 0 .553.023.828.078l.042.009.226.484-.184-.036c-.188-.04-.355-.064-.604-.064-.213 0-.254.034-.264.045-.002.004-.015.025.01.107-.002-.002.351 1.133.434 1.406h1.052l.138.45h-1.055c.057.18.285.919.285.919l-.871-.24zm2.067-.104-.002-.004a.2057.2057 0 0 1 .038-.191c.074-.099.231-.156.431-.156.239 0 .52.108.573.287.021.07.007.138-.038.199-.074.095-.224.154-.403.154-.292 0-.544-.122-.599-.289zm-.046-.575L64.548.83h.801l.746 2.433H65.3zm1.6-.262c-.438-.22-.734-.541-.852-.924-.093-.304-.055-.577.106-.792.245-.323.761-.501 1.456-.501.533 0 1.05.114 1.454.317.44.224.737.547.854.932.093.3.057.569-.104.782-.243.319-.763.495-1.462.495-.543 0-1.046-.106-1.452-.309zm1.361-.15c.404 0 .701-.095.832-.266.093-.123.108-.292.043-.501-.161-.527-.696-.841-1.433-.841-.399 0-.689.095-.82.266a.4144.4144 0 0 0-.083.241c-.006.082.007.173.037.273.162.526.68.828 1.424.828zm3.06.233c.006.019.055.179.055.179h-.801L69.827.83h.797l.424 1.378c.18.58.892.643 1.19.643.359 0 .586-.063.679-.186.065-.087.071-.22.015-.395L72.49.83h.801l.441 1.435c.081.265.057.487-.075.662-.193.254-.603.383-1.222.383-.412 0-.799-.079-1.114-.226z" transform="matrix(1 0 0 -1 0 13.602)"/>
</svg>
