<svg xmlns="http://www.w3.org/2000/svg" width="193" zoomAndPan="magnify" viewBox="0 0 144.75 60" height="80"
     preserveAspectRatio="xMidYMid meet" version="1.0"><defs><clipPath id="1b485f116f"><path d="M 0 0.0507812 L 144.5 0.0507812 L 144.5 59.949219 L 0 59.949219 Z M 0 0.0507812 " clip-rule="nonzero"/></clipPath><clipPath id="ebcd9e73df"><path d="M 8.65625 12.210938 L 135.953125 12.210938 L 135.953125 48.210938 L 8.65625 48.210938 Z M 8.65625 12.210938 " clip-rule="nonzero"/></clipPath></defs><g clip-path="url(#1b485f116f)"><path fill="#ffffff" d="M 0 0.0507812 L 144.75 0.0507812 L 144.75 60.050781 L 0 60.050781 Z M 0 0.0507812 " fill-opacity="1" fill-rule="nonzero"/><path fill="#ffffff" d="M 0 0.0507812 L 144.75 0.0507812 L 144.75 60.050781 L 0 60.050781 Z M 0 0.0507812 " fill-opacity="1" fill-rule="nonzero"/></g><g clip-path="url(#ebcd9e73df)"><path fill="#ffffff" d="M 8.453125 -32.421875 L 135.953125 -32.421875 L 135.953125 95.078125 L 8.453125 95.078125 Z M 8.453125 -32.421875 " fill-opacity="1" fill-rule="evenodd"/></g><path fill="#000000" d="M 48.523438 26.6875 L 46.808594 36.71875 L 49.753906 36.71875 L 50.242188 33.605469 L 51.328125 32.574219 L 53.15625 36.601562 L 56.503906 36.601562 L 53.585938 30.976562 L 57.675781 26.832031 L 54.074219 26.832031 L 50.613281 31.003906 L 51.414062 26.71875 Z M 48.523438 26.6875 " fill-opacity="1" fill-rule="evenodd"/><path fill="#000000" d="M 62.882812 26.574219 C 56.847656 26.71875 56.960938 32.660156 56.960938 32.660156 C 56.960938 32.660156 56.761719 36.546875 61.28125 36.71875 C 67.230469 36.488281 67.03125 30.660156 67.03125 30.660156 C 67.03125 30.660156 67.203125 26.546875 62.882812 26.574219 Z M 63.996094 31.230469 C 63.996094 31.230469 63.652344 34.574219 61.566406 34.460938 C 59.480469 34.347656 60.023438 31.691406 60.023438 31.691406 C 60.023438 31.691406 60.367188 28.660156 62.480469 28.773438 C 64.597656 28.890625 63.996094 31.230469 63.996094 31.230469 Z M 69.0625 26.917969 C 69.0625 26.917969 69.050781 28.445312 68.800781 30.320312 C 68.421875 33.144531 67.746094 36.71875 67.746094 36.71875 L 70.71875 36.6875 C 70.71875 36.6875 70.941406 32.726562 71.925781 30.964844 C 72.945312 29.144531 74.722656 29.515625 74.722656 29.515625 L 75.179688 26.660156 C 75.179688 26.660156 74.203125 26.464844 73.203125 27.082031 C 72.394531 27.582031 71.519531 28.917969 71.519531 28.917969 L 71.664062 26.917969 Z M 76.46875 27.03125 L 75.007812 36.71875 L 77.839844 36.71875 C 77.839844 36.71875 78.328125 28.746094 80.8125 29.117188 C 82.472656 29.058594 81.558594 32.429688 81.558594 32.429688 L 80.8125 36.601562 L 83.644531 36.601562 L 84.246094 32.515625 C 84.246094 32.515625 84.875 28.746094 86.648438 28.945312 C 88.078125 28.859375 87.421875 31.542969 87.421875 31.542969 L 86.5625 36.460938 L 89.421875 36.460938 L 90.28125 31.117188 C 90.28125 31.117188 91.480469 26.488281 87.9375 26.488281 C 85.960938 26.460938 84.675781 28.375 84.675781 28.375 C 84.675781 28.375 84.132812 26.632812 82.300781 26.746094 C 80.128906 26.886719 78.898438 28.515625 78.898438 28.515625 L 78.984375 27.03125 Z M 97.410156 26.574219 C 91.375 26.71875 91.488281 32.660156 91.488281 32.660156 C 91.488281 32.660156 91.289062 36.546875 95.808594 36.71875 C 101.757812 36.488281 101.554688 30.660156 101.554688 30.660156 C 101.554688 30.660156 101.730469 26.546875 97.410156 26.574219 Z M 98.527344 31.230469 C 98.527344 31.230469 98.179688 34.574219 96.09375 34.460938 C 94.007812 34.34375 94.546875 31.691406 94.546875 31.691406 C 94.546875 31.691406 94.894531 28.660156 97.011719 28.773438 C 99.125 28.890625 98.527344 31.230469 98.527344 31.230469 Z M 103.585938 26.917969 C 103.585938 26.917969 103.578125 28.445312 103.328125 30.320312 C 102.945312 33.144531 102.269531 36.71875 102.269531 36.71875 L 105.246094 36.6875 C 105.246094 36.6875 105.46875 32.726562 106.453125 30.964844 C 107.472656 29.140625 109.25 29.515625 109.25 29.515625 L 109.707031 26.660156 C 109.707031 26.660156 108.730469 26.464844 107.730469 27.082031 C 106.921875 27.578125 106.046875 28.917969 106.046875 28.917969 L 106.191406 26.917969 Z M 119.710938 26.945312 C 119.710938 26.945312 118.191406 26.441406 116.480469 26.539062 C 114.84375 26.628906 113.019531 27.316406 113.019531 27.316406 C 113.019531 27.316406 109.5 29.230469 109.472656 33.058594 C 109.445312 36.890625 112.5625 36.71875 112.5625 36.71875 C 112.5625 36.71875 113.703125 36.675781 114.511719 36.152344 C 115.402344 35.578125 115.964844 34.515625 115.964844 34.515625 L 115.9375 36.460938 L 118.597656 36.460938 C 118.597656 36.460938 118.472656 34.5625 118.753906 32.179688 C 119.035156 29.804688 119.710938 26.945312 119.710938 26.945312 Z M 113.734375 34.375 C 112.417969 34.148438 112.648438 32.660156 112.648438 32.660156 C 112.648438 32.660156 112.550781 31.566406 113.609375 29.964844 C 114.667969 28.363281 116.453125 28.6875 116.453125 28.6875 C 116.453125 28.6875 115.992188 34.773438 113.734375 34.375 Z M 124.316406 26.859375 L 121.800781 26.859375 L 120.226562 36.71875 L 123.230469 36.71875 C 123.230469 36.71875 123.746094 29.203125 126.289062 28.976562 C 127.863281 28.71875 127.203125 31.515625 127.203125 31.515625 L 126.316406 36.574219 L 129.234375 36.574219 L 130.09375 31.460938 C 130.09375 31.460938 131.4375 26.6875 127.71875 26.546875 C 125.746094 26.402344 124.289062 28.402344 124.289062 28.402344 Z M 44.109375 23.421875 C 44.03125 22.964844 43.582031 23.007812 43.582031 23.007812 L 31.945312 23.007812 L 26.871094 26.703125 C 26.871094 26.703125 26.371094 27.023438 26.378906 27.445312 C 26.386719 27.871094 26.90625 28.394531 26.90625 28.394531 L 31.980469 35.195312 C 31.980469 35.195312 32.351562 35.679688 31.875 36.023438 C 31.402344 36.367188 31.082031 35.921875 31.082031 35.921875 L 26.007812 28.945312 C 26.007812 28.945312 25.53125 28.316406 24.875 27.96875 C 24.203125 27.609375 23.347656 27.53125 23.347656 27.53125 L 14.855469 26.21875 C 14.855469 26.21875 14.199219 26.027344 14.09375 26.492188 C 13.992188 26.960938 14.441406 27.046875 14.441406 27.046875 C 14.441406 27.046875 17.9375 27.917969 20.289062 29.125 C 22.316406 30.167969 23.246094 31.566406 23.246094 31.566406 L 28.941406 39.300781 C 28.941406 39.300781 29.089844 39.496094 29.261719 39.574219 C 29.46875 39.667969 29.703125 39.648438 29.703125 39.648438 L 35.570312 39.648438 C 35.570312 39.648438 35.714844 39.679688 35.972656 39.5625 C 36.214844 39.457031 36.570312 39.199219 36.570312 39.199219 L 38.003906 38.25 C 38.003906 38.25 38.460938 37.957031 38.445312 37.609375 C 38.425781 37.265625 38.058594 36.78125 38.058594 36.78125 L 31.738281 28.082031 C 31.738281 28.082031 31.546875 27.890625 31.585938 27.714844 C 31.632812 27.53125 31.910156 27.355469 31.910156 27.355469 L 35.019531 25.042969 L 36.132812 25.042969 C 36.132812 25.042969 36.378906 25.15625 36.351562 25.308594 C 36.324219 25.464844 36.019531 25.664062 36.019531 25.664062 L 33.5 27.5625 C 33.5 27.5625 33.171875 27.734375 33.164062 27.984375 C 33.15625 28.265625 33.464844 28.632812 33.464844 28.632812 L 39.128906 36.433594 C 39.128906 36.433594 39.359375 36.746094 39.644531 36.78125 C 39.929688 36.8125 40.265625 36.574219 40.265625 36.574219 L 42.167969 35.261719 C 42.167969 35.261719 42.570312 35.035156 42.589844 34.726562 C 42.605469 34.398438 42.234375 33.984375 42.234375 33.984375 L 38.402344 28.804688 C 38.402344 28.804688 38.1875 28.613281 38.179688 28.441406 C 38.167969 28.285156 38.367188 28.148438 38.367188 28.148438 L 43.960938 24.003906 C 43.960938 24.007812 44.1875 23.878906 44.109375 23.421875 Z M 23.253906 29.636719 C 22.441406 29.636719 22.46875 28.824219 22.46875 28.824219 C 22.46875 28.824219 22.449219 28.074219 23.21875 28.074219 C 23.988281 28.074219 24.011719 28.847656 24.011719 28.847656 C 24.011719 28.847656 24.0625 29.636719 23.253906 29.636719 Z M 23.253906 29.636719 " fill-opacity="1" fill-rule="evenodd"/></svg>