<svg id="Layer_1" data-name="Layer 1" xmlns="http://www.w3.org/2000/svg" viewBox="0 0 300 75"><defs><style>.cls-1,.cls-2{fill:#fff;}.cls-1,.cls-3,.cls-5,.cls-6{fill-rule:evenodd;}.cls-3{fill:#fce500;}.cls-4{mask:url(#mask);}.cls-5{fill:#27509b;}</style><mask id="mask" x="81.39" y="25.39" width="215.21" height="21.76" maskUnits="userSpaceOnUse"><g id="b"><path id="a" class="cls-1" d="M81.39,25.39H296.6V47.16H81.39Z"/></g></mask></defs><g id="Layer_2" data-name="Layer 2"><rect class="cls-2" width="300" height="75"/></g><path class="cls-3" d="M15.47,57.08l-1.9,5.21h236l1.91-5.21Z"/><g class="cls-4"><path class="cls-5" d="M239.19,25.82h-9.81L221.7,46.65h19.71L244,39.73h-9.9Zm-28.92,5.46h11.5l2-5.46h-21L195.1,46.65h21.27l2.06-5.6H206.69l.86-2.32h11l1.87-5.13H209.43l.84-2.32Zm42.65-5.42-7.64,20.81h10.09L263,25.84l-10.11,0Zm35.24,0L282.9,40.14c.07-1.44.38-7.12.54-10.4a4,4,0,0,0-.87-3.06,2.77,2.77,0,0,0-1.83-.84H269l-7.67,20.83h8.52l5.43-14.75-.64,14.75h14.27l7.67-20.83Zm-178,0L102.81,37s.46-5.85.58-7.26c.09-1.07,0-3.92-2.65-3.92H89.05L81.39,46.68h9.14l5.55-15.06L94.91,46.68H103l10-14.8-5.44,14.8h9.2l7.67-20.82Zm20.06,0-7.67,20.82h10.09l7.66-20.82Zm57.24,0-2.78,7.5h-5.08l2.76-7.5h-9.61l-7.65,20.83h9.59l2.62-7.06h5.09l-2.62,7.06h9.6l7.66-20.85-9.58,0Zm-33.12.19C148.25,27.3,140,31.79,140.06,40c.05,4.73,5.76,7.35,12.3,7.17A52.43,52.43,0,0,0,160,46.3L162.4,40c-3.21.51-6.3,1.28-8.72.31-4.37-1.75-1.68-6.29,1.41-7.7a12.43,12.43,0,0,1,5.43-1.16c.93,0,3.18,0,4,2.05l3.06-7.32a31.32,31.32,0,0,0-13.27-.12Z"/></g><path class="cls-6" d="M4.65,18.46l0,.05.16.38a43.59,43.59,0,0,0,2.09,4.43,13.53,13.53,0,0,0,1.54,2.27,7.78,7.78,0,0,0-1.21,2.67,8.13,8.13,0,0,0,.37,4.37,9.17,9.17,0,0,0,.83,1.8.83.83,0,0,0,0,.15,8.49,8.49,0,0,0,3.46,7.91,10.62,10.62,0,0,0,1.28.81,6.53,6.53,0,0,0,2.24,3.09,9.26,9.26,0,0,0,2.52,1.39v0a7.65,7.65,0,0,0,4.31,2.92,11.19,11.19,0,0,0,1.4.28l.07.08A8.15,8.15,0,0,0,27.08,53a8.82,8.82,0,0,0,.38,4.11h50a9.05,9.05,0,0,0-1.32-4.75l-.08-.1a9.5,9.5,0,0,0-7.57-10.59c-.25,0-.52-.09-.77-.12h-.11a20.8,20.8,0,0,0-6.17-4.15c0-.13.05-.26.08-.37l.1,0a7.34,7.34,0,0,0,4.68-5.79,8.63,8.63,0,0,0-1.5-5.93v-.08A12.2,12.2,0,0,0,63.52,18a8.62,8.62,0,0,0-3.84-3.67h0c-.45-1.5-2.35-2.62-4.39-2.58a4.78,4.78,0,0,0-4,2,11.31,11.31,0,0,0-7.38,8.92,7.66,7.66,0,0,0-1.65,10.7,6.94,6.94,0,0,0,.6.72,36.28,36.28,0,0,0-7,.75l-.09,0a9.69,9.69,0,0,0-7.85-1.54.92.92,0,0,0-.28.14A15.14,15.14,0,0,0,25.15,33H25a7.89,7.89,0,0,0-1.94-3.25c0-.05-.15-.13-.15-.14a19.48,19.48,0,0,0-.49-2.24,6.72,6.72,0,0,0-1.83-3,7.52,7.52,0,0,0-2.08-1.44,3.94,3.94,0,0,0,.21-.69l0-.18s.29-2.81.62-4.46v-.06c.93-5.68.93-5.76.94-5.82v0a1.85,1.85,0,0,0-.49-1.4A2.5,2.5,0,0,0,18,9.47a2.92,2.92,0,0,0-2.48,1.42,7.79,7.79,0,0,0-.75,1.7c-.94-1.82-2.18-4.22-3.06-6l0-.09a2.38,2.38,0,0,0-2-1.12,2.63,2.63,0,0,0-.88.16A2.36,2.36,0,0,0,7.25,5a2.45,2.45,0,0,0-.85.15A2.3,2.3,0,0,0,4.82,7.43,2.27,2.27,0,0,0,3.36,9.14a2.89,2.89,0,0,0,.06,1.24.64.64,0,0,0,.05.16l-.07.11c-.56.87-.85,2.48,1.25,7.8"/><path class="cls-1" d="M75.81,57.07h-2a9.3,9.3,0,0,0,1.53-2.55,7.17,7.17,0,0,1,.44,2.55M43.27,35.69a5.14,5.14,0,0,1,1.17.22c.75.28,2.2,1.68,3,1.81.14,0,.5-.07.11-.35-.11-.08-1-.9-.68-1.32a.38.38,0,0,1,.44-.17c1.15.28,2.11.45,2.44.5a.57.57,0,0,0,.43,0c.08-.07,0-.12-.21-.19a15.37,15.37,0,0,1-5.09-2.26,6.37,6.37,0,0,1-2.52-5.84A6.1,6.1,0,0,1,44.73,24a6.75,6.75,0,0,1,1.61-.75c.64-.23-.41-.4-.49-.42-.27,0-.28-.32-.06-1.16A9.47,9.47,0,0,1,52,15.2a13.2,13.2,0,0,1,1.41-.35c.62-.1.37-.38-.32-.46,0,0-.24,0-.13-.17a2.11,2.11,0,0,1,.36-.31,4.17,4.17,0,0,1,2-.59c1.44,0,2.69.77,2.84,1.52,0,0,0,.15-.13.15s-.5.13-.12.32c.09,0,.48.16,1,.41l.08,0c1.09.51,4.48,2.57,4.24,8.41,0,.18,0,.35,0,.53s0,.32,0,.48c-.32,0-.46.1-.23.33a7.43,7.43,0,0,1,.81,1A7.11,7.11,0,0,1,64.7,31a5.54,5.54,0,0,1-2.85,4.12,13.5,13.5,0,0,1-3.58,1.36c-.34.08-.18.52,1.4.5.13,0,.42,0,.5.18.18.34-.13,1-.82,1.41s-.12.42.71.18A2.84,2.84,0,0,1,61,39a18.72,18.72,0,0,1,7.22,5.73c1.75,2.51,2.39,4.49,1.84,5.73a2.8,2.8,0,0,1-2.13,1.43h0c-6.11.95-16.7-.73-24-2.88a42.23,42.23,0,0,1-4.9-1.8,10.26,10.26,0,0,0-1.66-10.89l-.11-.12a34.68,34.68,0,0,1,6-.49"/><path class="cls-1" d="M73.17,46.57A7.9,7.9,0,0,1,71.75,57a6.83,6.83,0,0,0-1.28-4.49,3.6,3.6,0,0,0,1.08-1.37c.81-1.81.14-4.28-2-7.33v0l-.14-.18a7.86,7.86,0,0,1,3.76,3m-37-9.18a8.51,8.51,0,0,1,1,10,8.65,8.65,0,0,1-9.37,4.17A8.16,8.16,0,0,1,26.33,51a8.73,8.73,0,0,0,1-.21,9,9,0,0,0,6.41-7.92,9.21,9.21,0,0,0-1.87-6.6,7.82,7.82,0,0,0-1.74-1.61,8.21,8.21,0,0,1,6,2.74"/><path class="cls-1" d="M30.61,37.26a7.58,7.58,0,0,1,1.52,5.43,7.44,7.44,0,0,1-5.24,6.53,7.63,7.63,0,0,1-6.19-.94,8.56,8.56,0,0,0,7.81-5.88,8.13,8.13,0,0,0-.11-5.27A7.65,7.65,0,0,0,27.21,35a6.78,6.78,0,0,1,3.36,2.24"/><path class="cls-1" d="M25.24,37.34a9.72,9.72,0,0,0,.17-1.94A6.34,6.34,0,0,1,27,41.91a6.8,6.8,0,0,1-7.73,4.61,7,7,0,0,1-3.89-2.4,8,8,0,0,0,1.76.19,8.28,8.28,0,0,0,3.29-.68,8.47,8.47,0,0,0,4.82-6.29"/><path class="cls-1" d="M22.84,32A7.2,7.2,0,0,1,23.65,37a6.67,6.67,0,0,1-10.84,4.18A7,7,0,0,1,10,36.31a6.54,6.54,0,0,0,.51.41A7.65,7.65,0,0,0,15,38.11a8.44,8.44,0,0,0,2.12-.27,7.83,7.83,0,0,0,5.07-3.93A8,8,0,0,0,22.83,32"/><path class="cls-1" d="M4.77,11.47l.06,0a.49.49,0,0,1,.2-.11h.28l.15,0a1.83,1.83,0,0,1,.91,1.58,9.46,9.46,0,0,0,1.46,4,.35.35,0,0,0,.49.08.36.36,0,0,0,.08-.49,8.84,8.84,0,0,1-1.33-3.65A2.45,2.45,0,0,0,5.7,10.7a1.17,1.17,0,0,0-.52-.09A4.07,4.07,0,0,1,5,10c-.07-.3-.2-.89.46-1.12l.13,0h.07c.48-.06,1.12.16,1.74,2.42a17.85,17.85,0,0,0,2,4.17.35.35,0,0,0,.49.06.33.33,0,0,0,.1-.43,16.82,16.82,0,0,1-1.87-4A5.28,5.28,0,0,0,6.73,8.54C6.63,8.3,6.53,8,6.5,8c-.11-.34-.23-1.08.41-1.29a1,1,0,0,1,.35-.06,1,1,0,0,1,.89.75s0,.09.06.14l2.87,6.85a.22.22,0,0,0,.09.12.32.32,0,0,0,.45,0,.34.34,0,0,0,.06-.36L8.88,7.45a.68.68,0,0,1,.32-.33A1.06,1.06,0,0,1,9.66,7a.77.77,0,0,1,.63.35s3.7,7.28,4.39,8.54a6.5,6.5,0,0,0-.54,1c-.05.19.07.35.16.18a9.91,9.91,0,0,1,.75-1l0,0c.17-.31.71-1.76.93-2.22a7.91,7.91,0,0,1,.8-2.14A1.33,1.33,0,0,1,18,11.08c.42,0,.75.21.75.43s-.91,5.71-.91,5.71c-.24,1.17-.45,2.86-.56,3.83a5.51,5.51,0,0,1-.08.71v.07a.35.35,0,0,1,0,.14,7.2,7.2,0,0,1-.52,1.5l.29,1.33.29,1.36c.22.74-.06,1.2.08,1.35s.67-.8.79-1.32a5.38,5.38,0,0,0-.2-1.87,5.82,5.82,0,0,1,1.58,1.1,5.11,5.11,0,0,1,1.43,2.35,14.59,14.59,0,0,1,.55,2.69,6,6,0,0,1-4.76,5.83,6.33,6.33,0,0,1-1.68.2,5.93,5.93,0,0,1-3.55-1.1A7.37,7.37,0,0,1,8.8,28.63a6.73,6.73,0,0,1,.86-2,3.83,3.83,0,0,0,.65.3l.13.62a5,5,0,0,0,1,2.33,2.13,2.13,0,0,0,1.23.33c.19,0,.67,0,.74-.22a.18.18,0,0,0,0-.21.57.57,0,0,0-.21-.13c-.32-.18-.92-.5-1-1.09-.07-.33-.35-1.5-.51-2.19.68-.53.75-1.12-.13-.94A1.68,1.68,0,0,1,10.1,25c-1.77-1.55-3.61-6.3-4-7.14C4.62,14.07,4.3,12,4.77,11.45m23.9,41.83c.33,0,.66,0,1,.06a10.48,10.48,0,0,0,8.56-4.74,43.8,43.8,0,0,0,5.24,1.93,85.32,85.32,0,0,0,12.95,2.69,59.14,59.14,0,0,0,7.41.53,28.69,28.69,0,0,0,4.34-.3,4.89,4.89,0,0,0,.84-.2,5.14,5.14,0,0,1,1.12,3.83H29.2a6.55,6.55,0,0,1-.53-3.8"/><path class="cls-6" d="M50.5,28c0-.14-.22-.14-.28-.14a1.87,1.87,0,0,0-.51.11,1.14,1.14,0,0,0-.71.94.13.13,0,0,0,0,.12.18.18,0,0,0,.14.06.13.13,0,0,0,.14-.13.52.52,0,0,1,.16-.33,1.35,1.35,0,0,1,.81-.37c.09,0,.22-.1.18-.24"/><path class="cls-6" d="M60.53,29.06c-.18,0-.22.13-.15.18l.06.08-.16.09a5.84,5.84,0,0,1-1.22.41,10.34,10.34,0,0,1-3.14.16,16.36,16.36,0,0,1-5-1.19l-.43-.18-.21-.11a.34.34,0,0,0-.44.22.29.29,0,0,0,0,.09.36.36,0,0,0,.25.37,9.2,9.2,0,0,0,1.34.55,3.58,3.58,0,0,1,1,.84,5.66,5.66,0,0,0,1.2,1,4.67,4.67,0,0,0,2.91.51,3.76,3.76,0,0,0,1.42-.53,8.08,8.08,0,0,0,.88-.66,4,4,0,0,1,.54-.38c.12-.06.9-.37,1.31-.61,0,.14,0,.27.09.29s.21-.19.25-.35a.82.82,0,0,0,0-.44.62.62,0,0,0-.4-.29M56.88,31.3a3.44,3.44,0,0,1-1.39.13,3.84,3.84,0,0,1-1.34-.34,4.16,4.16,0,0,1-1.21-.9,15.07,15.07,0,0,0,5.14.44,3.63,3.63,0,0,1-1.2.67m-5.66-5.67a1.47,1.47,0,0,0,.68.47,2.2,2.2,0,0,0,.71.15c.21,0,.43,0,.64,0,1,0,2-1.58,2-3.09s-.15-2.42-1.14-3L53.76,20a2.35,2.35,0,0,0-1.34-.06,2.06,2.06,0,0,0-1.18,1,4.89,4.89,0,0,0-.56,1.52,4.71,4.71,0,0,0-.07,1.63,3.12,3.12,0,0,0,.62,1.58M51,23.21c.06-.65.43-2.69,2.06-2.52a1.8,1.8,0,0,1,1.67,1.83v.11a3.76,3.76,0,0,1-.26,1.85,3.81,3.81,0,0,1-.29.57,1.49,1.49,0,0,1-1,.79h-.1a2.4,2.4,0,0,0,1.07-1.93c.11-1.2-.46-2.24-1.28-2.31a1.29,1.29,0,0,0-1.06.5.72.72,0,0,1,.53.88.73.73,0,0,1-.49.52.57.57,0,0,1-.53-.47,3.39,3.39,0,0,0-.12.62,2.59,2.59,0,0,0,.46,1.83.8.8,0,0,1-.13-.13A2.81,2.81,0,0,1,51.06,24a4.15,4.15,0,0,1,0-.79m10.5-.9a2,2,0,0,0-.86-1.22,2.09,2.09,0,0,0-1.27-.28,1.28,1.28,0,0,0-.34.07c-1.09.34-1.52,1.3-1.84,2.61-.35,1.46.14,3.17,1.06,3.46.2,0,.41.1.61.13a2.41,2.41,0,0,0,.71,0,1.43,1.43,0,0,0,.74-.28,3.27,3.27,0,0,0,1-1.37,4.76,4.76,0,0,0,.34-1.58,5,5,0,0,0-.13-1.59m-.39,2.26a3.83,3.83,0,0,1-.23.75,2.77,2.77,0,0,1-.82,1.17,1.1,1.1,0,0,1-.46.19,2.45,2.45,0,0,0,1-1.9c.11-1.2-.44-2.24-1.24-2.31a1.28,1.28,0,0,0-1,.5.63.63,0,0,1,.54.67.64.64,0,0,1-.5.75.54.54,0,0,1-.52-.46,3.24,3.24,0,0,0-.12.62,2.48,2.48,0,0,0,.55,1.94,1.56,1.56,0,0,1-.6-.94,4.26,4.26,0,0,1-.13-.62,3.85,3.85,0,0,1,.22-1.84l0-.1a1.78,1.78,0,0,1,2-1.35c1.56.26,1.4,2.31,1.29,2.95"/></svg>