<svg xmlns="http://www.w3.org/2000/svg" width="193" zoomAndPan="magnify" viewBox="0 0 144.75 60" height="80"
     preserveAspectRatio="xMidYMid meet" version="1.0"><defs><clipPath id="aa4d1d9053"><path d="M 0 0.0507812 L 144.5 0.0507812 L 144.5 59.949219 L 0 59.949219 Z M 0 0.0507812 " clip-rule="nonzero"/></clipPath><clipPath id="7ccfdb7d81"><path d="M 24.960938 13.296875 L 119.460938 13.296875 L 119.460938 47.046875 L 24.960938 47.046875 Z M 24.960938 13.296875 " clip-rule="nonzero"/></clipPath></defs><g clip-path="url(#aa4d1d9053)"><path fill="#ffffff" d="M 0 0.0507812 L 144.75 0.0507812 L 144.75 60.050781 L 0 60.050781 Z M 0 0.0507812 " fill-opacity="1" fill-rule="nonzero"/><path fill="#ffffff" d="M 0 0.0507812 L 144.75 0.0507812 L 144.75 60.050781 L 0 60.050781 Z M 0 0.0507812 " fill-opacity="1" fill-rule="nonzero"/></g><g clip-path="url(#7ccfdb7d81)"><path fill="#ffffff" d="M 24.960938 -17.109375 L 119.460938 -17.109375 L 119.460938 77.390625 L 24.960938 77.390625 Z M 24.960938 -17.109375 " fill-opacity="1" fill-rule="evenodd"/></g><path fill="#000000" d="M 90.96875 32.980469 C 90.667969 34.027344 89.566406 34.578125 88.492188 34.578125 C 85.382812 34.578125 85.160156 32.097656 85.050781 30.996094 L 95.101562 30.996094 L 95.101562 30.308594 C 95.101562 23.617188 91.109375 22.242188 88.21875 22.242188 C 81.804688 22.242188 81.199219 27.886719 81.199219 29.648438 C 81.199219 35.679688 84.363281 37.660156 88.496094 37.660156 C 91 37.660156 93.917969 36.503906 94.933594 32.980469 Z M 85.160156 28.492188 C 85.382812 26.5625 86.34375 25.40625 88.164062 25.40625 C 89.402344 25.40625 90.914062 26.125 91.136719 28.492188 Z M 110.894531 27.144531 C 110.894531 23.921875 108.664062 22.242188 105.800781 22.242188 C 103.019531 22.242188 101.917969 23.894531 101.394531 24.773438 L 101.339844 24.773438 L 101.339844 22.625 L 97.652344 22.625 L 97.652344 37.277344 L 101.507812 37.277344 L 101.507812 28.878906 C 101.507812 26.648438 102.828125 25.492188 104.535156 25.492188 C 106.984375 25.492188 107.039062 27.308594 107.039062 28.382812 L 107.039062 37.277344 L 110.894531 37.277344 Z M 44.445312 27.140625 C 44.445312 23.917969 42.214844 22.238281 39.351562 22.238281 C 36.570312 22.238281 35.46875 23.890625 34.945312 24.773438 L 34.890625 24.773438 L 34.890625 22.625 L 31.199219 22.625 L 31.199219 37.277344 L 35.054688 37.277344 L 35.054688 28.875 C 35.054688 26.644531 36.375 25.488281 38.085938 25.488281 C 40.535156 25.488281 40.589844 27.304688 40.589844 28.378906 L 40.589844 37.277344 L 44.445312 37.277344 Z M 56.628906 32.980469 C 56.328125 34.027344 55.226562 34.578125 54.152344 34.578125 C 51.042969 34.578125 50.820312 32.097656 50.710938 30.996094 L 60.761719 30.996094 L 60.761719 30.308594 C 60.761719 23.617188 56.769531 22.242188 53.878906 22.242188 C 47.460938 22.242188 46.855469 27.886719 46.855469 29.648438 C 46.855469 35.679688 50.023438 37.660156 54.152344 37.660156 C 56.65625 37.660156 59.574219 36.503906 60.597656 32.980469 Z M 50.820312 28.492188 C 51.042969 26.566406 52.003906 25.40625 53.824219 25.40625 C 55.0625 25.40625 56.574219 26.125 56.796875 28.492188 Z M 65.988281 22.625 L 70.820312 29.773438 L 65.667969 37.277344 L 61.1875 37.277344 L 66.339844 29.773438 L 61.441406 22.625 Z M 75.757812 29.773438 L 80.910156 37.277344 L 76.429688 37.277344 L 71.277344 29.773438 L 76.109375 22.625 L 80.65625 22.625 Z M 113.605469 35.710938 L 113.605469 35.898438 L 113.078125 35.898438 L 113.078125 37.277344 L 112.863281 37.277344 L 112.863281 35.898438 L 112.335938 35.898438 L 112.335938 35.710938 Z M 113.792969 35.710938 L 114.097656 35.710938 L 114.546875 37.035156 L 114.992188 35.710938 L 115.292969 35.710938 L 115.292969 37.277344 L 115.09375 37.277344 L 115.09375 36.351562 C 115.09375 36.320312 115.09375 36.265625 115.09375 36.191406 C 115.09375 36.121094 115.097656 36.039062 115.097656 35.957031 L 114.652344 37.277344 L 114.441406 37.277344 L 113.988281 35.957031 L 113.988281 36.003906 C 113.988281 36.042969 113.992188 36.101562 113.992188 36.179688 C 113.992188 36.257812 113.996094 36.316406 113.996094 36.351562 L 113.996094 37.277344 L 113.792969 37.277344 Z M 113.792969 35.710938 " fill-opacity="1" fill-rule="evenodd"/></svg>