<svg xmlns="http://www.w3.org/2000/svg" width="193" zoomAndPan="magnify" viewBox="0 0 144.75 60" height="80"
     preserveAspectRatio="xMidYMid meet" version="1.0"><defs><clipPath id="f25bedee4f"><path d="M 0 0.0507812 L 144.5 0.0507812 L 144.5 59.949219 L 0 59.949219 Z M 0 0.0507812 " clip-rule="nonzero"/></clipPath><clipPath id="f6488b3663"><path d="M 7.570312 15.84375 L 137.320312 15.84375 L 137.320312 44.34375 L 7.570312 44.34375 Z M 7.570312 15.84375 " clip-rule="nonzero"/></clipPath></defs><g clip-path="url(#f25bedee4f)"><path fill="#ffffff" d="M 0 0.0507812 L 144.75 0.0507812 L 144.75 60.050781 L 0 60.050781 Z M 0 0.0507812 " fill-opacity="1" fill-rule="nonzero"/><path fill="#ffffff" d="M 0 0.0507812 L 144.75 0.0507812 L 144.75 60.050781 L 0 60.050781 Z M 0 0.0507812 " fill-opacity="1" fill-rule="nonzero"/></g><g clip-path="url(#f6488b3663)"><path fill="#ffffff" d="M 7.570312 -34.683594 L 137.320312 -34.683594 L 137.320312 95.066406 L 7.570312 95.066406 Z M 7.570312 -34.683594 " fill-opacity="1" fill-rule="evenodd"/></g><path fill="#cf4044" d="M 13.292969 33.867188 L 13.292969 26.515625 L 18.371094 26.515625 L 18.605469 26.523438 L 18.71875 26.527344 L 18.9375 26.535156 L 19.042969 26.542969 L 19.144531 26.550781 L 19.339844 26.566406 L 19.433594 26.578125 L 19.523438 26.585938 L 19.613281 26.597656 L 19.695312 26.609375 L 19.777344 26.625 L 19.859375 26.636719 L 19.9375 26.652344 L 20.019531 26.671875 L 20.09375 26.6875 L 20.171875 26.707031 L 20.246094 26.730469 L 20.320312 26.75 L 20.394531 26.773438 L 20.46875 26.800781 L 20.539062 26.824219 L 20.609375 26.851562 L 20.679688 26.882812 L 20.75 26.910156 L 20.816406 26.941406 L 20.886719 26.972656 L 20.953125 27.007812 L 21.082031 27.082031 L 21.207031 27.160156 L 21.324219 27.246094 L 21.4375 27.335938 L 21.542969 27.433594 L 21.644531 27.539062 L 21.738281 27.644531 L 21.824219 27.761719 L 21.90625 27.886719 L 21.980469 28.011719 L 22.042969 28.144531 L 22.09375 28.277344 L 22.136719 28.410156 L 22.164062 28.546875 L 22.183594 28.6875 L 22.1875 28.828125 L 22.183594 28.941406 L 22.171875 29.054688 L 22.15625 29.167969 L 22.128906 29.277344 L 22.097656 29.386719 L 22.054688 29.492188 L 22.007812 29.59375 L 21.953125 29.695312 L 21.894531 29.792969 L 21.824219 29.886719 L 21.75 29.980469 L 21.671875 30.066406 L 21.585938 30.152344 L 21.492188 30.230469 L 21.394531 30.3125 L 21.289062 30.386719 L 21.191406 30.453125 L 21.078125 30.519531 L 20.953125 30.582031 L 20.820312 30.640625 L 20.679688 30.699219 L 20.554688 30.746094 L 22.542969 33.863281 L 19.171875 33.863281 L 17.585938 31.183594 L 16.316406 31.183594 L 16.316406 33.863281 L 13.292969 33.863281 Z M 16.316406 28.308594 L 16.316406 29.441406 L 17.902344 29.441406 L 18.011719 29.4375 L 18.109375 29.433594 L 18.191406 29.429688 L 18.261719 29.425781 L 18.316406 29.417969 L 18.363281 29.414062 L 18.457031 29.398438 L 18.5 29.386719 L 18.546875 29.375 L 18.640625 29.34375 L 18.683594 29.328125 L 18.734375 29.304688 L 18.777344 29.28125 L 18.863281 29.226562 L 18.902344 29.195312 L 18.9375 29.167969 L 18.96875 29.132812 L 19 29.09375 L 19.03125 29.058594 L 19.050781 29.023438 L 19.070312 28.992188 L 19.085938 28.960938 L 19.101562 28.90625 L 19.105469 28.882812 L 19.105469 28.859375 L 19.101562 28.796875 L 19.089844 28.746094 L 19.070312 28.695312 L 19.039062 28.648438 L 19 28.601562 L 18.941406 28.550781 L 18.871094 28.5 L 18.777344 28.449219 L 18.734375 28.429688 L 18.6875 28.410156 L 18.644531 28.390625 L 18.597656 28.378906 L 18.550781 28.363281 L 18.503906 28.351562 L 18.402344 28.335938 L 18.335938 28.332031 L 18.257812 28.324219 L 18.164062 28.320312 L 18.050781 28.316406 L 17.925781 28.3125 L 17.785156 28.3125 L 17.625 28.308594 Z M 27.488281 26.414062 L 27.625 26.417969 L 27.757812 26.417969 L 27.886719 26.425781 L 28.015625 26.429688 L 28.390625 26.464844 L 28.632812 26.496094 L 28.75 26.515625 L 28.863281 26.535156 L 28.980469 26.558594 L 29.09375 26.585938 L 29.203125 26.613281 L 29.3125 26.644531 L 29.417969 26.671875 L 29.628906 26.742188 L 29.730469 26.78125 L 29.828125 26.820312 L 29.929688 26.863281 L 30.023438 26.90625 L 30.117188 26.953125 L 30.210938 27.003906 L 30.390625 27.105469 L 30.476562 27.164062 L 30.5625 27.21875 L 30.644531 27.277344 L 30.726562 27.339844 L 30.882812 27.472656 L 31.035156 27.613281 L 31.175781 27.757812 L 31.308594 27.910156 L 31.433594 28.066406 L 31.546875 28.222656 L 31.652344 28.386719 L 31.746094 28.554688 L 31.832031 28.726562 L 31.90625 28.90625 L 31.972656 29.085938 L 32.027344 29.269531 L 32.074219 29.457031 L 32.109375 29.648438 L 32.132812 29.839844 L 32.148438 30.039062 L 32.152344 30.238281 L 32.152344 30.363281 L 32.144531 30.488281 L 32.132812 30.617188 L 32.113281 30.742188 L 32.09375 30.863281 L 32.066406 30.988281 L 32.035156 31.109375 L 32 31.234375 L 31.957031 31.351562 L 31.914062 31.472656 L 31.863281 31.59375 L 31.808594 31.710938 L 31.75 31.828125 L 31.683594 31.945312 L 31.617188 32.058594 L 31.542969 32.171875 L 31.46875 32.28125 L 31.386719 32.390625 L 31.304688 32.496094 L 31.21875 32.597656 L 31.125 32.695312 L 31.03125 32.789062 L 30.933594 32.878906 L 30.832031 32.964844 L 30.726562 33.050781 L 30.617188 33.128906 L 30.390625 33.277344 L 30.269531 33.347656 L 30.148438 33.410156 L 30.023438 33.472656 L 29.894531 33.53125 L 29.761719 33.585938 L 29.628906 33.632812 L 29.488281 33.679688 L 29.347656 33.722656 L 29.203125 33.761719 L 29.054688 33.800781 L 28.90625 33.832031 L 28.75 33.863281 L 28.59375 33.886719 L 28.433594 33.910156 L 28.273438 33.925781 L 28.105469 33.941406 L 27.9375 33.953125 L 27.765625 33.964844 L 27.589844 33.96875 L 27.28125 33.96875 L 27.023438 33.960938 L 26.773438 33.945312 L 26.648438 33.933594 L 26.527344 33.921875 L 26.410156 33.90625 L 26.289062 33.890625 L 26.0625 33.851562 L 25.949219 33.828125 L 25.835938 33.800781 L 25.617188 33.746094 L 25.511719 33.714844 L 25.40625 33.679688 L 25.203125 33.609375 L 25.105469 33.566406 L 25.007812 33.527344 L 24.910156 33.484375 L 24.722656 33.390625 L 24.542969 33.289062 L 24.457031 33.234375 L 24.285156 33.117188 L 24.203125 33.054688 L 24.125 32.996094 L 24.042969 32.929688 L 23.890625 32.789062 L 23.746094 32.644531 L 23.609375 32.496094 L 23.484375 32.34375 L 23.367188 32.183594 L 23.261719 32.023438 L 23.164062 31.855469 L 23.074219 31.683594 L 23 31.507812 L 22.933594 31.328125 L 22.875 31.144531 L 22.832031 30.957031 L 22.796875 30.765625 L 22.769531 30.570312 L 22.753906 30.375 L 22.75 30.171875 L 22.753906 29.972656 L 22.769531 29.773438 L 22.792969 29.582031 L 22.828125 29.394531 L 22.871094 29.207031 L 22.925781 29.027344 L 22.992188 28.851562 L 23.066406 28.675781 L 23.148438 28.511719 L 23.246094 28.347656 L 23.347656 28.1875 L 23.460938 28.035156 L 23.585938 27.886719 L 23.71875 27.746094 L 23.859375 27.605469 L 24.007812 27.472656 L 24.253906 27.285156 L 24.339844 27.226562 L 24.425781 27.171875 L 24.515625 27.117188 L 24.605469 27.066406 L 24.699219 27.015625 L 24.894531 26.921875 L 24.992188 26.878906 L 25.09375 26.835938 L 25.195312 26.796875 L 25.300781 26.757812 L 25.511719 26.6875 L 25.625 26.65625 L 25.734375 26.628906 L 25.847656 26.597656 L 26.199219 26.527344 L 26.320312 26.507812 L 26.441406 26.492188 L 26.691406 26.460938 L 26.949219 26.4375 L 27.082031 26.429688 L 27.214844 26.425781 L 27.351562 26.421875 Z M 27.480469 28.296875 L 27.367188 28.300781 L 27.257812 28.304688 L 27.152344 28.316406 L 27.054688 28.332031 L 26.960938 28.347656 L 26.875 28.367188 L 26.789062 28.394531 L 26.714844 28.421875 L 26.644531 28.453125 L 26.578125 28.484375 L 26.515625 28.523438 L 26.457031 28.5625 L 26.40625 28.605469 L 26.355469 28.652344 L 26.308594 28.703125 L 26.265625 28.757812 L 26.222656 28.824219 L 26.175781 28.894531 L 26.136719 28.964844 L 26.097656 29.039062 L 26.0625 29.117188 L 26 29.28125 L 25.972656 29.371094 L 25.949219 29.460938 L 25.929688 29.554688 L 25.914062 29.648438 L 25.898438 29.75 L 25.886719 29.851562 L 25.871094 30.070312 L 25.871094 30.179688 L 25.878906 30.429688 L 25.898438 30.660156 L 25.933594 30.871094 L 25.980469 31.058594 L 26.035156 31.230469 L 26.105469 31.382812 L 26.1875 31.515625 L 26.277344 31.636719 L 26.375 31.738281 L 26.488281 31.824219 L 26.613281 31.902344 L 26.753906 31.964844 L 26.910156 32.015625 L 27.082031 32.050781 L 27.273438 32.074219 L 27.484375 32.082031 L 27.59375 32.082031 L 27.699219 32.074219 L 27.800781 32.066406 L 27.898438 32.050781 L 27.988281 32.03125 L 28.070312 32.011719 L 28.152344 31.988281 L 28.226562 31.960938 L 28.359375 31.898438 L 28.417969 31.859375 L 28.472656 31.824219 L 28.527344 31.777344 L 28.574219 31.734375 L 28.617188 31.6875 L 28.660156 31.632812 L 28.703125 31.570312 L 28.746094 31.503906 L 28.78125 31.433594 L 28.820312 31.359375 L 28.851562 31.285156 L 28.882812 31.203125 L 28.910156 31.121094 L 28.9375 31.03125 L 28.957031 30.941406 L 28.996094 30.746094 L 29.019531 30.535156 L 29.027344 30.425781 L 29.03125 30.3125 L 29.035156 30.191406 L 29.03125 30.070312 L 29.027344 29.953125 L 29.019531 29.839844 L 29.007812 29.726562 L 28.976562 29.523438 L 28.953125 29.425781 L 28.929688 29.332031 L 28.902344 29.242188 L 28.875 29.160156 L 28.84375 29.078125 L 28.808594 29 L 28.730469 28.859375 L 28.644531 28.734375 L 28.601562 28.683594 L 28.554688 28.640625 L 28.507812 28.59375 L 28.457031 28.554688 L 28.398438 28.515625 L 28.339844 28.480469 L 28.207031 28.417969 L 28.132812 28.394531 L 28.054688 28.371094 L 27.972656 28.351562 L 27.882812 28.332031 L 27.789062 28.320312 L 27.691406 28.308594 L 27.589844 28.300781 Z M 38.371094 26.515625 L 41.878906 33.867188 L 38.621094 33.867188 L 37.992188 32.472656 L 35.03125 32.472656 L 34.378906 33.867188 L 31.605469 33.867188 L 35.195312 26.515625 Z M 35.886719 30.644531 L 37.15625 30.644531 L 36.523438 29.261719 Z M 42.226562 26.515625 L 45.929688 26.515625 L 46.171875 26.519531 L 46.410156 26.527344 L 46.640625 26.539062 L 46.863281 26.554688 L 47.078125 26.574219 L 47.285156 26.597656 L 47.484375 26.621094 L 47.675781 26.648438 L 47.863281 26.679688 L 48.039062 26.714844 L 48.207031 26.753906 L 48.371094 26.796875 L 48.527344 26.84375 L 48.675781 26.894531 L 48.8125 26.949219 L 48.972656 27.015625 L 49.125 27.085938 L 49.273438 27.160156 L 49.414062 27.238281 L 49.554688 27.320312 L 49.6875 27.40625 L 49.816406 27.492188 L 49.941406 27.585938 L 50.0625 27.683594 L 50.175781 27.785156 L 50.289062 27.890625 L 50.390625 27.996094 L 50.492188 28.109375 L 50.585938 28.222656 L 50.679688 28.34375 L 50.761719 28.464844 L 50.824219 28.5625 L 50.882812 28.660156 L 50.9375 28.757812 L 50.988281 28.859375 L 51.035156 28.960938 L 51.078125 29.066406 L 51.117188 29.171875 L 51.179688 29.382812 L 51.207031 29.492188 L 51.230469 29.605469 L 51.246094 29.714844 L 51.261719 29.828125 L 51.273438 29.941406 L 51.277344 30.054688 L 51.28125 30.171875 L 51.273438 30.363281 L 51.257812 30.558594 L 51.230469 30.746094 L 51.191406 30.933594 L 51.140625 31.113281 L 51.082031 31.292969 L 51.007812 31.464844 L 50.925781 31.636719 L 50.832031 31.800781 L 50.726562 31.960938 L 50.609375 32.113281 L 50.484375 32.265625 L 50.347656 32.410156 L 50.203125 32.550781 L 50.046875 32.6875 L 49.878906 32.816406 L 49.789062 32.882812 L 49.699219 32.945312 L 49.605469 33.007812 L 49.410156 33.125 L 49.3125 33.179688 L 49.109375 33.28125 L 49.003906 33.332031 L 48.898438 33.375 L 48.789062 33.417969 L 48.5625 33.503906 L 48.449219 33.539062 L 48.332031 33.578125 L 48.214844 33.609375 L 47.972656 33.671875 L 47.851562 33.699219 L 47.722656 33.722656 L 47.597656 33.746094 L 47.46875 33.765625 L 47.203125 33.804688 L 47.070312 33.816406 L 46.933594 33.832031 L 46.792969 33.839844 L 46.652344 33.851562 L 46.511719 33.859375 L 46.222656 33.867188 L 42.226562 33.867188 Z M 45.191406 28.347656 L 45.191406 32.003906 L 46.035156 32.003906 L 46.171875 31.996094 L 46.429688 31.972656 L 46.550781 31.953125 L 46.664062 31.933594 L 46.777344 31.90625 L 46.882812 31.878906 L 46.984375 31.847656 L 47.171875 31.769531 L 47.257812 31.730469 L 47.339844 31.683594 L 47.417969 31.632812 L 47.492188 31.582031 L 47.558594 31.527344 L 47.640625 31.453125 L 47.714844 31.378906 L 47.78125 31.304688 L 47.847656 31.226562 L 47.90625 31.148438 L 47.957031 31.066406 L 48.003906 30.984375 L 48.046875 30.898438 L 48.117188 30.726562 L 48.144531 30.636719 L 48.183594 30.449219 L 48.195312 30.351562 L 48.203125 30.25 L 48.207031 30.148438 L 48.203125 30.046875 L 48.195312 29.949219 L 48.183594 29.859375 L 48.167969 29.765625 L 48.144531 29.675781 L 48.117188 29.589844 L 48.085938 29.503906 L 48.050781 29.421875 L 48.007812 29.339844 L 47.960938 29.261719 L 47.910156 29.183594 L 47.855469 29.105469 L 47.792969 29.03125 L 47.726562 28.957031 L 47.652344 28.886719 L 47.574219 28.816406 L 47.507812 28.761719 L 47.433594 28.710938 L 47.359375 28.664062 L 47.277344 28.617188 L 47.191406 28.574219 L 47.101562 28.535156 L 47.003906 28.5 L 46.902344 28.46875 L 46.796875 28.441406 L 46.6875 28.417969 L 46.570312 28.394531 L 46.449219 28.378906 L 46.324219 28.363281 L 46.195312 28.355469 L 46.058594 28.347656 Z M 60.15625 28.496094 L 57.496094 29.078125 L 57.320312 28.804688 L 57.257812 28.71875 L 57.195312 28.644531 L 57.128906 28.578125 L 57.0625 28.519531 L 56.992188 28.46875 L 56.921875 28.425781 L 56.847656 28.390625 L 56.808594 28.375 L 56.722656 28.34375 L 56.671875 28.328125 L 56.621094 28.316406 L 56.566406 28.304688 L 56.503906 28.292969 L 56.445312 28.28125 L 56.378906 28.273438 L 56.238281 28.257812 L 56.164062 28.253906 L 56.007812 28.246094 L 55.921875 28.242188 L 55.835938 28.242188 L 55.675781 28.246094 L 55.527344 28.25 L 55.390625 28.261719 L 55.265625 28.277344 L 55.15625 28.296875 L 55.058594 28.316406 L 54.972656 28.34375 L 54.90625 28.371094 L 54.847656 28.398438 L 54.808594 28.421875 L 54.777344 28.449219 L 54.757812 28.46875 L 54.746094 28.488281 L 54.738281 28.503906 L 54.734375 28.527344 L 54.734375 28.578125 L 54.738281 28.597656 L 54.746094 28.617188 L 54.757812 28.632812 L 54.773438 28.652344 L 54.800781 28.675781 L 54.835938 28.699219 L 54.890625 28.730469 L 54.921875 28.742188 L 54.957031 28.757812 L 55 28.773438 L 55.046875 28.789062 L 55.097656 28.804688 L 55.152344 28.820312 L 55.210938 28.835938 L 55.277344 28.851562 L 55.347656 28.867188 L 55.421875 28.878906 L 55.5 28.894531 L 55.582031 28.910156 L 55.667969 28.925781 L 55.761719 28.9375 L 55.855469 28.953125 L 55.957031 28.964844 L 56.101562 28.984375 L 56.242188 29.003906 L 56.378906 29.023438 L 56.507812 29.042969 L 56.632812 29.058594 L 56.757812 29.078125 L 56.875 29.097656 L 56.984375 29.113281 L 57.09375 29.132812 L 57.296875 29.164062 L 57.390625 29.183594 L 57.480469 29.199219 L 57.566406 29.214844 L 57.648438 29.230469 L 57.726562 29.246094 L 57.871094 29.277344 L 58.011719 29.3125 L 58.148438 29.351562 L 58.28125 29.390625 L 58.40625 29.429688 L 58.527344 29.472656 L 58.644531 29.519531 L 58.757812 29.566406 L 58.929688 29.648438 L 59.09375 29.734375 L 59.246094 29.824219 L 59.390625 29.917969 L 59.523438 30.015625 L 59.644531 30.121094 L 59.757812 30.226562 L 59.859375 30.34375 L 59.953125 30.460938 L 60.035156 30.585938 L 60.105469 30.71875 L 60.160156 30.851562 L 60.203125 30.992188 L 60.234375 31.136719 L 60.257812 31.28125 L 60.261719 31.429688 L 60.257812 31.546875 L 60.246094 31.660156 L 60.230469 31.773438 L 60.203125 31.886719 L 60.167969 31.996094 L 60.128906 32.101562 L 60.078125 32.207031 L 60.023438 32.3125 L 59.960938 32.410156 L 59.890625 32.511719 L 59.816406 32.605469 L 59.734375 32.699219 L 59.648438 32.792969 L 59.554688 32.878906 L 59.453125 32.96875 L 59.347656 33.050781 L 59.269531 33.109375 L 59.191406 33.164062 L 59.109375 33.21875 L 58.9375 33.320312 L 58.847656 33.371094 L 58.757812 33.414062 L 58.664062 33.460938 L 58.46875 33.539062 L 58.265625 33.617188 L 58.160156 33.652344 L 57.941406 33.714844 L 57.828125 33.746094 L 57.714844 33.769531 L 57.597656 33.796875 L 57.480469 33.820312 L 57.359375 33.839844 L 57.109375 33.878906 L 56.984375 33.894531 L 56.851562 33.910156 L 56.585938 33.933594 L 56.449219 33.945312 L 56.308594 33.953125 L 56.167969 33.957031 L 55.878906 33.964844 L 55.496094 33.964844 L 55.273438 33.957031 L 55.050781 33.945312 L 54.835938 33.929688 L 54.625 33.90625 L 54.417969 33.878906 L 54.21875 33.847656 L 54.023438 33.8125 L 53.832031 33.773438 L 53.644531 33.726562 L 53.464844 33.675781 L 53.285156 33.621094 L 53.113281 33.5625 L 52.785156 33.421875 L 52.632812 33.347656 L 52.503906 33.28125 L 52.386719 33.214844 L 52.269531 33.144531 L 52.164062 33.074219 L 52.0625 33.003906 L 51.964844 32.925781 L 51.792969 32.769531 L 51.71875 32.683594 L 51.644531 32.589844 L 51.574219 32.496094 L 51.507812 32.390625 L 51.441406 32.28125 L 51.378906 32.164062 L 51.316406 32.042969 L 51.089844 31.5625 L 53.929688 31.140625 L 54.078125 31.4375 L 54.132812 31.523438 L 54.191406 31.605469 L 54.257812 31.675781 L 54.332031 31.742188 L 54.414062 31.804688 L 54.503906 31.859375 L 54.609375 31.910156 L 54.660156 31.933594 L 54.71875 31.953125 L 54.777344 31.976562 L 54.84375 31.996094 L 54.910156 32.011719 L 54.984375 32.027344 L 55.054688 32.042969 L 55.132812 32.058594 L 55.296875 32.082031 L 55.476562 32.097656 L 55.570312 32.105469 L 55.667969 32.109375 L 55.765625 32.109375 L 55.867188 32.113281 L 55.960938 32.109375 L 56.050781 32.109375 L 56.136719 32.105469 L 56.21875 32.101562 L 56.296875 32.09375 L 56.445312 32.078125 L 56.515625 32.066406 L 56.640625 32.042969 L 56.699219 32.027344 L 56.753906 32.011719 L 56.804688 32 L 56.851562 31.980469 L 56.898438 31.964844 L 56.9375 31.949219 L 57.019531 31.90625 L 57.089844 31.863281 L 57.136719 31.824219 L 57.171875 31.789062 L 57.195312 31.757812 L 57.207031 31.734375 L 57.210938 31.714844 L 57.214844 31.691406 L 57.210938 31.664062 L 57.207031 31.644531 L 57.199219 31.628906 L 57.1875 31.609375 L 57.164062 31.585938 L 57.128906 31.558594 L 57.082031 31.53125 L 57.015625 31.496094 L 56.980469 31.484375 L 56.9375 31.46875 L 56.882812 31.453125 L 56.824219 31.433594 L 56.761719 31.417969 L 56.691406 31.398438 L 56.613281 31.382812 L 56.53125 31.363281 L 56.445312 31.347656 L 56.351562 31.328125 L 56.253906 31.3125 L 56.148438 31.292969 L 56.035156 31.277344 L 55.921875 31.257812 L 55.800781 31.242188 L 55.671875 31.226562 L 55.472656 31.199219 L 55.277344 31.167969 L 55.089844 31.140625 L 54.910156 31.109375 L 54.734375 31.078125 L 54.566406 31.046875 L 54.402344 31.015625 L 54.246094 30.980469 L 54.097656 30.945312 L 53.953125 30.910156 L 53.8125 30.871094 L 53.679688 30.835938 L 53.554688 30.796875 L 53.433594 30.757812 L 53.316406 30.714844 L 53.207031 30.675781 L 53.042969 30.605469 L 52.886719 30.53125 L 52.742188 30.453125 L 52.601562 30.363281 L 52.476562 30.273438 L 52.355469 30.175781 L 52.246094 30.066406 L 52.148438 29.957031 L 52.058594 29.835938 L 51.984375 29.710938 L 51.917969 29.582031 L 51.863281 29.445312 L 51.820312 29.304688 L 51.792969 29.15625 L 51.773438 29.007812 L 51.769531 28.855469 L 51.773438 28.71875 L 51.789062 28.582031 L 51.8125 28.449219 L 51.847656 28.320312 L 51.890625 28.191406 L 51.945312 28.066406 L 52.011719 27.945312 L 52.082031 27.828125 L 52.164062 27.71875 L 52.253906 27.609375 L 52.355469 27.503906 L 52.460938 27.40625 L 52.574219 27.308594 L 52.699219 27.21875 L 52.828125 27.128906 L 52.964844 27.046875 L 53.109375 26.96875 L 53.253906 26.894531 L 53.40625 26.828125 L 53.5625 26.765625 L 53.890625 26.65625 L 54.0625 26.613281 L 54.242188 26.570312 L 54.421875 26.535156 L 54.609375 26.503906 L 54.800781 26.476562 L 54.996094 26.453125 L 55.195312 26.4375 L 55.402344 26.425781 L 55.613281 26.417969 L 55.828125 26.414062 L 56.042969 26.417969 L 56.25 26.425781 L 56.453125 26.433594 L 56.648438 26.449219 L 56.84375 26.46875 L 57.03125 26.492188 L 57.21875 26.519531 L 57.398438 26.550781 L 57.574219 26.585938 L 57.742188 26.625 L 57.910156 26.671875 L 58.070312 26.71875 L 58.226562 26.773438 L 58.378906 26.832031 L 58.527344 26.894531 L 58.671875 26.960938 L 58.777344 27.011719 L 58.878906 27.070312 L 58.976562 27.125 L 59.070312 27.183594 L 59.160156 27.246094 L 59.246094 27.308594 L 59.324219 27.371094 L 59.402344 27.441406 L 59.472656 27.511719 L 59.542969 27.585938 L 59.613281 27.667969 L 59.679688 27.753906 L 59.746094 27.84375 L 59.8125 27.9375 L 59.878906 28.039062 Z M 68.441406 26.515625 L 68.441406 28.441406 L 65.886719 28.441406 L 65.886719 33.867188 L 62.847656 33.867188 L 62.847656 28.441406 L 60.277344 28.441406 L 60.277344 26.515625 Z M 73.054688 26.414062 L 73.1875 26.417969 L 73.320312 26.417969 L 73.449219 26.425781 L 73.578125 26.429688 L 73.703125 26.441406 L 73.832031 26.453125 L 73.953125 26.464844 L 74.195312 26.496094 L 74.429688 26.535156 L 74.542969 26.558594 L 74.65625 26.585938 L 74.765625 26.613281 L 74.875 26.644531 L 74.984375 26.671875 L 75.089844 26.707031 L 75.191406 26.742188 L 75.394531 26.820312 L 75.492188 26.863281 L 75.585938 26.910156 L 75.679688 26.953125 L 75.867188 27.054688 L 75.957031 27.109375 L 76.039062 27.164062 L 76.125 27.222656 L 76.207031 27.28125 L 76.371094 27.40625 L 76.445312 27.472656 L 76.597656 27.617188 L 76.742188 27.761719 L 76.875 27.910156 L 77 28.066406 L 77.113281 28.226562 L 77.21875 28.390625 L 77.3125 28.558594 L 77.398438 28.730469 L 77.472656 28.90625 L 77.539062 29.085938 L 77.59375 29.269531 L 77.636719 29.457031 L 77.671875 29.648438 L 77.695312 29.839844 L 77.710938 30.039062 L 77.714844 30.238281 L 77.714844 30.363281 L 77.707031 30.492188 L 77.695312 30.617188 L 77.679688 30.742188 L 77.65625 30.867188 L 77.601562 31.109375 L 77.5625 31.234375 L 77.523438 31.351562 L 77.476562 31.472656 L 77.429688 31.589844 L 77.3125 31.824219 L 77.25 31.941406 L 77.109375 32.167969 L 77.03125 32.28125 L 76.953125 32.386719 L 76.871094 32.492188 L 76.78125 32.59375 L 76.691406 32.691406 L 76.496094 32.878906 L 76.394531 32.964844 L 76.289062 33.046875 L 76.183594 33.125 L 76.070312 33.203125 L 75.957031 33.273438 L 75.835938 33.34375 L 75.710938 33.410156 L 75.460938 33.527344 L 75.328125 33.582031 L 75.191406 33.632812 L 75.054688 33.679688 L 74.914062 33.71875 L 74.769531 33.761719 L 74.621094 33.796875 L 74.46875 33.832031 L 74.316406 33.859375 L 74.160156 33.882812 L 74 33.90625 L 73.835938 33.925781 L 73.671875 33.941406 L 73.5 33.953125 L 73.332031 33.960938 L 73.15625 33.964844 L 72.976562 33.96875 L 72.84375 33.96875 L 72.714844 33.964844 L 72.589844 33.957031 L 72.460938 33.949219 L 72.335938 33.941406 L 72.09375 33.917969 L 71.972656 33.902344 L 71.855469 33.886719 L 71.738281 33.867188 L 71.625 33.847656 L 71.511719 33.824219 L 71.402344 33.796875 L 71.292969 33.773438 L 71.183594 33.742188 L 70.972656 33.679688 L 70.871094 33.644531 L 70.667969 33.566406 L 70.472656 33.480469 L 70.285156 33.386719 L 70.105469 33.285156 L 70.019531 33.230469 L 69.933594 33.171875 L 69.769531 33.054688 L 69.6875 32.992188 L 69.609375 32.925781 L 69.457031 32.785156 L 69.308594 32.640625 L 69.175781 32.492188 L 69.046875 32.339844 L 68.929688 32.179688 L 68.824219 32.019531 L 68.726562 31.851562 L 68.640625 31.679688 L 68.566406 31.503906 L 68.5 31.324219 L 68.441406 31.140625 L 68.398438 30.953125 L 68.359375 30.761719 L 68.335938 30.566406 L 68.320312 30.371094 L 68.316406 30.167969 L 68.320312 29.96875 L 68.335938 29.769531 L 68.359375 29.578125 L 68.394531 29.390625 L 68.4375 29.203125 L 68.492188 29.023438 L 68.558594 28.847656 L 68.632812 28.675781 L 68.714844 28.507812 L 68.808594 28.34375 L 68.914062 28.183594 L 69.027344 28.03125 L 69.152344 27.882812 L 69.28125 27.742188 L 69.425781 27.601562 L 69.574219 27.46875 L 69.820312 27.28125 L 69.90625 27.222656 L 69.992188 27.167969 L 70.082031 27.113281 L 70.171875 27.0625 L 70.265625 27.011719 L 70.359375 26.964844 L 70.457031 26.917969 L 70.558594 26.875 L 70.65625 26.832031 L 70.761719 26.792969 L 70.863281 26.753906 L 70.96875 26.71875 L 71.078125 26.683594 L 71.1875 26.652344 L 71.300781 26.625 L 71.414062 26.59375 L 71.527344 26.570312 L 71.644531 26.546875 L 71.765625 26.523438 L 71.886719 26.503906 L 72.007812 26.488281 L 72.257812 26.457031 L 72.515625 26.433594 L 72.648438 26.425781 L 72.914062 26.417969 Z M 73.046875 28.296875 L 72.929688 28.300781 L 72.820312 28.304688 L 72.714844 28.316406 L 72.617188 28.332031 L 72.523438 28.347656 L 72.4375 28.367188 L 72.355469 28.394531 L 72.277344 28.421875 L 72.207031 28.453125 L 72.140625 28.484375 L 72.078125 28.523438 L 72.019531 28.5625 L 71.96875 28.605469 L 71.917969 28.652344 L 71.875 28.703125 L 71.832031 28.757812 L 71.785156 28.824219 L 71.699219 28.964844 L 71.660156 29.039062 L 71.625 29.117188 L 71.5625 29.28125 L 71.515625 29.460938 L 71.492188 29.554688 L 71.476562 29.648438 L 71.460938 29.75 L 71.449219 29.851562 L 71.441406 29.960938 L 71.433594 30.179688 L 71.441406 30.429688 L 71.460938 30.660156 L 71.496094 30.871094 L 71.542969 31.058594 L 71.601562 31.230469 L 71.671875 31.382812 L 71.75 31.515625 L 71.839844 31.636719 L 71.941406 31.738281 L 72.050781 31.824219 L 72.179688 31.902344 L 72.316406 31.964844 L 72.472656 32.015625 L 72.648438 32.050781 L 72.839844 32.074219 L 73.050781 32.082031 L 73.160156 32.082031 L 73.363281 32.066406 L 73.460938 32.050781 L 73.550781 32.03125 L 73.636719 32.011719 L 73.714844 31.988281 L 73.789062 31.960938 L 73.921875 31.898438 L 73.980469 31.859375 L 74.035156 31.824219 L 74.085938 31.777344 L 74.136719 31.734375 L 74.222656 31.632812 L 74.265625 31.570312 L 74.304688 31.503906 L 74.34375 31.433594 L 74.414062 31.285156 L 74.445312 31.203125 L 74.472656 31.121094 L 74.5 31.03125 L 74.519531 30.941406 L 74.558594 30.746094 L 74.582031 30.535156 L 74.589844 30.425781 L 74.597656 30.191406 L 74.59375 30.070312 L 74.589844 29.953125 L 74.582031 29.835938 L 74.570312 29.726562 L 74.554688 29.621094 L 74.535156 29.519531 L 74.515625 29.425781 L 74.492188 29.332031 L 74.464844 29.242188 L 74.4375 29.15625 L 74.402344 29.078125 L 74.371094 29 L 74.292969 28.859375 L 74.25 28.792969 L 74.207031 28.734375 L 74.164062 28.683594 L 74.117188 28.636719 L 74.070312 28.59375 L 74.019531 28.554688 L 73.964844 28.515625 L 73.839844 28.445312 L 73.769531 28.417969 L 73.695312 28.390625 L 73.617188 28.367188 L 73.535156 28.347656 L 73.445312 28.332031 L 73.351562 28.316406 L 73.253906 28.304688 L 73.152344 28.300781 Z M 84.773438 29.964844 L 84.773438 26.515625 L 87.230469 26.515625 L 87.230469 33.867188 L 84.742188 33.867188 L 81.164062 29.832031 L 81.164062 33.867188 L 78.699219 33.867188 L 78.699219 26.515625 L 81.734375 26.515625 Z M 96.675781 28.398438 L 91.753906 28.398438 L 91.753906 29.191406 L 95.625 29.191406 L 95.625 31.050781 L 91.753906 31.050781 L 91.753906 31.941406 L 96.675781 31.941406 L 96.675781 33.867188 L 88.707031 33.867188 L 88.707031 26.515625 L 96.675781 26.515625 Z M 108.527344 26.515625 L 108.527344 28.441406 L 105.972656 28.441406 L 105.972656 33.867188 L 102.933594 33.867188 L 102.933594 28.441406 L 100.363281 28.441406 L 100.363281 26.515625 Z M 111.976562 26.515625 L 111.976562 33.867188 L 108.972656 33.867188 L 108.972656 26.515625 Z M 113.457031 33.867188 L 113.457031 26.515625 L 118.53125 26.515625 L 118.652344 26.519531 L 118.769531 26.523438 L 118.882812 26.527344 L 118.992188 26.53125 L 119.097656 26.535156 L 119.203125 26.542969 L 119.40625 26.558594 L 119.5 26.566406 L 119.59375 26.578125 L 119.6875 26.585938 L 119.859375 26.609375 L 119.941406 26.625 L 120.019531 26.640625 L 120.101562 26.65625 L 120.179688 26.671875 L 120.257812 26.691406 L 120.40625 26.730469 L 120.484375 26.753906 L 120.554688 26.773438 L 120.628906 26.800781 L 120.699219 26.824219 L 120.769531 26.851562 L 120.839844 26.882812 L 120.910156 26.910156 L 121.042969 26.972656 L 121.113281 27.007812 L 121.242188 27.082031 L 121.367188 27.164062 L 121.484375 27.246094 L 121.597656 27.339844 L 121.703125 27.4375 L 121.804688 27.539062 L 121.898438 27.648438 L 121.984375 27.761719 L 122.070312 27.886719 L 122.140625 28.015625 L 122.203125 28.144531 L 122.257812 28.277344 L 122.296875 28.414062 L 122.328125 28.550781 L 122.34375 28.691406 L 122.351562 28.828125 L 122.347656 28.945312 L 122.335938 29.058594 L 122.316406 29.171875 L 122.289062 29.28125 L 122.257812 29.390625 L 122.21875 29.496094 L 122.167969 29.597656 L 122.117188 29.695312 L 122.054688 29.792969 L 121.988281 29.890625 L 121.910156 29.980469 L 121.832031 30.066406 L 121.746094 30.152344 L 121.652344 30.234375 L 121.554688 30.3125 L 121.453125 30.386719 L 121.351562 30.457031 L 121.238281 30.519531 L 121.117188 30.585938 L 120.984375 30.644531 L 120.839844 30.703125 L 120.71875 30.746094 L 122.703125 33.867188 L 119.332031 33.867188 L 117.746094 31.1875 L 116.476562 31.1875 L 116.476562 33.867188 Z M 116.476562 28.308594 L 116.476562 29.441406 L 117.941406 29.441406 L 118.0625 29.4375 L 118.171875 29.4375 L 118.269531 29.433594 L 118.351562 29.429688 L 118.417969 29.425781 L 118.476562 29.417969 L 118.523438 29.414062 L 118.570312 29.40625 L 118.613281 29.398438 L 118.707031 29.375 L 118.800781 29.34375 L 118.84375 29.328125 L 118.9375 29.28125 L 118.980469 29.253906 L 119.019531 29.226562 L 119.058594 29.195312 L 119.09375 29.167969 L 119.128906 29.132812 L 119.160156 29.09375 L 119.1875 29.058594 L 119.210938 29.027344 L 119.230469 28.992188 L 119.242188 28.960938 L 119.253906 28.933594 L 119.257812 28.90625 L 119.265625 28.859375 L 119.257812 28.796875 L 119.246094 28.746094 L 119.226562 28.695312 L 119.199219 28.648438 L 119.15625 28.601562 L 119.101562 28.550781 L 119.027344 28.5 L 118.933594 28.449219 L 118.894531 28.429688 L 118.800781 28.390625 L 118.753906 28.378906 L 118.710938 28.363281 L 118.660156 28.351562 L 118.613281 28.34375 L 118.558594 28.335938 L 118.496094 28.332031 L 118.417969 28.324219 L 118.320312 28.320312 L 118.210938 28.316406 L 118.082031 28.3125 L 117.941406 28.3125 L 117.785156 28.308594 Z M 131.597656 28.398438 L 126.675781 28.398438 L 126.675781 29.191406 L 130.546875 29.191406 L 130.546875 31.050781 L 126.675781 31.050781 L 126.675781 31.941406 L 131.597656 31.941406 L 131.597656 33.867188 L 123.628906 33.867188 L 123.628906 26.515625 L 131.597656 26.515625 Z M 131.597656 28.398438 " fill-opacity="1" fill-rule="evenodd"/></svg>