<svg xmlns="http://www.w3.org/2000/svg" width="193" zoomAndPan="magnify" viewBox="0 0 144.75 60" height="80"
     preserveAspectRatio="xMidYMid meet" version="1.0"><defs><clipPath id="67e12e39b1"><path d="M 0 0.0507812 L 144.5 0.0507812 L 144.5 59.949219 L 0 59.949219 Z M 0 0.0507812 " clip-rule="nonzero"/></clipPath><clipPath id="af2f08f7d7"><path d="M 12.785156 15.101562 L 132.035156 15.101562 L 132.035156 45.101562 L 12.785156 45.101562 Z M 12.785156 15.101562 " clip-rule="nonzero"/></clipPath></defs><g clip-path="url(#67e12e39b1)"><path fill="#ffffff" d="M 0 0.0507812 L 144.75 0.0507812 L 144.75 330.050781 L 0 330.050781 Z M 0 0.0507812 " fill-opacity="1" fill-rule="nonzero"/><path fill="#ffffff" d="M 0 0.0507812 L 144.75 0.0507812 L 144.75 60.050781 L 0 60.050781 Z M 0 0.0507812 " fill-opacity="1" fill-rule="nonzero"/><path fill="#ffffff" d="M 0 0.0507812 L 144.75 0.0507812 L 144.75 60.050781 L 0 60.050781 Z M 0 0.0507812 " fill-opacity="1" fill-rule="nonzero"/></g><g clip-path="url(#af2f08f7d7)"><path fill="#ffffff" d="M 12.785156 15.152344 L 132.035156 15.152344 L 132.035156 45.050781 L 12.785156 45.050781 Z M 12.785156 15.152344 " fill-opacity="1" fill-rule="nonzero"/></g><path fill="#0066b2" d="M 93.019531 35.617188 L 83.09375 35.617188 L 82.683594 37.511719 L 86.039062 37.511719 L 84.902344 42.761719 L 88.117188 42.761719 L 89.253906 37.511719 L 92.609375 37.511719 Z M 93.019531 35.617188 " fill-opacity="1" fill-rule="nonzero"/><path fill="#0066b2" d="M 125.199219 37.511719 L 125.609375 35.617188 L 116.429688 35.617188 L 114.886719 42.761719 L 124.0625 42.761719 L 124.472656 40.871094 L 118.507812 40.871094 L 118.667969 40.136719 L 124.246094 40.136719 L 124.65625 38.246094 L 119.078125 38.246094 L 119.238281 37.511719 Z M 125.199219 37.511719 " fill-opacity="1" fill-rule="nonzero"/><path fill="#0066b2" d="M 113.917969 42.761719 L 112.367188 40.164062 C 112.941406 40.054688 113.441406 39.804688 113.871094 39.40625 C 114.300781 39.011719 114.597656 38.53125 114.753906 37.96875 L 114.753906 37.878906 C 115.023438 36.628906 114.132812 35.617188 112.765625 35.617188 L 104.566406 35.617188 L 103.019531 42.761719 L 106.234375 42.761719 L 106.78125 40.230469 L 108.980469 40.230469 L 110.492188 42.761719 Z M 107.390625 37.511719 L 111.234375 37.511719 C 111.335938 37.5 111.421875 37.53125 111.492188 37.609375 C 111.558594 37.6875 111.582031 37.777344 111.558594 37.878906 L 111.539062 37.96875 C 111.46875 38.214844 111.308594 38.335938 111.054688 38.335938 L 107.191406 38.335938 Z M 107.390625 37.511719 " fill-opacity="1" fill-rule="nonzero"/><path fill="#0066b2" d="M 100.265625 35.617188 L 97.394531 38.382812 L 96.050781 35.617188 L 93.351562 35.617188 L 95.8125 40.238281 L 95.265625 42.761719 L 98.566406 42.761719 L 99.140625 40.128906 L 103.960938 35.617188 Z M 100.265625 35.617188 " fill-opacity="1" fill-rule="nonzero"/><path fill="#0066b2" d="M 55.023438 24.320312 C 54.574219 24.125 52.574219 23.246094 52.1875 23.054688 C 51.695312 22.824219 51.351562 22.65625 51.417969 22.320312 C 51.472656 22.082031 51.671875 21.574219 52.910156 21.574219 C 54.144531 21.574219 53.984375 22.214844 53.941406 22.414062 L 53.757812 23.273438 L 59.089844 23.273438 L 59.113281 23.167969 C 59.449219 21.875 59.738281 20.777344 57.796875 19.949219 C 56.667969 19.503906 55.214844 19.296875 53.222656 19.296875 C 46.410156 19.296875 45.894531 21.6875 45.699219 22.589844 C 45.300781 24.332031 46.003906 24.632812 50.46875 26.578125 L 50.511719 26.597656 C 52.5 27.328125 52.472656 27.636719 52.359375 28.191406 C 52.289062 28.496094 52.144531 29.011719 50.859375 29.011719 C 49.574219 29.011719 49.648438 28.429688 49.695312 28.214844 L 49.917969 27.1875 L 44.3125 27.1875 L 44.289062 27.292969 C 43.96875 28.636719 43.640625 30.023438 45.996094 30.753906 C 47.421875 31.1875 50.078125 31.207031 50.597656 31.207031 C 57.613281 31.207031 58.125 28.839844 58.316406 27.949219 C 58.714844 26.085938 57.640625 25.578125 55.023438 24.359375 " fill-opacity="1" fill-rule="nonzero"/><path fill="#0066b2" d="M 77.910156 19.578125 L 83.34375 19.578125 L 80.855469 31.074219 L 75.421875 31.074219 Z M 77.910156 19.578125 " fill-opacity="1" fill-rule="nonzero"/><path fill="#0066b2" d="M 90.875 19.578125 L 88.859375 28.890625 L 94.605469 28.890625 L 94.128906 31.074219 L 82.707031 31.074219 L 85.195312 19.578125 Z M 90.875 19.578125 " fill-opacity="1" fill-rule="nonzero"/><path fill="#0066b2" d="M 111.691406 19.5625 L 109.875 27.964844 C 109.644531 29.019531 109.421875 30.066406 106.753906 30.777344 C 106.148438 30.941406 104.914062 31.238281 102.089844 31.238281 C 94.953125 31.238281 95.390625 29.214844 95.621094 28.160156 L 97.480469 19.5625 L 102.867188 19.5625 L 101.03125 28.011719 C 100.964844 28.324219 101.089844 28.957031 102.546875 28.957031 C 104 28.957031 104.371094 28.339844 104.4375 28.027344 L 106.269531 19.5625 Z M 111.691406 19.5625 " fill-opacity="1" fill-rule="nonzero"/><path fill="#0066b2" d="M 123.601562 19.578125 L 122.222656 25.953125 L 119.214844 20.613281 C 118.992188 20.269531 118.699219 20.003906 118.335938 19.820312 C 117.972656 19.632812 117.589844 19.554688 117.183594 19.578125 L 113.375 19.578125 L 110.886719 31.074219 L 116.136719 31.074219 L 117.515625 24.695312 L 121.09375 31.074219 L 126.347656 31.074219 L 128.855469 19.578125 Z M 123.601562 19.578125 " fill-opacity="1" fill-rule="nonzero"/><path fill="#0066b2" d="M 69.285156 31.074219 L 74.632812 31.074219 L 72.964844 19.578125 L 64.277344 19.578125 L 57.632812 31.074219 L 62.609375 31.074219 L 64.257812 28.214844 L 68.875 28.214844 Z M 65.519531 26.035156 L 67.949219 21.832031 L 68.554688 26.035156 Z M 65.519531 26.035156 " fill-opacity="1" fill-rule="nonzero"/><path fill="#f26f21" d="M 23.851562 17.289062 L 23.699219 17.289062 C 24.472656 17.585938 25.183594 17.988281 25.835938 18.503906 C 26.484375 19.019531 27.046875 19.617188 27.515625 20.300781 C 27.984375 20.988281 28.339844 21.726562 28.585938 22.519531 C 28.828125 23.3125 28.949219 24.125 28.945312 24.957031 C 28.945312 25.789062 28.820312 26.601562 28.570312 27.390625 C 28.320312 28.183594 27.960938 28.921875 27.488281 29.605469 C 27.015625 30.285156 26.453125 30.882812 25.796875 31.394531 C 25.144531 31.902344 24.429688 32.304688 23.652344 32.597656 L 23.851562 32.597656 C 24.351562 32.59375 24.839844 32.539062 25.328125 32.441406 C 25.816406 32.339844 26.289062 32.191406 26.746094 31.996094 C 27.203125 31.800781 27.636719 31.566406 28.046875 31.285156 C 28.460938 31.003906 28.839844 30.6875 29.1875 30.332031 C 29.535156 29.976562 29.847656 29.589844 30.121094 29.171875 C 30.390625 28.753906 30.621094 28.316406 30.804688 27.851562 C 30.992188 27.390625 31.132812 26.914062 31.222656 26.425781 C 31.316406 25.933594 31.359375 25.441406 31.355469 24.941406 C 31.359375 24.445312 31.316406 23.949219 31.222656 23.460938 C 31.132812 22.96875 30.992188 22.492188 30.804688 22.03125 C 30.621094 21.570312 30.390625 21.128906 30.121094 20.710938 C 29.847656 20.296875 29.535156 19.910156 29.1875 19.554688 C 28.839844 19.199219 28.460938 18.878906 28.046875 18.597656 C 27.636719 18.320312 27.203125 18.082031 26.746094 17.886719 C 26.289062 17.691406 25.816406 17.546875 25.328125 17.445312 C 24.839844 17.34375 24.351562 17.292969 23.851562 17.289062 " fill-opacity="1" fill-rule="nonzero"/><path fill="#f26f21" d="M 27.097656 17.289062 L 26.941406 17.289062 C 27.714844 17.585938 28.425781 17.992188 29.074219 18.503906 C 29.726562 19.019531 30.285156 19.621094 30.753906 20.304688 C 31.222656 20.988281 31.578125 21.726562 31.820312 22.523438 C 32.066406 23.316406 32.1875 24.128906 32.183594 24.957031 C 32.179688 25.789062 32.054688 26.597656 31.808594 27.390625 C 31.558594 28.183594 31.199219 28.917969 30.726562 29.601562 C 30.253906 30.285156 29.691406 30.878906 29.039062 31.390625 C 28.386719 31.902344 27.671875 32.304688 26.898438 32.597656 L 27.097656 32.597656 C 27.59375 32.59375 28.085938 32.539062 28.570312 32.4375 C 29.058594 32.335938 29.53125 32.191406 29.988281 31.996094 C 30.445312 31.800781 30.878906 31.5625 31.289062 31.285156 C 31.703125 31.003906 32.082031 30.683594 32.429688 30.328125 C 32.777344 29.972656 33.085938 29.585938 33.359375 29.171875 C 33.632812 28.753906 33.859375 28.3125 34.046875 27.851562 C 34.230469 27.390625 34.371094 26.914062 34.464844 26.425781 C 34.554688 25.933594 34.597656 25.441406 34.59375 24.941406 C 34.597656 24.445312 34.554688 23.949219 34.464844 23.460938 C 34.371094 22.96875 34.230469 22.496094 34.046875 22.03125 C 33.859375 21.570312 33.632812 21.128906 33.359375 20.714844 C 33.085938 20.296875 32.777344 19.910156 32.429688 19.554688 C 32.082031 19.199219 31.703125 18.882812 31.289062 18.601562 C 30.878906 18.320312 30.445312 18.082031 29.988281 17.886719 C 29.53125 17.695312 29.058594 17.546875 28.570312 17.445312 C 28.085938 17.34375 27.59375 17.292969 27.097656 17.289062 " fill-opacity="1" fill-rule="nonzero"/><path fill="#f26f21" d="M 30.3125 17.289062 L 30.15625 17.289062 C 30.929688 17.585938 31.644531 17.988281 32.292969 18.503906 C 32.945312 19.019531 33.503906 19.617188 33.972656 20.300781 C 34.441406 20.988281 34.800781 21.726562 35.042969 22.519531 C 35.289062 23.3125 35.410156 24.125 35.40625 24.957031 C 35.402344 25.789062 35.277344 26.601562 35.03125 27.390625 C 34.78125 28.183594 34.421875 28.921875 33.945312 29.605469 C 33.472656 30.285156 32.910156 30.882812 32.257812 31.394531 C 31.605469 31.902344 30.890625 32.304688 30.113281 32.597656 L 30.3125 32.597656 C 30.808594 32.59375 31.300781 32.542969 31.789062 32.441406 C 32.277344 32.34375 32.75 32.195312 33.207031 32 C 33.667969 31.808594 34.101562 31.570312 34.515625 31.292969 C 34.925781 31.011719 35.308594 30.695312 35.65625 30.339844 C 36.003906 29.984375 36.316406 29.597656 36.589844 29.179688 C 36.863281 28.761719 37.09375 28.320312 37.277344 27.859375 C 37.464844 27.398438 37.605469 26.921875 37.699219 26.429688 C 37.789062 25.941406 37.832031 25.445312 37.828125 24.945312 C 37.835938 24.445312 37.792969 23.953125 37.699219 23.460938 C 37.605469 22.96875 37.46875 22.492188 37.28125 22.03125 C 37.09375 21.566406 36.867188 21.125 36.59375 20.710938 C 36.320312 20.292969 36.007812 19.90625 35.660156 19.550781 C 35.308594 19.191406 34.929688 18.875 34.515625 18.59375 C 34.105469 18.3125 33.667969 18.078125 33.210938 17.882812 C 32.75 17.6875 32.277344 17.542969 31.789062 17.441406 C 31.304688 17.34375 30.808594 17.289062 30.3125 17.289062 " fill-opacity="1" fill-rule="nonzero"/><path fill="#f26f21" d="M 17.996094 26.355469 C 17.996094 26.089844 18.019531 25.820312 18.070312 25.558594 C 18.117188 25.292969 18.195312 25.035156 18.292969 24.789062 C 18.394531 24.539062 18.519531 24.300781 18.664062 24.078125 C 18.8125 23.851562 18.980469 23.644531 19.167969 23.453125 C 19.355469 23.261719 19.558594 23.089844 19.78125 22.9375 C 20.003906 22.785156 20.238281 22.65625 20.484375 22.554688 C 20.730469 22.449219 20.984375 22.367188 21.25 22.3125 C 21.511719 22.257812 21.777344 22.230469 22.042969 22.226562 C 22.632812 22.226562 23.195312 22.347656 23.730469 22.59375 C 24.265625 22.839844 24.726562 23.1875 25.109375 23.636719 C 24.988281 23.097656 24.773438 22.597656 24.464844 22.136719 C 24.15625 21.679688 23.777344 21.292969 23.320312 20.976562 C 22.867188 20.664062 22.371094 20.445312 21.832031 20.316406 C 21.296875 20.191406 20.753906 20.167969 20.207031 20.25 C 19.660156 20.328125 19.148438 20.507812 18.667969 20.78125 C 18.1875 21.058594 17.777344 21.410156 17.429688 21.84375 C 17.085938 22.273438 16.828125 22.753906 16.664062 23.285156 C 16.5 23.8125 16.4375 24.355469 16.480469 24.90625 C 16.472656 25.738281 16.683594 26.511719 17.109375 27.226562 C 17.53125 27.945312 18.109375 28.5 18.839844 28.890625 C 18.277344 28.144531 17.996094 27.304688 17.996094 26.367188 " fill-opacity="1" fill-rule="nonzero"/></svg>