<svg xmlns="http://www.w3.org/2000/svg" width="193" zoomAndPan="magnify" viewBox="0 0 144.75 60" height="80"
     preserveAspectRatio="xMidYMid meet" version="1.0"><defs><clipPath id="d5d4870c9a"><path d="M 0 0.0507812 L 144.5 0.0507812 L 144.5 59.949219 L 0 59.949219 Z M 0 0.0507812 " clip-rule="nonzero"/></clipPath><clipPath id="83ba834f75"><path d="M 9.394531 17.097656 L 135.394531 17.097656 L 135.394531 43.347656 L 9.394531 43.347656 Z M 9.394531 17.097656 " clip-rule="nonzero"/></clipPath><clipPath id="97e1bd4bf5"><path d="M 9.394531 20 L 44 20 L 44 43 L 9.394531 43 Z M 9.394531 20 " clip-rule="nonzero"/></clipPath></defs><g clip-path="url(#d5d4870c9a)"><path fill="#ffffff" d="M 0 0.0507812 L 144.75 0.0507812 L 144.75 60.050781 L 0 60.050781 Z M 0 0.0507812 " fill-opacity="1" fill-rule="nonzero"/><path fill="#ffffff" d="M 0 0.0507812 L 144.75 0.0507812 L 144.75 60.050781 L 0 60.050781 Z M 0 0.0507812 " fill-opacity="1" fill-rule="nonzero"/></g><g clip-path="url(#83ba834f75)"><path fill="#ffffff" d="M 9.394531 -31.269531 L 135.394531 -31.269531 L 135.394531 94.730469 L 9.394531 94.730469 Z M 9.394531 -31.269531 " fill-opacity="1" fill-rule="evenodd"/></g><path fill="#00acec" d="M 38.589844 31.179688 L 33.902344 28.882812 L 32.777344 29.433594 L 30.53125 28.332031 L 31.652344 27.78125 L 26.964844 25.480469 L 25.84375 26.03125 L 24.71875 25.480469 L 20.03125 27.78125 L 21.15625 28.332031 L 18.910156 29.433594 L 17.785156 28.882812 L 13.097656 31.179688 L 14.222656 31.730469 L 13.097656 32.28125 L 17.785156 34.582031 L 18.910156 34.03125 L 21.15625 35.132812 L 20.03125 35.683594 L 24.71875 37.980469 L 25.84375 37.429688 L 26.964844 37.980469 L 31.652344 35.683594 L 30.53125 35.132812 L 32.777344 34.03125 L 33.902344 34.582031 L 38.589844 32.28125 L 37.464844 31.730469 Z M 25.84375 32.832031 L 23.597656 31.730469 L 25.84375 30.628906 L 28.089844 31.730469 Z M 25.84375 32.832031 " fill-opacity="1" fill-rule="evenodd"/><g clip-path="url(#97e1bd4bf5)"><path stroke-linecap="butt" transform="matrix(0.653676, 0, 0, 0.653676, 9.393162, -31.269186)" fill="none" stroke-linejoin="miter" d="M 44.665367 95.534892 L 37.494384 92.021111 L 35.773348 92.863701 L 32.337252 91.17852 L 34.052312 90.33593 L 26.881329 86.816172 L 25.166269 87.658763 L 23.445233 86.816172 L 16.27425 90.33593 L 17.995286 91.17852 L 14.55919 92.863701 L 12.838154 92.021111 L 5.667171 95.534892 L 7.388207 96.377483 L 5.667171 97.220073 L 12.838154 100.739831 L 14.55919 99.89724 L 17.995286 101.582421 L 16.27425 102.425012 L 23.445233 105.938793 L 25.166269 105.096203 L 26.881329 105.938793 L 34.052312 102.425012 L 32.337252 101.582421 L 35.773348 99.89724 L 37.494384 100.739831 L 44.665367 97.220073 L 42.944331 96.377483 L 44.665367 95.534892 M 25.166269 98.062664 L 21.730173 96.377483 L 25.166269 94.692302 L 28.602365 96.377483 Z M 25.166269 98.062664 " stroke="#ffffff" stroke-width="2" stroke-opacity="1" stroke-miterlimit="2.613"/></g><path fill="#00acec" d="M 45.523438 32.996094 C 45.484375 33.183594 45.5 33.351562 45.550781 33.484375 C 45.71875 33.929688 46.476562 34.023438 47.140625 34.023438 C 47.722656 34.023438 48.636719 33.898438 48.753906 33.351562 C 48.832031 32.964844 48.351562 32.863281 46.4375 32.5 C 44.675781 32.167969 42.652344 31.847656 42.960938 30.355469 C 43.316406 28.648438 45.75 27.914062 48.128906 27.914062 C 50.636719 27.914062 52.730469 28.523438 52.453125 30.324219 L 49.085938 30.324219 C 49.210938 30.046875 49.054688 29.859375 48.789062 29.734375 C 48.523438 29.601562 48.132812 29.550781 47.773438 29.550781 C 47.289062 29.550781 46.480469 29.632812 46.394531 30.046875 C 46.347656 30.574219 47.976562 30.6875 49.550781 30.976562 C 51.125 31.269531 52.644531 31.753906 52.363281 33.113281 C 51.964844 35.035156 49.066406 35.65625 46.492188 35.65625 C 45.183594 35.65625 41.507812 35.359375 41.960938 32.996094 Z M 63.648438 32.625 C 63.222656 34.675781 61.289062 35.660156 57.757812 35.660156 C 54.230469 35.660156 52.6875 34.675781 53.109375 32.625 L 54.050781 28.089844 L 57.609375 28.089844 L 56.777344 32.117188 C 56.621094 32.871094 56.425781 33.816406 58.15625 33.816406 C 59.839844 33.816406 60.035156 32.875 60.191406 32.117188 L 61.023438 28.089844 L 64.585938 28.089844 Z M 65.554688 28.089844 L 70.621094 28.089844 L 71.375 32.4375 L 71.40625 32.4375 L 73.957031 28.089844 L 79.023438 28.089844 L 77.492188 35.480469 L 74.125 35.480469 L 75.109375 30.742188 L 75.074219 30.742188 L 72.085938 35.480469 L 69.433594 35.480469 L 68.40625 30.742188 L 68.375 30.742188 L 67.394531 35.480469 L 64.027344 35.480469 Z M 79.878906 28.089844 L 83.441406 28.089844 L 81.910156 35.480469 L 78.347656 35.480469 Z M 87.175781 29.984375 L 83.9375 29.984375 L 84.332031 28.089844 L 94.367188 28.089844 L 93.972656 29.984375 L 90.738281 29.984375 L 89.597656 35.480469 L 86.039062 35.480469 Z M 100.019531 27.914062 C 103.53125 27.914062 105.542969 29.527344 105.078125 31.785156 C 104.609375 34.042969 101.929688 35.660156 98.414062 35.660156 C 94.902344 35.660156 92.890625 34.042969 93.359375 31.785156 C 93.824219 29.527344 96.507812 27.914062 100.019531 27.914062 Z M 98.796875 33.816406 C 99.703125 33.816406 101.175781 33.433594 101.515625 31.785156 C 101.855469 30.140625 100.542969 29.757812 99.636719 29.757812 C 98.730469 29.757812 97.257812 30.140625 96.917969 31.785156 C 96.578125 33.433594 97.890625 33.816406 98.796875 33.816406 Z M 106.523438 28.089844 L 111.585938 28.089844 L 112.339844 32.4375 L 112.371094 32.4375 L 114.921875 28.089844 L 119.988281 28.089844 L 118.457031 35.480469 L 115.089844 35.480469 L 116.074219 30.742188 L 116.039062 30.742188 L 113.050781 35.480469 L 110.398438 35.480469 L 109.371094 30.742188 L 109.339844 30.742188 L 108.355469 35.480469 L 104.992188 35.480469 Z M 126.5625 27.914062 C 130.074219 27.914062 132.085938 29.527344 131.621094 31.785156 C 131.152344 34.042969 128.472656 35.660156 124.960938 35.660156 C 121.449219 35.660156 119.4375 34.042969 119.902344 31.785156 C 120.371094 29.527344 123.050781 27.914062 126.5625 27.914062 Z M 125.339844 33.816406 C 126.25 33.816406 127.71875 33.433594 128.058594 31.785156 C 128.398438 30.140625 127.089844 29.757812 126.179688 29.757812 C 125.273438 29.757812 123.804688 30.140625 123.464844 31.785156 C 123.121094 33.433594 124.433594 33.816406 125.339844 33.816406 Z M 125.339844 33.816406 " fill-opacity="1" fill-rule="evenodd"/></svg>