<svg id="Layer_1" data-name="Layer 1" xmlns="http://www.w3.org/2000/svg" viewBox="0 0 300 75"><defs><style>.cls-1{fill:#12100b;}.cls-2{fill:#e10714;}.cls-3{fill:#fff;}</style></defs><title>yokohama_tyres_logo</title><rect class="cls-1" width="300" height="75"/><polygon class="cls-2" points="15.48 18.16 12.02 18.14 31.67 37.8 31.75 37.86 31.67 37.96 12.16 57.46 15.61 57.46 35.2 37.86 15.48 18.16"/><polygon class="cls-2" points="21.54 18.16 18.09 18.16 37.73 37.8 37.82 37.86 37.73 37.96 18.25 57.46 21.69 57.46 41.27 37.86 21.54 18.16"/><polygon class="cls-2" points="27.61 18.14 24.15 18.16 43.81 37.8 43.86 37.86 43.81 37.96 24.3 57.46 27.76 57.46 47.34 37.86 27.61 18.14"/><polygon class="cls-2" points="33.69 18.14 30.23 18.14 49.88 37.8 49.95 37.86 49.88 37.96 30.37 57.46 33.83 57.46 53.41 37.86 33.69 18.14"/><path class="cls-2" d="M57.81,36.06l-.07.08-.08-.08-1.15-1.14-.09-.09.09-.08L73.13,18.14H69.67L54.79,33l-.08.09L54.64,33l-1.17-1.14-.07-.08.09-.09L67.06,18.16H63.61L51.77,30l-.09.09L51.6,30l-1.15-1.15-.08-.06.08-.09L61,18.16l-3.46,0L48.73,27l-.08.07L48.56,27l-1.15-1.14-.08-.08.08-.08,7.51-7.5H51.49l-5.81,5.76-.06.08-.08-.08-5.79-5.76-3.46,0L55.94,37.8l.07.06-.07.1L36.43,57.46h3.46L59.55,37.8,79.2,18.14H75.74Z"/><polygon class="cls-3" points="102.07 23.06 96.49 23.06 90.2 35.95 83.92 23.06 78.34 23.06 87.74 41.77 87.74 52.92 92.66 52.92 92.66 41.77 102.07 23.06"/><path class="cls-3" d="M103,38A10.22,10.22,0,1,0,113.2,27.77,10.23,10.23,0,0,0,103,38ZM113.2,22.81A15.18,15.18,0,1,1,98,38,15.19,15.19,0,0,1,113.2,22.81"/><path class="cls-3" d="M150.67,38a10.23,10.23,0,1,0,10.24-10.21A10.24,10.24,0,0,0,150.67,38ZM160.9,22.8A15.19,15.19,0,1,1,145.71,38,15.2,15.2,0,0,1,160.9,22.8"/><polygon class="cls-3" points="150.57 22.81 144.05 22.81 134.86 35.52 134.86 22.81 129.67 22.81 129.67 52.66 134.86 52.66 134.86 40.36 143.6 52.66 150.13 52.66 139.03 38.02 150.57 22.81"/><polygon class="cls-3" points="193.42 23.05 193.42 35.72 182.7 35.72 182.7 23.05 177.38 23.05 177.38 52.92 182.7 52.92 182.7 40.84 193.42 40.84 193.42 52.92 198.73 52.92 198.73 23.06 193.42 23.05"/><path class="cls-3" d="M209.81,41.1l3.74-10.16,3.76,10.16Zm11.85,11.82h5.58l-11-29.87H210.9l-11,29.87h5.56l2.76-7.62h10.72l2.74,7.62"/><path class="cls-3" d="M270.55,41.1l3.76-10.17,3.75,10.17Zm11.87,11.82H288L277,23.05h-5.34l-11,29.86h5.58l2.74-7.62h10.73l2.75,7.62"/><polygon class="cls-3" points="257.56 23.05 253.64 23.05 252.51 23.06 243.73 45.95 234.91 23.05 233.77 23.06 229.88 23.05 228.36 23.06 228.36 52.92 233.68 52.92 233.77 33.39 241.23 52.92 241.46 52.92 245.96 52.92 246.19 52.92 253.65 33.39 253.74 52.92 259.07 52.92 259.07 23.05 257.56 23.05"/></svg>