<svg xmlns="http://www.w3.org/2000/svg" width="1080" zoomAndPan="magnify" viewBox="0 0 810 809.999993" height="1080"
     preserveAspectRatio="xMidYMid meet" version="1.0"><path fill="#000000" d="M 495.195312 148.664062 C 395.183594 139.261719 302.230469 246.230469 288.109375 388.464844 C 275.167969 530.695312 344.585938 654.125 445.777344 663.527344 C 545.792969 672.929688 637.570312 565.960938 651.691406 423.726562 C 665.808594 281.492188 595.210938 158.066406 495.195312 148.664062 Z M 622.273438 422.550781 C 616.390625 482.503906 592.859375 535.398438 559.914062 571.839844 C 548.144531 584.769531 535.203125 596.523438 521.082031 604.753906 C 498.726562 617.683594 472.839844 624.734375 448.132812 622.386719 C 422.246094 620.035156 399.890625 608.277344 379.886719 590.648438 C 368.121094 580.066406 357.53125 565.960938 348.117188 550.679688 C 323.410156 508.363281 312.820312 451.9375 318.703125 391.988281 C 319.878906 380.234375 322.230469 367.304688 324.585938 355.550781 C 329.292969 335.566406 336.351562 315.582031 344.585938 297.949219 C 372.828125 238 419.890625 196.859375 471.664062 192.15625 C 478.722656 190.980469 485.785156 190.980469 494.019531 192.15625 C 501.082031 193.332031 508.140625 194.507812 515.199219 196.859375 C 564.617188 212.140625 602.269531 262.6875 616.390625 327.335938 C 621.097656 346.144531 623.449219 366.128906 623.449219 387.289062 C 623.449219 397.867188 623.449219 409.621094 622.273438 422.550781 Z M 622.273438 422.550781 " fill-opacity="1" fill-rule="nonzero"/><path fill="#000000" d="M 452.839844 272.089844 C 450.484375 267.386719 446.957031 263.863281 443.425781 260.335938 C 446.957031 257.984375 451.660156 256.808594 455.191406 255.632812 C 455.191406 256.808594 455.191406 256.808594 455.191406 257.984375 Z M 452.839844 272.089844 " fill-opacity="1" fill-rule="nonzero"/><path fill="#000000" d="M 481.078125 553.03125 C 482.253906 555.382812 481.078125 560.085938 479.902344 560.085938 C 471.664062 563.609375 463.429688 564.785156 455.191406 564.785156 C 451.660156 564.785156 449.308594 564.785156 445.777344 563.609375 C 437.542969 562.433594 429.304688 560.085938 422.246094 555.382812 C 423.421875 554.207031 424.597656 553.03125 425.777344 551.855469 C 438.71875 537.75 450.484375 520.117188 459.898438 500.132812 Z M 481.078125 553.03125 " fill-opacity="1" fill-rule="nonzero"/><path fill="#000000" d="M 564.617188 336.742188 L 511.671875 348.496094 C 511.671875 347.320312 511.671875 347.320312 511.671875 346.144531 L 518.730469 265.035156 C 518.730469 263.863281 518.730469 263.863281 518.730469 262.6875 C 538.734375 275.617188 555.207031 299.125 564.617188 328.511719 C 565.796875 332.039062 564.617188 335.566406 564.617188 336.742188 Z M 564.617188 336.742188 " fill-opacity="1" fill-rule="nonzero"/><path fill="#000000" d="M 572.855469 416.675781 C 572.855469 416.675781 572.855469 417.851562 572.855469 419.027344 C 572.855469 420.203125 572.855469 421.375 572.855469 422.550781 C 568.148438 455.464844 557.558594 486.027344 539.910156 511.890625 L 519.90625 444.886719 C 518.730469 442.535156 519.90625 439.007812 521.082031 437.832031 Z M 572.855469 416.675781 " fill-opacity="1" fill-rule="nonzero"/><path fill="#000000" d="M 598.742188 393.164062 C 598.742188 375.53125 597.566406 357.902344 594.035156 341.445312 C 583.445312 285.019531 551.675781 241.527344 510.492188 227.421875 C 504.609375 225.070312 498.726562 223.894531 491.667969 222.71875 C 485.785156 221.542969 478.722656 221.542969 472.839844 221.542969 C 429.304688 225.070312 388.125 259.160156 362.238281 309.707031 C 355.175781 324.988281 348.117188 341.445312 343.410156 359.074219 C 341.058594 369.65625 338.703125 379.058594 337.527344 389.636719 C 330.46875 441.359375 338.703125 490.730469 358.707031 527.171875 C 365.765625 541.277344 374.003906 553.03125 384.59375 562.433594 C 401.066406 578.890625 419.890625 588.296875 442.25 591.824219 C 463.429688 595.347656 485.785156 589.472656 504.609375 578.890625 C 516.375 571.839844 528.144531 562.433594 538.734375 551.855469 C 566.972656 521.292969 588.152344 476.625 595.210938 424.902344 C 597.566406 414.324219 598.742188 403.746094 598.742188 393.164062 Z M 522.261719 252.105469 C 546.96875 266.210938 565.796875 293.25 576.386719 326.164062 C 578.738281 335.566406 575.207031 346.144531 566.972656 348.496094 L 510.492188 360.25 C 503.433594 361.425781 498.726562 354.375 499.902344 344.96875 L 506.964844 265.035156 C 508.140625 254.457031 516.375 247.40625 522.261719 252.105469 Z M 492.84375 387.289062 C 497.550781 386.113281 502.257812 389.636719 502.257812 396.691406 C 502.257812 403.746094 499.902344 409.621094 495.195312 410.796875 C 490.492188 411.972656 485.785156 408.445312 485.785156 401.394531 C 484.609375 395.515625 488.136719 389.636719 492.84375 387.289062 Z M 486.960938 434.308594 C 489.3125 440.183594 486.960938 447.238281 482.253906 450.765625 C 477.546875 454.289062 472.839844 451.9375 470.488281 446.0625 C 468.132812 440.183594 470.488281 433.132812 475.195312 429.605469 C 479.902344 426.078125 484.609375 428.429688 486.960938 434.308594 Z M 474.019531 357.902344 C 478.722656 359.074219 482.253906 364.953125 481.078125 370.832031 C 479.902344 377.882812 475.195312 382.585938 470.488281 381.410156 C 465.78125 380.234375 462.25 374.355469 463.429688 368.480469 C 464.605469 362.601562 469.3125 356.726562 474.019531 357.902344 Z M 454.015625 443.710938 C 450.484375 448.414062 444.601562 449.589844 442.25 444.886719 C 438.71875 440.183594 438.71875 433.132812 442.25 427.253906 C 445.777344 422.550781 451.660156 421.375 454.015625 426.078125 C 457.542969 431.957031 457.542969 439.007812 454.015625 443.710938 Z M 451.660156 397.867188 C 449.308594 403.746094 444.601562 407.269531 439.894531 403.746094 C 436.367188 401.394531 434.011719 394.339844 436.367188 387.289062 C 438.71875 381.410156 443.425781 377.882812 448.132812 381.410156 C 452.839844 383.761719 454.015625 391.988281 451.660156 397.867188 Z M 384.59375 299.125 C 403.417969 269.738281 429.304688 249.753906 456.367188 242.703125 C 463.429688 240.351562 469.3125 249.753906 468.132812 259.160156 L 454.015625 339.09375 C 452.839844 348.496094 445.777344 354.375 439.894531 350.847656 L 388.125 323.8125 C 381.0625 319.109375 378.710938 307.355469 384.59375 299.125 Z M 377.535156 497.785156 C 372.828125 506.011719 363.414062 504.835938 361.0625 496.609375 C 349.292969 466.046875 345.765625 429.605469 350.472656 391.988281 C 350.472656 390.8125 350.472656 389.636719 351.648438 387.289062 C 352.824219 376.707031 361.0625 370.832031 366.945312 375.53125 L 415.1875 411.972656 C 421.070312 416.675781 421.070312 427.253906 417.539062 434.308594 Z M 484.609375 570.664062 C 471.664062 575.367188 458.722656 576.542969 444.601562 575.367188 C 430.480469 573.015625 418.714844 568.3125 406.949219 560.085938 C 401.066406 555.382812 399.890625 543.628906 405.773438 536.574219 L 449.308594 478.976562 C 454.015625 471.921875 462.25 473.097656 464.605469 481.328125 L 491.667969 548.328125 C 496.375 556.558594 491.667969 568.3125 484.609375 570.664062 Z M 545.792969 522.46875 C 539.910156 529.523438 531.671875 528.347656 529.320312 518.941406 L 508.140625 447.238281 C 505.785156 439.007812 509.316406 428.429688 516.375 426.078125 L 572.855469 403.746094 C 579.914062 401.394531 585.796875 408.445312 584.621094 419.027344 C 584.621094 420.203125 584.621094 421.375 584.621094 423.726562 C 578.738281 461.34375 564.617188 495.433594 545.792969 522.46875 Z M 545.792969 522.46875 " fill-opacity="1" fill-rule="nonzero"/><path fill="#000000" d="M 484.609375 126.328125 C 428.128906 111.046875 349.292969 125.152344 343.410156 126.328125 C 251.632812 140.433594 172.796875 239.175781 158.679688 367.304688 C 144.558594 490.730469 192.800781 602.402344 271.636719 644.71875 C 297.523438 658.824219 403.417969 698.792969 478.722656 675.28125 C 564.617188 654.125 636.394531 555.382812 650.511719 429.605469 C 665.808594 279.144531 592.859375 143.960938 484.609375 126.328125 Z M 648.160156 423.726562 C 634.039062 569.488281 538.734375 679.984375 436.367188 670.582031 C 333.996094 660 262.222656 534.222656 276.34375 388.464844 C 290.460938 242.703125 385.769531 132.207031 488.136719 141.609375 C 590.503906 152.191406 662.28125 277.96875 648.160156 423.726562 Z M 648.160156 423.726562 " fill-opacity="1" fill-rule="nonzero"/></svg>