<svg id="Capa_1" enable-background="new 0 0 512 512" height="512" viewBox="0 0 512 512" width="512" xmlns="http://www.w3.org/2000/svg"><g><g><g><g><path d="m151.147 327.076c5.113 0 9.272 4.159 9.272 9.272v70.139h164.211l-11.623-12.849c-3.249-3.254-3.307-8.469-.161-11.664 4.207-4.274 9.826-6.628 15.821-6.628 5.929 0 11.503 2.309 15.695 6.501l13.951 13.951c1.861 1.861 4.217 3.002 6.633 3.211.31.027.617.04.921.04 5.727-.001 10.387-4.66 10.387-10.387v-61.215l-.797-.184c-31.178-7.237-52.953-34.667-52.953-66.703 0-35.78 27.581-65.221 62.597-68.224v-35.596h-60.857c-3.976 0-7.211-3.235-7.211-7.211v-48.945h-211.961v226.493h46.075z" fill="#f9f3f1"/></g><g><g><path d="m191.773 245.079v-66.972c0-4.143-3.357-7.5-7.5-7.5s-7.5 3.357-7.5 7.5v66.972z" fill="#05e39c"/></g><g><path d="m232.315 245.079v-51.978c0-4.143-3.357-7.5-7.5-7.5s-7.5 3.357-7.5 7.5v51.978z" fill="#ffc344"/></g><g><path d="m272.856 245.079v-96.96c0-4.143-3.357-7.5-7.5-7.5s-7.5 3.357-7.5 7.5v96.96z" fill="#05e39c"/></g><g><path d="m313.398 245.079v-36.983c0-4.143-3.357-7.5-7.5-7.5s-7.5 3.357-7.5 7.5v36.983z" fill="#fe646f"/></g></g><g><g><path d="m342.353 308.887v71.2c.696.548 1.372 1.124 2.008 1.76l13.951 13.951c1.861 1.861 4.217 3.002 6.633 3.211.31.027.617.04.921.04 5.727-.001 10.387-4.66 10.387-10.387v-61.215l-.797-.184c-12.957-3.008-24.282-9.512-33.103-18.376z" fill="#f3eae6"/></g><g><path d="m342.353 156.74v55.674c11.123-11.231 26.09-18.651 42.746-20.079v-35.595z" fill="#f3eae6"/></g></g><g><path d="m317.031 47.657h-201.657c-5.69 0-10.302 4.612-10.302 10.302v43.678h211.959z" fill="#26a6fe"/></g><g><path d="m284.845 47.657h32.186v53.979h-32.186z" fill="#0593fc"/></g><g><path d="m115.597 47.657c-5.812 0-10.524 4.712-10.524 10.524v43.455h55.407v-53.979z" fill="#60b7ff"/></g><g><path d="m272.839 331.046h-112.36c-.543 0-1.071.061-1.581.17.978 1.472 1.551 3.236 1.551 5.132v9.697c.01 0 .02.001.03.001h112.359c4.143 0 7.5-3.357 7.5-7.5s-3.357-7.5-7.499-7.5z" fill="#838383"/><g><path d="m329.693 346.046h-30.811c-4.143 0-7.5-3.357-7.5-7.5s3.357-7.5 7.5-7.5h30.811c4.143 0 7.5 3.357 7.5 7.5s-3.357 7.5-7.5 7.5z" fill="#838383"/></g><path d="m335.363 300.654c-2.777-3.858-5.15-8.012-7.076-12.4h-167.808c-4.143 0-7.5 3.357-7.5 7.5s3.357 7.5 7.5 7.5h169.214c2.268 0 4.295-1.01 5.67-2.6z" fill="#838383"/></g><path d="m320.901 259.079c.565 0 1.113-.068 1.642-.186.116-4.799.718-9.477 1.776-13.985-1.026-.527-2.186-.829-3.418-.829h-160.422c-4.143 0-7.5 3.357-7.5 7.5s3.357 7.5 7.5 7.5z" fill="#bfbfbf"/></g><path d="m42.341 327.046v-50.756c0-22.959 18.679-41.638 41.638-41.638s41.638 18.679 41.638 41.638c0 4.143 3.357 7.5 7.5 7.5s7.5-3.357 7.5-7.5c0-31.23-25.407-56.638-56.638-56.638s-56.638 25.408-56.638 56.638v50.756z" fill="#838383"/><g><path d="m151.147 452.342h-134.337c-5.69 0-10.302-4.612-10.302-10.302v-105.692c0-5.69 4.612-10.302 10.302-10.302h134.337c5.69 0 10.302 4.612 10.302 10.302v105.693c0 5.689-4.612 10.301-10.302 10.301z" fill="#ffd15b"/></g><g><path d="m151.147 326.046h-35.868c5.69 0 10.302 4.612 10.302 10.302v105.692c0 5.69-4.612 10.302-10.302 10.302h35.868c5.689 0 10.302-4.612 10.302-10.302v-105.692c0-5.69-4.612-10.302-10.302-10.302z" fill="#ffc344"/></g><g><path d="m83.979 398.514c-4.143 0-7.5-3.357-7.5-7.5v-28.856c0-4.143 3.357-7.5 7.5-7.5s7.5 3.357 7.5 7.5v28.856c0 4.142-3.358 7.5-7.5 7.5z" fill="#eca026"/></g><g><g><path d="m405.267 0h-81.025c-4.552 0-8.241 3.69-8.241 8.241v141.289c0 4.552 3.69 8.241 8.241 8.241h104.532c4.552 0 8.241-3.69 8.241-8.241v-117.782c0-2.186-.868-4.282-2.414-5.828l-23.506-23.506c-1.546-1.546-3.642-2.414-5.828-2.414z" fill="#ffd15b"/></g><g><path d="m434.602 25.921-23.507-23.507c-1.546-1.546-3.642-2.414-5.828-2.414h-32.186c2.186 0 4.282.868 5.827 2.414l23.507 23.507c1.546 1.546 2.414 3.642 2.414 5.828v117.781c0 4.552-3.69 8.241-8.241 8.241h32.186c4.552 0 8.241-3.69 8.241-8.241v-117.782c0-2.186-.868-4.282-2.413-5.827z" fill="#ffc344"/></g><g><path d="m402.352 57.715h-51.688c-4.143 0-7.5-3.357-7.5-7.5s3.357-7.5 7.5-7.5h51.688c4.143 0 7.5 3.357 7.5 7.5s-3.358 7.5-7.5 7.5z" fill="#eca026"/></g><g><path d="m402.352 89.278h-51.688c-4.143 0-7.5-3.357-7.5-7.5s3.357-7.5 7.5-7.5h51.688c4.143 0 7.5 3.357 7.5 7.5s-3.358 7.5-7.5 7.5z" fill="#eca026"/></g><g><path d="m375.395 120.842h-24.73c-4.143 0-7.5-3.357-7.5-7.5s3.357-7.5 7.5-7.5h24.73c4.143 0 7.5 3.357 7.5 7.5s-3.358 7.5-7.5 7.5z" fill="#eca026"/></g></g><g><path d="m376.223 328.497v-56.078c0-8.428 6.856-15.284 15.283-15.284 8.428 0 15.284 6.856 15.284 15.284v48.562h2c0-8.427 6.856-15.283 15.283-15.283 5.391 0 10.128 2.812 12.85 7.04 14.465-12.741 23.602-31.387 23.602-52.178 0-38.398-31.128-69.526-69.526-69.526s-69.526 31.128-69.526 69.526c0 33.325 23.453 61.16 54.75 67.937z" fill="#05e39c"/><path d="m444 260.56c0 17.379-6.39 33.253-16.932 45.437 4.127.823 7.651 3.318 9.855 6.741 14.464-12.741 23.602-31.387 23.602-52.178 0-38.398-31.128-69.526-69.526-69.526-2.816 0-5.592.173-8.32.498 34.529 4.062 61.321 33.408 61.321 69.028z" fill="#0ed290"/><path d="m376.223 291.414v-18.995c0-8.428 6.856-15.284 15.283-15.284 8.428 0 15.284 6.856 15.284 15.284v18.479c10.939-5.706 18.413-17.146 18.413-30.338 0-18.89-15.313-34.203-34.204-34.203-18.89 0-34.203 15.313-34.203 34.203 0 13.597 7.935 25.34 19.427 30.854z" fill="#0ed290"/><path d="m403.731 260.56c0 .872-.036 1.735-.101 2.59 1.973 2.575 3.16 5.782 3.16 9.269v18.479c10.939-5.706 18.413-17.146 18.413-30.338 0-18.89-15.313-34.203-34.203-34.203-3.752 0-7.358.613-10.736 1.729 13.628 4.503 23.467 17.336 23.467 32.474z" fill="#00c285"/><path d="m371.757 297.557c1.107.577 2.292.851 3.46.851.337 0 .674-.023 1.006-.068v-15.56c-7.416-4.927-11.927-13.196-11.927-22.221 0-14.725 11.979-26.703 26.703-26.703s26.704 11.979 26.704 26.703c0 8.536-4.117 16.515-10.913 21.515v15.706c1.565.212 3.208-.058 4.688-.895 13.092-7.395 21.225-21.313 21.225-36.326 0-22.995-18.708-41.703-41.704-41.703-22.995 0-41.703 18.708-41.703 41.703 0 15.602 8.606 29.779 22.461 36.998z" fill="#00f2a6"/></g><g><path d="m489.209 332.041c-8.993 0-16.284 7.29-16.284 16.284v-13.444c0-8.993-7.29-16.284-16.284-16.284-8.993 0-16.284 7.29-16.284 16.284v-13.899c0-8.993-7.29-16.284-16.284-16.284-8.993 0-16.284 7.29-16.284 16.284v-48.563c0-8.993-7.29-16.284-16.284-16.284-8.993 0-16.284 7.29-16.284 16.284v116.243c0 5.442-4.647 9.8-10.189 9.321-2.275-.197-4.378-1.298-5.992-2.913l-13.951-13.951c-9.114-9.114-23.919-9.07-32.978.133-3.567 3.623-3.464 9.482.132 13.078l67.847 75.002c6.496 7.181 10.093 16.519 10.094 26.203l.001 6.166c.001 5.689 4.613 10.3 10.302 10.3h63.457c5.69 0 10.302-4.612 10.302-10.302v-10.622c0-6.313 2.991-12.327 8.199-15.897 13.916-9.538 23.048-25.542 23.048-43.688v-83.167c-.001-8.994-7.291-16.284-16.284-16.284z" fill="#ffcebf"/></g><g><g><path d="m489.209 332.041c-8.117 0-14.828 5.946-16.062 13.717.133.838.222 1.691.222 2.567v83.167c0 18.146-9.133 34.15-23.048 43.688-5.208 3.569-8.199 9.583-8.199 15.897v10.622c0 5.689-4.612 10.302-10.302 10.302h32.124c5.69 0 10.302-4.612 10.302-10.302v-10.622c0-6.313 2.991-12.327 8.199-15.897 13.916-9.538 23.048-25.542 23.048-43.688v-83.167c-.001-8.994-7.291-16.284-16.284-16.284z" fill="#ffb09e"/></g></g></g></g></svg>