<svg id="Capa_1" enable-background="new 0 0 512 512" height="512" viewBox="0 0 512 512" width="512" xmlns="http://www.w3.org/2000/svg"><g><path d="m476.889 33.105h-14.807l-20.885 41.811v92.513l19.855 26.647 15.838 5.641c21.659-21.14 35.111-50.65 35.111-83.307s-13.454-62.165-35.112-83.305z" fill="#ffe02f"/><path d="m441.777 116.412c0-32.657 13.453-62.166 35.111-83.307-20.981-20.48-49.664-33.105-81.3-33.105-10.949 0-21.544 1.515-31.591 4.341v224.142c10.046 2.826 20.641 4.341 31.591 4.341 31.636 0 60.319-12.625 81.3-33.105-21.658-21.141-35.111-50.651-35.111-83.307z" fill="#fbc700"/><path d="m509.777 312.154c-10.098-21.088-33.341-11.12-35.292-10.389l-94.568 27.977c-1.762.521-3.505-.93-3.268-2.753.808-6.221.191-18.162-14.544-24.043-56.694-22.633-63.455-26.46-77.804-26.688l-.002-.002c-25.008.083-38.469.236-49.406 2.12l-12.332 5.979-7.984 34.254 2.833 28.33 19.316 30.906 21.681 7.558c9.593.011 18.789 1.553 27.005 4.832l36.588 14.607c7.997 2.757 26.369 7.048 45.433-2.723.009-.004.016-.007.016-.007 1.908-.844 122.057-53.991 127.727-56.498 3.868-1.984 23.314-13.65 14.601-33.46z" fill="#ffcebe"/><g><path d="m220.086 321.977c0-16.409 5.528-31.52 14.807-43.6-8.461 1.458-15.412 3.952-25.026 8.256-11.532 5.161-22.484 11.414-32.745 18.626-5.317 3.737-11.099 6.742-17.203 8.917l-2.088 8.126 32.966 75.204 8.847 3.285 26.51-10.064c10.733-3.498 21.733-5.333 32.254-5.322-22.781-11.998-38.322-35.892-38.322-63.428z" fill="#ffb1a0"/></g><path d="m181.097 383.255 4.554-6.954v-6.022l-28.301-61.704c-2.983-6.504-10.674-9.358-17.178-6.375l-36.074 16.545-3.614 10.96 34.175 73.428z" fill="#dbedff"/><path d="m205.117 412.723-19.467-42.444c-.964 4.374-3.88 8.263-8.264 10.273l-41.179 18.887-4.301-2.218 20.43 43.896 10.331 5.329 36.074-16.545c6.505-2.984 9.359-10.674 6.376-17.178z" fill="#b5dcff"/><path d="m390.637 334.92 2.764-9.168-13.485 3.989c-1.517.449-3.011-.567-3.249-2.02l-.815 2.702c-.935 2.925-4.052 9.497-12.735 7.37-16.827-4.123-64.267-15.489-64.744-15.604-4.148-.992-8.319 1.564-9.314 5.714-.994 4.149 1.564 8.319 5.713 9.314.477.114 47.878 11.471 64.667 15.584 2.464.604 4.79.878 6.978.878 13.56.002 21.792-10.541 24.22-18.759z" fill="#ffb1a0"/><path d="m49.147 446.446 9.272-1.832 78.674-36.251 3.634-4.053-.266-6.285-43.006-93.766c-2.709-5.906-9.693-8.498-15.599-5.79l-74.993 34.395c-5.906 2.709-8.498 9.693-5.79 15.599l43.259 94.318z" fill="#bf7fe3"/><path d="m169.312 460.932-28.852-62.907c-.466 4.106-2.994 7.877-7.024 9.725l-77.748 35.659c-3.797 1.742-8.022 1.366-11.355-.627l28.599 62.355c2.709 5.906 9.693 8.498 15.599 5.789l74.992-34.395c5.906-2.709 8.498-9.693 5.789-15.599z" fill="#b166db"/><path d="m359.772 3.243h-18.648l-47.037 29.862-22.076 35.942-8.242 41.723v23.742l14.714 43.22 24.948 30.391 31.143 17.513 25.197 3.944c51.087-12.31 89.047-58.302 89.047-113.168.001-54.866-37.959-100.859-89.046-113.169z" fill="#ffe02f"/><path d="m270.725 116.412c0-54.866 37.96-100.859 89.047-113.168-8.777-2.116-17.938-3.244-27.365-3.244-64.292 0-116.412 52.119-116.412 116.412s52.119 116.412 116.412 116.412c9.426 0 18.588-1.128 27.365-3.243-51.087-12.311-89.047-58.303-89.047-113.169z" fill="#fbc700"/><path d="m370.726 141.627c0-16.706-9.273-27.27-28.349-32.296-16.266-4.285-27.626-11.911-27.626-18.543 0-7.277 7.924-15.385 19.293-15.385 11.982 0 21.532 9.544 21.701 9.715 2.961 3.05 7.836 3.135 10.902.182 3.074-2.96 3.166-7.851.206-10.925-.503-.523-11.234-11.478-26.72-13.933v-10.856c0-4.268-3.459-7.726-7.726-7.726s-7.726 3.459-7.726 7.726v11.56c-14.457 3.732-25.382 15.792-25.382 29.641 0 14.511 14.632 27.029 39.142 33.487 15.533 4.092 16.833 10.816 16.833 17.352 0 6.349-6.03 15.795-22.643 15.795-16.457 0-23.963-11.383-24.236-11.806-2.236-3.635-6.995-4.768-10.63-2.531-3.634 2.236-4.767 6.996-2.531 10.63.428.695 9.643 15.271 29.447 18.514v11.009c0 4.268 3.459 7.726 7.726 7.726s7.726-3.459 7.726-7.726v-10.9c19.924-2.889 30.593-17.174 30.593-30.71z" fill="#eab900"/></g></svg>