<svg xmlns="http://www.w3.org/2000/svg" width="1080" zoomAndPan="magnify" viewBox="0 0 810 809.999993" height="1080"
     preserveAspectRatio="xMidYMid meet" version="1.0"><defs><clipPath id="5dc9832333"><path d="M 120.390625 114.210938 L 414 114.210938 L 414 411 L 120.390625 411 Z M 120.390625 114.210938 " clip-rule="nonzero"/></clipPath><clipPath id="384090319e"><path d="M 408 407 L 685 407 L 685 695.460938 L 408 695.460938 Z M 408 407 " clip-rule="nonzero"/></clipPath><clipPath id="cdea3751c9"><path d="M 120.390625 137 L 685 137 L 685 695.460938 L 120.390625 695.460938 Z M 120.390625 137 " clip-rule="nonzero"/></clipPath></defs><path fill="#100f0d" d="M 297.425781 354.332031 L 246.457031 301.65625 L 244.960938 300.097656 C 243.542969 298.746094 242.121094 297.496094 240.726562 296.316406 C 238.339844 297.398438 236.390625 299.351562 235.304688 301.871094 L 211.085938 358.277344 C 209.109375 362.921875 210.578125 368.3125 214.671875 371.296875 L 245.851562 394.035156 C 244.167969 407.484375 244.023438 420.933594 245.371094 434.171875 L 213.613281 456.167969 C 210.941406 458.019531 209.304688 460.902344 209.015625 463.960938 C 208.824219 465.671875 209.0625 467.40625 209.710938 469.089844 L 214.792969 481.742188 L 221.003906 497.242188 L 260.828125 457.753906 L 264.371094 454.265625 L 264.996094 453.640625 L 275.179688 443.558594 L 277.828125 446.175781 C 280.453125 445.359375 283.175781 444.882812 285.96875 444.785156 C 285.21875 441.199219 284.617188 437.589844 284.160156 433.953125 C 281.105469 409.816406 284.234375 384.601562 294.515625 360.632812 C 295.429688 358.496094 296.390625 356.398438 297.425781 354.332031 " fill-opacity="1" fill-rule="nonzero"/><path fill="#100f0d" d="M 523.757812 588.152344 L 482.269531 545.292969 C 477.074219 547.605469 471.722656 549.625 466.28125 551.308594 C 460.578125 553.09375 454.726562 554.507812 448.78125 555.542969 C 422.777344 560.117188 395.207031 557.449219 369.132812 546.355469 L 363.015625 552.417969 L 362.390625 553.023438 L 358.847656 556.53125 L 309.707031 605.257812 C 309.78125 605.308594 309.875 605.355469 309.949219 605.378906 L 366.363281 629.5625 C 371.011719 631.558594 376.402344 630.070312 379.386719 626 L 402.164062 594.839844 C 415.628906 596.527344 429.085938 596.648438 442.304688 595.324219 L 464.308594 627.0625 C 465.492188 628.769531 467.128906 630.070312 468.929688 630.839844 C 471.511719 631.945312 474.492188 632.042969 477.238281 630.9375 L 478.707031 630.359375 L 497.054688 623.019531 L 521.566406 613.25 L 534.253906 608.171875 C 535.097656 607.835938 535.867188 607.402344 536.589844 606.871094 C 531.363281 596.480469 525.25 589.714844 523.949219 588.34375 L 523.757812 588.152344 " fill-opacity="1" fill-rule="nonzero"/><path fill="#100f0d" d="M 639.210938 363.59375 L 639.019531 363.140625 L 616.40625 306.613281 C 615.515625 304.375 613.929688 302.550781 611.976562 301.367188 C 611.539062 301.105469 611.089844 300.886719 610.632812 300.667969 C 608.796875 299.898438 606.753906 299.613281 604.683594 299.921875 L 566.519531 305.867188 C 564.449219 303.21875 562.328125 300.617188 560.089844 298.097656 L 532.640625 325.3125 C 534.59375 327.625 536.46875 330.027344 538.273438 332.457031 C 542.296875 337.898438 545.90625 343.625 549.085938 349.570312 C 551.566406 354.210938 553.78125 358.996094 555.753906 363.886719 C 557.417969 368.023438 558.863281 372.257812 560.140625 376.542969 C 561.628906 381.621094 562.832031 386.792969 563.75 392.039062 C 568.347656 418.144531 565.652344 445.839844 554.410156 472.023438 C 552.148438 477.269531 549.617188 482.320312 546.824219 487.132812 L 574.394531 515.601562 C 582.023438 523.46875 590.496094 530.589844 599.699219 536.824219 L 601.722656 537.183594 C 606.703125 538.078125 611.640625 535.429688 613.613281 530.785156 L 637.8125 474.378906 C 639.808594 469.757812 638.34375 464.347656 634.246094 461.386719 L 603.066406 438.625 C 604.753906 425.175781 604.898438 411.71875 603.554688 398.507812 L 635.3125 376.519531 C 639.472656 373.632812 641.085938 368.261719 639.210938 363.59375 " fill-opacity="1" fill-rule="nonzero"/><path fill="#100f0d" d="M 308.695312 240.777344 C 309.394531 241.648438 310.164062 242.507812 310.9375 243.402344 L 357.742188 291.769531 C 358.417969 291.382812 359.089844 291.042969 359.789062 290.683594 C 363.761719 288.640625 367.828125 286.789062 371.972656 285.125 C 376.882812 283.175781 381.867188 281.492188 386.949219 280.09375 C 393.449219 278.292969 400.09375 276.96875 406.808594 276.101562 C 430.960938 273.070312 456.222656 276.199219 480.203125 286.472656 C 484.074219 288.132812 487.832031 289.960938 491.492188 291.9375 L 545.476562 238.441406 C 546.027344 233.730469 543.40625 229.175781 538.996094 227.277344 L 482.558594 203.09375 C 477.910156 201.121094 472.519531 202.589844 469.535156 206.660156 L 446.757812 237.84375 C 433.320312 236.132812 419.863281 236.011719 406.617188 237.335938 L 384.613281 205.625 C 383.433594 203.890625 381.792969 202.617188 379.992188 201.820312 C 379.507812 201.625 379.027344 201.460938 378.542969 201.339844 C 376.332031 200.738281 373.945312 200.835938 371.683594 201.722656 L 315.148438 224.316406 L 314.667969 224.484375 C 309.996094 226.367188 307.203125 231.226562 307.996094 236.230469 L 308.695312 240.777344 " fill-opacity="1" fill-rule="nonzero"/><g clip-path="url(#5dc9832333)"><path fill="#100f0d" d="M 129.414062 212.242188 C 139.625 237.097656 159.246094 268.210938 193.195312 268.210938 C 195.652344 268.210938 198.179688 268.042969 200.78125 267.703125 C 200.78125 267.703125 202.851562 267.246094 206.511719 267.246094 C 215.851562 267.246094 235.425781 270.230469 256.882812 291.550781 L 256.832031 291.601562 L 263.453125 298.433594 L 304.746094 341.121094 L 371.898438 410.492188 L 382.46875 400.023438 L 313.007812 329.308594 L 285.820312 301.632812 L 270.386719 285.921875 C 265.332031 280.792969 265.40625 272.542969 270.558594 267.484375 C 273.109375 265.011719 276.40625 263.757812 279.679688 263.757812 C 283.078125 263.757812 286.449219 265.082031 289.023438 267.683594 L 303.878906 282.792969 L 330.917969 310.339844 L 400.984375 381.667969 L 413.070312 369.683594 L 345.050781 299.421875 L 312.621094 265.925781 L 300.339844 253.214844 C 256.761719 204.222656 292.855469 172.511719 256.425781 138.199219 C 238.941406 121.714844 216.359375 116.152344 197.671875 114.855469 C 194.304688 114.617188 191.078125 114.519531 188.019531 114.519531 C 177.738281 114.519531 169.457031 115.625 165.070312 116.34375 C 163.820312 116.5625 163.484375 118.175781 164.542969 118.894531 L 213.277344 151.527344 C 216.695312 153.839844 218.789062 157.636719 218.789062 161.753906 C 218.863281 169.722656 217.199219 177.710938 213.613281 185.167969 C 206.96875 199.152344 194.855469 209.035156 180.265625 213.972656 C 179.0625 214.382812 177.785156 214.59375 176.535156 214.59375 C 174.246094 214.59375 171.957031 213.945312 169.984375 212.742188 L 122.722656 183.75 C 122.480469 183.609375 122.238281 183.558594 121.972656 183.558594 C 121.132812 183.558594 120.382812 184.324219 120.625 185.285156 C 121.832031 190.292969 124.574219 200.566406 129.414062 212.242188 " fill-opacity="1" fill-rule="nonzero"/></g><g clip-path="url(#384090319e)"><path fill="#100f0d" d="M 658.300781 652.636719 L 656.882812 666.308594 C 656.882812 666.308594 650.015625 667.242188 643.257812 668.207031 L 635.164062 679.328125 C 635.164062 679.328125 628.734375 676.753906 622.40625 674.199219 L 609.835938 679.785156 C 609.835938 679.785156 605.570312 674.324219 601.359375 668.957031 L 587.703125 667.511719 C 587.703125 667.511719 586.71875 660.65625 585.78125 653.890625 L 574.65625 645.804688 C 574.65625 645.804688 577.257812 639.378906 579.808594 633.082031 L 574.199219 620.519531 C 574.199219 620.519531 574.417969 620.347656 574.753906 620.082031 C 576.292969 618.882812 580.699219 615.4375 585.035156 612.042969 L 586.476562 598.378906 C 586.476562 598.378906 593.339844 597.417969 600.105469 596.453125 L 608.199219 585.332031 C 608.199219 585.332031 614.628906 587.933594 620.9375 590.484375 L 625.027344 588.679688 L 633.5 584.902344 C 633.5 584.902344 637.785156 590.34375 641.980469 595.730469 L 655.679688 597.148438 C 655.679688 597.148438 656.644531 604.011719 657.582031 610.773438 L 668.707031 618.855469 C 668.707031 618.855469 666.128906 625.28125 663.550781 631.605469 L 669.136719 644.167969 C 669.136719 644.167969 663.695312 648.429688 658.300781 652.636719 Z M 641.304688 572.582031 C 641.0625 572.511719 640.824219 572.4375 640.558594 572.367188 C 614.167969 564.089844 589.921875 550.253906 569.863281 531.386719 C 567.867188 529.535156 565.914062 527.632812 564.019531 525.65625 L 538.730469 499.554688 L 449.691406 407.53125 L 437.898438 419.230469 L 528.789062 511.777344 L 546.753906 530.039062 C 551.636719 535.019531 551.710938 542.890625 547.015625 547.964844 C 546.941406 548.0625 546.84375 548.132812 546.773438 548.203125 C 546.703125 548.300781 546.632812 548.398438 546.558594 548.472656 C 546.386719 548.621094 546.222656 548.738281 546.054688 548.882812 C 545.835938 549.070312 545.644531 549.265625 545.429688 549.457031 C 543.09375 551.261719 540.253906 552.175781 537.433594 552.175781 C 536.375 552.175781 535.3125 552.058594 534.28125 551.792969 C 532.011719 551.238281 529.898438 550.0625 528.113281 548.28125 L 509.429688 529.273438 L 419.378906 437.589844 L 408.519531 448.347656 L 495.683594 538.390625 L 534.132812 578.117188 L 534.351562 578.335938 C 534.929688 578.9375 536.664062 580.789062 538.976562 583.769531 C 545.8125 592.578125 557.730469 611.132812 558.835938 634.785156 C 559.824219 658.605469 574.269531 680.75 597.121094 690.25 C 605.285156 693.644531 613.613281 695.207031 621.726562 695.207031 C 650.863281 695.207031 677.277344 674.851562 683.367188 644.726562 C 689.628906 613.734375 671.378906 582.402344 641.304688 572.582031 " fill-opacity="1" fill-rule="nonzero"/></g><g clip-path="url(#cdea3751c9)"><path fill="#100f0d" d="M 306.816406 575.46875 L 198.804688 682.550781 C 197.671875 680.144531 197.121094 677.546875 197.121094 674.972656 C 197.144531 670.449219 198.902344 665.925781 202.371094 662.480469 L 310.332031 555.445312 L 321.84375 544.046875 C 325.285156 540.601562 329.789062 538.898438 334.3125 538.898438 C 336.914062 538.898438 339.539062 539.472656 341.945312 540.628906 Z M 177.953125 655.574219 C 173.40625 655.574219 168.851562 653.84375 165.386719 650.355469 C 161.941406 646.890625 160.230469 642.34375 160.257812 637.816406 C 160.28125 633.292969 162.015625 628.769531 165.484375 625.328125 L 261.648438 530.011719 L 284.976562 506.890625 C 288.421875 503.472656 292.925781 501.765625 297.425781 501.765625 C 302.003906 501.765625 306.550781 503.5 309.996094 506.988281 C 316.882812 513.917969 316.835938 525.128906 309.898438 532.011719 L 297.738281 544.066406 L 190.425781 650.449219 C 186.980469 653.871094 182.457031 655.574219 177.953125 655.574219 Z M 141.089844 618.417969 C 138.464844 618.417969 135.867188 617.871094 133.457031 616.714844 L 230.347656 520.65625 L 276.601562 474.789062 C 279.679688 481.382812 278.476562 489.445312 273.035156 494.863281 L 236.558594 531.027344 L 153.566406 613.296875 C 150.097656 616.714844 145.59375 618.417969 141.089844 618.417969 Z M 352.203125 542.769531 L 352.855469 542.167969 L 352.828125 542.144531 C 353.625 541.277344 354.324219 540.339844 354.949219 539.375 C 359.332031 532.273438 358.464844 522.820312 352.324219 516.613281 L 349.867188 514.160156 L 356.683594 507.394531 C 359.980469 504.121094 360.003906 498.777344 356.730469 495.460938 L 348.664062 487.351562 L 388.222656 448.128906 L 393.375 443.050781 L 398.480469 437.949219 L 409.269531 427.289062 L 414.371094 422.214844 L 422.65625 414.007812 L 427.78125 408.929688 L 439.652344 397.164062 L 444.78125 392.0625 L 449.910156 386.984375 L 522.769531 314.746094 L 550.171875 287.578125 L 595.578125 242.585938 L 633.5 227.015625 C 634.488281 226.628906 635.355469 225.957031 635.980469 225.0625 L 683.898438 158.871094 C 684.957031 157.375 684.816406 155.328125 683.511719 154.03125 L 675.832031 146.308594 L 668.148438 138.558594 C 667.402344 137.8125 666.441406 137.453125 665.476562 137.453125 C 664.730469 137.453125 663.984375 137.667969 663.3125 138.152344 L 596.6875 185.480469 C 595.796875 186.109375 595.121094 186.949219 594.714844 187.933594 L 578.820312 225.710938 L 541.019531 263.179688 L 504.230469 299.660156 L 433.371094 369.898438 L 428.238281 375.003906 L 423.113281 380.078125 L 411.121094 391.960938 L 405.992188 397.066406 L 397.734375 405.25 L 392.605469 410.324219 L 381.964844 420.890625 L 371.707031 431.042969 L 331.929688 470.484375 L 321.914062 460.402344 C 320.277344 458.738281 318.085938 457.894531 315.917969 457.894531 C 313.777344 457.894531 311.609375 458.71875 309.972656 460.355469 L 303.15625 467.089844 L 300.703125 464.609375 C 297.644531 461.53125 293.765625 459.75 289.769531 459.296875 C 289.050781 459.199219 288.300781 459.148438 287.578125 459.148438 C 283.125 459.148438 278.695312 460.742188 275.179688 463.914062 L 275.15625 463.890625 L 274.53125 464.519531 L 271.015625 468.003906 L 226.808594 511.824219 L 136.902344 600.953125 C 133.3125 604.511719 130.328125 608.414062 127.921875 612.578125 C 125.105469 617.484375 123.082031 622.75 121.878906 628.167969 C 121.035156 632.015625 120.601562 635.941406 120.578125 639.886719 C 120.527344 653.988281 125.851562 668.109375 136.566406 678.917969 C 147.351562 689.769531 161.535156 695.207031 175.738281 695.207031 C 179.589844 695.207031 183.445312 694.820312 187.226562 694.003906 C 192.640625 692.875 197.941406 690.875 202.875 688.085938 C 207.066406 685.722656 210.988281 682.765625 214.574219 679.230469 L 304.097656 590.484375 L 348.6875 546.28125 L 352.203125 542.769531 " fill-opacity="1" fill-rule="nonzero"/></g></svg>