<svg xmlns="http://www.w3.org/2000/svg" width="1080" zoomAndPan="magnify" viewBox="0 0 810 809.999993" height="1080"
     preserveAspectRatio="xMidYMid meet" version="1.0"><defs><clipPath id="2612653c36"><path d="M 106.503906 176.277344 L 703.503906 176.277344 L 703.503906 633.777344 L 106.503906 633.777344 Z M 106.503906 176.277344 " clip-rule="nonzero"/></clipPath></defs><g clip-path="url(#2612653c36)"><path fill="#100f0d" d="M 683.4375 593.941406 C 683.4375 604.894531 674.503906 613.828125 663.550781 613.828125 L 404.996094 613.828125 C 394.042969 613.828125 385.109375 604.894531 385.109375 593.941406 L 385.109375 255.832031 C 385.109375 244.878906 394.042969 235.941406 404.996094 235.941406 L 464.664062 235.941406 C 464.664062 246.898438 473.597656 255.832031 484.550781 255.832031 L 583.996094 255.832031 C 594.949219 255.832031 603.882812 246.898438 603.882812 235.941406 L 663.550781 235.941406 C 674.503906 235.941406 683.4375 244.878906 683.4375 255.832031 Z M 136.5 554.164062 C 131.019531 554.164062 126.554688 549.695312 126.554688 544.21875 L 126.554688 416.261719 C 126.554688 412.765625 128.417969 409.503906 131.371094 407.714844 L 169.089844 385.109375 L 365.21875 385.109375 L 365.21875 414.941406 L 265.773438 414.941406 C 243.828125 414.941406 225.996094 432.769531 225.996094 454.71875 C 225.996094 465.671875 234.933594 474.609375 245.886719 474.609375 L 365.21875 474.609375 L 365.21875 504.441406 L 255.832031 504.441406 C 250.355469 504.441406 245.886719 508.90625 245.886719 514.386719 C 245.886719 519.863281 250.355469 524.328125 255.832031 524.328125 L 365.21875 524.328125 L 365.21875 554.164062 Z M 206.109375 593.941406 C 206.109375 599.417969 201.640625 603.882812 196.164062 603.882812 L 156.386719 603.882812 C 150.910156 603.882812 146.441406 599.417969 146.441406 593.941406 L 146.441406 574.050781 L 206.109375 574.050781 Z M 126.554688 355.273438 C 126.554688 349.796875 131.019531 345.332031 136.5 345.332031 L 146.441406 345.332031 C 151.921875 345.332031 156.386719 349.796875 156.386719 355.273438 L 156.386719 365.21875 L 136.5 365.21875 C 131.019531 365.21875 126.554688 360.753906 126.554688 355.273438 Z M 208.75 279.371094 C 211.46875 271.253906 219.042969 265.777344 227.589844 265.777344 L 365.21875 265.777344 L 365.21875 365.21875 L 180.121094 365.21875 Z M 365.21875 454.71875 L 245.886719 454.71875 C 245.886719 443.765625 254.820312 434.832031 265.773438 434.832031 L 365.21875 434.832031 Z M 484.550781 216.054688 L 496.867188 216.054688 C 500.75 216.054688 504.285156 213.800781 505.917969 210.265625 C 509.761719 201.992188 521.414062 196.164062 534.273438 196.164062 C 547.132812 196.164062 558.824219 201.992188 562.746094 210.34375 C 564.417969 213.839844 567.914062 216.054688 571.757812 216.054688 L 583.996094 216.09375 L 583.996094 235.941406 L 484.550781 235.941406 Z M 663.550781 216.054688 L 603.882812 216.054688 C 603.882812 205.097656 594.949219 196.164062 583.996094 196.164062 L 577.429688 196.164062 C 568.730469 183.929688 552.53125 176.277344 534.273438 176.277344 C 515.976562 176.277344 499.816406 183.929688 491.195312 196.164062 L 484.550781 196.164062 C 473.597656 196.164062 464.664062 205.097656 464.664062 216.054688 L 404.996094 216.054688 C 386.507812 216.054688 371.085938 228.796875 366.617188 245.886719 L 227.589844 245.886719 C 210.460938 245.886719 195.308594 256.800781 189.871094 273.078125 L 168.933594 335.890625 C 163.457031 329.558594 155.453125 325.441406 146.441406 325.441406 L 136.5 325.441406 C 120.027344 325.441406 106.664062 338.804688 106.664062 355.273438 C 106.664062 369.917969 117.347656 382.117188 131.292969 384.601562 L 121.15625 390.664062 C 112.21875 396.023438 106.664062 405.851562 106.664062 416.261719 L 106.664062 544.21875 C 106.664062 557.152344 115.015625 568.109375 126.554688 572.226562 L 126.554688 593.941406 C 126.554688 610.410156 139.917969 623.773438 156.386719 623.773438 L 196.164062 623.773438 C 212.636719 623.773438 225.996094 610.410156 225.996094 593.941406 L 225.996094 574.050781 L 365.21875 574.050781 L 365.21875 593.941406 C 365.21875 615.886719 383.050781 633.71875 404.996094 633.71875 L 663.550781 633.71875 C 685.496094 633.71875 703.328125 615.886719 703.328125 593.941406 L 703.328125 255.832031 C 703.328125 233.882812 685.496094 216.054688 663.550781 216.054688 " fill-opacity="1" fill-rule="nonzero"/></g><path fill="#100f0d" d="M 186.21875 454.71875 C 186.21875 460.195312 181.753906 464.664062 176.277344 464.664062 C 170.796875 464.664062 166.332031 460.195312 166.332031 454.71875 L 166.332031 434.832031 C 166.332031 429.351562 170.796875 424.886719 176.277344 424.886719 C 181.753906 424.886719 186.21875 429.351562 186.21875 434.832031 Z M 176.277344 404.996094 C 159.804688 404.996094 146.441406 418.359375 146.441406 434.832031 L 146.441406 454.71875 C 146.441406 471.1875 159.804688 484.550781 176.277344 484.550781 C 192.746094 484.550781 206.109375 471.1875 206.109375 454.71875 L 206.109375 434.832031 C 206.109375 418.359375 192.746094 404.996094 176.277344 404.996094 " fill-opacity="1" fill-rule="nonzero"/><path fill="#100f0d" d="M 486.222656 290.09375 L 453.164062 339.660156 L 441.859375 328.355469 C 437.976562 324.472656 431.683594 324.472656 427.796875 328.355469 C 423.914062 332.238281 423.914062 338.53125 427.796875 342.417969 L 447.6875 362.304688 C 449.550781 364.171875 452.078125 365.21875 454.71875 365.21875 C 455.03125 365.21875 455.378906 365.179688 455.691406 365.179688 C 458.679688 364.871094 461.320312 363.277344 462.992188 360.792969 L 502.769531 301.125 C 505.839844 296.542969 504.597656 290.363281 500.011719 287.335938 C 495.429688 284.304688 489.25 285.507812 486.222656 290.09375 " fill-opacity="1" fill-rule="nonzero"/><path fill="#100f0d" d="M 623.773438 305.554688 L 534.273438 305.554688 C 528.796875 305.554688 524.328125 310.019531 524.328125 315.496094 C 524.328125 320.976562 528.796875 325.441406 534.273438 325.441406 L 623.773438 325.441406 C 629.25 325.441406 633.71875 320.976562 633.71875 315.496094 C 633.71875 310.019531 629.25 305.554688 623.773438 305.554688 " fill-opacity="1" fill-rule="nonzero"/><path fill="#100f0d" d="M 534.273438 365.21875 L 592.152344 365.21875 C 597.628906 365.21875 602.097656 360.753906 602.097656 355.273438 C 602.097656 349.796875 597.628906 345.332031 592.152344 345.332031 L 534.273438 345.332031 C 528.796875 345.332031 524.328125 349.796875 524.328125 355.273438 C 524.328125 360.753906 528.796875 365.21875 534.273438 365.21875 " fill-opacity="1" fill-rule="nonzero"/><path fill="#100f0d" d="M 486.222656 389.535156 L 453.164062 439.101562 L 441.859375 427.800781 C 437.976562 423.914062 431.683594 423.914062 427.796875 427.800781 C 423.914062 431.683594 423.914062 437.976562 427.796875 441.859375 L 447.6875 461.75 C 449.550781 463.613281 452.078125 464.664062 454.71875 464.664062 C 455.03125 464.664062 455.378906 464.625 455.691406 464.625 C 458.679688 464.3125 461.320312 462.722656 462.992188 460.234375 L 502.769531 400.570312 C 505.839844 395.984375 504.597656 389.808594 500.011719 386.777344 C 495.429688 383.710938 489.25 384.953125 486.222656 389.535156 " fill-opacity="1" fill-rule="nonzero"/><path fill="#100f0d" d="M 623.773438 404.996094 L 534.273438 404.996094 C 528.796875 404.996094 524.328125 409.464844 524.328125 414.941406 C 524.328125 420.417969 528.796875 424.886719 534.273438 424.886719 L 623.773438 424.886719 C 629.25 424.886719 633.71875 420.417969 633.71875 414.941406 C 633.71875 409.464844 629.25 404.996094 623.773438 404.996094 " fill-opacity="1" fill-rule="nonzero"/><path fill="#100f0d" d="M 534.273438 464.664062 L 592.152344 464.664062 C 597.628906 464.664062 602.097656 460.195312 602.097656 454.71875 C 602.097656 449.242188 597.628906 444.773438 592.152344 444.773438 L 534.273438 444.773438 C 528.796875 444.773438 524.328125 449.242188 524.328125 454.71875 C 524.328125 460.195312 528.796875 464.664062 534.273438 464.664062 " fill-opacity="1" fill-rule="nonzero"/><path fill="#100f0d" d="M 486.222656 488.980469 L 453.164062 538.546875 L 441.859375 527.242188 C 437.976562 523.359375 431.683594 523.359375 427.796875 527.242188 C 423.914062 531.128906 423.914062 537.421875 427.796875 541.304688 L 447.6875 561.195312 C 449.550781 563.058594 452.078125 564.105469 454.71875 564.105469 C 455.03125 564.105469 455.378906 564.066406 455.691406 564.066406 C 458.679688 563.757812 461.320312 562.164062 462.992188 559.679688 L 502.769531 500.011719 C 505.839844 495.429688 504.597656 489.253906 500.011719 486.222656 C 495.429688 483.191406 489.25 484.398438 486.222656 488.980469 " fill-opacity="1" fill-rule="nonzero"/><path fill="#100f0d" d="M 623.773438 504.441406 L 534.273438 504.441406 C 528.796875 504.441406 524.328125 508.90625 524.328125 514.386719 C 524.328125 519.863281 528.796875 524.328125 534.273438 524.328125 L 623.773438 524.328125 C 629.25 524.328125 633.71875 519.863281 633.71875 514.386719 C 633.71875 508.90625 629.25 504.441406 623.773438 504.441406 " fill-opacity="1" fill-rule="nonzero"/><path fill="#100f0d" d="M 592.152344 544.21875 L 534.273438 544.21875 C 528.796875 544.21875 524.328125 548.683594 524.328125 554.164062 C 524.328125 559.640625 528.796875 564.105469 534.273438 564.105469 L 592.152344 564.105469 C 597.628906 564.105469 602.097656 559.640625 602.097656 554.164062 C 602.097656 548.683594 597.628906 544.21875 592.152344 544.21875 " fill-opacity="1" fill-rule="nonzero"/><path fill="#100f0d" d="M 186.21875 504.441406 L 166.332031 504.441406 C 160.855469 504.441406 156.386719 508.90625 156.386719 514.386719 C 156.386719 519.863281 160.855469 524.328125 166.332031 524.328125 L 186.21875 524.328125 C 191.699219 524.328125 196.164062 519.863281 196.164062 514.386719 C 196.164062 508.90625 191.699219 504.441406 186.21875 504.441406 " fill-opacity="1" fill-rule="nonzero"/></svg>