<?xml version="1.0" encoding="iso-8859-1"?>
<!-- Generator: Adobe Illustrator 19.0.0, SVG Export Plug-In . SVG Version: 6.00 Build 0)  -->
<svg xmlns="http://www.w3.org/2000/svg" version="1.1" id="Layer_1" x="0px" y="0px" viewBox="0 0 490 490"
     style="enable-background:new 0 0 490 490;" xml:space="preserve" width="512" height="512">
<g>
	<g>
		<path style="fill:#F0CD00;" d="M490,245c0,135.31-109.69,245-245,245c-71.33,0-135.54-30.48-180.31-79.13    c-11.76-12.77-22.17-26.8-31.03-41.85C12.27,332.64,0,290.25,0,245C0,109.69,109.69,0,245,0c45.26,0,87.65,12.27,124.02,33.67    c15.05,8.85,29.07,19.26,41.84,31.03C459.51,109.45,490,173.67,490,245z"/>
		<path style="fill:#FFDE50;" d="M490,245c0,132.26-104.79,240.04-235.88,244.83C123.03,485.04,18.24,377.26,18.24,245    S123.03,4.96,254.12,0.17C385.21,4.96,490,112.74,490,245z"/>
		<path style="fill:#FFEA94;" d="M410.86,64.7L64.69,410.87c-11.76-12.77-22.17-26.8-31.03-41.85L369.02,33.67    C384.07,42.52,398.09,52.93,410.86,64.7z"/>
		<path style="fill:#FFEA94;" d="M473.1,155.43L155.42,473.11c-22.49-8.84-43.36-20.91-62.03-35.64L437.47,93.39    C452.2,112.06,464.27,132.93,473.1,155.43z"/>
		<path style="fill:#FAA300;" d="M435.38,245c0,105.14-85.24,190.38-190.38,190.38c-36.62,0-70.82-10.34-99.85-28.26    c-12.65-7.8-24.31-17.05-34.77-27.51c-7.69-7.68-14.73-16.03-21.02-24.94c-8.66-12.27-15.91-25.61-21.5-39.78    c-8.28-20.95-12.94-43.73-13.22-67.55c-0.02-0.78-0.02-1.56-0.02-2.34c0-105.14,85.23-190.38,190.38-190.38    c0.78,0,1.57,0,2.35,0.02c23.82,0.28,46.59,4.95,67.54,13.22c14.17,5.6,27.51,12.84,39.78,21.5c8.91,6.3,17.25,13.33,24.94,21.02    c10.46,10.45,19.71,22.12,27.51,34.77C425.04,174.18,435.38,208.38,435.38,245z"/>
		<path style="fill:#FFBD00;" d="M379.61,110.38L110.38,379.61c-7.69-7.68-14.73-16.03-21.02-24.94    c-8.66-12.27-15.91-25.61-21.5-39.78c-8.28-20.95-12.94-43.73-13.22-67.55c-0.02-0.78-0.02-1.56-0.02-2.34    c0-105.14,85.23-190.38,190.38-190.38c0.78,0,1.57,0,2.35,0.02c23.82,0.28,46.59,4.95,67.54,13.22    c14.17,5.6,27.51,12.84,39.78,21.5C363.58,95.66,371.92,102.69,379.61,110.38z"/>
		<path style="fill:#F68E00;" d="M435.375,245c0,105.14-85.24,190.38-190.38,190.38c-3.61,0-7.19-0.1-10.75-0.3    c100.14-5.57,179.62-88.55,179.62-190.08s-79.48-184.51-179.62-190.08c3.56-0.2,7.14-0.3,10.75-0.3    C350.135,54.62,435.375,139.86,435.375,245z"/>
	</g>
	<path style="fill:#F68E00;" d="M327.441,323.435c-9.031-6.357-21.509-4.189-27.866,4.844c-2.84,4.035-9.262,10.805-20.361,10.805   c-10.56,0-18.99-2.613-28.751-5.638c-10.914-3.382-23.284-7.216-39.023-7.216c-6.725,0-13.999,0.819-21.245,2.094   c1.118-2.667,2.203-5.429,3.238-8.284c7.641-21.063,10.972-42.458,10.05-63.65H250c11.046,0,20-8.954,20-20s-8.954-20-20-20   h-53.424c-2.973-9.741-6.876-19.363-11.72-28.808c-10.703-21.008-0.712-43.257,15.129-52.63   c22.584-13.36,51.532,0.266,75.544,35.565c6.212,9.132,18.652,11.5,27.786,5.288c9.133-6.213,11.5-18.653,5.288-27.786   c-44.325-65.158-97.187-66.308-128.986-47.493c-36.194,21.415-49.548,67.629-30.378,105.261c1.805,3.52,3.431,7.056,4.899,10.603   h-24.495c-11.046,0-20,8.954-20,20s8.954,20,20,20h33.847c0.936,16.094-1.449,32.355-7.185,48.68   c-9.186,26.141-23.872,42.828-23.964,42.933c-6.229,6.885-6.896,17.15-1.617,24.788c3.823,5.531,10.04,8.629,16.461,8.628   c2.447,0,4.923-0.45,7.308-1.386c9.776-3.839,39.063-13.803,56.947-13.803c9.683,0,17.792,2.513,27.183,5.423   c11.238,3.483,23.976,7.43,40.591,7.43c30.251,0,47.192-19.429,53.071-27.782C338.642,342.268,336.474,329.792,327.441,323.435z"/>
	<path style="fill:#FFEA94;" d="M352.442,323.435c-9.031-6.357-21.509-4.189-27.866,4.844c-2.84,4.035-9.262,10.805-20.361,10.805   c-10.56,0-18.99-2.613-28.751-5.638c-10.914-3.382-23.284-7.216-39.023-7.216c-6.725,0-13.999,0.819-21.245,2.094   c1.118-2.667,2.203-5.429,3.238-8.284c7.641-21.063,10.972-42.458,10.05-63.65h46.518c11.046,0,20-8.954,20-20s-8.954-20-20-20   h-53.424c-2.973-9.741-6.876-19.363-11.72-28.808c-10.703-21.008-0.712-43.257,15.129-52.63   c22.584-13.36,51.532,0.266,75.544,35.565c6.212,9.132,18.652,11.5,27.786,5.288c9.133-6.213,11.5-18.653,5.288-27.786   C289.28,82.86,236.418,81.71,204.619,100.525c-36.194,21.415-49.548,67.629-30.378,105.261c1.805,3.52,3.431,7.056,4.899,10.603   h-24.495c-11.046,0-20,8.954-20,20s8.954,20,20,20h33.847c0.936,16.094-1.449,32.355-7.185,48.68   c-9.186,26.141-23.872,42.828-23.964,42.933c-6.229,6.885-6.896,17.15-1.617,24.788c3.823,5.531,10.04,8.629,16.461,8.628   c2.447,0,4.923-0.45,7.308-1.386c9.776-3.839,39.063-13.803,56.947-13.803c9.683,0,17.792,2.513,27.183,5.423   c11.238,3.483,23.976,7.43,40.591,7.43c30.251,0,47.192-19.429,53.071-27.782C363.644,342.268,361.475,329.792,352.442,323.435z"/>
</g>















</svg>
