<?xml version="1.0" encoding="UTF-8"?>
<svg xmlns="http://www.w3.org/2000/svg" viewBox="0 0 858.47 750.64">
  <defs>
    <style>
      .cls-1 {
        stroke: #27427a;
        stroke-width: 1.09px;
      }

      .cls-1, .cls-2, .cls-3, .cls-4, .cls-5, .cls-6, .cls-7, .cls-8, .cls-9 {
        fill: none;
        stroke-linecap: round;
      }

      .cls-1, .cls-2, .cls-3, .cls-5, .cls-7, .cls-8 {
        stroke-linejoin: round;
      }

      .cls-10 {
        fill: #688ade;
      }

      .cls-11 {
        fill: #6778e0;
      }

      .cls-12 {
        fill: #e3e8f9;
      }

      .cls-13 {
        fill: #ed5353;
      }

      .cls-14, .cls-15 {
        fill: #fff;
      }

      .cls-16 {
        fill: #e4e6f2;
      }

      .cls-17 {
        fill: #7f98f0;
      }

      .cls-18 {
        fill: #9ea5e3;
      }

      .cls-19 {
        fill: #8fa8e8;
      }

      .cls-20 {
        fill: #301c11;
      }

      .cls-21 {
        fill: #ced9f5;
      }

      .cls-22 {
        fill: #bfcef5;
      }

      .cls-23 {
        fill: #dee0ec;
      }

      .cls-24 {
        fill: #de5840;
      }

      .cls-25 {
        fill: #afbbeb;
      }

      .cls-26 {
        fill: #abb9ed;
      }

      .cls-27 {
        fill: #203663;
      }

      .cls-28 {
        fill: #1b2d54;
      }

      .cls-29 {
        fill: #36518a;
      }

      .cls-30 {
        fill: #89a1de;
      }

      .cls-31 {
        fill: #4568bf;
      }

      .cls-32 {
        fill: #7585e6;
      }

      .cls-33 {
        fill: #7588ff;
      }

      .cls-34 {
        fill: #7b90c7;
      }

      .cls-2, .cls-7 {
        stroke: #acafcf;
      }

      .cls-2, .cls-7, .cls-9 {
        stroke-width: 1.27px;
      }

      .cls-35 {
        fill: #45446c;
        opacity: .29;
      }

      .cls-35, .cls-36 {
        mix-blend-mode: multiply;
      }

      .cls-36 {
        fill: #b8c9f5;
        opacity: .42;
      }

      .cls-3 {
        stroke: #fafbff;
        stroke-width: 1.57px;
      }

      .cls-4 {
        stroke: #2d4e73;
        stroke-width: 2.02px;
      }

      .cls-4, .cls-6, .cls-9 {
        stroke-miterlimit: 10;
      }

      .cls-5 {
        stroke: #4355c2;
        stroke-width: 2.18px;
      }

      .cls-6 {
        stroke: #4a2a1a;
        stroke-width: .91px;
      }

      .cls-15, .cls-7 {
        fill-rule: evenodd;
      }

      .cls-37 {
        isolation: isolate;
      }

      .cls-8 {
        stroke: #2d4973;
        stroke-width: .85px;
      }

      .cls-9 {
        stroke: #2a496b;
      }
    </style>
  </defs>
  <g class="cls-37">
    <g id="Layer_2" data-name="Layer 2">
      <g id="image">
        <g>
          <path class="cls-12" d="M854.66,426.53C890.54,214.33,667.77-22.63,396.64,1.73,325.61,8.11-10.07,59.98,.23,406.3c3.89,130.68,155.8,205.43,384.64,137.51,98.93-29.36,415.16,205.81,469.79-117.28Z"/>
          <circle class="cls-4" cx="536.19" cy="121.42" r="8.44" transform="translate(71.19 414.71) rotate(-45)"/>
          <g>
            <path class="cls-16" d="M688.52,697.66l-438.96-88.83c-17.96-3.64-23.02-13.98-11.3-23.09l74.99-58.32c11.73-9.12,35.8-13.57,53.76-9.93l438.96,88.83c17.96,3.64,23.02,13.98,11.3,23.09l-74.99,58.32c-11.73,9.12-35.8,13.57-53.76,9.93Z"/>
            <path class="cls-30" d="M738.43,239.85L237.98,135.8h0s-.03,0-.04,0l-.99-.21s0,0,0,0c-.75-.16-1.65-.34-1.75-.36-.23-.04-.45-.08-.68-.11-.23-.03-.46-.06-.69-.09-.23-.03-.46-.05-.68-.06-.24-.02-.47-.03-.7-.04-.24,0-.47-.01-.7-.01-.25,0-.5,0-.74,.02-.01,0-.03,0-.04,0,0,0,0,0,0,0-.02,0-.04,0-.07,0-.21,.01-.42,.02-.63,.04-.11,0-.21,.02-.32,.03-.09,0-.17,.02-.26,.03-.07,0-.14,.01-.2,.02-.26,.03-.51,.08-.76,.12-.02,0-.04,0-.06,.01,0,0,0,0-.01,0-.3,.06-.59,.12-.88,.19-.03,0-.06,.02-.1,.03-.13,.03-.26,.07-.39,.11-.15,.04-.31,.08-.46,.13-.04,.01-.09,.03-.13,.05-.21,.07-.42,.15-.62,.23-.11,.04-.23,.08-.34,.12-.02,.01-.05,.02-.07,.03-.41,.17-.8,.36-1.17,.57-.03,.01-.06,.03-.08,.04-.04,.02-.08,.05-.12,.08-.49,.28-.96,.58-1.39,.92l-16.75,13.04c.43-.33,.89-.63,1.36-.9,.18-.11,.37-.2,.56-.3,.23-.12,.46-.23,.69-.34,.28-.12,.57-.24,.86-.34,.11-.04,.22-.09,.33-.12,.41-.14,.83-.25,1.26-.36,.08-.02,.16-.04,.24-.05,.44-.1,.88-.18,1.34-.24,.03,0,.07,0,.1-.01,.48-.06,.98-.1,1.48-.12,.04,0,.08,0,.12,0,.49-.01,.99,0,1.5,.02,.05,0,.1,0,.15,0,.54,.03,1.08,.09,1.63,.17,.22,.03,.45,.07,.68,.11,.18,.03,.35,.07,.53,.1l3.68,.77h0l514.64,107.58c.76,.16,2.79-16.53,1.15-16.87ZM232.03,138.2h0s0,0,0,0h0Z"/>
            <path class="cls-34" d="M751.45,254.09s0-.03,0-.05c-.03-.19-.06-.37-.1-.56-.04-.19-.08-.37-.12-.56,0-.03-.01-.05-.02-.08,0-.03-.01-.05-.02-.08-.03-.13-.07-.26-.1-.39-.05-.18-.11-.36-.16-.54-.03-.08-.06-.17-.09-.25-.01-.04-.02-.07-.04-.11-.02-.06-.04-.11-.06-.17-.07-.18-.13-.35-.21-.53-.07-.17-.14-.33-.22-.49,0,0,0-.01,0-.02,0,0,0,0,0-.01-.08-.17-.16-.35-.25-.52-.09-.17-.17-.34-.27-.51-.02-.05-.05-.09-.08-.13-.02-.03-.04-.06-.05-.1-.05-.09-.1-.18-.15-.27-.09-.16-.19-.32-.29-.48-.08-.12-.16-.24-.23-.36-.01-.02-.02-.03-.03-.05-.01-.02-.02-.04-.04-.05-.1-.15-.2-.3-.31-.44-.1-.14-.21-.28-.31-.42-.05-.06-.09-.12-.14-.18-.02-.03-.04-.05-.06-.08-.04-.05-.08-.11-.13-.16-.12-.14-.23-.28-.35-.42-.12-.14-.24-.28-.37-.42-.01-.01-.02-.03-.04-.04-.02-.02-.04-.04-.06-.06-.13-.15-.27-.29-.41-.43-.13-.13-.27-.26-.4-.39-.09-.09-.18-.17-.27-.26-.04-.04-.08-.08-.13-.12-.23-.21-.46-.41-.7-.61-.08-.06-.15-.13-.23-.2-.01,0-.02-.02-.03-.03-.3-.25-.62-.49-.94-.72-.05-.03-.09-.06-.14-.1-.04-.03-.08-.06-.13-.09-.11-.08-.22-.16-.34-.24-.19-.13-.38-.25-.57-.38-.07-.05-.15-.09-.22-.14-.04-.02-.08-.05-.12-.07-.07-.04-.14-.09-.21-.13-.19-.11-.38-.22-.57-.33-.15-.08-.29-.16-.44-.24-.03-.01-.05-.03-.08-.04-.02-.01-.05-.03-.07-.04-.21-.11-.41-.21-.62-.31-.22-.1-.43-.2-.65-.3,0,0,0,0-.01,0,0,0-.01,0-.02,0-.21-.09-.42-.18-.64-.27-.23-.09-.45-.18-.68-.26-.03-.01-.06-.02-.08-.03-.03-.01-.06-.02-.1-.03-.17-.06-.33-.12-.5-.17-.23-.07-.45-.14-.68-.21-.06-.02-.13-.03-.19-.05-.02,0-.04-.01-.06-.02,0,0-.01,0-.02,0-.13-.04-.27-.07-.4-.11-.23-.06-.45-.11-.68-.16-.05-.01-3.63-.75-3.68-.76l-17.44,12.89s4.83,1.02,5.05,1.07c.23,.06,.45,.12,.68,.18,.23,.07,.46,.14,.68,.21,.23,.07,.45,.15,.68,.23,.09,.03,.19,.07,.28,.11,.36,.14,.72,.28,1.07,.43h0c.35,.16,.7,.32,1.05,.49,.04,.02,.09,.04,.13,.06,.33,.17,.65,.34,.97,.52,.05,.03,.1,.06,.15,.08,.31,.18,.61,.37,.91,.56,.05,.03,.11,.07,.16,.1,.29,.19,.58,.4,.87,.6,.15,.11,.29,.22,.43,.33,.17,.13,.35,.27,.52,.4,.19,.16,.38,.33,.57,.49,.12,.11,.25,.21,.37,.32,.1,.1,.2,.2,.31,.3,.18,.17,.36,.35,.54,.53,.05,.05,.09,.1,.14,.15,.24,.25,.46,.5,.68,.76,.02,.02,.04,.04,.05,.06,.23,.27,.45,.55,.66,.83,.02,.03,.04,.06,.06,.09,.21,.28,.4,.55,.59,.84,.02,.04,.05,.07,.07,.11,.18,.28,.36,.56,.52,.85,.02,.04,.05,.09,.07,.13,.16,.28,.31,.57,.45,.86,.02,.04,.04,.09,.06,.13,.14,.29,.27,.59,.39,.89,.02,.04,.03,.09,.05,.13,.12,.3,.23,.6,.32,.91,.01,.04,.02,.08,.04,.12,.1,.31,.18,.62,.25,.93,.04,.16,.07,.31,.1,.47,.04,.19,.07,.37,.1,.56,.03,.2,.06,.39,.08,.59,.02,.2,.04,.4,.05,.59,.01,.22,.02,.43,.02,.65,0,.17,0,.34,0,.5,0,0-.01,.34-.03,.91l-15.27,385.7,12.55-12.86c2.92-2.99,4.63-6.56,4.76-9.94l14.6-372.78c.06-1.63,.15-4.08,.15-4.08,0-.17,0-.34,0-.5,0-.14,0-.28-.01-.43,0,0,0-.02,0-.03,0-.02,0-.04,0-.06,0-.05,0-.09,0-.14-.01-.2-.03-.4-.05-.59-.02-.16-.04-.31-.06-.47,0-.02,0-.05,0-.07Z"/>
            <g>
              <g>
                <path class="cls-34" d="M593.19,579.38s-2.65,2.13-2.83,2.42c-.08,.13-.93,1.36-1.33,1.85-.3,.36-1.3,1.47-1.49,1.66-.54,.55-117.57,101.61-117.57,101.61l3.23,18.34,115.32-100.22c1.12-.28,1.71-.83,2.25-1.39,.19-.19,.33-.38,.51-.57,.34-.36,.68-.73,.98-1.09,0,0,0,0,0,0,.4-.49,.74-.97,1.07-1.45,.09-.13,.17-.26,.25-.39,.09-.15,.2-.3,.29-.45,.08-.13,.12-.26,.2-.4,.21-.38,.4-.75,.56-1.12,.06-.13,.14-.26,.19-.39,.04-.1,.06-.2,.1-.3,.12-.33,.22-.65,.31-.97,.04-.15,.11-.31,.15-.46,.02-.08,.02-.15,.03-.23,.06-.3,.09-.6,.13-.9,.02-.17,.06-.34,.07-.51,0-.06,0-.11,0-.17,0-.31-.02-.62-.04-.92-.01-.16,0-.33-.02-.49-.01-.08-.02-.16-.04-.23l-2.31-13.22Z"/>
                <path class="cls-30" d="M469.5,687.3c-.78,.65-1.61,1.28-2.47,1.89-.26,.19-.53,.37-.8,.56-.96,.64-1.95,1.27-2.99,1.86-.06,.03-.11,.07-.17,.1-.87,.49-1.76,.96-2.68,1.41-.13,.06-.27,.12-.41,.19-.79,.38-1.59,.75-2.41,1.1-.1,.04-.21,.08-.31,.12-1.05,.44-2.13,.85-3.22,1.23-.4,.14-.8,.28-1.21,.41-.63,.21-1.27,.41-1.91,.6-.45,.13-.91,.27-1.36,.39-.56,.15-1.11,.3-1.67,.43-.48,.12-.96,.24-1.45,.34-.52,.12-1.04,.22-1.56,.32-.5,.1-.99,.19-1.49,.28-.52,.09-1.03,.17-1.55,.24-.49,.07-.98,.14-1.47,.2-.56,.07-1.11,.12-1.66,.17-.46,.04-.92,.08-1.38,.11-.67,.04-1.34,.07-2,.08-.37,0-.75,.03-1.12,.03-1.19,0-2.36-.04-3.51-.12-.57-.04-1.13-.11-1.68-.17-.28-.03-.58-.06-.86-.1-.85-.12-1.68-.27-2.48-.45l-107.67-24.11c-6.65-1.49-9.41,.86-10.11-3.12l2.23,12.77c.7,3.99,4.46,7.2,11.11,8.7l107.67,24.11c.8,.18,1.64,.33,2.48,.45,.28,.04,.57,.06,.86,.1,.48,.06,.96,.13,1.46,.17,.07,0,.15,0,.22,0,1.14,.09,2.31,.13,3.51,.12,.08,0,.15,0,.23,0,.29,0,.59-.03,.89-.04,.66-.02,1.33-.04,2-.08,.15,0,.3,0,.45-.02,.31-.02,.62-.07,.93-.09,.55-.05,1.1-.1,1.66-.17,.19-.02,.37-.03,.56-.06,.3-.04,.61-.1,.91-.14,.51-.07,1.03-.15,1.54-.24,.2-.03,.4-.06,.6-.09,.3-.05,.6-.13,.9-.19,.52-.1,1.04-.21,1.55-.32,.21-.05,.41-.08,.62-.13,.28-.06,.55-.15,.83-.22,.56-.14,1.11-.28,1.67-.43,.22-.06,.45-.11,.67-.17,.23-.07,.46-.15,.69-.22,.64-.19,1.28-.39,1.91-.6,.25-.08,.52-.16,.77-.24,.15-.05,.29-.12,.44-.17,1.09-.39,2.16-.79,3.21-1.23,.08-.03,.17-.06,.26-.1,.02,0,.04-.02,.05-.02,.82-.35,1.62-.72,2.41-1.1,.13-.06,.27-.12,.41-.19,.92-.45,1.81-.92,2.68-1.41,.01,0,.02-.01,.04-.02,.04-.02,.08-.05,.13-.08,1.04-.59,2.03-1.22,2.99-1.86,.27-.18,.54-.37,.8-.55,.86-.61,1.69-1.24,2.47-1.89,.09-.08,.2-.15,.3-.23,.06-.05,.12-.11,.19-.16l-3.23-18.34c-.15,.13-.33,.26-.48,.39Z"/>
                <path class="cls-22" d="M581.74,571.19c12.93,2.9,14.98,12.38,4.62,21.39l-115.32,100.22c-10.79,9.38-30.82,14.63-44.29,11.61l-107.67-24.11c-13.47-3.02-15.06-13.11-3.52-22.32l123.38-98.42c11.09-8.85,30.23-13.59,43.16-10.69l99.64,22.31Z"/>
              </g>
              <polygon class="cls-19" points="357.52 624.3 512.94 656.98 545.17 628.87 395.43 594.84 357.52 624.3"/>
              <polygon class="cls-35" points="512.94 656.98 515.08 668.87 555.63 634.32 553.58 622.92 512.94 656.98"/>
            </g>
            <path class="cls-21" d="M728.14,641.16c-.36,11.9-15.66,22.78-28.3,20.14l-490.23-102.48c-9.09-1.9-16.23-9.65-15.95-17.31l12.74-347.68c.28-7.67,7.87-12.33,16.96-10.43l515.49,107.76-10.72,350.01Z"/>
            <path class="cls-29" d="M730.03,587.18c-.66,18.07-23.23,34.23-42.28,30.29l-477.45-98.97c-9.09-1.9-16.23-9.65-15.95-17.31l12.74-347.68c.28-7.67,7.87-12.33,16.96-10.43l496.33,103.76c12.7,2.65,21.64,14.08,21.16,27.04l-11.52,313.31Z"/>
            <path class="cls-25" d="M709.65,572.34c-.51,11.84-14.85,22.3-27.14,19.81l-456.23-92.8c-8.63-1.77-15.41-8.52-15.15-15.09l11.92-298.05c.26-6.57,7.47-10.46,16.1-8.7l463.01,93.5c11.61,2.35,19.86,13.01,19.34,25.02l-11.85,276.32Z"/>
            <path class="cls-14" d="M471.48,211.45c-.1,2.77-2.22,4.62-4.73,4.12-2.52-.5-4.48-3.14-4.38-5.91,.1-2.77,2.22-4.62,4.73-4.12,2.52,.5,4.48,3.14,4.38,5.91Z"/>
          </g>
          <polygon class="cls-15" points="619.44 608.04 150.87 512.75 161.68 196.37 630.26 291.66 619.44 608.04"/>
          <path class="cls-7" d="M179.05,380.15c1.46,.62,412.69,86.38,412.69,86.38"/>
          <path class="cls-7" d="M183.12,252.68c1.46,.62,412.69,86.38,412.69,86.38"/>
          <path class="cls-7" d="M175.32,497.01c1.46,.62,412.69,86.38,412.69,86.38"/>
          <line class="cls-2" x1="328.66" y1="283.22" x2="320.87" y2="527.55"/>
          <line class="cls-2" x1="461.1" y1="310.94" x2="453.3" y2="555.27"/>
          <polygon class="cls-18" points="554.9 398.1 492.51 385.04 493.24 362.2 555.63 375.26 554.9 398.1"/>
          <polygon class="cls-18" points="426.5 526.36 350.7 510.5 353.05 436.97 428.85 452.84 426.5 526.36"/>
          <line class="cls-9" x1="500.61" y1="372.3" x2="535.9" y2="379.69"/>
          <polygon class="cls-21" points="291.46 350.25 229.07 337.19 229.8 314.36 292.19 327.42 291.46 350.25"/>
          <line class="cls-9" x1="237.17" y1="324.46" x2="272.46" y2="331.84"/>
          <line class="cls-9" x1="362.34" y1="455.94" x2="414.99" y2="466.96"/>
          <line class="cls-9" x1="361.83" y1="471.92" x2="397.12" y2="479.31"/>
          <g>
            <polygon class="cls-32" points="430.29 415.98 353.96 400.01 356 336.22 432.32 352.2 430.29 415.98"/>
            <line class="cls-9" x1="364.26" y1="354.86" x2="421.88" y2="366.92"/>
            <line class="cls-9" x1="363.97" y1="364.16" x2="384.98" y2="368.55"/>
          </g>
          <path class="cls-32" d="M578.68,319.88L203.92,241.44c-3.86-.81-6.89-4.7-6.76-8.7h0c.13-4,3.36-6.58,7.22-5.77l374.76,78.44c3.86,.81,6.89,4.7,6.76,8.7h0c-.13,4-3.36,6.58-7.22,5.77Z"/>
          <g>
            <path class="cls-13" d="M343.8,367.5h0c-13.37-2.67-23.97-16.17-23.55-30.01h0c.42-13.84,11.7-22.98,25.07-20.31h0c13.37,2.67,23.97,16.17,23.55,30.01h0c-.42,13.84-11.7,22.98-25.07,20.31Z"/>
            <polyline class="cls-3" points="339.01 345.58 342.85 353.32 355.81 335.35"/>
          </g>
          <g>
            <path class="cls-24" d="M330.82,378.59h0c1.81,2.21,1.81,5.15-.01,6.54l-8.11,3.51c-1.82,1.39-6.27-3.13-3.41-6.53l5.24-3.81c.68-.5,1.43-.9,2.25-1.16,1.52-.47,2.6-.3,4.03,1.44Z"/>
            <path class="cls-33" d="M232.62,370.36l53.69,32.95,32.77-20.57,4.94,6.21c1.87,2.35,1.74,5.71-.3,7.91l-28.51,30.71c-6.12,6.59-15.84,8.36-23.89,4.37l-34.99-19.22-3.72-42.35Z"/>
          </g>
          <g>
            <rect class="cls-28" x="183.76" y="499.97" width="46.76" height="31.99" transform="translate(425.03 1027.48) rotate(178.8)"/>
            <path class="cls-23" d="M255.08,682.19c-16.51-7.45-44.61-7.42-62.77,.07-3.1,1.28-5.7,2.69-7.81,4.19-11.62-3.02-27.32-2.32-38.08,2.11-12.76,5.26-13.7,13.78-2.1,19.01,11.15,5.03,29.8,5.19,42.56,.53,.77,.41,1.57,.82,2.43,1.21,16.51,7.45,44.61,7.42,62.77-.07,18.16-7.49,19.5-19.61,3-27.06Z"/>
            <path class="cls-28" d="M188.6,699.34l-11.36-14.32c-2.19-2.77-5.45-4.4-9.03-4.43-1.28-.01-2.59,.09-3.82,.31-1.65,.29-2.6,1.35-2.85,2.94l-.66,2.95c-.95,4.95-1.72,6.58,1.28,8.16l17.81,9.41c3.57,2.88,14.54,1.31,8.64-5.03Z"/>
            <path class="cls-24" d="M163.96,680.84c0,3.32,2.48,6.37,5.77,6.48,1.63,.05,2.9-.72,3.67-3.68,5.51-33.57,13.8-61.04,18.97-92.42,5.8-35.23,2.99-25,11.81-79.02l-31.31-11.23c-.01,39.85-5.48,89.32-5.48,89.32-15,34.81-3.44,47.45-3.43,90.56Z"/>
            <path class="cls-28" d="M159.62,475.42l5.8,97.21c-.23,9.04,1.63,13.95-2.11,24.27-4.61,12.71-7.72,39.02-2.95,78.47,4.48,4.74,9.9,5.4,16.12,2.56,0,0,19.53-83.66,22.28-99.92,2.75-16.27,14.06-104.38,14.06-104.38l-53.19,1.8Z"/>
            <path class="cls-28" d="M253.5,685.96l-14.18-12.63c-2.74-2.44-6.29-3.61-9.82-3.14-1.27,.17-2.54,.45-3.71,.84-1.56,.52-2.28,1.7-2.2,3.31l-.04,3.02c.09,5.04-.33,6.77,2.96,7.92l19.52,6.87c4.12,2.36,14.61-.72,7.47-6.19Z"/>
            <path class="cls-24" d="M224.82,670.64c.39,3.28,3.21,5.95,6.51,5.6,1.63-.17,2.81-1.11,3.23-4.14,1.59-33.92,6.67-62.19,8.18-93.9,1.69-35.6,.08-25.1,2.59-79.68l-32.52-6.76c4.62,39.36,4.91,88.97,4.91,88.97-10.91,36.45,2.08,47.34,7.1,89.91Z"/>
            <path class="cls-28" d="M196.64,468.37l17.07,95.2c.82,8.96,3.25,13.55,.71,24.26-3.12,13.19-3.16,39.6,6.17,77.9,5.02,4.07,10.5,3.96,16.37,.3,0,0,9.75-85.32,10.61-101.77,.85-16.45,1.89-105.03,1.89-105.03l-52.82,9.13Z"/>
            <path class="cls-33" d="M223.88,367.52c-4.47,.05-8.58-.42-9.8-1.21-6.88-4.4-14.85-1.06-15.7-.47l-22.4,7.78c-28.3,8.35-23.36,27.75-23.76,40.13,0,0,11.91,15.55,12.62,27.19,.61,10.06,6.87,32.55,5.28,35.86-1.19,2.48-1.02,17.51,11.34,21.04,10.92,3.12,80.24,19.21,71.8-32.18-1.7-10.35-3.56-41.34-3.68-49.66-.11-8.32,3.22-28.85-10.11-41.69-1.91-1.51-7.88-6.61-15.58-6.79Z"/>
            <path class="cls-24" d="M202.48,373.97s7.35,1,7.78-1.4l2.43-13.51c.43-2.4-1.48-4.97-4.23-5.72l-.82-.22c-2.76-.75-10.35-.79-10.78,1.61l-1.3,14.32c-.43,2.4,4.17,4.17,6.93,4.92Z"/>
            <path class="cls-24" d="M196.67,338.38c1.72-3.85,4.91-4.85,8.19-3.11,2.83-1.6,6.64-.14,9.85,4.29,2.23,3.08,3.14,6.37,5.86,12.22,1.75,3.77,.37,6.99-.88,9.8-1.09,2.45-4.18,4.16-6.23,4.43-1.92,.26-7.13-.76-9.07-1.26-6.95-1.78-5.12-.61-8.09-4.71-4.47-6.17-2.13-16.05,.37-21.66Z"/>
            <path class="cls-11" d="M159.54,473.36c.69-5.71,2.03-22.13,1.42-32.19-.4-6.59-1.46-25.77-2.47-35.51,4.94,9.14,8.42,12.57,8.96,14.84,4.2,17.8,1.29,42.57,8.18,54.04,6.66,11.08,24.87,21.96,48.22,27.74-37.62,.7-52.08-1.57-60.98-8.36-8.11-6.19-3.68-17.63-3.32-20.55Z"/>
            <path class="cls-24" d="M167.04,495.73h0c-2.88-.04-5.21-2.01-5.18-4.38l2.25-8.77c.03-2.37,.02-4.11,2.91-4.07h0c2.88,.04,4.51,1.44,4.4,5.73l-.24,6.7c-.03,.87-.17,1.74-.48,2.56-.57,1.52-1.38,2.26-3.65,2.23Z"/>
            <path class="cls-33" d="M159.74,382.62s-33.34,28.51-41.61,55.01c-8.27,26.5,45,48.38,45,48.38l7.88-5.91c1.18-.89,1.18-2.72-.01-3.69-7.4-6.01-29.34-24.42-26.43-29.04,4.84-7.69,37.82-41.37,37.82-41.37l-22.64-23.39Z"/>
            <line class="cls-5" x1="167.09" y1="423.86" x2="168.62" y2="411.11"/>
            <path class="cls-20" d="M215.85,330.12c-6.72-5.11-10.74-3.73-13.16-.12-.36,.54-.94,1-1.58,1.05-.41,.03-.8-.15-1.18-.3-2.4-.91-5.29-.35-7.17,1.4-1.88,1.74-1.83,3.51-1.11,5.97-1.01-.16-2.87,1.54-3.42,2.4s-.72,1.92-.74,2.94c-.06,2.33,.52,4.62,1.1,6.87,.47,1.85,.97,3.75,2.02,5.34,1.06,1.59,2.81,2.86,4.72,2.82,2.4-.05,4.36-2.17,5.03-4.47,.66-2.31,.31-4.77-.09-7.15s-.82-4.81-.3-7.15c.52-2.35,2.26-4.6,4.64-4.93,1.62-.23,3.21,.44,4.77,.93,1.56,.49,3.37,.76,4.74-.14,1.71-1.13,1.69-4.85,1.74-5.46Z"/>
            <path class="cls-20" d="M203.77,353.82c2.44-.78-2.42-8.32-3.46-10.67,2.08,.25,5.24-2.01,5.17-4.74,2.02,3.08,6.03,2.75,6.86,.94-.19,1.35,1.4,2.36,2.59,3,4.09,2.2,5.55-1.16,5.81-2.65,.26-1.56,.34-5.26-.12-6.77-.46-1.51-1.43-2.9-2.81-3.66-1.38-.76-3.19-.8-4.5,.06-1.32,.87-3.97,1.43-5.77,1.34-1.8-.09-6.2,1.51-7.63,2.1-1.47,.61-6.81,4.69-7.43,5.54-2.34,3.22-.53,8.37-.63,9.82-.09,1.44,.61,2.97,1.91,3.63s3.8,1.34,4.59,.12c.03,0,1.91,.95,5.43,1.92Z"/>
            <path class="cls-20" d="M195.03,345.54c2.8,7.35,5.03,12.68,9.19,21.65,1.49,3.22,4.84,6.03,8.29,6.88,3.16,.78,9.18-.04,11.09-2.67,1.91-2.63,1.78-5.47,.26-10-1.03-3.08-1.92-6.48-2.94-9.57-4.37-.58-8.95,.59-12.52,3.19-.81,.59-1.74,1.29-2.71,1.03-.82-.22-1.3-1.04-1.69-1.79-2.55-4.85-5.11-9.71-7.66-14.57-.24,2.18-.48,4.37-.63,6.58,.04,.1,.08,.21-.68-.73Z"/>
            <path class="cls-24" d="M192.58,357.25c.08,2.12,1.88,3.83,4.01,3.81s3.79-1.76,3.7-3.88-1.88-3.83-4.01-3.81c-2.13,.02-3.79,1.76-3.7,3.88Z"/>
            <path class="cls-14" d="M216.75,359.22h0c1.48-.57,2.17-2.57,1.55-4.47l-5.36,2.07c.63,1.9,2.33,2.97,3.81,2.4Z"/>
            <line class="cls-6" x1="191.65" y1="338.12" x2="198.08" y2="340.52"/>
            <line class="cls-5" x1="246.63" y1="403.93" x2="248.28" y2="417.59"/>
          </g>
          <g>
            <g>
              <ellipse class="cls-16" cx="604.33" cy="725.02" rx="56.72" ry="25.49" transform="translate(-34.59 30.29) rotate(-2.79)"/>
              <path class="cls-26" d="M512.24,600.94l18.59,121.45c2.73,15.45,20.62,23.56,47.61,23.56s48.88-11.03,48.88-24.63l17.33-120.38h-132.4Z"/>
              <path class="cls-30" d="M564.4,744.91c4.45,.67,9.16,1.04,14.04,1.04,26.99,0,48.88-11.03,48.88-24.63l16.95-117.74c-4.8-3.94-34.01,20.98-34.01,20.98,0,0-14.52,75.74-45.85,120.35Z"/>
              <ellipse class="cls-26" cx="578.15" cy="596.79" rx="67.33" ry="33.95" transform="translate(-6.36 6.23) rotate(-.61)"/>
              <ellipse class="cls-10" cx="579.52" cy="595.42" rx="58.34" ry="29.42" transform="translate(-6.35 6.24) rotate(-.61)"/>
              <path class="cls-31" d="M635.95,602.45c-6.54,12.62-29.14,22.09-56.12,22.38-24.56,.26-45.66-7.17-54.38-17.91,41.72-24.59,111.77-6.92,110.5-4.47Z"/>
              <path class="cls-17" d="M586.9,624.54c-12.58,.74-13.23-.06-21.41-.44l-29.86-122.64c-1.26-5.16,1.91-10.36,7.07-11.62h0c5.12-1.25,10.29,1.86,11.59,6.96l32.61,127.74Z"/>
              <path class="cls-27" d="M591.84,618.74h0c-5.39,.79-10.45-2.97-11.24-8.36l-25.07-170.68c-.79-5.39,2.97-10.45,8.36-11.24h0c5.39-.79,10.45,2.97,11.24,8.36l25.07,170.68c.79,5.39-2.97,10.45-8.36,11.24Z"/>
              <path class="cls-21" d="M616.3,617.96c-11.97,4.97-25.27,6.89-38.79,6.89l31.51-136.96,33.97,8.69-26.68,121.38Z"/>
              <line class="cls-1" x1="603.73" y1="510.99" x2="615.73" y2="513.29"/>
              <line class="cls-1" x1="597.74" y1="534.08" x2="609.73" y2="536.38"/>
              <line class="cls-1" x1="591.74" y1="561.43" x2="603.73" y2="563.73"/>
              <line class="cls-1" x1="585.74" y1="592.78" x2="597.74" y2="595.08"/>
              <line class="cls-1" x1="579.74" y1="615.04" x2="591.74" y2="617.34"/>
              <path class="cls-1" d="M547.91,551.88s12.56,2.3,19.26-4.83"/>
              <polyline class="cls-1" points="536.85 506.44 530.48 508.47 541.9 552.24"/>
              <path class="cls-36" d="M562.73,612.73s38,4.97,56.98-10.29l-3.41,15.51s-19.41,10.14-50.81,6.15l-2.77-11.37Z"/>
            </g>
            <path class="cls-8" d="M604.1,634.56c-7.73,1.65-16.19,2.61-25.05,2.7-24.36,.26-45.76-6.03-57.69-15.67"/>
          </g>
        </g>
      </g>
    </g>
  </g>
</svg>