<?xml version="1.0" encoding="UTF-8"?>
<svg xmlns="http://www.w3.org/2000/svg" viewBox="0 0 806.12 696.47">
  <defs>
    <style>
      .cls-1, .cls-2, .cls-3, .cls-4, .cls-5, .cls-6, .cls-7, .cls-8 {
        fill: none;
        stroke-linecap: round;
      }

      .cls-1, .cls-3, .cls-4, .cls-5, .cls-6, .cls-7, .cls-8 {
        stroke-linejoin: round;
      }

      .cls-1, .cls-4 {
        stroke: #26160e;
        stroke-width: .48px;
      }

      .cls-1, .cls-9 {
        fill-rule: evenodd;
      }

      .cls-10 {
        fill: #f3f4fa;
      }

      .cls-11 {
        fill: #6b3d26;
      }

      .cls-12 {
        fill: #e3e8f9;
      }

      .cls-13 {
        fill: #ed5353;
      }

      .cls-14 {
        fill: #fff;
      }

      .cls-15 {
        fill: #e4e6f2;
      }

      .cls-16 {
        fill: #809af2;
      }

      .cls-17 {
        fill: #6579bf;
      }

      .cls-18 {
        fill: #8b9bc7;
      }

      .cls-19 {
        fill: #874b2b;
      }

      .cls-20 {
        fill: #bfcef5;
      }

      .cls-21 {
        fill: #abb9ed;
      }

      .cls-22 {
        fill: #e0e1eb;
      }

      .cls-23 {
        fill: #a7b9e8;
      }

      .cls-24 {
        fill: #213361;
      }

      .cls-25, .cls-26 {
        fill: #36518a;
      }

      .cls-27 {
        fill: #a2b6eb;
      }

      .cls-28 {
        fill: #89a1de;
      }

      .cls-29 {
        fill: #7086d4;
      }

      .cls-30 {
        fill: #313363;
      }

      .cls-31 {
        fill: #7a92e6;
      }

      .cls-26 {
        mix-blend-mode: multiply;
        opacity: .18;
      }

      .cls-2 {
        stroke: #2d4e73;
        stroke-miterlimit: 10;
        stroke-width: 1.91px;
      }

      .cls-3 {
        stroke: #c0c5d6;
        stroke-width: 2.43px;
      }

      .cls-9 {
        fill: #4d2c1c;
      }

      .cls-5 {
        stroke: #27427a;
        stroke-width: 2.15px;
      }

      .cls-32 {
        isolation: isolate;
      }

      .cls-6 {
        stroke: #757c8f;
        stroke-width: 1.61px;
      }

      .cls-7 {
        stroke: #fafbff;
        stroke-width: 1.49px;
      }

      .cls-8 {
        stroke: #424f96;
        stroke-width: .76px;
      }
    </style>
  </defs>
  <g class="cls-32">
    <g id="Layer_2" data-name="Layer 2">
      <g id="image">
        <g>
          <path class="cls-12" d="M783.07,428.12C875,232.73,681.08-23.35,395.43,1.71,257.83,13.78-15.66,172.44,.7,437.79c7.49,121.48,174.87,249.69,336.95,81.57,118.47-122.88,363.07,83.78,445.41-91.25Z"/>
          <circle class="cls-2" cx="665.74" cy="317.79" r="7.97" transform="translate(203.49 892.7) rotate(-76.72)"/>
          <circle class="cls-2" cx="267.83" cy="155.64" r="7.97"/>
          <circle class="cls-2" cx="84.75" cy="501.27" r="7.97"/>
          <path class="cls-15" d="M693.57,598.57l-81.33-16.83c-.74-.33-1.59-.6-2.57-.81l-281.03-58.15c-7.99-1.65-21.19,1.8-29.34,7.66l-90.89,65.42c-8.15,5.87-8.29,12.02-.3,13.67l81.33,16.83c.74,.33,1.59,.6,2.57,.81l281.03,58.15c7.99,1.65,21.19-1.8,29.34-7.66l90.89-65.42c8.15-5.87,8.29-12.02,.3-13.67Z"/>
          <g>
            <path class="cls-28" d="M616.7,272.19c.16-6.55-2.01-12.89-5.61-17.75l-.06-.08c-3.34-4.61-7.81-7.92-12.97-8.89l-176.49-33.11c-4.46-.84-8.61,.21-11.95,2.66l-10.96,8.57-5.03,338.09c0,.22,.02,.36,.07,.44-.25,12.56,8.04,24.31,18.57,26.28l181.15,34.28,5.3-4.14c5.99-4.93,9.59-9.53,9.79-17.83l8.18-328.52Z"/>
            <path class="cls-27" d="M486.24,358.22s-97.63,219.94-96.98,206.99l11.26-344.53,8.86-6.17c3.42-2.52,7.62-3.6,12.09-2.75l176.66,33.6c5.17,.98,9.73,4.38,12.97,9.1l-124.86,103.77Z"/>
            <path class="cls-14" d="M581.65,625.33l-176.05-33.25c-10.57-1.98-18.45-13.96-18.13-26.57l8.22-330.08c.31-12.61,8.91-21.15,19.48-19.17l175.95,33.29c10.57,1.98,18.35,13.99,18.04,26.6l-8.22,330.08c-.31,12.61-8.71,21.09-19.29,19.11Z"/>
            <path class="cls-25" d="M579.67,626.47l-176.05-33.25c-10.57-1.98-18.45-13.96-18.13-26.57l8.22-330.08c.31-12.61,8.91-21.15,19.48-19.17l175.95,33.29c10.57,1.98,18.35,13.99,18.04,26.6l-8.22,330.08c-.31,12.61-8.71,21.09-19.29,19.11Z"/>
            <path class="cls-21" d="M592.74,272.69c.05-1.89-1.05-3.27-2.89-3.61l-176.2-33.06c-3.95-.74-9.01,3.43-9.11,7.51l-7.13,286.13h0s-.82,33.08-.82,33.08c-.05,1.89,1.05,3.27,2.89,3.61l176.2,33.06c3.95,.74,9.01-3.43,9.11-7.51l7.13-286.13s0,0,0,0l.82-33.08Z"/>
          </g>
          <path class="cls-26" d="M499.84,251.87l-105.9-19.68-6.53,288.12c-.33,10.98,103.22,36.81,103.22,36.81,10.61,2.12,19.48-5.07,19.81-16.05l8.01-265.48c.33-10.98-8-21.6-18.61-23.72Z"/>
          <path class="cls-14" d="M462.66,579.16l-134.57-27.12c-10.63-2.12-19.08-12.75-18.86-23.75l5.06-265.82c.33-10.98,9.2-18.17,19.81-16.05l137.77,27.49c10.61,2.12,18.94,12.74,18.61,23.72l-8.01,265.48c-.33,10.98-9.2,18.17-19.81,16.05Z"/>
          <g>
            <path class="cls-16" d="M349.04,423.02h0c-12.63-2.52-22.63-15.27-22.24-28.34h0c.39-13.07,11.05-21.7,23.67-19.18h0c12.63,2.52,22.63,15.27,22.24,28.34h0c-.39,13.07-11.05,21.7-23.67,19.18Z"/>
            <polyline class="cls-7" points="344.45 402.19 348.15 409.63 360.38 392.66"/>
            <line class="cls-3" x1="385.35" y1="397.64" x2="449.06" y2="410.36"/>
            <line class="cls-3" x1="384.69" y1="419.51" x2="430.79" y2="428.71"/>
          </g>
          <g>
            <path class="cls-13" d="M351.11,354.57h0c-12.63-2.52-22.63-15.27-22.24-28.34h0c.39-13.07,11.05-21.7,23.67-19.18h0c12.63,2.52,22.63,15.27,22.24,28.34h0c-.39,13.07-11.05,21.7-23.67,19.18Z"/>
            <polyline class="cls-7" points="346.59 333.88 350.22 341.18 362.45 324.21"/>
            <line class="cls-3" x1="387.41" y1="329.19" x2="451.13" y2="341.91"/>
            <line class="cls-3" x1="386.75" y1="351.06" x2="450.47" y2="363.78"/>
          </g>
          <g>
            <path class="cls-16" d="M346.85,495.66h0c-12.63-2.52-22.63-15.27-22.24-28.34h0c.39-13.07,11.05-21.7,23.67-19.18h0c12.63,2.52,22.63,15.27,22.24,28.34h0c-.39,13.07-11.05,21.7-23.67,19.18Z"/>
            <polyline class="cls-7" points="342.07 473.4 345.99 481.29 358.22 464.32"/>
            <line class="cls-3" x1="383.22" y1="468.02" x2="446.94" y2="480.73"/>
            <line class="cls-3" x1="382.56" y1="489.88" x2="419.63" y2="497.28"/>
          </g>
          <g>
            <polygon class="cls-31" points="372.92 515.31 390.41 505.33 551.54 533.25 531.64 545.01 372.92 515.31"/>
            <path class="cls-15" d="M527.93,696.05l-188.28-33.62c-7.71-1.38-9.73-5.66-4.51-9.58l33.34-25.03c5.21-3.91,15.69-5.97,23.39-4.6l188.28,33.62c7.71,1.38,9.73,5.66,4.51,9.58l-33.34,25.03c-5.21,3.91-15.69,5.97-23.39,4.6Z"/>
            <polygon class="cls-10" points="548.46 669.12 528.5 683.63 531.64 545.01 551.54 533.25 548.46 669.12"/>
            <polygon class="cls-14" points="528.5 683.63 369.77 653.94 372.92 515.31 531.64 545.01 528.5 683.63"/>
            <polygon class="cls-29" points="530.98 574.09 372.26 544.39 372.92 515.31 531.64 545.01 530.98 574.09"/>
            <line class="cls-8" x1="539" y1="588.11" x2="537.03" y2="674.95"/>
            <line class="cls-8" x1="545.68" y1="582.03" x2="544.44" y2="636.78"/>
            <polygon class="cls-22" points="402.96 586.12 385.14 582.79 385.52 566.15 403.34 569.48 402.96 586.12"/>
            <polygon class="cls-22" points="402.41 610.64 384.59 607.31 384.97 590.67 402.79 594 402.41 610.64"/>
            <polygon class="cls-22" points="401.82 636.75 383.99 633.42 384.37 616.78 402.19 620.12 401.82 636.75"/>
            <polygon class="cls-22" points="430.26 591.23 412.44 587.9 412.82 571.26 430.64 574.59 430.26 591.23"/>
            <polygon class="cls-22" points="429.7 615.75 411.88 612.41 412.26 595.77 430.08 599.11 429.7 615.75"/>
            <polygon class="cls-22" points="429.11 641.86 411.29 638.53 411.67 621.89 429.49 625.22 429.11 641.86"/>
            <polygon class="cls-22" points="457.55 596.34 439.73 593 440.11 576.36 457.93 579.7 457.55 596.34"/>
            <polygon class="cls-22" points="457 620.85 439.18 617.52 439.55 600.88 457.37 604.21 457 620.85"/>
            <polygon class="cls-22" points="456.4 646.97 438.58 643.63 438.96 626.99 456.78 630.33 456.4 646.97"/>
            <polygon class="cls-13" points="484.85 601.44 467.03 598.11 467.4 581.47 485.22 584.8 484.85 601.44"/>
            <polygon class="cls-22" points="484.29 625.96 466.47 622.62 466.85 605.99 484.67 609.32 484.29 625.96"/>
            <polygon class="cls-22" points="483.7 652.07 465.88 648.74 466.25 632.1 484.08 635.43 483.7 652.07"/>
            <polygon class="cls-22" points="512.14 606.55 494.32 603.21 494.7 586.58 512.52 589.91 512.14 606.55"/>
            <polygon class="cls-22" points="511.58 631.06 493.76 627.73 494.14 611.09 511.96 614.43 511.58 631.06"/>
            <polygon class="cls-22" points="510.99 657.18 493.17 653.85 493.55 637.21 511.37 640.54 510.99 657.18"/>
            <polygon class="cls-17" points="530.98 574.09 550.9 561.4 551.54 533.25 531.64 545.01 530.98 574.09"/>
          </g>
          <line class="cls-8" x1="371.89" y1="560.86" x2="372.92" y2="517.38"/>
          <g>
            <path class="cls-9" d="M199.56,302.03s-.47-2.26-4.36,.05-6.22,11.08-8.16,12.55c-1.94,1.47-4.34,7.83-2.8,12.22,1.48,4.23-.97,4.47-1.91,7.87-.78,2.82-1.1,10.04,3.55,12.67,4.65,2.63,15.84-.34,15.84-.34,0,0,2.1-13.14,2.17-13.36,.07-.22-4.34-31.67-4.34-31.67Z"/>
            <path class="cls-9" d="M198.8,306.31s-.39-8.14,6.52-8.01c2.61,.05,1.45-2.48,5.28-1.54s6,4.3,7.84,4.82,7.04,1.48,6.31,5.92,3.6,4.29,4.57,7.29c.97,3.01-2.56,8.96,1.12,9.68,3.68,.73,1.62,3.25,2.98,6.4,1.36,3.15,4.88,3.92,.16,6.88-4.72,2.96-21.05,3.01-21.05,3.01l-12.57-24.47-1.16-9.98Z"/>
            <rect class="cls-18" x="189.62" y="459.2" width="41.31" height="47.17" transform="translate(420.54 965.56) rotate(180)"/>
            <path class="cls-15" d="M152.59,642.76c17.24-9.03,46.47-9.12,65.28-.2,3.21,1.52,5.9,3.21,8.08,5,12.12-3.68,28.44-2.92,39.58,2.36,13.22,6.27,14.11,16.49,1.99,22.84-11.64,6.1-31.05,6.38-44.27,.83-.8,.5-1.64,.99-2.54,1.47-17.24,9.03-46.47,9.12-65.28,.2-18.81-8.92-20.08-23.47-2.84-32.5Z"/>
            <path class="cls-30" d="M199.63,669.58l-12.9-17.39c-2.09-1.29-6.1-2.01-9.42-1.67-1.49,.15-2.34,1.07-2.54,2.54l-.55,2.71c-.78,4.56-1.45,6.03,1.3,7.74l16.35,10.14c3.3,2.96,13.24,2.3,7.76-4.07Z"/>
            <path class="cls-19" d="M186.06,653.81s7.34,10.34,6.26,10.96c-4.49,2.57-13.93-6.74-13.93-6.74,0,0,5.85-4.84,7.67-4.22Z"/>
            <path class="cls-19" d="M175.54,655.17c2.5,5.54,10.6,2.94,11.41-2.67,1.87-31.57,10.15-55.94,11.92-85.46,1.98-33.14-.41-33.86,2.55-84.65l-31.1,2.99c3.42,36.87,2.96,83.15,2.96,83.15-10.35,34.9-.96,42.76,2.27,86.64Z"/>
            <path class="cls-25" d="M170.02,450.8l-.6,49.06,1.14,66s-9.75,38.28,3.72,77.84c0,0,11.21,4.89,16.31,2.19,0,0,10.88-65.75,11.11-69.39,.22-3.65,10.37-116.73,10.37-116.73l-42.05-8.96Z"/>
            <path class="cls-30" d="M251.46,659.39l-13.55-16.89c-2.13-1.21-6.17-1.78-9.48-1.31-1.49,.21-2.3,1.16-2.44,2.64l-.45,2.73c-.61,4.59-1.22,6.08,1.59,7.69l16.72,9.51c3.41,2.83,13.32,1.8,7.6-4.37Z"/>
            <path class="cls-19" d="M237.3,644.15s7.73,10.05,6.67,10.71c-4.38,2.74-14.18-6.21-14.18-6.21,0,0,5.66-5.06,7.51-4.51Z"/>
            <path class="cls-19" d="M227.12,646.05c2.71,5.44,10.43,2.39,11.02-3.25,.67-31.62,8.02-56.29,8.66-85.85,.72-33.19-1.7-33.82-.66-84.69l-30.97,4.16c4.82,36.72,6.11,82.98,6.11,82.98-9.02,35.27,.94,42.91,5.83,86.64Z"/>
            <path class="cls-25" d="M172.12,437.13s-8.28,13.45-1.53,33.85c4.37,13.19,36.18,20.69,36.18,20.69l8.08-1.54,3.63,66.73s-8.29,38.62,6.68,77.64c0,0,11.39,4.46,16.38,1.56,0,0,8.38-66.11,8.47-69.76s-.65-118.88-.65-118.88l-77.23-10.28Z"/>
            <path class="cls-24" d="M218.48,556.85l-3.63-66.73,9.01-1.48,.65,71.67s.49,58.42,6.41,75.92l-5.77-1.74s-16.02-32.74-6.68-77.64Z"/>
            <path class="cls-19" d="M322.28,324.91h0c1.74,1.91,1.91,4.6,.38,5.98l-6.98,3.7c-1.53,1.38-.59,.27-2.34-1.65h0c-1.74-1.91-3.42-.84-1.08-4.12l4.42-3.79c.58-.49,1.22-.91,1.93-1.19,1.32-.52,2.29-.43,3.66,1.08Z"/>
            <path class="cls-20" d="M231.35,376.36c-11.43-5.67-9.41-12.3-9.41-12.3l-3.72-26.05c8.16-1.74,43.33,12.63,58.84,16.73,4.24-.06,7.1-1.63,9.97-4.56l21.32-20.29c1.06-1.01,2.75-.94,3.72,.16l4.26,4.79c1.43,1.61,1.53,3.99,.24,5.71l-17.29,23.1c-7.59,10.29-18.07,16.19-24.53,18.83-2.92,1.19-6.07,1.67-9.21,1.43-7.38-.57-23.69-2.35-34.17-7.55Z"/>
            <path class="cls-14" d="M221.64,339.17c-.2,.08,4.24,1.28-6.85-1.96-7-2.04-14.05-1.65-14.81-1.15l-14.42,6.6c-26.16,8.9-26.53,16.49-19.55,30.41,0,0,6.02,13.24,6.64,23.46,.54,8.84-1.05,33.15-2.47,36.03-1.84,3.73,14.61,26.77,48.58,21.79,26.76-3.92,23.36-14.89,22.33-29.51-.65-9.2-.4-31.06-.5-38.36-.09-7.3-1.32-15.46-5.58-27.06-2.08-5.65-3.51-9.69-4.44-12.36-.92-2.64-2.83-4.81-5.32-6.06l-3.63-1.83Z"/>
            <path class="cls-19" d="M201.12,340.85c1.88,2.02,4.92,2.64,7.44,1.52,.87-.38,1.6-.93,1.76-1.68l2.65-11.84c.47-2.1-.88-4.31-3-4.9l-.63-.18c-2.12-.6-5.47-.18-5.94,1.92l-3.34,12.48c-.2,.89,.28,1.84,1.06,2.67Z"/>
            <path class="cls-20" d="M194.1,338.47s14,21.64,10.68,48.61c-3.32,26.97-10.83,132.24-10.83,132.24,0,0-30.55-6.19-36.81-20.62-5.36-12.35,2.52-109.55,4.9-137.3,.42-4.85,3.13-9.17,7.29-11.69,5.73-3.47,17.68-9.88,24.77-11.24Z"/>
            <path class="cls-20" d="M218.21,338.01c-1.43-.03,8.73,14.49,12.4,31.16,3.12,14.19,2.67,19.87,4.09,36.38,1.95,22.7-2.47,109.77-2.47,109.77,0,0,25.59-10.34,25.87-23.45,.28-13.11-4.87-120.78-4.87-120.78l-9.14-25.47s-21.28-7.51-25.88-7.61Z"/>
            <path class="cls-19" d="M162.03,362.7c5.23-12.54,14.38,7.27,14.38,7.27l8,6.23c-1.09,8.81-8.92,23.13-18.45,37.3-1.42,4.28-1.12,8.84,.83,12.75l16.34,32.67-6.62,4.28-25.35-27.76c-10.15-10.09-3.96-29.01-3.21-32.27,0,0,7.87-25.55,14.09-40.46Z"/>
            <path class="cls-19" d="M182.01,471.28h0c-2.77,.73-5.5-.48-6.07-2.69l-.05-8.76c-.57-2.22,.04-.72,2.82-1.45h0c2.77-.73,2.58-2.93,4.6,1.06l1.46,6.3c.19,.82,.27,1.67,.18,2.51-.17,1.56-.76,2.47-2.94,3.05Z"/>
            <path class="cls-20" d="M183.49,454.76l-12.53,6.18s-29.93-27-31.05-39.34c-1.12-12.34,23-64.6,23-64.6l15.73,1.91,11.83,17.71-11.26,28.68,4.28,49.46Z"/>
            <path class="cls-6" d="M181.59,455.34l1.5-.83c.68-.38,.9-1.25,.49-1.9l-18.69-29.5,12.17-39.52"/>
            <path class="cls-6" d="M253.95,369.28c.78,.8-.73,1.38-.16,13.6"/>
            <path class="cls-19" d="M215.22,337.34s3.88,10.88-3.37,13.09c-7.25,2.21-16.53-12.22-16.53-12.22l5.48-2.58,9.99,.04,4.43,1.67Z"/>
            <path class="cls-11" d="M211.5,335.18s-5.18-.51-8.25-5.88c0,0,2.93,7.87,7.61,9.09l.64-3.21Z"/>
            <path class="cls-19" d="M198.8,310.97c1.67-3.37,4.52-4.2,7.33-2.61,2.55-1.37,5.84-.02,8.48,3.94,3.67,5.51,5.19,14.63,2.75,19.55-1.06,2.15-2.96,2.76-4.78,2.97-1.7,.2-3.45,.01-5.13-.45-6.03-1.68-6.07-.8-8.52-4.47-3.67-5.51-2.57-14-.14-18.92Z"/>
            <path class="cls-14" d="M214.12,330.79c1.3-.46,1.62-2.44,1.63-4.5l-4.71,1.66c1.13,3.48,3.07,2.84,3.07,2.84Z"/>
            <path class="cls-9" d="M218,317.58c-1.58-.95-5.98-.48-6.99-5.05-1.01-4.57-.97,2.19-4.98,2.98s-1.43,1.87-2.57,4.1-2.86,5.99-6.39,5.47-4.62-10.4-4.28-10.77c.34-.37,8.02-10.69,8.02-10.69l12.06,.56,4.58,7.73,.55,5.67Z"/>
            <path class="cls-1" d="M190.17,319.61s.52,2.32,3.12,2.79"/>
            <path class="cls-1" d="M217.35,317.3s3.57,1.8,5.88,.51"/>
            <path class="cls-19" d="M195.35,326.91c1.1,1.91,3.3,2.7,4.93,1.76,1.62-.93,2.05-3.24,.95-5.14-1.1-1.91-3.3-2.7-4.93-1.76-1.62,.93-2.05,3.24-.95,5.14Z"/>
            <line class="cls-4" x1="199.91" y1="308.92" x2="203.95" y2="315.09"/>
            <path class="cls-9" d="M235.44,336.28s-.17,3.03-3.08,5.11,5.7,3.48,1.98,7.05c-3.72,3.58-10.93,6.32-11.05-1.12-.12-7.43-7.7-5.56-6.37-10.93,1.33-5.37,8.11-6.15,8.11-6.15l10.41,6.04Z"/>
          </g>
          <g>
            <path class="cls-23" d="M741.01,468.66c1.73-4.55,22.47-33.99-1.73-46.29-24.2-12.3-42.76,39.85-50.54,40.05-7.77,.2-5.21-28.38-21.04-22.09-15.82,6.29,11.4,52.04-6.25,64.21-17.65,12.16-13.55-14-25.72-8.37-12.17,5.64,10.41,71.61,35.5,71.92,25.09,.31,69.08-16.8,66.64-31.29-2.44-14.5-20.95-6.57-18.05-15.52,2.89-8.95,49.01-19.94,48.3-39.02-.71-19.08-27.1-13.61-27.1-13.61Z"/>
            <path class="cls-5" d="M650.43,610.13s11.98-96.12,52.48-140.46"/>
          </g>
        </g>
      </g>
    </g>
  </g>
</svg>