<?xml version="1.0" encoding="UTF-8"?>
<svg xmlns="http://www.w3.org/2000/svg" viewBox="0 0 754.83 714.84">
  <defs>
    <style>
      .cls-1 {
        fill: #6774bf;
      }

      .cls-2 {
        fill: #ed5353;
      }

      .cls-3, .cls-4 {
        fill: #fff;
      }

      .cls-5 {
        fill: #e4e6f2;
      }

      .cls-6, .cls-7 {
        fill: #7d513b;
      }

      .cls-8 {
        fill: #b8c9f5;
      }

      .cls-9 {
        fill: #ba422d;
      }

      .cls-10 {
        fill: #c2d0f5;
      }

      .cls-11 {
        fill: #bfcef5;
      }

      .cls-12 {
        fill: #dadff5;
      }

      .cls-13 {
        fill: #adbbde;
      }

      .cls-14 {
        fill: #afbbeb;
      }

      .cls-15 {
        fill: #c5cfed;
      }

      .cls-16, .cls-17 {
        fill: #c95836;
      }

      .cls-18 {
        fill: #d5def5;
      }

      .cls-19 {
        fill: #dee7ff;
      }

      .cls-20 {
        fill: #1e2f59;
      }

      .cls-21 {
        fill: #24386b;
      }

      .cls-22 {
        fill: #36459e;
      }

      .cls-23 {
        fill: #372d4f;
      }

      .cls-24 {
        fill: #3f50b8;
      }

      .cls-25 {
        fill: #89a1de;
      }

      .cls-26 {
        fill: #31497d;
      }

      .cls-27 {
        fill: #5776d4;
      }

      .cls-28 {
        fill: #7b90c7;
      }

      .cls-29 {
        stroke: #263082;
        stroke-width: 3.15px;
      }

      .cls-29, .cls-30, .cls-31, .cls-32, .cls-33, .cls-34 {
        fill: none;
        stroke-linecap: round;
      }

      .cls-29, .cls-30, .cls-32, .cls-33, .cls-34 {
        stroke-linejoin: round;
      }

      .cls-35 {
        fill: #36518a;
        opacity: .18;
      }

      .cls-35, .cls-36 {
        mix-blend-mode: multiply;
      }

      .cls-36 {
        fill: #d3d7f2;
        opacity: .66;
      }

      .cls-30 {
        stroke: #fff;
        stroke-width: 1.92px;
      }

      .cls-31 {
        stroke: #2d4e73;
        stroke-miterlimit: 10;
        stroke-width: 1.91px;
      }

      .cls-17, .cls-7, .cls-4, .cls-37, .cls-32 {
        fill-rule: evenodd;
      }

      .cls-37 {
        fill: #e3e8f9;
      }

      .cls-38 {
        isolation: isolate;
      }

      .cls-32 {
        stroke: #3d1e18;
        stroke-width: .65px;
      }

      .cls-33 {
        stroke: #ab3d29;
        stroke-width: 1.64px;
      }

      .cls-34 {
        stroke: #757c8f;
        stroke-width: 1.61px;
      }
    </style>
  </defs>
  <g class="cls-38">
    <g id="Layer_2" data-name="Layer 2">
      <g id="image">
        <g>
          <ellipse class="cls-5" cx="119.82" cy="688.56" rx="26.26" ry="59.02" transform="translate(-571.39 792.02) rotate(-88.64)"/>
          <path class="cls-37" d="M216.54,529.1c-68.66,32.24-149.27-68.34-180.84-134.51C-59.93,194.14,88.05-68.3,431.01,16.3c132.55,32.7,261.63,156.18,312.55,280.7,66.34,162.22-175.89,280.8-320.08,232.41-126.08-42.31-127.23-37.74-206.94-.3Z"/>
          <circle class="cls-31" cx="699.97" cy="380.89" r="7.97"/>
          <circle class="cls-31" cx="332.75" cy="125.51" r="7.97"/>
          <circle class="cls-31" cx="118.9" cy="299.58" r="7.97"/>
          <g>
            <path class="cls-5" d="M426.62,712.08l75.57-23.63,154.31-130.22c6.68-5.53,4.56-15.96-3.67-18.08l-81.42-20.97-144.78,192.91Z"/>
            <path class="cls-28" d="M640.12,272.69c-.02-1.06-.27-2.1-.69-3.07,0,0,0-.01,0-.02-1.15-2.63-3.45-4.68-6.12-5.78-.57-.23-1.16-.43-1.77-.57-.21-.05-.43-.1-.65-.14-.03,0-9.64-1.71-9.67-1.71l-10.42,8.71c1.56,.3,10.95,1.21,12.28,2.04,3.98,1.64,7.26,5.54,6.76,10.04l-1.75,29.42c-.61-.11-7.05,9.28-6.85,9.38,.03,.01-6.34,219.16-6.34,219.16-.06,1-3.7,8.3-2.76,7.53l9.7-10.49c2.05-2.22,3.26-4.83,3.41-7.37l14.71-254.04c.07-1.35,.17-2.47,.16-3.06,0-.02,0-.03,0-.05Z"/>
            <path class="cls-25" d="M627.14,262.4L231.27,192.35h0s-.02,0-.03,0l-.59-.1h0c-1.42-.26-2.24-.37-3.58-.27h0c-.47,.04-.93,.11-1.39,.21-1.26,.29-2.48,.85-3.49,1.66l-6.29,5.12s2.72,1.1,5.99,1.87h0l396.49,70.16,8.77-8.59ZM227.67,193.94h0s0,0,0,0h0Z"/>
            <path class="cls-26" d="M623.21,267.63L223.8,196.96c-5.42-.96-10.04,2.06-10.32,6.74l-12.65,212.45c-.01,.23,0,.47,0,.7l-3.01,48.24c-.28,4.68,4.51,9.1,9.93,10.06l399.41,70.68c5.42,.96,10.04-2.06,10.32-6.74l13.65-237.07c.02-.28,.02-.56,0-.84l1.39-23.33c.28-4.68-3.89-9.25-9.31-10.21Z"/>
            <path class="cls-28" d="M612.96,547.84l-13.91,11.02-3.79-5.32-392.99-76.1c-4.73-.92-13.71,1.9-18.71,5.91L27.79,607.77l-.2-2.18-23.82,17.07-3.59-.2,1.35,9.45c.57,1.98,2.27-.5,3.88-.19l408.35,82.76c4.73,.92,12.72-1.36,17.72-5.37l175.16-140.38c2.73-2.19,4.75-5.9,4.6-7.59l1.71-13.3Z"/>
            <path class="cls-25" d="M202.26,477.44c-4.73-.92-13.71,1.9-18.71,5.91L27.79,607.77l-.2-2.18-23.82,17.07-3.77-3.15,.67,11.62c.03,1.92,1.61,2.58,3.21,2.89l409.87,80.48c1.95,.38,4.44,.21,7.06-.39l-10.97-96.56c2.73-2.19-207.59-140.1-207.59-140.1Z"/>
            <path class="cls-12" d="M412.37,701.8L3.42,622.6c-4.73-.92-4.52-4.95,.48-8.96l182.55-143.74c5-4.01,13.65-5.79,18.39-4.88l404.94,78.41c4.73,.92,4.52,4.95-.48,8.96l-179.22,143.77c-5,4.01-12.96,6.54-17.69,5.62Z"/>
            <g>
              <path class="cls-8" d="M229.9,502.43c-.57,.43-1.75,.65-2.62,.49l-24.32-4.57c-.88-.16-1.13-.65-.56-1.09l15.77-12.04c.57-.44,1.75-.65,2.62-.49l24.32,4.57c.88,.16,1.13,.65,.56,1.09l-15.77,12.04Z"/>
              <path class="cls-8" d="M258.59,528.48c-.58,.44-1.74,.66-2.63,.49l-24.32-4.57c-.88-.16-1.12-.65-.54-1.09l15.77-12.05c.56-.43,1.73-.65,2.61-.49l24.32,4.57c.89,.17,1.13,.65,.57,1.08l-15.77,12.05Z"/>
              <path class="cls-8" d="M244.8,546.56c-.57,.44-1.74,.65-2.62,.49l-24.32-4.57c-.86-.16-1.13-.65-.56-1.08l15.78-12.05c.56-.43,1.75-.65,2.61-.48l24.32,4.57c.87,.16,1.12,.65,.57,1.08l-15.78,12.05Z"/>
              <path class="cls-8" d="M206.68,560.07c-.56,.43-1.74,.65-2.61,.49l-24.32-4.57c-.87-.16-1.12-.65-.55-1.08l15.77-12.04c.57-.43,1.75-.66,2.62-.49l24.32,4.57c.87,.16,1.11,.66,.55,1.09l-15.77,12.04Z"/>
              <path class="cls-8" d="M140.28,570.87c-.57,.43-1.74,.65-2.62,.49l-24.32-4.57c-.88-.16-1.13-.65-.56-1.09l18.52-14.14c.56-.42,1.74-.65,2.62-.49l24.32,4.57c.88,.16,1.12,.66,.56,1.08l-18.52,14.14Z"/>
              <path class="cls-8" d="M182.22,578.74c-.57,.43-1.96,.61-3.12,.39l-31.86-5.99c-1.14-.21-1.62-.74-1.05-1.18l18.52-14.14c.56-.42,1.97-.61,3.11-.4l31.86,5.99c1.16,.22,1.61,.75,1.06,1.18l-18.52,14.14Z"/>
              <path class="cls-8" d="M391.56,618.21c-.47,.36-1.57,.52-2.45,.36l-24.3-4.57c-.89-.17-1.22-.6-.75-.96l6.85-5.23c.47-.36,1.58-.52,2.47-.35l24.3,4.57c.88,.16,1.2,.6,.73,.95l-6.85,5.23Z"/>
              <path class="cls-8" d="M424.06,624.71c-.47,.36-1.57,.52-2.45,.36l-24.3-4.57c-.89-.17-1.22-.6-.75-.96l6.85-5.23c.47-.36,1.58-.52,2.47-.35l24.3,4.57c.88,.16,1.2,.6,.73,.95l-6.85,5.23Z"/>
              <path class="cls-8" d="M458.5,630.82c-.46,.35-1.54,.5-2.42,.33l-24.31-4.57c-.87-.16-1.23-.58-.77-.93l6.6-5.04c.45-.34,1.55-.49,2.43-.33l24.31,4.57c.88,.16,1.22,.59,.77,.93l-6.59,5.04Z"/>
              <path class="cls-8" d="M437.05,615c-.46,.35-1.54,.5-2.42,.33l-24.31-4.57c-.87-.16-1.23-.58-.77-.93l6.59-5.04c.45-.34,1.55-.49,2.43-.33l24.31,4.57c.88,.16,1.22,.59,.77,.93l-6.59,5.04Z"/>
              <path class="cls-8" d="M349.52,610.16c-.57,.43-1.75,.65-2.63,.49l-158.27-29.73c-.86-.16-1.13-.65-.56-1.09l18.52-14.14c.56-.42,1.76-.65,2.62-.49l158.27,29.73c.88,.17,1.13,.66,.57,1.09l-18.52,14.14Z"/>
              <path class="cls-8" d="M177.81,575.07s-.15,.03-.25,.01l-18.59-3.49c-.1-.02-.16-.06-.12-.08l1.15-.88s.15-.03,.25-.01l18.59,3.49c.1,.02,.16,.06,.12,.08l-1.15,.88Z"/>
              <path class="cls-8" d="M130.1,564.45s-.1,.04-.14,.03l-7.89-1.48s-.05-.04-.02-.06l1.15-.88s.1-.04,.14-.03l7.89,1.48s.05,.04,.02,.06l-1.15,.88Z"/>
              <path class="cls-8" d="M240.02,566.32c-.56,.43-1.74,.65-2.62,.49l-24.32-4.57c-.86-.16-1.13-.66-.56-1.09l15.77-12.04c.57-.43,1.76-.65,2.63-.49l24.32,4.57c.88,.17,1.12,.66,.56,1.09l-15.77,12.04Z"/>
              <path class="cls-8" d="M273.51,572.61c-.56,.43-1.75,.65-2.61,.49l-24.32-4.57c-.87-.16-1.13-.66-.57-1.09l15.77-12.04c.57-.43,1.76-.65,2.63-.49l24.32,4.57c.86,.16,1.11,.66,.55,1.09l-15.77,12.04Z"/>
              <path class="cls-8" d="M306.99,578.9c-.56,.43-1.74,.65-2.61,.49l-24.32-4.57c-.87-.16-1.12-.65-.55-1.08l15.77-12.04c.57-.43,1.75-.66,2.62-.49l24.32,4.57c.87,.16,1.11,.65,.55,1.09l-15.77,12.04Z"/>
              <path class="cls-8" d="M340.49,585.19c-.56,.43-1.74,.65-2.61,.49l-24.32-4.57c-.88-.17-1.13-.66-.56-1.09l15.77-12.04c.57-.43,1.75-.66,2.63-.49l24.32,4.57c.87,.16,1.12,.66,.55,1.09l-15.77,12.04Z"/>
              <path class="cls-8" d="M373.98,591.48c-.56,.43-1.75,.65-2.63,.49l-24.31-4.57c-.87-.16-1.12-.65-.55-1.08l15.77-12.04c.57-.43,1.75-.66,2.62-.49l24.31,4.57c.88,.17,1.13,.66,.57,1.09l-15.77,12.04Z"/>
              <path class="cls-8" d="M407.47,597.76c-.56,.43-1.75,.65-2.62,.49l-24.32-4.57c-.88-.16-1.13-.66-.56-1.09l15.77-12.04c.57-.43,1.75-.66,2.63-.49l24.32,4.57c.87,.16,1.12,.66,.56,1.09l-15.77,12.04Z"/>
              <path class="cls-8" d="M482.9,611.93c-.56,.43-1.74,.65-2.62,.49l-66.26-12.45c-.88-.16-1.12-.65-.56-1.08l15.77-12.04c.57-.43,1.75-.66,2.62-.49l66.26,12.45c.88,.16,1.12,.66,.55,1.09l-15.77,12.04Z"/>
              <path class="cls-8" d="M278.12,552.81c-.57,.44-1.73,.65-2.61,.49l-24.32-4.57c-.87-.16-1.13-.65-.56-1.08l15.78-12.05c.56-.43,1.73-.65,2.61-.48l24.32,4.57c.88,.17,1.11,.65,.55,1.08l-15.78,12.05Z"/>
              <path class="cls-8" d="M311.62,559.1c-.57,.44-1.74,.65-2.61,.49l-24.33-4.57c-.86-.16-1.12-.64-.55-1.08l15.78-12.05c.56-.43,1.74-.65,2.6-.49l24.33,4.57c.87,.16,1.12,.65,.56,1.08l-15.78,12.05Z"/>
              <path class="cls-8" d="M345.11,565.39c-.57,.44-1.75,.65-2.62,.49l-24.32-4.57c-.86-.16-1.14-.65-.57-1.08l15.78-12.05c.56-.43,1.76-.64,2.62-.48l24.32,4.57c.87,.16,1.12,.65,.57,1.08l-15.78,12.05Z"/>
              <path class="cls-8" d="M378.59,571.68c-.57,.44-1.74,.65-2.61,.49l-24.32-4.57c-.88-.16-1.13-.65-.56-1.08l15.78-12.05c.56-.43,1.74-.65,2.61-.48l24.32,4.57c.87,.16,1.12,.65,.56,1.08l-15.78,12.05Z"/>
              <path class="cls-8" d="M412.1,577.96c-.57,.44-1.74,.65-2.61,.49l-24.33-4.57c-.88-.16-1.13-.65-.55-1.08l15.78-12.05c.56-.43,1.73-.65,2.61-.48l24.33,4.57c.87,.16,1.12,.65,.56,1.08l-15.78,12.05Z"/>
              <path class="cls-8" d="M445.57,584.25c-.57,.44-1.74,.65-2.61,.49l-24.31-4.57c-.88-.17-1.14-.65-.57-1.08l15.78-12.05c.56-.43,1.74-.65,2.62-.48l24.31,4.57c.87,.16,1.12,.65,.56,1.08l-15.78,12.05Z"/>
              <path class="cls-8" d="M479.06,590.54c-.57,.44-1.74,.65-2.61,.49l-24.33-4.57c-.87-.16-1.12-.64-.55-1.08l15.78-12.05c.56-.43,1.73-.65,2.6-.49l24.33,4.57c.87,.16,1.12,.65,.56,1.08l-15.78,12.05Z"/>
              <path class="cls-8" d="M291.92,534.73c-.58,.44-1.75,.66-2.63,.49l-24.32-4.57c-.86-.16-1.11-.65-.54-1.09l15.77-12.05c.56-.43,1.74-.65,2.6-.49l24.32,4.57c.88,.16,1.12,.65,.56,1.08l-15.77,12.05Z"/>
              <path class="cls-8" d="M325.4,541.02c-.58,.44-1.75,.66-2.62,.5l-24.32-4.57c-.87-.16-1.13-.65-.55-1.09l15.77-12.05c.56-.43,1.74-.65,2.61-.48l24.32,4.57c.86,.16,1.12,.65,.56,1.08l-15.77,12.05Z"/>
              <path class="cls-8" d="M358.9,547.31c-.58,.44-1.75,.66-2.63,.49l-24.32-4.57c-.87-.16-1.12-.65-.54-1.09l15.77-12.05c.56-.43,1.74-.65,2.6-.49l24.32,4.57c.88,.17,1.13,.65,.57,1.08l-15.77,12.05Z"/>
              <path class="cls-8" d="M392.38,553.6c-.58,.44-1.74,.66-2.62,.5l-24.32-4.57c-.88-.16-1.13-.65-.55-1.09l15.77-12.05c.56-.43,1.74-.65,2.61-.48l24.32,4.57c.88,.16,1.11,.65,.56,1.08l-15.77,12.05Z"/>
              <path class="cls-8" d="M425.88,559.88c-.58,.44-1.75,.66-2.61,.5l-24.32-4.57c-.88-.17-1.12-.65-.55-1.09l15.77-12.05c.56-.43,1.73-.65,2.61-.48l24.32,4.57c.86,.16,1.11,.65,.55,1.08l-15.77,12.05Z"/>
              <path class="cls-8" d="M459.37,566.18c-.58,.44-1.75,.66-2.63,.49l-24.32-4.57c-.86-.16-1.12-.65-.54-1.09l15.77-12.05c.56-.43,1.75-.65,2.61-.49l24.32,4.57c.88,.17,1.13,.66,.57,1.08l-15.77,12.05Z"/>
              <path class="cls-8" d="M492.85,572.47c-.58,.44-1.75,.66-2.62,.5l-24.32-4.57c-.88-.16-1.12-.65-.55-1.09l15.77-12.05c.56-.43,1.73-.65,2.61-.48l24.32,4.57c.87,.16,1.12,.65,.56,1.08l-15.77,12.05Z"/>
              <path class="cls-8" d="M225.1,522.19c-.58,.44-1.75,.66-2.63,.49l-41.24-7.75c-.88-.16-1.13-.65-.55-1.09l15.77-12.05c.56-.43,1.74-.65,2.62-.48l41.24,7.75c.88,.16,1.13,.65,.57,1.08l-15.77,12.05Z"/>
              <path class="cls-8" d="M548.06,562.17c-.57,.43-1.75,.66-2.62,.49l-41.24-7.75c-.86-.16-1.12-.65-.55-1.09l15.77-12.04c.57-.44,1.76-.65,2.62-.49l41.24,7.75c.88,.16,1.13,.65,.56,1.09l-15.77,12.04Z"/>
              <path class="cls-8" d="M211.3,540.27c-.57,.44-1.73,.65-2.62,.49l-49.16-9.24c-.88-.16-1.14-.65-.56-1.08l15.78-12.05c.56-.43,1.74-.65,2.61-.48l49.16,9.24c.89,.17,1.12,.65,.57,1.08l-15.78,12.05Z"/>
              <path class="cls-8" d="M173.2,553.78c-.56,.43-1.74,.65-2.62,.49l-32.78-6.16c-.88-.16-1.12-.66-.56-1.09l15.77-12.04c.57-.43,1.75-.66,2.63-.49l32.78,6.16c.88,.16,1.12,.66,.56,1.09l-15.77,12.04Z"/>
              <path class="cls-8" d="M263.38,508.72c-.57,.43-1.74,.66-2.63,.49l-24.3-4.57c-.88-.16-1.13-.65-.56-1.09l15.77-12.04c.57-.44,1.75-.65,2.62-.49l24.3,4.57c.89,.17,1.13,.65,.56,1.09l-15.77,12.04Z"/>
              <path class="cls-8" d="M296.72,514.97c-.57,.43-1.75,.65-2.63,.49l-24.32-4.57c-.87-.16-1.13-.65-.56-1.09l15.77-12.04c.57-.44,1.75-.65,2.62-.49l24.32,4.57c.88,.16,1.13,.65,.56,1.09l-15.77,12.04Z"/>
              <path class="cls-8" d="M330.2,521.26c-.57,.43-1.73,.66-2.61,.49l-24.32-4.57c-.87-.16-1.12-.65-.55-1.09l15.77-12.04c.57-.44,1.75-.65,2.62-.49l24.32,4.57c.88,.17,1.12,.65,.55,1.09l-15.77,12.04Z"/>
              <path class="cls-8" d="M363.7,527.55c-.57,.43-1.75,.65-2.62,.49l-24.31-4.57c-.88-.17-1.13-.65-.56-1.09l15.77-12.04c.57-.44,1.74-.66,2.63-.49l24.31,4.57c.87,.16,1.13,.65,.56,1.09l-15.77,12.04Z"/>
              <path class="cls-8" d="M397.17,533.84c-.57,.43-1.73,.66-2.61,.49l-24.32-4.57c-.88-.17-1.13-.65-.56-1.09l15.77-12.04c.57-.44,1.74-.66,2.63-.49l24.32,4.57c.88,.17,1.12,.65,.55,1.09l-15.77,12.04Z"/>
              <path class="cls-8" d="M430.68,540.12c-.57,.43-1.75,.65-2.61,.49l-24.33-4.57c-.87-.16-1.11-.65-.55-1.09l15.77-12.04c.57-.44,1.74-.66,2.61-.49l24.33,4.57c.86,.16,1.12,.65,.55,1.09l-15.77,12.04Z"/>
              <path class="cls-8" d="M464.17,546.41c-.57,.43-1.75,.65-2.62,.49l-24.32-4.57c-.88-.17-1.13-.65-.56-1.09l15.77-12.04c.57-.44,1.75-.65,2.63-.49l24.32,4.57c.88,.16,1.13,.65,.56,1.09l-15.77,12.04Z"/>
              <path class="cls-8" d="M497.65,552.7c-.57,.43-1.74,.66-2.61,.49l-24.34-4.57c-.86-.16-1.11-.65-.54-1.08l15.77-12.04c.57-.44,1.74-.66,2.61-.49l24.34,4.57c.87,.16,1.11,.65,.54,1.08l-15.77,12.04Z"/>
              <path class="cls-8" d="M517.23,561.06c-.4-.08-.9-.08-1.42,.02-.51,.09-.92,.26-1.18,.47l-15.77,12.05c-.26,.2-.38,.43-.28,.65,.12,.21,.41,.37,.81,.44l6.35,1.19-20.68,15.8c-.27,.2-.37,.44-.26,.64,.11,.21,.41,.36,.82,.44l16.38,3.08c.41,.08,.91,.08,1.43-.02,.51-.09,.93-.26,1.2-.47l37.5-28.63c.26-.2,.37-.43,.25-.64-.11-.22-.41-.36-.83-.44l-24.32-4.57Z"/>
              <path class="cls-8" d="M168.75,548.63s-.15,.03-.25,.01l-18.59-3.49c-.1-.02-.16-.06-.12-.08l1.15-.88s.15-.03,.25-.01l18.59,3.49c.1,.02,.16,.06,.12,.08l-1.15,.88Z"/>
            </g>
            <path class="cls-8" d="M268.23,650.31l-89.14-16.21c-1.03-.19-1.03-.98,0-1.76l37.06-28.08c1.03-.78,2.72-1.27,3.76-1.08l89.14,16.21c1.03,.19,1.03,.98,0,1.76l-37.06,28.08c-1.03,.78-2.72,1.27-3.76,1.08Z"/>
            <path class="cls-14" d="M612.23,286.74L233.76,218.93c-5.14-.92-9.53,1.53-9.82,5.47l-1.85,25.09c-.08,.3-.14,.62-.16,.94l-11.35,179.81c-.29,3.94,5.76,11.1,10.9,12.02l374.59,71.29c5.14,.92,9.54-1.53,9.82-5.47l1.74-32.79c.08-.31,.14-.62,.16-.94l13.22-178.81c.29-3.94-3.63-7.88-8.77-8.8Z"/>
            <path class="cls-23" d="M472.19,671.29c-.41,.02-.81-.14-1.08-.47-.47-.56-.37-1.41,.22-1.89l16.37-13.28c.59-.48,1.45-.41,1.91,.16,.47,.56,.37,1.41-.22,1.89l-16.37,13.28c-.25,.2-.54,.3-.83,.32Z"/>
            <path class="cls-23" d="M451.74,688.18c-.41,.02-.81-.14-1.08-.47-.47-.56-.37-1.41,.22-1.89l16.37-13.28c.59-.48,1.45-.41,1.91,.16,.47,.56,.37,1.41-.22,1.89l-16.37,13.28c-.25,.2-.54,.3-.83,.32Z"/>
          </g>
          <g>
            <polygon class="cls-36" points="446.6 642.78 524.41 577.91 468.21 415.29 446.6 642.78"/>
            <polygon class="cls-24" points="524.41 577.91 302.84 532.89 225.42 350.61 503.95 365.08 524.41 577.91"/>
            <polygon class="cls-27" points="446.81 642.79 139.57 583.28 194.22 310.85 500.63 364.8 446.81 642.79"/>
            <polygon class="cls-19" points="475.23 375.27 212.65 327.2 209.79 341.66 209.76 341.66 166.59 551.01 430.04 603.39 432.9 588.92 432.93 588.93 475.23 375.27"/>
            <polygon class="cls-3" points="457.6 384.52 195.02 336.45 192.15 350.91 192.13 350.91 150.71 560.12 412.4 612.64 415.27 598.17 415.29 598.18 457.6 384.52"/>
            <path class="cls-27" d="M245.43,359.2c.34,4.32-2.78,8.45-6.98,9.22-4.19,.78-7.87-2.1-8.21-6.41-.34-4.32,2.78-8.45,6.98-9.22,4.19-.78,7.87,2.1,8.21,6.41Z"/>
            <path class="cls-27" d="M292.89,367.56c.34,4.32-2.78,8.45-6.98,9.22-4.19,.78-7.87-2.1-8.21-6.41-.34-4.32,2.78-8.45,6.98-9.22,4.19-.78,7.87,2.1,8.21,6.41Z"/>
            <path class="cls-27" d="M340.34,375.92c.34,4.32-2.78,8.45-6.98,9.22s-7.87-2.1-8.21-6.41,2.78-8.45,6.98-9.22c4.19-.78,7.87,2.1,8.21,6.41Z"/>
            <path class="cls-27" d="M387.8,384.28c.34,4.32-2.78,8.45-6.98,9.22-4.19,.78-7.87-2.1-8.21-6.41-.34-4.32,2.78-8.45,6.98-9.22s7.87,2.1,8.21,6.41Z"/>
            <path class="cls-27" d="M435.26,392.64c.34,4.32-2.78,8.45-6.98,9.22-4.19,.78-7.87-2.1-8.21-6.41-.34-4.32,2.78-8.45,6.98-9.22,4.19-.78,7.87,2.1,8.21,6.41Z"/>
            <path class="cls-29" d="M237.72,365.38c-8.74-5.55-12.79-19.54-9.25-35.57,4.49-20.33,19.47-36.23,33.48-35.52,11.92,.6,19.28,13.05,18.44,29.28"/>
            <path class="cls-29" d="M287.2,373.98c-8.74-5.55-12.79-19.54-9.25-35.57,4.49-20.33,19.47-36.23,33.48-35.52,11.92,.6,19.28,13.05,18.44,29.28"/>
            <path class="cls-29" d="M334.79,383.01c-8.74-5.55-12.79-19.54-9.25-35.57,4.49-20.33,19.47-36.23,33.48-35.52,11.92,.6,19.28,13.05,18.44,29.28"/>
            <path class="cls-29" d="M380.01,390.2c-8.74-5.55-12.79-19.54-9.25-35.57,4.49-20.33,19.47-36.23,33.48-35.52,11.92,.6,19.28,13.05,18.44,29.28"/>
            <path class="cls-29" d="M428.27,398.23c-8.74-5.55-12.79-19.54-9.25-35.57,4.49-20.33,19.47-36.23,33.48-35.52,11.92,.6,19.28,13.05,18.44,29.28"/>
            <g>
              <polygon class="cls-15" points="220.09 410.75 193.18 405.53 197.63 383.6 224.54 388.82 220.09 410.75"/>
              <polygon class="cls-15" points="255.03 417.52 228.12 412.3 232.57 390.37 259.48 395.59 255.03 417.52"/>
              <polygon class="cls-15" points="289.97 424.29 263.06 419.07 267.51 397.15 294.42 402.36 289.97 424.29"/>
              <polygon class="cls-15" points="324.91 431.06 298 425.85 302.45 403.92 329.36 409.13 324.91 431.06"/>
              <polygon class="cls-15" points="359.85 437.83 332.94 432.62 337.39 410.69 364.3 415.91 359.85 437.83"/>
              <polygon class="cls-15" points="394.79 444.61 367.88 439.39 372.33 417.46 399.24 422.68 394.79 444.61"/>
              <polygon class="cls-15" points="429.73 451.38 402.82 446.16 407.27 424.23 434.18 429.45 429.73 451.38"/>
            </g>
            <g>
              <polygon class="cls-18" points="212.27 453.68 185.36 448.46 189.81 426.53 216.72 431.75 212.27 453.68"/>
              <polygon class="cls-18" points="247.21 460.45 220.3 455.23 224.74 433.31 251.66 438.52 247.21 460.45"/>
              <polygon class="cls-18" points="282.15 467.22 255.24 462.01 259.68 440.08 286.6 445.29 282.15 467.22"/>
              <polygon class="cls-18" points="317.09 473.99 290.18 468.78 294.62 446.85 321.54 452.06 317.09 473.99"/>
              <polygon class="cls-18" points="352.03 480.77 325.11 475.55 329.56 453.62 356.48 458.84 352.03 480.77"/>
              <polygon class="cls-18" points="386.97 487.54 360.05 482.32 364.5 460.39 391.42 465.61 386.97 487.54"/>
              <polygon class="cls-18" points="421.91 494.31 394.99 489.09 399.44 467.16 426.36 472.38 421.91 494.31"/>
            </g>
            <polygon class="cls-18" points="205.48 495.63 178.57 490.41 183.02 468.49 209.93 473.7 205.48 495.63"/>
            <polygon class="cls-18" points="240.42 502.4 213.51 497.19 217.96 475.26 244.87 480.47 240.42 502.4"/>
            <polygon class="cls-18" points="275.36 509.17 248.45 503.96 252.9 482.03 279.81 487.24 275.36 509.17"/>
            <polygon class="cls-18" points="309.1 516.34 282.19 511.13 286.64 489.2 313.55 494.41 309.1 516.34"/>
            <polygon class="cls-18" points="342.87 522.7 315.96 517.48 320.4 495.56 347.32 500.77 342.87 522.7"/>
            <polygon class="cls-18" points="377.53 528.79 350.61 523.57 355.06 501.64 381.97 506.86 377.53 528.79"/>
            <polygon class="cls-18" points="412.33 535.96 385.42 530.74 389.86 508.81 416.78 514.03 412.33 535.96"/>
            <g>
              <polygon class="cls-18" points="196.62 539.54 169.71 534.33 174.15 512.4 201.07 517.61 196.62 539.54"/>
              <polygon class="cls-18" points="231.56 546.31 204.65 541.1 209.09 519.17 236.01 524.38 231.56 546.31"/>
              <polygon class="cls-18" points="266.5 553.08 239.59 547.87 244.03 525.94 270.95 531.16 266.5 553.08"/>
              <polygon class="cls-18" points="301.44 559.86 274.52 554.64 278.97 532.71 305.89 537.93 301.44 559.86"/>
              <polygon class="cls-18" points="336.38 566.63 309.46 561.41 313.91 539.48 340.83 544.7 336.38 566.63"/>
              <polygon class="cls-18" points="371.32 573.4 344.4 568.18 348.85 546.26 375.77 551.47 371.32 573.4"/>
              <polygon class="cls-18" points="406.26 580.17 379.34 574.96 383.79 553.03 410.71 558.24 406.26 580.17"/>
            </g>
            <g>
              <ellipse class="cls-35" cx="320.42" cy="497.24" rx="72.59" ry="78.12" transform="translate(-174.4 173.09) rotate(-23.97)"/>
              <g>
                <path class="cls-22" d="M321.14,415.11c-17.33-3.88-34.47-.73-48.88,7.6h0s-11.58,6.05-11.58,6.05l-11.47,15.03c-6.33,8.89-10.94,19.41-13.18,31.1-8.02,41.74,17.1,82.65,56.09,91.38,8.26,1.85,16.47,2.09,24.37,.95l.77,.26,18.95-6.28c2.06-.99,4.08-2.08,6.04-3.27l.34-.19h0c17.25-10.6,30.33-28.74,34.66-51.25,8.02-41.74-17.1-82.65-56.09-91.38Z"/>
                <ellipse class="cls-1" cx="292.36" cy="494.92" rx="72.08" ry="77.22" transform="translate(-11.46 6.95) rotate(-1.34)"/>
                <ellipse class="cls-3" cx="292.36" cy="494.92" rx="57.88" ry="62" transform="translate(-11.47 6.95) rotate(-1.34)"/>
                <path class="cls-5" d="M292.95,552.14c-31.31-7-51.48-39.85-45.04-73.37,4.11-21.4,18.08-37.88,35.79-45.19-23.29,3.69-43.02,22.5-48.04,48.65-6.44,33.52,13.73,66.37,45.04,73.37,11.32,2.53,22.55,1.33,32.57-2.81-6.57,1.05-13.43,.89-20.32-.65Z"/>
                <path class="cls-10" d="M290.96,496.8c-.63,2.52-3.03,4.02-5.35,3.35-2.32-.67-3.69-3.25-3.05-5.76,.63-2.52,3.03-4.02,5.35-3.35s3.69,3.25,3.05,5.76Z"/>
                <path class="cls-10" d="M286.02,497.12h0c-1.49-.17-2.5-1.57-2.24-3.1l6.71-39.38c.26-1.53,1.7-2.65,3.19-2.47h0c1.49,.17,2.5,1.57,2.24,3.1l-6.71,39.38c-.26,1.53-1.7,2.65-3.19,2.47Z"/>
                <path class="cls-10" d="M286.09,494.67h0c1.27-1.06,3.11-.98,4.08,.17l24.95,29.54c.97,1.15,.72,2.96-.55,4.02h0c-1.27,1.06-3.11,.98-4.08-.17l-24.95-29.54c-.97-1.15-.72-2.96,.55-4.02Z"/>
              </g>
            </g>
            <g>
              <ellipse class="cls-2" cx="239.9" cy="444.22" rx="30.22" ry="29.58" transform="translate(-216.46 660.13) rotate(-86.95)"/>
              <polyline class="cls-30" points="232.28 444.9 236.46 454.82 254.91 435.14"/>
            </g>
          </g>
          <g>
            <path class="cls-21" d="M154.36,694.76l-12.08-17.67c-2.35-1.6-5.31-2.64-8.91-2.53-1.61,.05-1.7-1.29-1.82,.33l-2.5,6.3c-2.11,4.09,.69,7.73,5.12,10.62l15.22,9.77c4.59,2.84,12.43,1.94,4.97-6.82Z"/>
            <path class="cls-16" d="M131.47,676.32c.29,4.85,11.47,5.72,11.18,.88l1.93-15.82-14.05-.81,.95,15.75Z"/>
            <path class="cls-16" d="M113.31,496.51c2.78,3.6,14.7,39.25,14.7,39.25l-10.87,12.21s-8.31-8.31-7.79-8.86c.52-.55-22.36-41.67-22.36-41.67l26.32-.94Z"/>
            <path class="cls-21" d="M17.37,546.39s-15.9,51.33,8.19,73.13c18.75,16.98,58.71-3.7,58.71-3.7l4.26-28.95-2.27-36.59-68.89-3.89Z"/>
            <path class="cls-11" d="M81.76,458.25c-1.71-.51-10.87-3.17-12.65-3.17-8.22,.02-11.42-.75-12.29-.22l-16.35,6.21c-18.8,4.84-30.74,17.22-23.59,33.27,0,0,16.55,27.92,16.73,39.47,.16,9.99-9,25.29-10.75,28.46-2.26,4.11,10.76,30.23,49.3,26.36,30.35-3.05,27.09-15.58,26.68-32.1-.26-10.4-6.21-38.2-5.94-46.43,.27-8.23,6.66-14.31,2.45-27.6-2.6-8.19,2.63-9.66,1.35-13.5-.78-2.34-6.15-7.84-8.51-8.55l-6.42-2.19Z"/>
            <path class="cls-13" d="M14,555.45c.99-6.62,3.39-32.4,3.23-42.38-.1-6.54,13.21,2.65,10.79-6.43,9.05,18.69,9.1,25.23,20.46,27.65-18.94,27.5-6.03,39.6-7.2,49.93-23.84-4.45-27.91-24.67-27.29-28.77Z"/>
            <path class="cls-16" d="M14.27,488.24s-3.95,58.02,10.66,73.57c14.61,15.54,60.37-22.27,60.37-22.27l-1.97-6.51-41.28,7.14-7.12-50.79-20.66-1.13Z"/>
            <path class="cls-11" d="M16.98,476.58s-7.28,20.82-10.61,36.01c0,0,10.62,13.22,34.53,11.2,23.79-2.01-1.32-41.69-1.32-41.69l-22.6-5.53Z"/>
            <path class="cls-16" d="M128.01,535.76l-17.41-8.48-8.43,6.5,5.7,12.83c.99,3.88,7.6,7.35,12.97,5.58,5.77-1.9,8.46-13.65,7.17-16.43Z"/>
            <path class="cls-16" d="M96.2,528.97h0c-.95,3.4,.36,6.71,2.91,7.34l10.17-.18c2.55,.63,.83-.07,1.78-3.48h0c.95-3.4,3.5-3.23-1.06-5.59l-7.26-1.61c-.94-.21-1.92-.29-2.9-.15-1.82,.25-2.9,.99-3.65,3.67Z"/>
            <path class="cls-11" d="M76.8,491.83s2.58,13.72,16.3,27.01c6.86,3.29,32.01-15.58,30.88-16.8-17.5-27.76-21.04-36.38-34.89-41.14l-12.29,30.93Z"/>
            <path class="cls-21" d="M76.07,568.12s59.1-29.15,79.68-3.33c10.89,13.67-8.3,107.78-8.3,107.78,0,0-10.19,7.84-19.83-3.03,0,0-10.09-56.72-2.63-67.1l-25.18,8.5-23.74-42.82Z"/>
            <path class="cls-20" d="M76.07,568.12s1.9,6.87,12.63,2.21c11.82-5.14,25.04-1.51,31.96,3.62,8.16,6.04,12.33,16.34,11.35,26.72-2.15,22.73-1.32,47.45,.26,72.67-1.47-.75-3.03-1.96-4.65-3.8,0,0-10.09-56.72-2.63-67.1l-25.18,8.5-23.74-42.82Z"/>
            <path class="cls-21" d="M125.63,702.51l-13.89-18.85c-2.35-1.6-5.31-2.64-8.91-2.53-1.61,.05-1.7-1.29-1.82,.33l-2.5,6.3c-2.11,4.09,.69,7.73,5.12,10.62l15.29,10.4c4.59,2.84,14.17,2.48,6.71-6.28Z"/>
            <path class="cls-16" d="M100.93,682.89c.29,4.85,11.47,5.72,11.18,.88l1.93-15.82-14.05-.81,.95,15.75Z"/>
            <path class="cls-21" d="M25.02,580.03s67.89-33.44,88.47-8.64c10.89,13.13,4.42,102.62,4.42,102.62,0,0-11.03,10.58-20.68,.15,0,0-20.77-50.94-13.31-60.91l-25.18,8.16-33.72-41.38Z"/>
            <line class="cls-33" x1="108.16" y1="525.81" x2="122.36" y2="540.32"/>
            <path class="cls-21" d="M90.54,544.49l8.44-1.44c2.87-.49,5.73-3.13,6.35-5.88l5.33-23.65c.62-2.74-1.23-4.58-4.1-4.1l-8.44,1.44c-2.87,.49-5.73,3.13-6.35,5.88l-5.33,23.65c-.62,2.74,1.23,4.59,4.1,4.1Z"/>
            <path class="cls-16" d="M94.19,533.99h0c.26,2.03-1.11,4.01-3.05,4.38l-6.75,1.31c-1.94,.38-3.74-.98-4.01-3.01h0c-.26-2.03,1.11-4.01,3.05-4.38l6.75-1.31c1.94-.38,3.74,.98,4.01,3.01Z"/>
            <line class="cls-34" x1="95.86" y1="507.81" x2="93.7" y2="490.64"/>
            <line class="cls-34" x1="42.28" y1="517.17" x2="43.74" y2="499.01"/>
            <path class="cls-3" d="M45.67,459.1s17.87,32.07,21.34,37.11c2.83,4.11,8.67,2.69,8.94-.9,.69-9.35,.29-47.51-.32-47.62-.61-.11-29.95,11.41-29.95,11.41Z"/>
            <path class="cls-16" d="M61.74,471.09l1.02,.14c3.45,.47,6.62-1.96,7.03-5.39l2.34-19.34c.42-3.43-2.07-6.62-5.52-7.09l-1.02-.14c-3.45-.47-6.62,1.96-7.03,5.39l-5,18.21c-.42,3.43,4.73,7.75,8.18,8.22Z"/>
            <g>
              <path class="cls-9" d="M71.45,457.05s-6.33-1.23-9.68-8.22c0,0,2.99,10.08,8.65,12.12l1.03-3.9Z"/>
              <path class="cls-17" d="M77.76,440.53c.04,.12,1.7,2,4.29,4.49,1.29,1.24-1.27,4.31-2.91,3.81s-4.01-5.61-4.01-5.61l2.62-2.7Z"/>
              <path class="cls-17" d="M57.72,439.46c-.62-2.85,1.16-5.67,3.98-6.3,3.01-.67,6.81-1.51,9.82-2.18,2.82-.63,5.18,1.31,6.23,4.03,1.24,3.21,2.23,10.22,2.34,15.4,.06,2.92-1.56,5.98-4.38,6.61-3.01,.67-12.66-.23-14.72-5.48-1.57-4-2.35-7.89-3.27-12.09h0Z"/>
              <path class="cls-7" d="M56.43,454.07c-2.24-.21-7.91-9.65-4.83-17.34,.67-1.66,1.43-3.1,2.31-4.05,5.5-5.98,7.03-6.12,15.99,.6,0,0,2.01,6.59,.28,10.53-1.12,2.55-2.69,5.03-5.14,7.51-2.03,2.06-4.92,3.05-7.8,2.81l-.82-.07Z"/>
              <path class="cls-17" d="M65.65,448.13c1.27,2.03,3.65,2.81,5.3,1.75,1.66-1.06,1.97-3.57,.7-5.59-1.27-2.03-3.65-2.81-5.3-1.75-1.66,1.06-1.97,3.57-.7,5.59Z"/>
              <path class="cls-4" d="M78.34,449.9h-2.24s-.1,3.15,1.83,2.46c.41-.15,.41-2.46,.41-2.46Z"/>
              <path class="cls-7" d="M77.02,433.62s-2.06-11.77-14.82-7.84c-12.75,3.93-15.08,15.34-10.83,20.46,0,0,5.57-4.65,9.59-7.29,4.66-3.07,16.06-5.33,16.06-5.33Z"/>
              <path class="cls-6" d="M59.5,449.56c-.71-4.03-1.89-8.29-2.99-11.03,6.67,.65,13.39-.63,19.36-3.68,1.4-.71,2.8-1.57,3.7-2.97,.9-1.41,1.16-3.5,.22-4.99-.83-1.33-2.4-1.86-3.78-1.69-1.38,.17-2.63,.9-3.84,1.62,2.23-.37,3.95-4.73,1.8-6.12-3.67-2.36-7.04,1.75-18.17,5.73-2.89,1.03-4.77,3.14-5.57,6.43-.44,1.83,.19,3.82,.82,5.65,.78,2.28,3.54,7.73,5.81,12.08,.85,1.63,2.97,.79,2.65-1.04Z"/>
              <path class="cls-32" d="M51.03,436.38s7.94,6.34,18.98,.55"/>
            </g>
          </g>
        </g>
      </g>
    </g>
  </g>
</svg>