<svg xmlns="http://www.w3.org/2000/svg" width="500" zoomAndPan="magnify" viewBox="0 0 375 112.499997" height="150"
     preserveAspectRatio="xMidYMid meet" version="1.0"><defs><g/><clipPath id="3883815e78"><path d="M 0.828125 0 L 374.167969 0 L 374.167969 112.003906 L 0.828125 112.003906 Z M 0.828125 0 " clip-rule="nonzero"/></clipPath><clipPath id="190b6e8b3e"><path d="M 210.898438 13.125 L 353.511719 13.125 L 353.511719 35.527344 L 210.898438 35.527344 Z M 210.898438 13.125 " clip-rule="nonzero"/></clipPath><clipPath id="51b03bf6fd"><path d="M 132 23 L 208 23 L 208 105 L 132 105 Z M 132 23 " clip-rule="nonzero"/></clipPath><clipPath id="71a8e043b4"><path d="M 200.222656 14.585938 L 223.980469 38.347656 L 152.703125 109.625 L 128.945312 85.867188 Z M 200.222656 14.585938 " clip-rule="nonzero"/></clipPath><clipPath id="8fb969a37b"><path d="M 200.222656 14.585938 L 223.980469 38.347656 L 152.703125 109.625 L 128.945312 85.867188 Z M 200.222656 14.585938 " clip-rule="nonzero"/></clipPath><clipPath id="354f04ee9d"><path d="M 200.222656 14.585938 L 223.980469 38.347656 L 152.703125 109.625 L 128.945312 85.867188 Z M 200.222656 14.585938 " clip-rule="nonzero"/></clipPath></defs><g clip-path="url(#3883815e78)"><path fill="#ffffff" d="M 0.828125 0 L 374.171875 0 L 374.171875 112.003906 L 0.828125 112.003906 Z M 0.828125 0 " fill-opacity="1" fill-rule="nonzero"/><path fill="#ffffff" d="M 0.828125 0 L 374.171875 0 L 374.171875 112.003906 L 0.828125 112.003906 Z M 0.828125 0 " fill-opacity="1" fill-rule="nonzero"/></g><g clip-path="url(#190b6e8b3e)"><path fill="#ffe34f" d="M 219.878906 13.125 L 344.84375 13.125 C 345.433594 13.125 346.015625 13.183594 346.59375 13.296875 C 347.167969 13.410156 347.726562 13.582031 348.269531 13.804688 C 348.8125 14.03125 349.332031 14.308594 349.820312 14.632812 C 350.308594 14.960938 350.761719 15.332031 351.175781 15.746094 C 351.589844 16.164062 351.960938 16.613281 352.289062 17.101562 C 352.617188 17.59375 352.890625 18.109375 353.117188 18.652344 C 353.339844 19.195312 353.511719 19.753906 353.625 20.332031 C 353.742188 20.90625 353.796875 21.488281 353.796875 22.078125 L 353.796875 26.257812 C 353.796875 26.847656 353.742188 27.429688 353.625 28.003906 C 353.511719 28.582031 353.339844 29.140625 353.117188 29.683594 C 352.890625 30.226562 352.617188 30.742188 352.289062 31.234375 C 351.960938 31.722656 351.589844 32.175781 351.175781 32.589844 C 350.761719 33.003906 350.308594 33.375 349.820312 33.703125 C 349.332031 34.03125 348.8125 34.304688 348.269531 34.53125 C 347.726562 34.753906 347.167969 34.925781 346.59375 35.039062 C 346.015625 35.152344 345.433594 35.210938 344.84375 35.210938 L 219.878906 35.210938 C 219.292969 35.210938 218.710938 35.152344 218.132812 35.039062 C 217.554688 34.925781 216.996094 34.753906 216.453125 34.53125 C 215.910156 34.304688 215.394531 34.03125 214.90625 33.703125 C 214.417969 33.375 213.964844 33.003906 213.550781 32.589844 C 213.132812 32.175781 212.761719 31.722656 212.4375 31.234375 C 212.109375 30.742188 211.832031 30.226562 211.609375 29.683594 C 211.382812 29.140625 211.214844 28.582031 211.097656 28.003906 C 210.984375 27.429688 210.925781 26.847656 210.925781 26.257812 L 210.925781 22.078125 C 210.925781 21.488281 210.984375 20.90625 211.097656 20.332031 C 211.214844 19.753906 211.382812 19.195312 211.609375 18.652344 C 211.832031 18.109375 212.109375 17.59375 212.4375 17.101562 C 212.761719 16.613281 213.132812 16.164062 213.550781 15.746094 C 213.964844 15.332031 214.417969 14.960938 214.90625 14.632812 C 215.394531 14.308594 215.910156 14.03125 216.453125 13.804688 C 216.996094 13.582031 217.554688 13.410156 218.132812 13.296875 C 218.710938 13.183594 219.292969 13.125 219.878906 13.125 Z M 219.878906 13.125 " fill-opacity="1" fill-rule="nonzero"/></g><g clip-path="url(#51b03bf6fd)"><g clip-path="url(#71a8e043b4)"><g clip-path="url(#8fb969a37b)"><g clip-path="url(#354f04ee9d)"><path fill="#000000" d="M 168.476562 91.167969 C 163.328125 93.996094 158.65625 97.570312 154.628906 101.824219 C 154.054688 88.945312 156.59375 75.945312 161.777344 64.132812 C 167.183594 51.8125 175.507812 40.410156 186.195312 32.140625 C 191.988281 27.660156 198.964844 23.972656 206.492188 24.664062 C 207.480469 24.753906 208.820312 23.339844 207.3125 23.203125 C 200.429688 22.570312 193.792969 25.164062 188.109375 28.890625 C 182.25 32.730469 177.078125 37.738281 172.597656 43.101562 C 163.511719 53.972656 157.15625 67.070312 154.175781 80.90625 C 152.726562 87.640625 152.117188 94.527344 152.347656 101.398438 C 147.175781 96.023438 141.152344 91.519531 134.515625 88.085938 C 134.03125 87.835938 133.359375 87.945312 132.921875 88.257812 C 132.601562 88.484375 132.265625 89.027344 132.761719 89.285156 C 140.175781 93.117188 146.796875 98.277344 152.3125 104.539062 C 152.378906 104.613281 152.460938 104.667969 152.558594 104.703125 C 152.847656 105.261719 154.265625 104.804688 154.546875 104.476562 C 158.734375 99.5625 163.753906 95.410156 169.417969 92.300781 C 170.757812 91.566406 169.539062 90.585938 168.476562 91.167969 Z M 168.476562 91.167969 " fill-opacity="1" fill-rule="nonzero"/></g></g></g></g><g fill="#000000" fill-opacity="1"><g transform="translate(229.587066, 30.143751)"><g><path d="M 8.953125 -2.625 C 8.921875 -2.28125 8.828125 -1.945312 8.671875 -1.625 C 8.515625 -1.3125 8.3125 -1.035156 8.0625 -0.796875 C 7.8125 -0.554688 7.515625 -0.363281 7.171875 -0.21875 C 6.828125 -0.0703125 6.453125 0 6.046875 0 L 3.796875 0 C 3.390625 0 3.007812 -0.0703125 2.65625 -0.21875 C 2.300781 -0.375 1.992188 -0.582031 1.734375 -0.84375 C 1.472656 -1.113281 1.265625 -1.421875 1.109375 -1.765625 C 0.960938 -2.117188 0.890625 -2.5 0.890625 -2.90625 L 0.890625 -9.84375 C 0.890625 -10.238281 0.960938 -10.613281 1.109375 -10.96875 C 1.265625 -11.332031 1.472656 -11.644531 1.734375 -11.90625 C 1.992188 -12.164062 2.300781 -12.367188 2.65625 -12.515625 C 3.007812 -12.671875 3.390625 -12.75 3.796875 -12.75 L 6.046875 -12.75 C 6.453125 -12.75 6.828125 -12.675781 7.171875 -12.53125 C 7.515625 -12.382812 7.8125 -12.191406 8.0625 -11.953125 C 8.3125 -11.710938 8.515625 -11.429688 8.671875 -11.109375 C 8.828125 -10.785156 8.921875 -10.445312 8.953125 -10.09375 L 6.703125 -9.515625 C 6.703125 -9.796875 6.601562 -10.039062 6.40625 -10.25 C 6.21875 -10.457031 5.9375 -10.5625 5.5625 -10.5625 L 4.28125 -10.5625 C 3.519531 -10.5625 3.140625 -10.179688 3.140625 -9.421875 L 3.140625 -3.328125 C 3.140625 -2.566406 3.519531 -2.1875 4.28125 -2.1875 L 5.5625 -2.1875 C 5.914062 -2.1875 6.191406 -2.273438 6.390625 -2.453125 C 6.597656 -2.640625 6.703125 -2.890625 6.703125 -3.203125 Z M 8.953125 -2.625 "/></g></g></g><g fill="#000000" fill-opacity="1"><g transform="translate(241.36679, 30.143751)"><g><path d="M 8.953125 0 L 0.890625 0 L 0.890625 -12.75 L 3.140625 -12.75 L 3.140625 -2.1875 L 8.953125 -2.1875 Z M 8.953125 0 "/></g></g></g><g fill="#000000" fill-opacity="1"><g transform="translate(253.146515, 30.143751)"><g><path d="M 3.140625 0 L 0.890625 0 L 0.890625 -12.75 L 3.140625 -12.75 Z M 3.140625 0 "/></g></g></g><g fill="#000000" fill-opacity="1"><g transform="translate(259.117549, 30.143751)"><g><path d="M 8.953125 -2.625 C 8.921875 -2.28125 8.828125 -1.945312 8.671875 -1.625 C 8.515625 -1.3125 8.3125 -1.035156 8.0625 -0.796875 C 7.8125 -0.554688 7.515625 -0.363281 7.171875 -0.21875 C 6.828125 -0.0703125 6.453125 0 6.046875 0 L 3.796875 0 C 3.390625 0 3.007812 -0.0703125 2.65625 -0.21875 C 2.300781 -0.375 1.992188 -0.582031 1.734375 -0.84375 C 1.472656 -1.113281 1.265625 -1.421875 1.109375 -1.765625 C 0.960938 -2.117188 0.890625 -2.5 0.890625 -2.90625 L 0.890625 -9.84375 C 0.890625 -10.238281 0.960938 -10.613281 1.109375 -10.96875 C 1.265625 -11.332031 1.472656 -11.644531 1.734375 -11.90625 C 1.992188 -12.164062 2.300781 -12.367188 2.65625 -12.515625 C 3.007812 -12.671875 3.390625 -12.75 3.796875 -12.75 L 6.046875 -12.75 C 6.453125 -12.75 6.828125 -12.675781 7.171875 -12.53125 C 7.515625 -12.382812 7.8125 -12.191406 8.0625 -11.953125 C 8.3125 -11.710938 8.515625 -11.429688 8.671875 -11.109375 C 8.828125 -10.785156 8.921875 -10.445312 8.953125 -10.09375 L 6.703125 -9.515625 C 6.703125 -9.796875 6.601562 -10.039062 6.40625 -10.25 C 6.21875 -10.457031 5.9375 -10.5625 5.5625 -10.5625 L 4.28125 -10.5625 C 3.519531 -10.5625 3.140625 -10.179688 3.140625 -9.421875 L 3.140625 -3.328125 C 3.140625 -2.566406 3.519531 -2.1875 4.28125 -2.1875 L 5.5625 -2.1875 C 5.914062 -2.1875 6.191406 -2.273438 6.390625 -2.453125 C 6.597656 -2.640625 6.703125 -2.890625 6.703125 -3.203125 Z M 8.953125 -2.625 "/></g></g></g><g fill="#000000" fill-opacity="1"><g transform="translate(270.897275, 30.143751)"><g><path d="M 8.953125 0 L 6.703125 0 L 6.703125 -0.46875 C 6.703125 -0.613281 6.679688 -0.765625 6.640625 -0.921875 C 6.597656 -1.078125 6.535156 -1.234375 6.453125 -1.390625 L 4.140625 -5.3125 L 3.140625 -4.03125 L 3.140625 0 L 0.890625 0 L 0.890625 -12.75 L 3.140625 -12.75 L 3.140625 -7.296875 L 6.296875 -11.21875 C 6.460938 -11.4375 6.570312 -11.613281 6.625 -11.75 C 6.675781 -11.894531 6.703125 -12.082031 6.703125 -12.3125 L 6.703125 -12.75 L 8.953125 -12.75 L 8.953125 -12.0625 C 8.953125 -11.75 8.898438 -11.445312 8.796875 -11.15625 C 8.703125 -10.875 8.523438 -10.570312 8.265625 -10.25 L 5.71875 -7.078125 L 8.515625 -2.3125 C 8.703125 -2.007812 8.820312 -1.753906 8.875 -1.546875 C 8.925781 -1.347656 8.953125 -1.117188 8.953125 -0.859375 Z M 8.953125 0 "/></g></g></g><g fill="#000000" fill-opacity="1"><g transform="translate(282.676998, 30.143751)"><g/></g></g><g fill="#000000" fill-opacity="1"><g transform="translate(289.938855, 30.143751)"><g><path d="M 8.953125 0 L 6.703125 0 L 6.703125 -5.28125 L 3.140625 -5.28125 L 3.140625 0 L 0.890625 0 L 0.890625 -12.75 L 3.140625 -12.75 L 3.140625 -7.46875 L 6.703125 -7.46875 L 6.703125 -12.75 L 8.953125 -12.75 Z M 8.953125 0 "/></g></g></g><g fill="#000000" fill-opacity="1"><g transform="translate(301.71858, 30.143751)"><g><path d="M 8.953125 0 L 0.890625 0 L 0.890625 -12.75 L 8.953125 -12.75 L 8.953125 -10.5625 L 3.140625 -10.5625 L 3.140625 -7.46875 L 7.34375 -7.46875 L 7.34375 -5.28125 L 3.140625 -5.28125 L 3.140625 -2.1875 L 8.953125 -2.1875 Z M 8.953125 0 "/></g></g></g><g fill="#000000" fill-opacity="1"><g transform="translate(313.498306, 30.143751)"><g><path d="M 8.953125 0 L 6.53125 0 L 4.59375 -5.28125 L 3.140625 -5.28125 L 3.140625 0 L 0.890625 0 L 0.890625 -12.75 L 6.046875 -12.75 C 6.453125 -12.75 6.832031 -12.671875 7.1875 -12.515625 C 7.539062 -12.367188 7.847656 -12.164062 8.109375 -11.90625 C 8.367188 -11.644531 8.570312 -11.332031 8.71875 -10.96875 C 8.875 -10.613281 8.953125 -10.238281 8.953125 -9.84375 L 8.953125 -8.203125 C 8.953125 -7.390625 8.773438 -6.738281 8.421875 -6.25 C 8.078125 -5.769531 7.597656 -5.457031 6.984375 -5.3125 Z M 6.703125 -8.609375 L 6.703125 -9.421875 C 6.703125 -9.785156 6.597656 -10.066406 6.390625 -10.265625 C 6.191406 -10.460938 5.914062 -10.5625 5.5625 -10.5625 L 3.140625 -10.5625 L 3.140625 -7.46875 L 5.5625 -7.46875 C 6.320312 -7.46875 6.703125 -7.847656 6.703125 -8.609375 Z M 6.703125 -8.609375 "/></g></g></g><g fill="#000000" fill-opacity="1"><g transform="translate(325.278026, 30.143751)"><g><path d="M 8.953125 0 L 0.890625 0 L 0.890625 -12.75 L 8.953125 -12.75 L 8.953125 -10.5625 L 3.140625 -10.5625 L 3.140625 -7.46875 L 7.34375 -7.46875 L 7.34375 -5.28125 L 3.140625 -5.28125 L 3.140625 -2.1875 L 8.953125 -2.1875 Z M 8.953125 0 "/></g></g></g></svg>