<svg xmlns="http://www.w3.org/2000/svg" width="500" zoomAndPan="magnify" viewBox="0 0 375 112.499997" height="150"
     preserveAspectRatio="xMidYMid meet" version="1.0"><defs><g/><clipPath id="9416b93235"><path d="M 17 5.289062 L 205.246094 5.289062 L 205.246094 102 L 17 102 Z M 17 5.289062 " clip-rule="nonzero"/></clipPath><clipPath id="4caa9f360b"><path d="M 12.03125 92 L 27 92 L 27 106.710938 L 12.03125 106.710938 Z M 12.03125 92 " clip-rule="nonzero"/></clipPath><clipPath id="c919e35990"><path d="M 210.898438 13.125 L 353.511719 13.125 L 353.511719 35.527344 L 210.898438 35.527344 Z M 210.898438 13.125 " clip-rule="nonzero"/></clipPath></defs><g clip-path="url(#9416b93235)"><path fill="#000000" d="M 25.507812 97.574219 C 26.078125 97.484375 26.648438 97.804688 26.859375 98.363281 C 27.097656 99 26.773438 99.707031 26.136719 99.945312 C 23.292969 101.007812 20.921875 101.660156 19.113281 101.875 C 18.4375 101.960938 17.820312 101.480469 17.738281 100.804688 C 17.660156 100.128906 18.140625 99.519531 18.816406 99.433594 C 20.441406 99.234375 22.617188 98.628906 25.273438 97.640625 C 25.351562 97.609375 25.429688 97.589844 25.507812 97.574219 Z M 38.222656 91.714844 C 38.730469 91.636719 39.253906 91.878906 39.507812 92.355469 C 39.828125 92.957031 39.597656 93.703125 38.992188 94.019531 C 36.800781 95.175781 34.675781 96.238281 32.671875 97.171875 C 32.054688 97.460938 31.320312 97.195312 31.03125 96.578125 C 30.742188 95.964844 31.007812 95.230469 31.628906 94.941406 C 33.59375 94.023438 35.683594 92.980469 37.839844 91.84375 C 37.964844 91.777344 38.09375 91.734375 38.222656 91.714844 Z M 50.359375 84.730469 C 50.832031 84.65625 51.332031 84.863281 51.601562 85.296875 C 51.960938 85.875 51.785156 86.632812 51.207031 86.992188 C 49.1875 88.246094 47.15625 89.460938 45.164062 90.609375 C 44.574219 90.949219 43.820312 90.75 43.480469 90.160156 C 43.136719 89.570312 43.339844 88.820312 43.929688 88.480469 C 45.898438 87.34375 47.90625 86.140625 49.902344 84.902344 C 50.046875 84.8125 50.203125 84.757812 50.359375 84.730469 Z M 62.023438 76.992188 C 62.472656 76.921875 62.945312 77.101562 63.226562 77.496094 C 63.621094 78.050781 63.488281 78.820312 62.933594 79.210938 C 61.03125 80.558594 59.082031 81.894531 57.128906 83.191406 C 56.558594 83.566406 55.792969 83.414062 55.417969 82.847656 C 55.039062 82.28125 55.195312 81.515625 55.761719 81.140625 C 57.691406 79.859375 59.625 78.535156 61.503906 77.203125 C 61.664062 77.089844 61.84375 77.019531 62.023438 76.992188 Z M 120.980469 63.507812 C 121.578125 63.414062 122.171875 63.773438 122.351562 64.371094 C 122.550781 65.023438 122.179688 65.707031 121.527344 65.90625 C 119.175781 66.609375 116.816406 67.101562 114.492188 67.378906 C 113.816406 67.457031 113.203125 66.976562 113.121094 66.300781 C 113.042969 65.625 113.515625 65.011719 114.203125 64.933594 C 116.386719 64.671875 118.605469 64.210938 120.820312 63.546875 C 120.871094 63.53125 120.925781 63.519531 120.980469 63.507812 Z M 73.179688 68.546875 C 73.597656 68.480469 74.042969 68.632812 74.332031 68.988281 C 74.761719 69.511719 74.679688 70.289062 74.152344 70.71875 C 72.367188 72.164062 70.5 73.628906 68.605469 75.0625 C 68.0625 75.472656 67.289062 75.367188 66.878906 74.824219 C 66.464844 74.28125 66.574219 73.507812 67.117188 73.097656 C 68.988281 71.683594 70.832031 70.238281 72.59375 68.808594 C 72.769531 68.667969 72.972656 68.582031 73.179688 68.546875 Z M 100.28125 64 C 100.441406 63.972656 100.609375 63.980469 100.777344 64.019531 C 103.007812 64.582031 105.253906 64.941406 107.453125 65.097656 C 108.132812 65.144531 108.644531 65.730469 108.597656 66.410156 C 108.550781 67.089844 107.960938 67.601562 107.28125 67.554688 C 104.9375 67.390625 102.546875 67.003906 100.175781 66.410156 C 99.515625 66.242188 99.113281 65.574219 99.277344 64.914062 C 99.402344 64.421875 99.808594 64.074219 100.28125 64 Z M 133.675781 57.769531 C 134.164062 57.691406 134.667969 57.910156 134.933594 58.359375 C 135.28125 58.945312 135.085938 59.699219 134.5 60.046875 C 132.316406 61.335938 130.257812 62.417969 128.207031 63.359375 C 127.589844 63.644531 126.859375 63.375 126.574219 62.757812 C 126.289062 62.140625 126.558594 61.410156 127.175781 61.125 C 129.148438 60.21875 131.132812 59.171875 133.246094 57.925781 C 133.382812 57.847656 133.527344 57.792969 133.675781 57.769531 Z M 145.234375 49.925781 C 145.671875 49.855469 146.136719 50.027344 146.417969 50.40625 C 146.828125 50.949219 146.714844 51.722656 146.167969 52.128906 C 144.058594 53.699219 142.191406 55.042969 140.453125 56.234375 C 139.890625 56.617188 139.125 56.476562 138.738281 55.917969 C 138.351562 55.355469 138.496094 54.589844 139.054688 54.203125 C 140.765625 53.03125 142.609375 51.707031 144.691406 50.15625 C 144.859375 50.03125 145.042969 49.957031 145.234375 49.925781 Z M 83.683594 59.308594 C 84.070312 59.246094 84.476562 59.367188 84.765625 59.667969 C 85.238281 60.160156 85.226562 60.9375 84.734375 61.410156 C 83.097656 62.984375 81.347656 64.585938 79.539062 66.175781 C 79.027344 66.625 78.246094 66.574219 77.796875 66.0625 C 77.347656 65.554688 77.398438 64.777344 77.910156 64.328125 C 79.691406 62.761719 81.410156 61.183594 83.023438 59.636719 C 83.210938 59.453125 83.441406 59.34375 83.683594 59.308594 Z M 87.796875 58.007812 C 88.136719 57.953125 88.496094 58.039062 88.78125 58.273438 C 90.527344 59.71875 92.417969 60.917969 94.394531 61.839844 C 95.011719 62.128906 95.28125 62.863281 94.992188 63.480469 C 94.703125 64.09375 93.96875 64.359375 93.351562 64.070312 C 91.179688 63.058594 89.117188 61.746094 87.207031 60.171875 C 86.679688 59.738281 86.609375 58.960938 87.042969 58.4375 C 87.242188 58.195312 87.511719 58.050781 87.796875 58.007812 Z M 156.347656 41.457031 C 156.78125 41.382812 157.238281 41.550781 157.523438 41.925781 C 157.9375 42.46875 157.832031 43.242188 157.289062 43.652344 C 155.722656 44.835938 154.144531 46.050781 152.613281 47.222656 L 151.746094 47.890625 C 151.207031 48.308594 150.429688 48.207031 150.015625 47.667969 C 149.597656 47.128906 149.699219 46.355469 150.242188 45.941406 L 151.109375 45.273438 C 152.640625 44.09375 154.222656 42.878906 155.796875 41.6875 C 155.964844 41.5625 156.152344 41.484375 156.347656 41.457031 Z M 93.1875 49.054688 C 93.519531 49.003906 93.875 49.085938 94.15625 49.3125 C 94.6875 49.738281 94.769531 50.515625 94.34375 51.042969 C 92.933594 52.789062 91.367188 54.585938 89.695312 56.382812 C 89.230469 56.878906 88.449219 56.910156 87.949219 56.445312 C 87.453125 55.980469 87.425781 55.203125 87.886719 54.703125 C 89.523438 52.949219 91.046875 51.199219 92.421875 49.5 C 92.621094 49.253906 92.894531 49.101562 93.1875 49.054688 Z M 167.765625 33.390625 C 168.234375 33.316406 168.726562 33.519531 169 33.945312 C 169.367188 34.515625 169.199219 35.277344 168.625 35.644531 C 166.808594 36.800781 164.929688 38.070312 162.886719 39.527344 C 162.332031 39.921875 161.5625 39.792969 161.164062 39.238281 C 160.769531 38.6875 160.898438 37.917969 161.453125 37.523438 C 163.53125 36.042969 165.445312 34.75 167.296875 33.570312 C 167.445312 33.476562 167.601562 33.417969 167.765625 33.390625 Z M 79.1875 47.125 C 79.699219 47.046875 80.222656 47.289062 80.476562 47.769531 C 81.558594 49.828125 82.785156 51.738281 84.125 53.453125 C 84.542969 53.988281 84.445312 54.761719 83.910156 55.179688 C 83.371094 55.597656 82.597656 55.503906 82.175781 54.964844 C 80.75 53.136719 79.441406 51.101562 78.292969 48.914062 C 77.976562 48.3125 78.207031 47.566406 78.8125 47.253906 C 78.933594 47.1875 79.058594 47.144531 79.1875 47.125 Z M 180.097656 26.851562 C 180.648438 26.765625 181.207031 27.0625 181.429688 27.597656 C 181.691406 28.226562 181.394531 28.945312 180.761719 29.207031 C 178.746094 30.039062 176.664062 31.027344 174.570312 32.148438 C 173.96875 32.472656 173.21875 32.246094 172.898438 31.648438 C 172.574219 31.046875 172.800781 30.300781 173.402344 29.980469 C 175.566406 28.820312 177.726562 27.792969 179.820312 26.929688 C 179.910156 26.894531 180.003906 26.867188 180.097656 26.851562 Z M 200.515625 22.851562 C 200.585938 22.839844 200.660156 22.832031 200.738281 22.835938 C 201.828125 22.855469 202.9375 22.917969 204.035156 23.011719 C 204.714844 23.070312 205.21875 23.667969 205.160156 24.34375 C 205.097656 25.023438 204.503906 25.523438 203.820312 25.464844 C 202.777344 25.375 201.722656 25.316406 200.683594 25.296875 C 200.003906 25.28125 199.464844 24.71875 199.476562 24.039062 C 199.492188 23.433594 199.9375 22.941406 200.515625 22.851562 Z M 192.011719 23.433594 C 192.53125 23.351562 193.058594 23.277344 193.582031 23.210938 C 194.257812 23.125 194.875 23.601562 194.960938 24.277344 C 195.046875 24.949219 194.5625 25.566406 193.890625 25.652344 C 191.671875 25.933594 189.433594 26.382812 187.21875 26.988281 C 186.5625 27.167969 185.882812 26.78125 185.703125 26.128906 C 185.523438 25.472656 185.910156 24.792969 186.566406 24.613281 C 188.375 24.121094 190.203125 23.722656 192.011719 23.433594 Z M 100.804688 37.378906 C 101.042969 37.339844 101.296875 37.375 101.53125 37.484375 C 102.144531 37.78125 102.40625 38.515625 102.109375 39.128906 C 101.148438 41.128906 99.953125 43.214844 98.554688 45.324219 C 98.179688 45.890625 97.414062 46.046875 96.84375 45.675781 C 96.277344 45.300781 96.121094 44.535156 96.496094 43.96875 C 97.832031 41.953125 98.972656 39.964844 99.886719 38.0625 C 100.066406 37.683594 100.417969 37.441406 100.804688 37.378906 Z M 74.613281 33.988281 C 75.265625 33.882812 75.890625 34.316406 76.019531 34.964844 C 76.460938 37.203125 77.058594 39.414062 77.792969 41.535156 C 78.011719 42.179688 77.671875 42.878906 77.027344 43.101562 C 76.382812 43.324219 75.679688 42.980469 75.460938 42.339844 C 74.6875 40.113281 74.0625 37.792969 73.597656 35.445312 C 73.464844 34.777344 73.898438 34.128906 74.570312 33.996094 C 74.582031 33.996094 74.597656 33.992188 74.613281 33.988281 Z M 103.808594 23.957031 C 103.839844 23.949219 103.875 23.945312 103.90625 23.941406 C 104.585938 23.886719 105.179688 24.394531 105.234375 25.070312 C 105.421875 27.375 105.207031 29.824219 104.589844 32.355469 C 104.429688 33.015625 103.761719 33.421875 103.101562 33.257812 C 102.4375 33.097656 102.03125 32.433594 102.191406 31.773438 C 102.746094 29.5 102.941406 27.3125 102.777344 25.269531 C 102.722656 24.625 103.179688 24.054688 103.808594 23.957031 Z M 73.882812 20.105469 C 73.988281 20.085938 74.097656 20.082031 74.210938 20.09375 C 74.886719 20.167969 75.375 20.773438 75.304688 21.453125 C 75.074219 23.589844 75.023438 25.867188 75.15625 28.21875 C 75.195312 28.898438 74.671875 29.480469 73.992188 29.515625 C 73.3125 29.554688 72.730469 29.035156 72.691406 28.355469 C 72.550781 25.871094 72.605469 23.460938 72.851562 21.1875 C 72.910156 20.621094 73.347656 20.1875 73.882812 20.105469 Z M 97.628906 11.8125 C 97.992188 11.753906 98.378906 11.859375 98.667969 12.128906 C 100.578125 13.914062 102.097656 15.871094 103.179688 17.945312 C 103.496094 18.546875 103.261719 19.289062 102.65625 19.605469 C 102.054688 19.917969 101.308594 19.6875 100.992188 19.082031 C 100.039062 17.257812 98.6875 15.523438 96.980469 13.925781 C 96.484375 13.460938 96.457031 12.683594 96.921875 12.1875 C 97.117188 11.980469 97.367188 11.855469 97.628906 11.8125 Z M 79.074219 7.460938 C 79.472656 7.398438 79.898438 7.53125 80.1875 7.851562 C 80.644531 8.359375 80.601562 9.136719 80.09375 9.59375 C 78.722656 10.824219 77.597656 12.625 76.746094 14.945312 C 76.511719 15.582031 75.804688 15.914062 75.164062 15.679688 C 74.523438 15.445312 74.195312 14.738281 74.429688 14.101562 C 75.417969 11.398438 76.769531 9.265625 78.445312 7.761719 C 78.628906 7.597656 78.847656 7.496094 79.074219 7.460938 Z M 85.5 5.3125 C 85.597656 5.296875 85.695312 5.292969 85.800781 5.300781 C 87.742188 5.464844 89.824219 6.160156 91.984375 7.363281 C 92.269531 7.523438 92.554688 7.683594 92.828125 7.84375 C 93.417969 8.191406 93.613281 8.945312 93.265625 9.53125 C 92.921875 10.117188 92.164062 10.3125 91.578125 9.96875 C 91.316406 9.816406 91.050781 9.664062 90.78125 9.511719 C 88.929688 8.480469 87.183594 7.890625 85.589844 7.757812 C 84.914062 7.699219 84.410156 7.101562 84.464844 6.425781 C 84.515625 5.847656 84.953125 5.402344 85.5 5.3125 " fill-opacity="1" fill-rule="nonzero"/></g><g clip-path="url(#4caa9f360b)"><path fill="#000000" d="M 12.394531 102.714844 L 20.386719 93.109375 C 21.050781 92.3125 22.355469 92.753906 22.390625 93.792969 L 22.597656 99.613281 C 22.605469 99.859375 22.691406 100.089844 22.84375 100.28125 L 26.484375 104.835938 C 27.132812 105.648438 26.433594 106.828125 25.40625 106.65625 L 13.078125 104.550781 C 12.21875 104.402344 11.839844 103.382812 12.394531 102.714844 " fill-opacity="1" fill-rule="nonzero"/></g><g clip-path="url(#c919e35990)"><path fill="#ffe34f" d="M 219.878906 13.125 L 344.84375 13.125 C 345.433594 13.125 346.015625 13.183594 346.59375 13.296875 C 347.167969 13.410156 347.726562 13.582031 348.269531 13.804688 C 348.8125 14.03125 349.332031 14.308594 349.820312 14.632812 C 350.308594 14.960938 350.761719 15.332031 351.175781 15.746094 C 351.589844 16.164062 351.960938 16.613281 352.289062 17.101562 C 352.617188 17.59375 352.890625 18.109375 353.117188 18.652344 C 353.339844 19.195312 353.511719 19.753906 353.625 20.332031 C 353.742188 20.90625 353.796875 21.488281 353.796875 22.078125 L 353.796875 26.257812 C 353.796875 26.847656 353.742188 27.429688 353.625 28.003906 C 353.511719 28.582031 353.339844 29.140625 353.117188 29.683594 C 352.890625 30.226562 352.617188 30.742188 352.289062 31.234375 C 351.960938 31.722656 351.589844 32.175781 351.175781 32.589844 C 350.761719 33.003906 350.308594 33.375 349.820312 33.703125 C 349.332031 34.03125 348.8125 34.304688 348.269531 34.53125 C 347.726562 34.753906 347.167969 34.925781 346.59375 35.039062 C 346.015625 35.152344 345.433594 35.210938 344.84375 35.210938 L 219.878906 35.210938 C 219.292969 35.210938 218.710938 35.152344 218.132812 35.039062 C 217.554688 34.925781 216.996094 34.753906 216.453125 34.53125 C 215.910156 34.304688 215.394531 34.03125 214.90625 33.703125 C 214.417969 33.375 213.964844 33.003906 213.550781 32.589844 C 213.132812 32.175781 212.761719 31.722656 212.4375 31.234375 C 212.109375 30.742188 211.832031 30.226562 211.609375 29.683594 C 211.382812 29.140625 211.214844 28.582031 211.097656 28.003906 C 210.984375 27.429688 210.925781 26.847656 210.925781 26.257812 L 210.925781 22.078125 C 210.925781 21.488281 210.984375 20.90625 211.097656 20.332031 C 211.214844 19.753906 211.382812 19.195312 211.609375 18.652344 C 211.832031 18.109375 212.109375 17.59375 212.4375 17.101562 C 212.761719 16.613281 213.132812 16.164062 213.550781 15.746094 C 213.964844 15.332031 214.417969 14.960938 214.90625 14.632812 C 215.394531 14.308594 215.910156 14.03125 216.453125 13.804688 C 216.996094 13.582031 217.554688 13.410156 218.132812 13.296875 C 218.710938 13.183594 219.292969 13.125 219.878906 13.125 Z M 219.878906 13.125 " fill-opacity="1" fill-rule="nonzero"/></g><g fill="#000000" fill-opacity="1"><g transform="translate(229.587066, 30.143751)"><g><path d="M 8.953125 -2.625 C 8.921875 -2.28125 8.828125 -1.945312 8.671875 -1.625 C 8.515625 -1.3125 8.3125 -1.035156 8.0625 -0.796875 C 7.8125 -0.554688 7.515625 -0.363281 7.171875 -0.21875 C 6.828125 -0.0703125 6.453125 0 6.046875 0 L 3.796875 0 C 3.390625 0 3.007812 -0.0703125 2.65625 -0.21875 C 2.300781 -0.375 1.992188 -0.582031 1.734375 -0.84375 C 1.472656 -1.113281 1.265625 -1.421875 1.109375 -1.765625 C 0.960938 -2.117188 0.890625 -2.5 0.890625 -2.90625 L 0.890625 -9.84375 C 0.890625 -10.238281 0.960938 -10.613281 1.109375 -10.96875 C 1.265625 -11.332031 1.472656 -11.644531 1.734375 -11.90625 C 1.992188 -12.164062 2.300781 -12.367188 2.65625 -12.515625 C 3.007812 -12.671875 3.390625 -12.75 3.796875 -12.75 L 6.046875 -12.75 C 6.453125 -12.75 6.828125 -12.675781 7.171875 -12.53125 C 7.515625 -12.382812 7.8125 -12.191406 8.0625 -11.953125 C 8.3125 -11.710938 8.515625 -11.429688 8.671875 -11.109375 C 8.828125 -10.785156 8.921875 -10.445312 8.953125 -10.09375 L 6.703125 -9.515625 C 6.703125 -9.796875 6.601562 -10.039062 6.40625 -10.25 C 6.21875 -10.457031 5.9375 -10.5625 5.5625 -10.5625 L 4.28125 -10.5625 C 3.519531 -10.5625 3.140625 -10.179688 3.140625 -9.421875 L 3.140625 -3.328125 C 3.140625 -2.566406 3.519531 -2.1875 4.28125 -2.1875 L 5.5625 -2.1875 C 5.914062 -2.1875 6.191406 -2.273438 6.390625 -2.453125 C 6.597656 -2.640625 6.703125 -2.890625 6.703125 -3.203125 Z M 8.953125 -2.625 "/></g></g></g><g fill="#000000" fill-opacity="1"><g transform="translate(241.36679, 30.143751)"><g><path d="M 8.953125 0 L 0.890625 0 L 0.890625 -12.75 L 3.140625 -12.75 L 3.140625 -2.1875 L 8.953125 -2.1875 Z M 8.953125 0 "/></g></g></g><g fill="#000000" fill-opacity="1"><g transform="translate(253.146515, 30.143751)"><g><path d="M 3.140625 0 L 0.890625 0 L 0.890625 -12.75 L 3.140625 -12.75 Z M 3.140625 0 "/></g></g></g><g fill="#000000" fill-opacity="1"><g transform="translate(259.117549, 30.143751)"><g><path d="M 8.953125 -2.625 C 8.921875 -2.28125 8.828125 -1.945312 8.671875 -1.625 C 8.515625 -1.3125 8.3125 -1.035156 8.0625 -0.796875 C 7.8125 -0.554688 7.515625 -0.363281 7.171875 -0.21875 C 6.828125 -0.0703125 6.453125 0 6.046875 0 L 3.796875 0 C 3.390625 0 3.007812 -0.0703125 2.65625 -0.21875 C 2.300781 -0.375 1.992188 -0.582031 1.734375 -0.84375 C 1.472656 -1.113281 1.265625 -1.421875 1.109375 -1.765625 C 0.960938 -2.117188 0.890625 -2.5 0.890625 -2.90625 L 0.890625 -9.84375 C 0.890625 -10.238281 0.960938 -10.613281 1.109375 -10.96875 C 1.265625 -11.332031 1.472656 -11.644531 1.734375 -11.90625 C 1.992188 -12.164062 2.300781 -12.367188 2.65625 -12.515625 C 3.007812 -12.671875 3.390625 -12.75 3.796875 -12.75 L 6.046875 -12.75 C 6.453125 -12.75 6.828125 -12.675781 7.171875 -12.53125 C 7.515625 -12.382812 7.8125 -12.191406 8.0625 -11.953125 C 8.3125 -11.710938 8.515625 -11.429688 8.671875 -11.109375 C 8.828125 -10.785156 8.921875 -10.445312 8.953125 -10.09375 L 6.703125 -9.515625 C 6.703125 -9.796875 6.601562 -10.039062 6.40625 -10.25 C 6.21875 -10.457031 5.9375 -10.5625 5.5625 -10.5625 L 4.28125 -10.5625 C 3.519531 -10.5625 3.140625 -10.179688 3.140625 -9.421875 L 3.140625 -3.328125 C 3.140625 -2.566406 3.519531 -2.1875 4.28125 -2.1875 L 5.5625 -2.1875 C 5.914062 -2.1875 6.191406 -2.273438 6.390625 -2.453125 C 6.597656 -2.640625 6.703125 -2.890625 6.703125 -3.203125 Z M 8.953125 -2.625 "/></g></g></g><g fill="#000000" fill-opacity="1"><g transform="translate(270.897275, 30.143751)"><g><path d="M 8.953125 0 L 6.703125 0 L 6.703125 -0.46875 C 6.703125 -0.613281 6.679688 -0.765625 6.640625 -0.921875 C 6.597656 -1.078125 6.535156 -1.234375 6.453125 -1.390625 L 4.140625 -5.3125 L 3.140625 -4.03125 L 3.140625 0 L 0.890625 0 L 0.890625 -12.75 L 3.140625 -12.75 L 3.140625 -7.296875 L 6.296875 -11.21875 C 6.460938 -11.4375 6.570312 -11.613281 6.625 -11.75 C 6.675781 -11.894531 6.703125 -12.082031 6.703125 -12.3125 L 6.703125 -12.75 L 8.953125 -12.75 L 8.953125 -12.0625 C 8.953125 -11.75 8.898438 -11.445312 8.796875 -11.15625 C 8.703125 -10.875 8.523438 -10.570312 8.265625 -10.25 L 5.71875 -7.078125 L 8.515625 -2.3125 C 8.703125 -2.007812 8.820312 -1.753906 8.875 -1.546875 C 8.925781 -1.347656 8.953125 -1.117188 8.953125 -0.859375 Z M 8.953125 0 "/></g></g></g><g fill="#000000" fill-opacity="1"><g transform="translate(282.676998, 30.143751)"><g/></g></g><g fill="#000000" fill-opacity="1"><g transform="translate(289.938855, 30.143751)"><g><path d="M 8.953125 0 L 6.703125 0 L 6.703125 -5.28125 L 3.140625 -5.28125 L 3.140625 0 L 0.890625 0 L 0.890625 -12.75 L 3.140625 -12.75 L 3.140625 -7.46875 L 6.703125 -7.46875 L 6.703125 -12.75 L 8.953125 -12.75 Z M 8.953125 0 "/></g></g></g><g fill="#000000" fill-opacity="1"><g transform="translate(301.71858, 30.143751)"><g><path d="M 8.953125 0 L 0.890625 0 L 0.890625 -12.75 L 8.953125 -12.75 L 8.953125 -10.5625 L 3.140625 -10.5625 L 3.140625 -7.46875 L 7.34375 -7.46875 L 7.34375 -5.28125 L 3.140625 -5.28125 L 3.140625 -2.1875 L 8.953125 -2.1875 Z M 8.953125 0 "/></g></g></g><g fill="#000000" fill-opacity="1"><g transform="translate(313.498306, 30.143751)"><g><path d="M 8.953125 0 L 6.53125 0 L 4.59375 -5.28125 L 3.140625 -5.28125 L 3.140625 0 L 0.890625 0 L 0.890625 -12.75 L 6.046875 -12.75 C 6.453125 -12.75 6.832031 -12.671875 7.1875 -12.515625 C 7.539062 -12.367188 7.847656 -12.164062 8.109375 -11.90625 C 8.367188 -11.644531 8.570312 -11.332031 8.71875 -10.96875 C 8.875 -10.613281 8.953125 -10.238281 8.953125 -9.84375 L 8.953125 -8.203125 C 8.953125 -7.390625 8.773438 -6.738281 8.421875 -6.25 C 8.078125 -5.769531 7.597656 -5.457031 6.984375 -5.3125 Z M 6.703125 -8.609375 L 6.703125 -9.421875 C 6.703125 -9.785156 6.597656 -10.066406 6.390625 -10.265625 C 6.191406 -10.460938 5.914062 -10.5625 5.5625 -10.5625 L 3.140625 -10.5625 L 3.140625 -7.46875 L 5.5625 -7.46875 C 6.320312 -7.46875 6.703125 -7.847656 6.703125 -8.609375 Z M 6.703125 -8.609375 "/></g></g></g><g fill="#000000" fill-opacity="1"><g transform="translate(325.278026, 30.143751)"><g><path d="M 8.953125 0 L 0.890625 0 L 0.890625 -12.75 L 8.953125 -12.75 L 8.953125 -10.5625 L 3.140625 -10.5625 L 3.140625 -7.46875 L 7.34375 -7.46875 L 7.34375 -5.28125 L 3.140625 -5.28125 L 3.140625 -2.1875 L 8.953125 -2.1875 Z M 8.953125 0 "/></g></g></g></svg>