<svg xmlns="http://www.w3.org/2000/svg" width="500" zoomAndPan="magnify" viewBox="0 0 375 112.499997" height="150"
     preserveAspectRatio="xMidYMid meet" version="1.0"><defs><g/><clipPath id="64658660a1"><path d="M 1 26.148438 L 178 26.148438 L 178 85.882812 L 1 85.882812 Z M 1 26.148438 " clip-rule="nonzero"/></clipPath></defs><g clip-path="url(#64658660a1)"><path fill="#000000" d="M 43.667969 82.507812 C 33.683594 79.589844 23.355469 78.210938 12.988281 78.5 C 28.394531 61.585938 47.847656 48.4375 69.136719 40.105469 C 91.332031 31.414062 116.027344 27.542969 139.765625 30.578125 C 152.628906 32.226562 165.984375 36.371094 174.539062 46.695312 C 175.664062 48.054688 179.117188 47.960938 177.402344 45.890625 C 169.574219 36.445312 158.015625 31.363281 146.234375 28.902344 C 134.089844 26.363281 121.339844 26.15625 109.015625 27.261719 C 84.027344 29.507812 59.667969 37.984375 38.617188 51.632812 C 28.367188 58.273438 18.976562 66.164062 10.664062 75.089844 C 10.917969 61.839844 9.015625 48.597656 5.007812 35.945312 C 4.710938 35.015625 3.734375 34.316406 2.792969 34.15625 C 2.109375 34.039062 1.011719 34.300781 1.308594 35.246094 C 5.792969 49.382812 7.621094 64.195312 6.6875 78.996094 C 6.675781 79.171875 6.714844 79.347656 6.785156 79.515625 C 6.449219 80.578125 8.800781 81.789062 9.558594 81.730469 C 20.957031 80.8125 32.445312 81.90625 43.429688 85.113281 C 46.03125 85.875 45.726562 83.113281 43.667969 82.507812 Z M 43.667969 82.507812 " fill-opacity="1" fill-rule="nonzero"/></g><g fill="#000000" fill-opacity="1"><g transform="translate(186.107202, 53.615276)"><g><path d="M 15.8125 -4.640625 C 15.757812 -4.035156 15.59375 -3.453125 15.3125 -2.890625 C 15.039062 -2.328125 14.679688 -1.832031 14.234375 -1.40625 C 13.785156 -0.976562 13.253906 -0.632812 12.640625 -0.375 C 12.035156 -0.125 11.382812 0 10.6875 0 L 6.703125 0 C 5.972656 0 5.300781 -0.128906 4.6875 -0.390625 C 4.070312 -0.660156 3.53125 -1.023438 3.0625 -1.484375 C 2.59375 -1.953125 2.222656 -2.492188 1.953125 -3.109375 C 1.691406 -3.734375 1.5625 -4.40625 1.5625 -5.125 L 1.5625 -17.390625 C 1.5625 -18.085938 1.691406 -18.75 1.953125 -19.375 C 2.222656 -20.007812 2.59375 -20.554688 3.0625 -21.015625 C 3.53125 -21.484375 4.070312 -21.847656 4.6875 -22.109375 C 5.300781 -22.378906 5.972656 -22.515625 6.703125 -22.515625 L 10.6875 -22.515625 C 11.382812 -22.515625 12.035156 -22.382812 12.640625 -22.125 C 13.253906 -21.875 13.785156 -21.535156 14.234375 -21.109375 C 14.679688 -20.679688 15.039062 -20.179688 15.3125 -19.609375 C 15.59375 -19.035156 15.757812 -18.4375 15.8125 -17.8125 L 11.828125 -16.8125 C 11.828125 -17.3125 11.65625 -17.738281 11.3125 -18.09375 C 10.96875 -18.457031 10.472656 -18.640625 9.828125 -18.640625 L 7.546875 -18.640625 C 6.222656 -18.640625 5.5625 -17.972656 5.5625 -16.640625 L 5.5625 -5.875 C 5.5625 -4.539062 6.222656 -3.875 7.546875 -3.875 L 9.828125 -3.875 C 10.453125 -3.875 10.941406 -4.03125 11.296875 -4.34375 C 11.648438 -4.65625 11.828125 -5.085938 11.828125 -5.640625 Z M 15.8125 -4.640625 "/></g></g></g><g fill="#000000" fill-opacity="1"><g transform="translate(206.901411, 53.615276)"><g><path d="M 15.8125 0 L 1.5625 0 L 1.5625 -22.515625 L 5.5625 -22.515625 L 5.5625 -3.875 L 15.8125 -3.875 Z M 15.8125 0 "/></g></g></g><g fill="#000000" fill-opacity="1"><g transform="translate(227.69562, 53.615276)"><g><path d="M 5.5625 0 L 1.5625 0 L 1.5625 -22.515625 L 5.5625 -22.515625 Z M 5.5625 0 "/></g></g></g><g fill="#000000" fill-opacity="1"><g transform="translate(238.236013, 53.615276)"><g><path d="M 15.8125 -4.640625 C 15.757812 -4.035156 15.59375 -3.453125 15.3125 -2.890625 C 15.039062 -2.328125 14.679688 -1.832031 14.234375 -1.40625 C 13.785156 -0.976562 13.253906 -0.632812 12.640625 -0.375 C 12.035156 -0.125 11.382812 0 10.6875 0 L 6.703125 0 C 5.972656 0 5.300781 -0.128906 4.6875 -0.390625 C 4.070312 -0.660156 3.53125 -1.023438 3.0625 -1.484375 C 2.59375 -1.953125 2.222656 -2.492188 1.953125 -3.109375 C 1.691406 -3.734375 1.5625 -4.40625 1.5625 -5.125 L 1.5625 -17.390625 C 1.5625 -18.085938 1.691406 -18.75 1.953125 -19.375 C 2.222656 -20.007812 2.59375 -20.554688 3.0625 -21.015625 C 3.53125 -21.484375 4.070312 -21.847656 4.6875 -22.109375 C 5.300781 -22.378906 5.972656 -22.515625 6.703125 -22.515625 L 10.6875 -22.515625 C 11.382812 -22.515625 12.035156 -22.382812 12.640625 -22.125 C 13.253906 -21.875 13.785156 -21.535156 14.234375 -21.109375 C 14.679688 -20.679688 15.039062 -20.179688 15.3125 -19.609375 C 15.59375 -19.035156 15.757812 -18.4375 15.8125 -17.8125 L 11.828125 -16.8125 C 11.828125 -17.3125 11.65625 -17.738281 11.3125 -18.09375 C 10.96875 -18.457031 10.472656 -18.640625 9.828125 -18.640625 L 7.546875 -18.640625 C 6.222656 -18.640625 5.5625 -17.972656 5.5625 -16.640625 L 5.5625 -5.875 C 5.5625 -4.539062 6.222656 -3.875 7.546875 -3.875 L 9.828125 -3.875 C 10.453125 -3.875 10.941406 -4.03125 11.296875 -4.34375 C 11.648438 -4.65625 11.828125 -5.085938 11.828125 -5.640625 Z M 15.8125 -4.640625 "/></g></g></g><g fill="#000000" fill-opacity="1"><g transform="translate(259.030223, 53.615276)"><g><path d="M 15.8125 0 L 11.828125 0 L 11.828125 -0.828125 C 11.828125 -1.085938 11.789062 -1.351562 11.71875 -1.625 C 11.65625 -1.90625 11.550781 -2.179688 11.40625 -2.453125 L 7.328125 -9.375 L 5.5625 -7.125 L 5.5625 0 L 1.5625 0 L 1.5625 -22.515625 L 5.5625 -22.515625 L 5.5625 -12.875 L 11.109375 -19.8125 C 11.421875 -20.1875 11.617188 -20.5 11.703125 -20.75 C 11.785156 -21.007812 11.828125 -21.34375 11.828125 -21.75 L 11.828125 -22.515625 L 15.8125 -22.515625 L 15.8125 -21.296875 C 15.8125 -20.742188 15.722656 -20.210938 15.546875 -19.703125 C 15.367188 -19.203125 15.050781 -18.664062 14.59375 -18.09375 L 10.09375 -12.515625 L 15.046875 -4.078125 C 15.367188 -3.546875 15.578125 -3.097656 15.671875 -2.734375 C 15.765625 -2.367188 15.8125 -1.960938 15.8125 -1.515625 Z M 15.8125 0 "/></g></g></g><g fill="#000000" fill-opacity="1"><g transform="translate(279.824428, 53.615276)"><g/></g></g><g fill="#000000" fill-opacity="1"><g transform="translate(292.643452, 53.615276)"><g><path d="M 15.8125 0 L 11.828125 0 L 11.828125 -9.3125 L 5.5625 -9.3125 L 5.5625 0 L 1.5625 0 L 1.5625 -22.515625 L 5.5625 -22.515625 L 5.5625 -13.203125 L 11.828125 -13.203125 L 11.828125 -22.515625 L 15.8125 -22.515625 Z M 15.8125 0 "/></g></g></g><g fill="#000000" fill-opacity="1"><g transform="translate(313.437662, 53.615276)"><g><path d="M 15.8125 0 L 1.5625 0 L 1.5625 -22.515625 L 15.8125 -22.515625 L 15.8125 -18.640625 L 5.5625 -18.640625 L 5.5625 -13.203125 L 12.96875 -13.203125 L 12.96875 -9.3125 L 5.5625 -9.3125 L 5.5625 -3.875 L 15.8125 -3.875 Z M 15.8125 0 "/></g></g></g><g fill="#000000" fill-opacity="1"><g transform="translate(334.231872, 53.615276)"><g><path d="M 15.8125 0 L 11.546875 0 L 8.125 -9.3125 L 5.5625 -9.3125 L 5.5625 0 L 1.5625 0 L 1.5625 -22.515625 L 10.6875 -22.515625 C 11.382812 -22.515625 12.046875 -22.378906 12.671875 -22.109375 C 13.304688 -21.847656 13.851562 -21.484375 14.3125 -21.015625 C 14.78125 -20.554688 15.144531 -20.007812 15.40625 -19.375 C 15.675781 -18.75 15.8125 -18.085938 15.8125 -17.390625 L 15.8125 -14.484375 C 15.8125 -13.054688 15.503906 -11.914062 14.890625 -11.0625 C 14.273438 -10.207031 13.425781 -9.644531 12.34375 -9.375 Z M 11.828125 -15.1875 L 11.828125 -16.640625 C 11.828125 -17.285156 11.648438 -17.78125 11.296875 -18.125 C 10.941406 -18.46875 10.453125 -18.640625 9.828125 -18.640625 L 5.5625 -18.640625 L 5.5625 -13.203125 L 9.828125 -13.203125 C 11.160156 -13.203125 11.828125 -13.863281 11.828125 -15.1875 Z M 11.828125 -15.1875 "/></g></g></g><g fill="#000000" fill-opacity="1"><g transform="translate(355.026073, 53.615276)"><g><path d="M 15.8125 0 L 1.5625 0 L 1.5625 -22.515625 L 15.8125 -22.515625 L 15.8125 -18.640625 L 5.5625 -18.640625 L 5.5625 -13.203125 L 12.96875 -13.203125 L 12.96875 -9.3125 L 5.5625 -9.3125 L 5.5625 -3.875 L 15.8125 -3.875 Z M 15.8125 0 "/></g></g></g></svg>