<?xml version="1.0" standalone="no"?>
<!DOCTYPE svg PUBLIC "-//W3C//DTD SVG 20010904//EN"
 "http://www.w3.org/TR/2001/REC-SVG-20010904/DTD/svg10.dtd">
<svg version="1.0" xmlns="http://www.w3.org/2000/svg"
 width="512.000000pt" height="512.000000pt" viewBox="0 0 512.000000 512.000000"
 preserveAspectRatio="xMidYMid meet">
<metadata>
Created by potrace 1.14, written by Peter Selinger 2001-2017
</metadata>
<g transform="translate(0.000000,512.000000) scale(0.100000,-0.100000)"
fill="#000000" stroke="none">
<path d="M2430 4209 c-374 -24 -737 -186 -1019 -453 -67 -63 -189 -212 -247
-301 -194 -299 -287 -668 -256 -1022 15 -170 32 -254 82 -404 123 -370 383
-695 716 -894 684 -409 1567 -274 2092 319 211 240 347 523 404 846 19 111 16
410 -6 535 -96 535 -432 983 -913 1216 -259 126 -545 179 -853 158z m1197
-881 l133 -133 -772 -772 -773 -773 -427 427 -428 428 137 137 138 138 292
-292 293 -293 633 633 c347 347 634 632 637 632 3 0 64 -60 137 -132z"/>
</g>
</svg>
